M48
;DRILL file {KiCad (5.0.2)-1} date 14/03/2019 17:23:26
;FORMAT={-:-/ absolute / inch / decimal}
FMAT,2
INCH,TZ
T1C0.0157
T2C0.0197
T3C0.0394
T4C0.0400
T5C0.1260
%
G90
G05
T1
X3.8976Y-3.3858
X4.0157Y-3.3858
X4.1929Y-2.0945
X4.2126Y-3.3858
X4.2717Y-2.0945
X4.3307Y-3.3858
X4.3386Y-2.0945
X4.4094Y-3.5354
X4.4488Y-3.3858
X4.4724Y-3.5354
X4.5433Y-3.1732
X4.5433Y-3.5354
X4.6437Y-2.9666
X4.6437Y-3.0079
X4.6437Y-3.0472
X4.6614Y-3.2677
X4.6929Y-3.2677
X4.7244Y-3.2677
X4.811Y-3.2677
X4.8346Y-3.2913
X4.8583Y-3.315
X4.8622Y-2.2244
X4.9685Y-3.8189
X4.9685Y-3.874
X4.9685Y-3.9213
X4.9685Y-3.9685
X4.9685Y-4.0157
X4.9803Y-2.2244
X4.9803Y-2.3622
X4.9803Y-2.4606
X4.9803Y-2.5591
X4.9803Y-2.6575
X4.9803Y-2.7559
X5.Y-2.8346
X5.0984Y-2.2244
X5.1201Y-2.8742
X5.1201Y-2.9843
X5.1575Y-3.0709
X5.2362Y-3.1496
T2
X4.2913Y-4.5276
X4.2913Y-4.3504
X3.5827Y-3.6024
X5.Y-4.3504
X4.5276Y-4.3504
X3.5827Y-3.4843
X4.4094Y-4.5276
X4.8819Y-4.3504
X3.5827Y-2.8937
X4.3504Y-4.4685
X4.4094Y-4.3504
X3.5827Y-2.4213
X4.3504Y-3.622
X4.7835Y-5.1378
X4.2323Y-3.622
X4.7638Y-4.3504
X4.5079Y-2.9528
X5.4724Y-4.1535
X3.5827Y-2.126
X3.9173Y-3.622
X5.4724Y-4.3898
X3.937Y-2.8937
X4.0354Y-3.6811
X3.937Y-2.9528
X4.5472Y-1.4764
X4.6654Y-1.5354
X5.4724Y-4.7441
X4.1339Y-1.4764
X5.0787Y-5.1969
X3.5827Y-4.6654
X5.4724Y-2.2047
X3.9567Y-1.5354
X4.0157Y-5.1969
X3.5827Y-4.7835
X4.0748Y-1.5354
X4.9016Y-5.1969
X5.4724Y-3.1496
X4.3898Y-2.8346
X5.0197Y-1.5354
X5.4724Y-2.6772
X4.3307Y-2.8937
X5.0591Y-4.4685
X5.4724Y-3.2087
X3.5827Y-4.0748
X4.8819Y-4.4685
X4.1929Y-5.1378
X3.5827Y-4.1929
X4.9409Y-4.4685
X4.6063Y-5.1378
X4.4094Y-4.4094
X5.0197Y-5.1378
X3.5827Y-2.2441
X4.5276Y-3.622
X4.4094Y-4.4685
X3.9567Y-5.1969
X3.5827Y-2.9528
X4.4488Y-3.0118
X4.7244Y-5.1378
X4.5276Y-3.6811
X4.7638Y-4.5276
X5.4724Y-4.5079
X3.9961Y-3.0118
X4.3504Y-3.6811
X5.4724Y-4.3307
X3.9961Y-2.8937
X4.3898Y-3.0118
X4.0551Y-2.9528
X4.0157Y-1.5354
X4.5472Y-5.1969
X5.4724Y-5.0984
X4.4291Y-1.4764
X5.0787Y-1.5354
X3.5827Y-4.3701
X5.4724Y-2.1457
X4.7835Y-1.4764
X5.0197Y-5.1969
X3.5827Y-4.8425
X3.937Y-2.8346
X5.1378Y-1.5354
X5.4724Y-2.7953
X4.3898Y-2.8937
X4.8228Y-4.4685
X4.4882Y-1.5354
X5.4724Y-3.563
X4.2717Y-2.8346
X4.4685Y-4.4094
X5.4724Y-2.9134
X3.5827Y-3.8386
X5.Y-4.4685
X3.9567Y-5.1378
X3.5827Y-4.252
X4.5276Y-4.4094
X4.0748Y-5.1378
X3.5827Y-2.7756
X4.5866Y-4.4094
X4.4882Y-5.1378
X3.5827Y-3.0118
X4.5866Y-3.6811
X4.6457Y-4.4685
X3.8976Y-5.1969
X3.5827Y-3.0709
X4.9409Y-4.5276
X4.5472Y-5.1378
X4.7047Y-4.5276
X5.4724Y-4.0945
X4.4094Y-3.622
X5.4724Y-4.2717
X3.5827Y-1.7717
X4.5866Y-3.622
X5.4724Y-3.7992
X4.0551Y-2.8937
X3.937Y-3.0118
X5.4724Y-2.5
X4.6063Y-1.4764
X4.311Y-5.1969
X5.4724Y-5.0394
X5.4724Y-2.3228
X4.1929Y-1.4764
X5.1378Y-5.1969
X3.5827Y-4.4291
X5.4724Y-2.0866
X4.7244Y-1.4764
X4.6063Y-5.1969
X5.4724Y-4.8031
X4.3898Y-2.9528
X4.1929Y-5.1969
X5.4724Y-3.0315
X4.2717Y-2.8937
X4.5866Y-4.5276
X4.9016Y-1.5354
X5.4724Y-3.5039
X4.3307Y-2.8346
X4.5866Y-4.4685
X3.5827Y-4.1339
X4.3504Y-4.5276
X3.8976Y-5.1378
X3.5827Y-4.311
X5.0591Y-4.3504
X4.7047Y-4.3504
X3.5827Y-3.189
X4.6457Y-4.4094
X4.4685Y-4.3504
X3.5827Y-3.248
X4.2913Y-3.622
X5.1378Y-5.1378
X3.5827Y-2.4803
X5.Y-4.5276
X4.4291Y-5.1378
X4.4685Y-3.6811
X5.4724Y-4.0354
X4.8228Y-4.5276
X5.4724Y-3.9173
X3.5827Y-1.8898
X4.3307Y-3.0118
X5.4724Y-3.7402
X3.5827Y-1.8307
X4.8425Y-1.4764
X5.4724Y-2.4409
X4.311Y-1.4764
X4.7835Y-1.5354
X5.4724Y-4.9213
X4.6654Y-1.4764
X4.4291Y-5.1969
X3.5827Y-4.4882
X3.6417Y-3.6614
X4.9606Y-1.4764
X4.252Y-1.5354
X4.4488Y-2.9528
X4.311Y-1.5354
X5.4724Y-2.9724
X3.9961Y-2.8346
X4.5276Y-4.4685
X3.8976Y-1.4764
X4.252Y-5.1969
X5.4724Y-2.7362
X3.5827Y-3.5433
X4.3307Y-2.9528
X4.7638Y-4.4094
X3.5827Y-3.3661
X4.2913Y-4.4094
X4.9409Y-4.3504
X3.5827Y-3.8976
X4.3504Y-4.4094
X4.8425Y-5.1378
X3.5827Y-2.5394
X5.Y-4.4094
X4.5866Y-4.3504
X3.5827Y-2.3031
X4.5669Y-3.0118
X5.0787Y-5.1378
X3.5827Y-2.5984
X3.9764Y-3.622
X4.6457Y-4.3504
X4.2323Y-3.6811
X5.4724Y-3.9764
X4.8819Y-4.5276
X5.4724Y-3.622
X3.5827Y-2.0079
X4.0354Y-3.622
X5.4724Y-3.6811
X3.9961Y-2.9528
X4.1339Y-1.5354
X5.0197Y-1.4764
X4.7244Y-5.1969
X5.4724Y-4.9803
X5.4724Y-2.2638
X4.252Y-1.4764
X4.7244Y-1.5354
X3.5827Y-4.7244
X4.5472Y-1.5354
X4.5669Y-2.8346
X5.1378Y-1.4764
X4.9606Y-1.5354
X5.4724Y-3.3268
X4.4488Y-2.8346
X4.7047Y-4.4685
X4.1929Y-1.5354
X4.6063Y-1.5354
X5.4724Y-3.4449
X3.5827Y-3.6614
X4.2717Y-2.9528
X4.4685Y-4.4685
X3.5827Y-3.4252
X4.2913Y-4.4685
X4.3504Y-4.3504
X3.5827Y-3.7795
X4.9409Y-4.4094
X4.6654Y-5.1378
X3.5827Y-2.7165
X4.8228Y-4.4094
X4.3701Y-5.1378
X3.5827Y-2.3622
X3.9173Y-3.6811
X4.9606Y-5.1378
X3.5827Y-3.1299
X3.9764Y-3.6811
X4.311Y-5.1378
X4.4685Y-3.622
X5.4724Y-3.8583
X5.0591Y-4.5276
X5.4724Y-4.4488
X4.0551Y-2.8346
X4.5079Y-3.0118
X5.4724Y-4.2126
X4.0551Y-3.0118
X3.9567Y-1.4764
X4.7835Y-5.1969
X5.4724Y-2.3819
X4.0748Y-1.4764
X4.4882Y-5.1969
X5.4724Y-4.8622
X4.4882Y-1.4764
X4.9606Y-5.1969
X3.5827Y-4.6063
X4.8425Y-1.5354
X5.4724Y-2.8543
X4.5079Y-2.8346
X4.9016Y-1.4764
X4.3701Y-1.5354
X5.4724Y-2.5591
X4.5669Y-2.8937
X4.7047Y-4.4094
X4.8425Y-5.1969
X5.4724Y-3.2677
X3.5827Y-3.7205
X4.4685Y-4.5276
X3.5827Y-3.9567
X4.5276Y-4.5276
X4.1339Y-5.1378
X3.5827Y-3.3071
X4.7638Y-4.4685
X4.252Y-5.1378
X3.5827Y-2.8346
X4.8819Y-4.4094
X4.8228Y-4.3504
X3.5827Y-2.6575
X4.2913Y-3.6811
X4.9016Y-5.1378
X4.6457Y-4.5276
X4.0157Y-5.1378
X4.2717Y-3.0118
X5.4724Y-4.626
X3.5827Y-1.9488
X4.4094Y-3.6811
X5.4724Y-4.5669
X3.5827Y-2.0669
X4.5669Y-2.9528
X3.5827Y-2.185
X4.0157Y-1.4764
X4.1339Y-5.1969
X3.5827Y-4.9016
X5.4724Y-1.9685
X5.0787Y-1.4764
X4.0748Y-5.1969
X5.4724Y-4.685
X5.4724Y-2.0276
X3.8976Y-1.5354
X4.3701Y-5.1969
X3.5827Y-4.5472
X4.6654Y-5.1969
X5.4724Y-3.3858
X4.5079Y-2.8937
X4.3701Y-1.4764
X4.4291Y-1.5354
X5.4724Y-3.0906
X4.4488Y-2.8937
X5.0591Y-4.4094
X5.4724Y-2.6181
X3.5827Y-4.0157
T3
X5.0417Y-3.2094
X5.0417Y-3.3094
X5.0417Y-3.4094
X5.1417Y-3.2094
X5.1417Y-3.3094
X5.1417Y-3.4094
X5.3583Y-4.5768
X5.3583Y-4.6768
X5.3839Y-2.0177
X5.3839Y-2.1177
T4
X3.7432Y-3.2358
X3.7432Y-3.3358
X3.7432Y-3.4358
X3.7432Y-3.5358
X5.3543Y-2.3059
X5.3543Y-2.4059
X5.3543Y-2.5059
X5.3543Y-2.6059
X5.3543Y-2.7059
X5.3543Y-2.8059
X5.3543Y-2.9059
X5.3543Y-3.0059
X5.3543Y-3.1059
X5.3543Y-3.2059
X5.3583Y-3.4882
X5.3583Y-3.5882
X5.3583Y-3.6882
X5.3583Y-3.7882
X5.3583Y-3.8882
X5.3583Y-3.9882
X5.3583Y-4.0882
X5.3583Y-4.1882
X5.3583Y-4.2882
X5.3583Y-4.3882
X3.7432Y-2.1591
X3.7432Y-2.2591
X3.7432Y-2.3591
X3.7432Y-2.4591
X3.7432Y-2.5591
X3.7432Y-2.6591
X3.7432Y-2.7591
X3.7432Y-2.8591
X3.7432Y-2.9591
X3.7432Y-3.7339
X3.7432Y-3.8339
X3.7432Y-3.9339
X3.7432Y-4.0339
X3.7432Y-4.1339
X3.7432Y-4.2339
X3.7432Y-4.3339
X3.7432Y-4.4339
X3.7432Y-4.5339
X3.7432Y-1.9185
X3.7432Y-2.0185
T5
X5.315Y-1.5748
X3.7402Y-1.5748
X3.7402Y-5.1181
X5.315Y-5.1181
T0
M30
