G04 #@! TF.GenerationSoftware,KiCad,Pcbnew,(5.0.2)-1*
G04 #@! TF.CreationDate,2019-03-14T17:23:15+01:00*
G04 #@! TF.ProjectId,Alexi2c,416c6578-6932-4632-9e6b-696361645f70,rev?*
G04 #@! TF.SameCoordinates,Original*
G04 #@! TF.FileFunction,Soldermask,Top*
G04 #@! TF.FilePolarity,Negative*
%FSLAX46Y46*%
G04 Gerber Fmt 4.6, Leading zero omitted, Abs format (unit mm)*
G04 Created by KiCad (PCBNEW (5.0.2)-1) date 14/03/2019 17:23:15*
%MOMM*%
%LPD*%
G01*
G04 APERTURE LIST*
%ADD10C,0.150000*%
%ADD11C,0.100000*%
G04 APERTURE END LIST*
D10*
X90000000Y-135000000D02*
X90000000Y-35000000D01*
X140000000Y-135000000D02*
X90000000Y-135000000D01*
X140000000Y-35000000D02*
X140000000Y-135000000D01*
X90000000Y-35000000D02*
X140000000Y-35000000D01*
D11*
G36*
X140000000Y-135000000D02*
X90000000Y-135000000D01*
X90000000Y-43075000D01*
X95000000Y-43075000D01*
X95000000Y-47643000D01*
X95002402Y-47667386D01*
X95009515Y-47690835D01*
X95021066Y-47712446D01*
X95036612Y-47731388D01*
X95055554Y-47746934D01*
X95077165Y-47758485D01*
X95100614Y-47765598D01*
X95125000Y-47768000D01*
X96374750Y-47768000D01*
X96374750Y-49692000D01*
X95125000Y-49692000D01*
X95100614Y-49694402D01*
X95077165Y-49701515D01*
X95055554Y-49713066D01*
X95036612Y-49728612D01*
X95021066Y-49747554D01*
X95009515Y-49769165D01*
X95002402Y-49792614D01*
X95000000Y-49817000D01*
X95000000Y-50183000D01*
X95002402Y-50207386D01*
X95009515Y-50230835D01*
X95021066Y-50252446D01*
X95036612Y-50271388D01*
X95055554Y-50286934D01*
X95077165Y-50298485D01*
X95100614Y-50305598D01*
X95125000Y-50308000D01*
X95460007Y-50308000D01*
X95601336Y-50321919D01*
X95782670Y-50376927D01*
X95949797Y-50466258D01*
X96096278Y-50586472D01*
X96216492Y-50732953D01*
X96305823Y-50900080D01*
X96360831Y-51081414D01*
X96379404Y-51270000D01*
X96360831Y-51458586D01*
X96305823Y-51639920D01*
X96216492Y-51807047D01*
X96096278Y-51953528D01*
X95949797Y-52073742D01*
X95782670Y-52163073D01*
X95601336Y-52218081D01*
X95460007Y-52232000D01*
X95125000Y-52232000D01*
X95100614Y-52234402D01*
X95077165Y-52241515D01*
X95055554Y-52253066D01*
X95036612Y-52268612D01*
X95021066Y-52287554D01*
X95009515Y-52309165D01*
X95002402Y-52332614D01*
X95000000Y-52357000D01*
X95000000Y-53753000D01*
X95002402Y-53777386D01*
X95009515Y-53800835D01*
X95021066Y-53822446D01*
X95036612Y-53841388D01*
X95055554Y-53856934D01*
X95077165Y-53868485D01*
X95100614Y-53875598D01*
X95125000Y-53878000D01*
X96374750Y-53878000D01*
X96374750Y-55802000D01*
X95125000Y-55802000D01*
X95100614Y-55804402D01*
X95077165Y-55811515D01*
X95055554Y-55823066D01*
X95036612Y-55838612D01*
X95021066Y-55857554D01*
X95009515Y-55879165D01*
X95002402Y-55902614D01*
X95000000Y-55927000D01*
X95000000Y-56293000D01*
X95002402Y-56317386D01*
X95009515Y-56340835D01*
X95021066Y-56362446D01*
X95036612Y-56381388D01*
X95055554Y-56396934D01*
X95077165Y-56408485D01*
X95100614Y-56415598D01*
X95125000Y-56418000D01*
X95460007Y-56418000D01*
X95601336Y-56431919D01*
X95782670Y-56486927D01*
X95949797Y-56576258D01*
X96096278Y-56696472D01*
X96216492Y-56842953D01*
X96305823Y-57010080D01*
X96360831Y-57191414D01*
X96379404Y-57380000D01*
X96360831Y-57568586D01*
X96305823Y-57749920D01*
X96216492Y-57917047D01*
X96096278Y-58063528D01*
X95949797Y-58183742D01*
X95782670Y-58273073D01*
X95601336Y-58328081D01*
X95460007Y-58342000D01*
X95125000Y-58342000D01*
X95100614Y-58344402D01*
X95077165Y-58351515D01*
X95055554Y-58363066D01*
X95036612Y-58378612D01*
X95021066Y-58397554D01*
X95009515Y-58419165D01*
X95002402Y-58442614D01*
X95000000Y-58467000D01*
X95000000Y-58833000D01*
X95002402Y-58857386D01*
X95009515Y-58880835D01*
X95021066Y-58902446D01*
X95036612Y-58921388D01*
X95055554Y-58936934D01*
X95077165Y-58948485D01*
X95100614Y-58955598D01*
X95125000Y-58958000D01*
X95460007Y-58958000D01*
X95601336Y-58971919D01*
X95782670Y-59026927D01*
X95949797Y-59116258D01*
X96096278Y-59236472D01*
X96216492Y-59382953D01*
X96305823Y-59550080D01*
X96360831Y-59731414D01*
X96379404Y-59920000D01*
X96360831Y-60108586D01*
X96305823Y-60289920D01*
X96216492Y-60457047D01*
X96096278Y-60603528D01*
X95949797Y-60723742D01*
X95782670Y-60813073D01*
X95601336Y-60868081D01*
X95460007Y-60882000D01*
X95125000Y-60882000D01*
X95100614Y-60884402D01*
X95077165Y-60891515D01*
X95055554Y-60903066D01*
X95036612Y-60918612D01*
X95021066Y-60937554D01*
X95009515Y-60959165D01*
X95002402Y-60982614D01*
X95000000Y-61007000D01*
X95000000Y-61373000D01*
X95002402Y-61397386D01*
X95009515Y-61420835D01*
X95021066Y-61442446D01*
X95036612Y-61461388D01*
X95055554Y-61476934D01*
X95077165Y-61488485D01*
X95100614Y-61495598D01*
X95125000Y-61498000D01*
X95460007Y-61498000D01*
X95601336Y-61511919D01*
X95782670Y-61566927D01*
X95949797Y-61656258D01*
X96096278Y-61776472D01*
X96216492Y-61922953D01*
X96305823Y-62090080D01*
X96360831Y-62271414D01*
X96379404Y-62460000D01*
X96360831Y-62648586D01*
X96305823Y-62829920D01*
X96216492Y-62997047D01*
X96096278Y-63143528D01*
X95949797Y-63263742D01*
X95782670Y-63353073D01*
X95601336Y-63408081D01*
X95460007Y-63422000D01*
X95125000Y-63422000D01*
X95100614Y-63424402D01*
X95077165Y-63431515D01*
X95055554Y-63443066D01*
X95036612Y-63458612D01*
X95021066Y-63477554D01*
X95009515Y-63499165D01*
X95002402Y-63522614D01*
X95000000Y-63547000D01*
X95000000Y-63913000D01*
X95002402Y-63937386D01*
X95009515Y-63960835D01*
X95021066Y-63982446D01*
X95036612Y-64001388D01*
X95055554Y-64016934D01*
X95077165Y-64028485D01*
X95100614Y-64035598D01*
X95125000Y-64038000D01*
X95460007Y-64038000D01*
X95601336Y-64051919D01*
X95782670Y-64106927D01*
X95949797Y-64196258D01*
X96096278Y-64316472D01*
X96216492Y-64462953D01*
X96305823Y-64630080D01*
X96360831Y-64811414D01*
X96379404Y-65000000D01*
X96360831Y-65188586D01*
X96305823Y-65369920D01*
X96216492Y-65537047D01*
X96096278Y-65683528D01*
X95949797Y-65803742D01*
X95782670Y-65893073D01*
X95601336Y-65948081D01*
X95460007Y-65962000D01*
X95125000Y-65962000D01*
X95100614Y-65964402D01*
X95077165Y-65971515D01*
X95055554Y-65983066D01*
X95036612Y-65998612D01*
X95021066Y-66017554D01*
X95009515Y-66039165D01*
X95002402Y-66062614D01*
X95000000Y-66087000D01*
X95000000Y-66453000D01*
X95002402Y-66477386D01*
X95009515Y-66500835D01*
X95021066Y-66522446D01*
X95036612Y-66541388D01*
X95055554Y-66556934D01*
X95077165Y-66568485D01*
X95100614Y-66575598D01*
X95125000Y-66578000D01*
X95460007Y-66578000D01*
X95601336Y-66591919D01*
X95782670Y-66646927D01*
X95949797Y-66736258D01*
X96096278Y-66856472D01*
X96216492Y-67002953D01*
X96305823Y-67170080D01*
X96360831Y-67351414D01*
X96379404Y-67540000D01*
X96360831Y-67728586D01*
X96305823Y-67909920D01*
X96216492Y-68077047D01*
X96096278Y-68223528D01*
X95949797Y-68343742D01*
X95782670Y-68433073D01*
X95601336Y-68488081D01*
X95460007Y-68502000D01*
X95125000Y-68502000D01*
X95100614Y-68504402D01*
X95077165Y-68511515D01*
X95055554Y-68523066D01*
X95036612Y-68538612D01*
X95021066Y-68557554D01*
X95009515Y-68579165D01*
X95002402Y-68602614D01*
X95000000Y-68627000D01*
X95000000Y-68993000D01*
X95002402Y-69017386D01*
X95009515Y-69040835D01*
X95021066Y-69062446D01*
X95036612Y-69081388D01*
X95055554Y-69096934D01*
X95077165Y-69108485D01*
X95100614Y-69115598D01*
X95125000Y-69118000D01*
X95460007Y-69118000D01*
X95601336Y-69131919D01*
X95782670Y-69186927D01*
X95949797Y-69276258D01*
X96096278Y-69396472D01*
X96216492Y-69542953D01*
X96305823Y-69710080D01*
X96360831Y-69891414D01*
X96379404Y-70080000D01*
X96360831Y-70268586D01*
X96305823Y-70449920D01*
X96216492Y-70617047D01*
X96096278Y-70763528D01*
X95949797Y-70883742D01*
X95782670Y-70973073D01*
X95601336Y-71028081D01*
X95460007Y-71042000D01*
X95125000Y-71042000D01*
X95100614Y-71044402D01*
X95077165Y-71051515D01*
X95055554Y-71063066D01*
X95036612Y-71078612D01*
X95021066Y-71097554D01*
X95009515Y-71119165D01*
X95002402Y-71142614D01*
X95000000Y-71167000D01*
X95000000Y-71533000D01*
X95002402Y-71557386D01*
X95009515Y-71580835D01*
X95021066Y-71602446D01*
X95036612Y-71621388D01*
X95055554Y-71636934D01*
X95077165Y-71648485D01*
X95100614Y-71655598D01*
X95125000Y-71658000D01*
X95460007Y-71658000D01*
X95601336Y-71671919D01*
X95782670Y-71726927D01*
X95949797Y-71816258D01*
X96096278Y-71936472D01*
X96216492Y-72082953D01*
X96305823Y-72250080D01*
X96360831Y-72431414D01*
X96379404Y-72620000D01*
X96360831Y-72808586D01*
X96305823Y-72989920D01*
X96216492Y-73157047D01*
X96096278Y-73303528D01*
X95949797Y-73423742D01*
X95782670Y-73513073D01*
X95601336Y-73568081D01*
X95460007Y-73582000D01*
X95125000Y-73582000D01*
X95100614Y-73584402D01*
X95077165Y-73591515D01*
X95055554Y-73603066D01*
X95036612Y-73618612D01*
X95021066Y-73637554D01*
X95009515Y-73659165D01*
X95002402Y-73682614D01*
X95000000Y-73707000D01*
X95000000Y-74073000D01*
X95002402Y-74097386D01*
X95009515Y-74120835D01*
X95021066Y-74142446D01*
X95036612Y-74161388D01*
X95055554Y-74176934D01*
X95077165Y-74188485D01*
X95100614Y-74195598D01*
X95125000Y-74198000D01*
X95460007Y-74198000D01*
X95601336Y-74211919D01*
X95782670Y-74266927D01*
X95949797Y-74356258D01*
X96096278Y-74476472D01*
X96216492Y-74622953D01*
X96305823Y-74790080D01*
X96360831Y-74971414D01*
X96379404Y-75160000D01*
X96360831Y-75348586D01*
X96305823Y-75529920D01*
X96216492Y-75697047D01*
X96096278Y-75843528D01*
X95949797Y-75963742D01*
X95782670Y-76053073D01*
X95601336Y-76108081D01*
X95460007Y-76122000D01*
X95125000Y-76122000D01*
X95100614Y-76124402D01*
X95077165Y-76131515D01*
X95055554Y-76143066D01*
X95036612Y-76158612D01*
X95021066Y-76177554D01*
X95009515Y-76199165D01*
X95002402Y-76222614D01*
X95000000Y-76247000D01*
X95000000Y-81103000D01*
X95002402Y-81127386D01*
X95009515Y-81150835D01*
X95021066Y-81172446D01*
X95036612Y-81191388D01*
X95055554Y-81206934D01*
X95077165Y-81218485D01*
X95100614Y-81225598D01*
X95125000Y-81228000D01*
X96374750Y-81228000D01*
X96374750Y-83152000D01*
X95125000Y-83152000D01*
X95100614Y-83154402D01*
X95077165Y-83161515D01*
X95055554Y-83173066D01*
X95036612Y-83188612D01*
X95021066Y-83207554D01*
X95009515Y-83229165D01*
X95002402Y-83252614D01*
X95000000Y-83277000D01*
X95000000Y-83643000D01*
X95002402Y-83667386D01*
X95009515Y-83690835D01*
X95021066Y-83712446D01*
X95036612Y-83731388D01*
X95055554Y-83746934D01*
X95077165Y-83758485D01*
X95100614Y-83765598D01*
X95125000Y-83768000D01*
X95460007Y-83768000D01*
X95601336Y-83781919D01*
X95782670Y-83836927D01*
X95949797Y-83926258D01*
X96096278Y-84046472D01*
X96216492Y-84192953D01*
X96305823Y-84360080D01*
X96360831Y-84541414D01*
X96379404Y-84730000D01*
X96360831Y-84918586D01*
X96305823Y-85099920D01*
X96216492Y-85267047D01*
X96096278Y-85413528D01*
X95949797Y-85533742D01*
X95782670Y-85623073D01*
X95601336Y-85678081D01*
X95460007Y-85692000D01*
X95125000Y-85692000D01*
X95100614Y-85694402D01*
X95077165Y-85701515D01*
X95055554Y-85713066D01*
X95036612Y-85728612D01*
X95021066Y-85747554D01*
X95009515Y-85769165D01*
X95002402Y-85792614D01*
X95000000Y-85817000D01*
X95000000Y-86183000D01*
X95002402Y-86207386D01*
X95009515Y-86230835D01*
X95021066Y-86252446D01*
X95036612Y-86271388D01*
X95055554Y-86286934D01*
X95077165Y-86298485D01*
X95100614Y-86305598D01*
X95125000Y-86308000D01*
X95460007Y-86308000D01*
X95601336Y-86321919D01*
X95782670Y-86376927D01*
X95949797Y-86466258D01*
X96096278Y-86586472D01*
X96216492Y-86732953D01*
X96305823Y-86900080D01*
X96360831Y-87081414D01*
X96379404Y-87270000D01*
X96360831Y-87458586D01*
X96305823Y-87639920D01*
X96216492Y-87807047D01*
X96096278Y-87953528D01*
X95949797Y-88073742D01*
X95782670Y-88163073D01*
X95601336Y-88218081D01*
X95460007Y-88232000D01*
X95125000Y-88232000D01*
X95100614Y-88234402D01*
X95077165Y-88241515D01*
X95055554Y-88253066D01*
X95036612Y-88268612D01*
X95021066Y-88287554D01*
X95009515Y-88309165D01*
X95002402Y-88332614D01*
X95000000Y-88357000D01*
X95000000Y-88723000D01*
X95002402Y-88747386D01*
X95009515Y-88770835D01*
X95021066Y-88792446D01*
X95036612Y-88811388D01*
X95055554Y-88826934D01*
X95077165Y-88838485D01*
X95100614Y-88845598D01*
X95125000Y-88848000D01*
X95460007Y-88848000D01*
X95601336Y-88861919D01*
X95782670Y-88916927D01*
X95949797Y-89006258D01*
X96096278Y-89126472D01*
X96216492Y-89272953D01*
X96305823Y-89440080D01*
X96360831Y-89621414D01*
X96379404Y-89810000D01*
X96360831Y-89998586D01*
X96305823Y-90179920D01*
X96216492Y-90347047D01*
X96096278Y-90493528D01*
X95949797Y-90613742D01*
X95782670Y-90703073D01*
X95601336Y-90758081D01*
X95460007Y-90772000D01*
X95125000Y-90772000D01*
X95100614Y-90774402D01*
X95077165Y-90781515D01*
X95055554Y-90793066D01*
X95036612Y-90808612D01*
X95021066Y-90827554D01*
X95009515Y-90849165D01*
X95002402Y-90872614D01*
X95000000Y-90897000D01*
X95000000Y-93753000D01*
X95002402Y-93777386D01*
X95009515Y-93800835D01*
X95021066Y-93822446D01*
X95036612Y-93841388D01*
X95055554Y-93856934D01*
X95077165Y-93868485D01*
X95100614Y-93875598D01*
X95125000Y-93878000D01*
X96374750Y-93878000D01*
X96374750Y-95802000D01*
X95125000Y-95802000D01*
X95100614Y-95804402D01*
X95077165Y-95811515D01*
X95055554Y-95823066D01*
X95036612Y-95838612D01*
X95021066Y-95857554D01*
X95009515Y-95879165D01*
X95002402Y-95902614D01*
X95000000Y-95927000D01*
X95000000Y-96293000D01*
X95002402Y-96317386D01*
X95009515Y-96340835D01*
X95021066Y-96362446D01*
X95036612Y-96381388D01*
X95055554Y-96396934D01*
X95077165Y-96408485D01*
X95100614Y-96415598D01*
X95125000Y-96418000D01*
X95460007Y-96418000D01*
X95601336Y-96431919D01*
X95782670Y-96486927D01*
X95949797Y-96576258D01*
X96096278Y-96696472D01*
X96216492Y-96842953D01*
X96305823Y-97010080D01*
X96360831Y-97191414D01*
X96379404Y-97380000D01*
X96360831Y-97568586D01*
X96305823Y-97749920D01*
X96216492Y-97917047D01*
X96096278Y-98063528D01*
X95949797Y-98183742D01*
X95782670Y-98273073D01*
X95601336Y-98328081D01*
X95460007Y-98342000D01*
X95125000Y-98342000D01*
X95100614Y-98344402D01*
X95077165Y-98351515D01*
X95055554Y-98363066D01*
X95036612Y-98378612D01*
X95021066Y-98397554D01*
X95009515Y-98419165D01*
X95002402Y-98442614D01*
X95000000Y-98467000D01*
X95000000Y-98833000D01*
X95002402Y-98857386D01*
X95009515Y-98880835D01*
X95021066Y-98902446D01*
X95036612Y-98921388D01*
X95055554Y-98936934D01*
X95077165Y-98948485D01*
X95100614Y-98955598D01*
X95125000Y-98958000D01*
X95460007Y-98958000D01*
X95601336Y-98971919D01*
X95782670Y-99026927D01*
X95949797Y-99116258D01*
X96096278Y-99236472D01*
X96216492Y-99382953D01*
X96305823Y-99550080D01*
X96360831Y-99731414D01*
X96379404Y-99920000D01*
X96360831Y-100108586D01*
X96305823Y-100289920D01*
X96216492Y-100457047D01*
X96096278Y-100603528D01*
X95949797Y-100723742D01*
X95782670Y-100813073D01*
X95601336Y-100868081D01*
X95460007Y-100882000D01*
X95125000Y-100882000D01*
X95100614Y-100884402D01*
X95077165Y-100891515D01*
X95055554Y-100903066D01*
X95036612Y-100918612D01*
X95021066Y-100937554D01*
X95009515Y-100959165D01*
X95002402Y-100982614D01*
X95000000Y-101007000D01*
X95000000Y-101373000D01*
X95002402Y-101397386D01*
X95009515Y-101420835D01*
X95021066Y-101442446D01*
X95036612Y-101461388D01*
X95055554Y-101476934D01*
X95077165Y-101488485D01*
X95100614Y-101495598D01*
X95125000Y-101498000D01*
X95460007Y-101498000D01*
X95601336Y-101511919D01*
X95782670Y-101566927D01*
X95949797Y-101656258D01*
X96096278Y-101776472D01*
X96216492Y-101922953D01*
X96305823Y-102090080D01*
X96360831Y-102271414D01*
X96379404Y-102460000D01*
X96360831Y-102648586D01*
X96305823Y-102829920D01*
X96216492Y-102997047D01*
X96096278Y-103143528D01*
X95949797Y-103263742D01*
X95782670Y-103353073D01*
X95601336Y-103408081D01*
X95460007Y-103422000D01*
X95125000Y-103422000D01*
X95100614Y-103424402D01*
X95077165Y-103431515D01*
X95055554Y-103443066D01*
X95036612Y-103458612D01*
X95021066Y-103477554D01*
X95009515Y-103499165D01*
X95002402Y-103522614D01*
X95000000Y-103547000D01*
X95000000Y-103913000D01*
X95002402Y-103937386D01*
X95009515Y-103960835D01*
X95021066Y-103982446D01*
X95036612Y-104001388D01*
X95055554Y-104016934D01*
X95077165Y-104028485D01*
X95100614Y-104035598D01*
X95125000Y-104038000D01*
X95460007Y-104038000D01*
X95601336Y-104051919D01*
X95782670Y-104106927D01*
X95949797Y-104196258D01*
X96096278Y-104316472D01*
X96216492Y-104462953D01*
X96305823Y-104630080D01*
X96360831Y-104811414D01*
X96379404Y-105000000D01*
X96360831Y-105188586D01*
X96305823Y-105369920D01*
X96216492Y-105537047D01*
X96096278Y-105683528D01*
X95949797Y-105803742D01*
X95782670Y-105893073D01*
X95601336Y-105948081D01*
X95460007Y-105962000D01*
X95125000Y-105962000D01*
X95100614Y-105964402D01*
X95077165Y-105971515D01*
X95055554Y-105983066D01*
X95036612Y-105998612D01*
X95021066Y-106017554D01*
X95009515Y-106039165D01*
X95002402Y-106062614D01*
X95000000Y-106087000D01*
X95000000Y-106453000D01*
X95002402Y-106477386D01*
X95009515Y-106500835D01*
X95021066Y-106522446D01*
X95036612Y-106541388D01*
X95055554Y-106556934D01*
X95077165Y-106568485D01*
X95100614Y-106575598D01*
X95125000Y-106578000D01*
X95460007Y-106578000D01*
X95601336Y-106591919D01*
X95782670Y-106646927D01*
X95949797Y-106736258D01*
X96096278Y-106856472D01*
X96216492Y-107002953D01*
X96305823Y-107170080D01*
X96360831Y-107351414D01*
X96379404Y-107540000D01*
X96360831Y-107728586D01*
X96305823Y-107909920D01*
X96216492Y-108077047D01*
X96096278Y-108223528D01*
X95949797Y-108343742D01*
X95782670Y-108433073D01*
X95601336Y-108488081D01*
X95460007Y-108502000D01*
X95125000Y-108502000D01*
X95100614Y-108504402D01*
X95077165Y-108511515D01*
X95055554Y-108523066D01*
X95036612Y-108538612D01*
X95021066Y-108557554D01*
X95009515Y-108579165D01*
X95002402Y-108602614D01*
X95000000Y-108627000D01*
X95000000Y-108993000D01*
X95002402Y-109017386D01*
X95009515Y-109040835D01*
X95021066Y-109062446D01*
X95036612Y-109081388D01*
X95055554Y-109096934D01*
X95077165Y-109108485D01*
X95100614Y-109115598D01*
X95125000Y-109118000D01*
X95460007Y-109118000D01*
X95601336Y-109131919D01*
X95782670Y-109186927D01*
X95949797Y-109276258D01*
X96096278Y-109396472D01*
X96216492Y-109542953D01*
X96305823Y-109710080D01*
X96360831Y-109891414D01*
X96379404Y-110080000D01*
X96360831Y-110268586D01*
X96305823Y-110449920D01*
X96216492Y-110617047D01*
X96096278Y-110763528D01*
X95949797Y-110883742D01*
X95782670Y-110973073D01*
X95601336Y-111028081D01*
X95460007Y-111042000D01*
X95125000Y-111042000D01*
X95100614Y-111044402D01*
X95077165Y-111051515D01*
X95055554Y-111063066D01*
X95036612Y-111078612D01*
X95021066Y-111097554D01*
X95009515Y-111119165D01*
X95002402Y-111142614D01*
X95000000Y-111167000D01*
X95000000Y-111533000D01*
X95002402Y-111557386D01*
X95009515Y-111580835D01*
X95021066Y-111602446D01*
X95036612Y-111621388D01*
X95055554Y-111636934D01*
X95077165Y-111648485D01*
X95100614Y-111655598D01*
X95125000Y-111658000D01*
X95460007Y-111658000D01*
X95601336Y-111671919D01*
X95782670Y-111726927D01*
X95949797Y-111816258D01*
X96096278Y-111936472D01*
X96216492Y-112082953D01*
X96305823Y-112250080D01*
X96360831Y-112431414D01*
X96379404Y-112620000D01*
X96360831Y-112808586D01*
X96305823Y-112989920D01*
X96216492Y-113157047D01*
X96096278Y-113303528D01*
X95949797Y-113423742D01*
X95782670Y-113513073D01*
X95601336Y-113568081D01*
X95460007Y-113582000D01*
X95125000Y-113582000D01*
X95100614Y-113584402D01*
X95077165Y-113591515D01*
X95055554Y-113603066D01*
X95036612Y-113618612D01*
X95021066Y-113637554D01*
X95009515Y-113659165D01*
X95002402Y-113682614D01*
X95000000Y-113707000D01*
X95000000Y-114073000D01*
X95002402Y-114097386D01*
X95009515Y-114120835D01*
X95021066Y-114142446D01*
X95036612Y-114161388D01*
X95055554Y-114176934D01*
X95077165Y-114188485D01*
X95100614Y-114195598D01*
X95125000Y-114198000D01*
X95460007Y-114198000D01*
X95601336Y-114211919D01*
X95782670Y-114266927D01*
X95949797Y-114356258D01*
X96096278Y-114476472D01*
X96216492Y-114622953D01*
X96305823Y-114790080D01*
X96360831Y-114971414D01*
X96379404Y-115160000D01*
X96360831Y-115348586D01*
X96305823Y-115529920D01*
X96216492Y-115697047D01*
X96096278Y-115843528D01*
X95949797Y-115963742D01*
X95782670Y-116053073D01*
X95601336Y-116108081D01*
X95460007Y-116122000D01*
X95125000Y-116122000D01*
X95100614Y-116124402D01*
X95077165Y-116131515D01*
X95055554Y-116143066D01*
X95036612Y-116158612D01*
X95021066Y-116177554D01*
X95009515Y-116199165D01*
X95002402Y-116222614D01*
X95000000Y-116247000D01*
X95000000Y-126925000D01*
X95002402Y-126949386D01*
X95009515Y-126972835D01*
X95021066Y-126994446D01*
X95036612Y-127013388D01*
X95055554Y-127028934D01*
X95077165Y-127040485D01*
X95100614Y-127047598D01*
X95125000Y-127050000D01*
X95290551Y-127050000D01*
X95860483Y-127163366D01*
X96397348Y-127385743D01*
X96397349Y-127385744D01*
X96880516Y-127708585D01*
X97291415Y-128119484D01*
X97506642Y-128441595D01*
X97614257Y-128602652D01*
X97836634Y-129139517D01*
X97950000Y-129709449D01*
X97950000Y-129875000D01*
X97952402Y-129899386D01*
X97959515Y-129922835D01*
X97971066Y-129944446D01*
X97986612Y-129963388D01*
X98005554Y-129978934D01*
X98027165Y-129990485D01*
X98050614Y-129997598D01*
X98075000Y-130000000D01*
X131925000Y-130000000D01*
X131949386Y-129997598D01*
X131972835Y-129990485D01*
X131994446Y-129978934D01*
X132013388Y-129963388D01*
X132028934Y-129944446D01*
X132040485Y-129922835D01*
X132047598Y-129899386D01*
X132050000Y-129875000D01*
X132050000Y-129709449D01*
X132163366Y-129139517D01*
X132385743Y-128602652D01*
X132493358Y-128441595D01*
X132708585Y-128119484D01*
X133119484Y-127708585D01*
X133602651Y-127385744D01*
X133602652Y-127385743D01*
X134139517Y-127163366D01*
X134709449Y-127050000D01*
X134875000Y-127050000D01*
X134899386Y-127047598D01*
X134922835Y-127040485D01*
X134944446Y-127028934D01*
X134963388Y-127013388D01*
X134978934Y-126994446D01*
X134990485Y-126972835D01*
X134997598Y-126949386D01*
X135000000Y-126925000D01*
X135000000Y-112090868D01*
X134997598Y-112066482D01*
X134990485Y-112043033D01*
X134978934Y-112021422D01*
X134971626Y-112011569D01*
X134959708Y-111997046D01*
X134870377Y-111829920D01*
X134815369Y-111648586D01*
X134796796Y-111460000D01*
X134815369Y-111271414D01*
X134870377Y-111090080D01*
X134959708Y-110922954D01*
X134971626Y-110908431D01*
X134985240Y-110888057D01*
X134994617Y-110865418D01*
X134999398Y-110841384D01*
X135000000Y-110829132D01*
X135000000Y-109550868D01*
X134997598Y-109526482D01*
X134990485Y-109503033D01*
X134978934Y-109481422D01*
X134971626Y-109471569D01*
X134959708Y-109457046D01*
X134870377Y-109289920D01*
X134815369Y-109108586D01*
X134796796Y-108920000D01*
X134815369Y-108731414D01*
X134870377Y-108550080D01*
X134959708Y-108382954D01*
X134971626Y-108368431D01*
X134985240Y-108348057D01*
X134994617Y-108325418D01*
X134999398Y-108301384D01*
X135000000Y-108289132D01*
X135000000Y-107010868D01*
X134997598Y-106986482D01*
X134990485Y-106963033D01*
X134978934Y-106941422D01*
X134971626Y-106931569D01*
X134959708Y-106917046D01*
X134870377Y-106749920D01*
X134815369Y-106568586D01*
X134796796Y-106380000D01*
X134815369Y-106191414D01*
X134870377Y-106010080D01*
X134959708Y-105842954D01*
X134971626Y-105828431D01*
X134985240Y-105808057D01*
X134994617Y-105785418D01*
X134999398Y-105761384D01*
X135000000Y-105749132D01*
X135000000Y-104470868D01*
X134997598Y-104446482D01*
X134990485Y-104423033D01*
X134978934Y-104401422D01*
X134971626Y-104391569D01*
X134959708Y-104377046D01*
X134870377Y-104209920D01*
X134815369Y-104028586D01*
X134796796Y-103840000D01*
X134815369Y-103651414D01*
X134870377Y-103470080D01*
X134959708Y-103302954D01*
X134971626Y-103288431D01*
X134985240Y-103268057D01*
X134994617Y-103245418D01*
X134999398Y-103221384D01*
X135000000Y-103209132D01*
X135000000Y-101930868D01*
X134997598Y-101906482D01*
X134990485Y-101883033D01*
X134978934Y-101861422D01*
X134971626Y-101851569D01*
X134959708Y-101837046D01*
X134870377Y-101669920D01*
X134815369Y-101488586D01*
X134796796Y-101300000D01*
X134815369Y-101111414D01*
X134870377Y-100930080D01*
X134959708Y-100762954D01*
X134971626Y-100748431D01*
X134985240Y-100728057D01*
X134994617Y-100705418D01*
X134999398Y-100681384D01*
X135000000Y-100669132D01*
X135000000Y-99390868D01*
X134997598Y-99366482D01*
X134990485Y-99343033D01*
X134978934Y-99321422D01*
X134971626Y-99311569D01*
X134959708Y-99297046D01*
X134870377Y-99129920D01*
X134815369Y-98948586D01*
X134796796Y-98760000D01*
X134815369Y-98571414D01*
X134870377Y-98390080D01*
X134959708Y-98222954D01*
X134971626Y-98208431D01*
X134985240Y-98188057D01*
X134994617Y-98165418D01*
X134999398Y-98141384D01*
X135000000Y-98129132D01*
X135000000Y-96850868D01*
X134997598Y-96826482D01*
X134990485Y-96803033D01*
X134978934Y-96781422D01*
X134971626Y-96771569D01*
X134959708Y-96757046D01*
X134870377Y-96589920D01*
X134815369Y-96408586D01*
X134796796Y-96220000D01*
X134815369Y-96031414D01*
X134870377Y-95850080D01*
X134959708Y-95682954D01*
X134971626Y-95668431D01*
X134985240Y-95648057D01*
X134994617Y-95625418D01*
X134999398Y-95601384D01*
X135000000Y-95589132D01*
X135000000Y-94310868D01*
X134997598Y-94286482D01*
X134990485Y-94263033D01*
X134978934Y-94241422D01*
X134971626Y-94231569D01*
X134959708Y-94217046D01*
X134870377Y-94049920D01*
X134815369Y-93868586D01*
X134796796Y-93680000D01*
X134815369Y-93491414D01*
X134870377Y-93310080D01*
X134959708Y-93142954D01*
X134971626Y-93128431D01*
X134985240Y-93108057D01*
X134994617Y-93085418D01*
X134999398Y-93061384D01*
X135000000Y-93049132D01*
X135000000Y-91770868D01*
X134997598Y-91746482D01*
X134990485Y-91723033D01*
X134978934Y-91701422D01*
X134971626Y-91691569D01*
X134959708Y-91677046D01*
X134870377Y-91509920D01*
X134815369Y-91328586D01*
X134796796Y-91140000D01*
X134815369Y-90951414D01*
X134870377Y-90770080D01*
X134959708Y-90602954D01*
X134971626Y-90588431D01*
X134985240Y-90568057D01*
X134994617Y-90545418D01*
X134999398Y-90521384D01*
X135000000Y-90509132D01*
X135000000Y-89687000D01*
X134997598Y-89662614D01*
X134990485Y-89639165D01*
X134978934Y-89617554D01*
X134963388Y-89598612D01*
X134944446Y-89583066D01*
X134922835Y-89571515D01*
X134899386Y-89564402D01*
X134875000Y-89562000D01*
X134801450Y-89562000D01*
X134801450Y-87638000D01*
X134875000Y-87638000D01*
X134899386Y-87635598D01*
X134922835Y-87628485D01*
X134944446Y-87616934D01*
X134963388Y-87601388D01*
X134978934Y-87582446D01*
X134990485Y-87560835D01*
X134997598Y-87537386D01*
X135000000Y-87513000D01*
X135000000Y-85375000D01*
X134997598Y-85350614D01*
X134990485Y-85327165D01*
X134978934Y-85305554D01*
X134963388Y-85286612D01*
X134944446Y-85271066D01*
X134922835Y-85259515D01*
X134899386Y-85252402D01*
X134875000Y-85250000D01*
X133300000Y-85250000D01*
X133300000Y-83550000D01*
X134875000Y-83550000D01*
X134899386Y-83547598D01*
X134922835Y-83540485D01*
X134944446Y-83528934D01*
X134963388Y-83513388D01*
X134978934Y-83494446D01*
X134990485Y-83472835D01*
X134997598Y-83449386D01*
X135000000Y-83425000D01*
X135000000Y-82182719D01*
X134997598Y-82158333D01*
X134990485Y-82134884D01*
X134971626Y-82103420D01*
X134859708Y-81967047D01*
X134770377Y-81799920D01*
X134715369Y-81618586D01*
X134696796Y-81430000D01*
X134715369Y-81241414D01*
X134770377Y-81060080D01*
X134859708Y-80892953D01*
X134971626Y-80756580D01*
X134985240Y-80736205D01*
X134994618Y-80713566D01*
X135000000Y-80677281D01*
X135000000Y-79642719D01*
X134997598Y-79618333D01*
X134990485Y-79594884D01*
X134971626Y-79563420D01*
X134859708Y-79427047D01*
X134770377Y-79259920D01*
X134715369Y-79078586D01*
X134696796Y-78890000D01*
X134715369Y-78701414D01*
X134770377Y-78520080D01*
X134859708Y-78352953D01*
X134971626Y-78216580D01*
X134985240Y-78196205D01*
X134994618Y-78173566D01*
X135000000Y-78137281D01*
X135000000Y-77102719D01*
X134997598Y-77078333D01*
X134990485Y-77054884D01*
X134971626Y-77023420D01*
X134859708Y-76887047D01*
X134770377Y-76719920D01*
X134715369Y-76538586D01*
X134696796Y-76350000D01*
X134715369Y-76161414D01*
X134770377Y-75980080D01*
X134859708Y-75812953D01*
X134971626Y-75676580D01*
X134985240Y-75656205D01*
X134994618Y-75633566D01*
X135000000Y-75597281D01*
X135000000Y-74562719D01*
X134997598Y-74538333D01*
X134990485Y-74514884D01*
X134971626Y-74483420D01*
X134859708Y-74347047D01*
X134770377Y-74179920D01*
X134715369Y-73998586D01*
X134696796Y-73810000D01*
X134715369Y-73621414D01*
X134770377Y-73440080D01*
X134859708Y-73272953D01*
X134971626Y-73136580D01*
X134985240Y-73116205D01*
X134994618Y-73093566D01*
X135000000Y-73057281D01*
X135000000Y-72022719D01*
X134997598Y-71998333D01*
X134990485Y-71974884D01*
X134971626Y-71943420D01*
X134859708Y-71807047D01*
X134770377Y-71639920D01*
X134715369Y-71458586D01*
X134696796Y-71270000D01*
X134715369Y-71081414D01*
X134770377Y-70900080D01*
X134859708Y-70732953D01*
X134971626Y-70596580D01*
X134985240Y-70576205D01*
X134994618Y-70553566D01*
X135000000Y-70517281D01*
X135000000Y-69482719D01*
X134997598Y-69458333D01*
X134990485Y-69434884D01*
X134971626Y-69403420D01*
X134859708Y-69267047D01*
X134770377Y-69099920D01*
X134715369Y-68918586D01*
X134696796Y-68730000D01*
X134715369Y-68541414D01*
X134770377Y-68360080D01*
X134859708Y-68192953D01*
X134971626Y-68056580D01*
X134985240Y-68036205D01*
X134994618Y-68013566D01*
X135000000Y-67977281D01*
X135000000Y-66942719D01*
X134997598Y-66918333D01*
X134990485Y-66894884D01*
X134971626Y-66863420D01*
X134859708Y-66727047D01*
X134770377Y-66559920D01*
X134715369Y-66378586D01*
X134696796Y-66190000D01*
X134715369Y-66001414D01*
X134770377Y-65820080D01*
X134859708Y-65652953D01*
X134971626Y-65516580D01*
X134985240Y-65496205D01*
X134994618Y-65473566D01*
X135000000Y-65437281D01*
X135000000Y-64402719D01*
X134997598Y-64378333D01*
X134990485Y-64354884D01*
X134971626Y-64323420D01*
X134859708Y-64187047D01*
X134770377Y-64019920D01*
X134715369Y-63838586D01*
X134696796Y-63650000D01*
X134715369Y-63461414D01*
X134770377Y-63280080D01*
X134859708Y-63112953D01*
X134971626Y-62976580D01*
X134985240Y-62956205D01*
X134994618Y-62933566D01*
X135000000Y-62897281D01*
X135000000Y-61862719D01*
X134997598Y-61838333D01*
X134990485Y-61814884D01*
X134971626Y-61783420D01*
X134859708Y-61647047D01*
X134770377Y-61479920D01*
X134715369Y-61298586D01*
X134696796Y-61110000D01*
X134715369Y-60921414D01*
X134770377Y-60740080D01*
X134859708Y-60572953D01*
X134971626Y-60436580D01*
X134985240Y-60416205D01*
X134994618Y-60393566D01*
X135000000Y-60357281D01*
X135000000Y-59657000D01*
X134997598Y-59632614D01*
X134990485Y-59609165D01*
X134978934Y-59587554D01*
X134963388Y-59568612D01*
X134944446Y-59553066D01*
X134922835Y-59541515D01*
X134899386Y-59534402D01*
X134875000Y-59532000D01*
X134701450Y-59532000D01*
X134701450Y-57608000D01*
X134875000Y-57608000D01*
X134899386Y-57605598D01*
X134922835Y-57598485D01*
X134944446Y-57586934D01*
X134963388Y-57571388D01*
X134978934Y-57552446D01*
X134990485Y-57530835D01*
X134997598Y-57507386D01*
X135000000Y-57483000D01*
X135000000Y-43075000D01*
X134997598Y-43050614D01*
X134990485Y-43027165D01*
X134978934Y-43005554D01*
X134963388Y-42986612D01*
X134944446Y-42971066D01*
X134922835Y-42959515D01*
X134899386Y-42952402D01*
X134875000Y-42950000D01*
X134709449Y-42950000D01*
X134139517Y-42836634D01*
X133602652Y-42614257D01*
X133441595Y-42506642D01*
X133119484Y-42291415D01*
X132708585Y-41880516D01*
X132385744Y-41397349D01*
X132385743Y-41397348D01*
X132163366Y-40860483D01*
X132050000Y-40290551D01*
X132050000Y-40125000D01*
X132047598Y-40100614D01*
X132040485Y-40077165D01*
X132028934Y-40055554D01*
X132013388Y-40036612D01*
X131994446Y-40021066D01*
X131972835Y-40009515D01*
X131949386Y-40002402D01*
X131925000Y-40000000D01*
X98075000Y-40000000D01*
X98050614Y-40002402D01*
X98027165Y-40009515D01*
X98005554Y-40021066D01*
X97986612Y-40036612D01*
X97971066Y-40055554D01*
X97959515Y-40077165D01*
X97952402Y-40100614D01*
X97950000Y-40125000D01*
X97950000Y-40290551D01*
X97836634Y-40860483D01*
X97614257Y-41397348D01*
X97614256Y-41397349D01*
X97291415Y-41880516D01*
X96880516Y-42291415D01*
X96558405Y-42506642D01*
X96397348Y-42614257D01*
X95860483Y-42836634D01*
X95290551Y-42950000D01*
X95125000Y-42950000D01*
X95100614Y-42952402D01*
X95077165Y-42959515D01*
X95055554Y-42971066D01*
X95036612Y-42986612D01*
X95021066Y-43005554D01*
X95009515Y-43027165D01*
X95002402Y-43050614D01*
X95000000Y-43075000D01*
X90000000Y-43075000D01*
X90000000Y-35000000D01*
X140000000Y-35000000D01*
X140000000Y-135000000D01*
X140000000Y-135000000D01*
G37*
G36*
X129900000Y-107580000D02*
X127500000Y-107580000D01*
X127500000Y-106580000D01*
X129900000Y-106580000D01*
X129900000Y-107580000D01*
X129900000Y-107580000D01*
G37*
G36*
X120500000Y-107580000D02*
X118100000Y-107580000D01*
X118100000Y-106580000D01*
X120500000Y-106580000D01*
X120500000Y-107580000D01*
X120500000Y-107580000D01*
G37*
G36*
X120500000Y-106310000D02*
X118100000Y-106310000D01*
X118100000Y-105310000D01*
X120500000Y-105310000D01*
X120500000Y-106310000D01*
X120500000Y-106310000D01*
G37*
G36*
X129900000Y-106310000D02*
X127500000Y-106310000D01*
X127500000Y-105310000D01*
X129900000Y-105310000D01*
X129900000Y-106310000D01*
X129900000Y-106310000D01*
G37*
G36*
X120500000Y-105040000D02*
X118100000Y-105040000D01*
X118100000Y-104040000D01*
X120500000Y-104040000D01*
X120500000Y-105040000D01*
X120500000Y-105040000D01*
G37*
G36*
X129900000Y-105040000D02*
X127500000Y-105040000D01*
X127500000Y-104040000D01*
X129900000Y-104040000D01*
X129900000Y-105040000D01*
X129900000Y-105040000D01*
G37*
G36*
X129900000Y-103770000D02*
X127500000Y-103770000D01*
X127500000Y-102770000D01*
X129900000Y-102770000D01*
X129900000Y-103770000D01*
X129900000Y-103770000D01*
G37*
G36*
X120500000Y-103770000D02*
X118100000Y-103770000D01*
X118100000Y-102770000D01*
X120500000Y-102770000D01*
X120500000Y-103770000D01*
X120500000Y-103770000D01*
G37*
G36*
X120500000Y-102500000D02*
X118100000Y-102500000D01*
X118100000Y-101500000D01*
X120500000Y-101500000D01*
X120500000Y-102500000D01*
X120500000Y-102500000D01*
G37*
G36*
X129900000Y-102500000D02*
X127500000Y-102500000D01*
X127500000Y-101500000D01*
X129900000Y-101500000D01*
X129900000Y-102500000D01*
X129900000Y-102500000D01*
G37*
G36*
X129900000Y-101230000D02*
X127500000Y-101230000D01*
X127500000Y-100230000D01*
X129900000Y-100230000D01*
X129900000Y-101230000D01*
X129900000Y-101230000D01*
G37*
G36*
X120500000Y-101230000D02*
X118100000Y-101230000D01*
X118100000Y-100230000D01*
X120500000Y-100230000D01*
X120500000Y-101230000D01*
X120500000Y-101230000D01*
G37*
G36*
X129900000Y-99960000D02*
X127500000Y-99960000D01*
X127500000Y-98960000D01*
X129900000Y-98960000D01*
X129900000Y-99960000D01*
X129900000Y-99960000D01*
G37*
G36*
X120500000Y-99960000D02*
X118100000Y-99960000D01*
X118100000Y-98960000D01*
X120500000Y-98960000D01*
X120500000Y-99960000D01*
X120500000Y-99960000D01*
G37*
G36*
X129900000Y-98690000D02*
X127500000Y-98690000D01*
X127500000Y-97690000D01*
X129900000Y-97690000D01*
X129900000Y-98690000D01*
X129900000Y-98690000D01*
G37*
G36*
X120500000Y-98690000D02*
X118100000Y-98690000D01*
X118100000Y-97690000D01*
X120500000Y-97690000D01*
X120500000Y-98690000D01*
X120500000Y-98690000D01*
G37*
G36*
X120500000Y-97420000D02*
X118100000Y-97420000D01*
X118100000Y-96420000D01*
X120500000Y-96420000D01*
X120500000Y-97420000D01*
X120500000Y-97420000D01*
G37*
G36*
X129900000Y-97420000D02*
X127500000Y-97420000D01*
X127500000Y-96420000D01*
X129900000Y-96420000D01*
X129900000Y-97420000D01*
X129900000Y-97420000D01*
G37*
G36*
X108400000Y-90650000D02*
X106500000Y-90650000D01*
X106500000Y-88950000D01*
X108400000Y-88950000D01*
X108400000Y-90650000D01*
X108400000Y-90650000D01*
G37*
G36*
X111100000Y-90650000D02*
X109200000Y-90650000D01*
X109200000Y-88950000D01*
X111100000Y-88950000D01*
X111100000Y-90650000D01*
X111100000Y-90650000D01*
G37*
G36*
X130728707Y-85557596D02*
X130805836Y-85565193D01*
X130937787Y-85605220D01*
X131003763Y-85625233D01*
X131186172Y-85722733D01*
X131346054Y-85853946D01*
X131477267Y-86013828D01*
X131574767Y-86196237D01*
X131574767Y-86196238D01*
X131634807Y-86394164D01*
X131655080Y-86600000D01*
X131634807Y-86805836D01*
X131606219Y-86900078D01*
X131574767Y-87003763D01*
X131477267Y-87186172D01*
X131346054Y-87346054D01*
X131186172Y-87477267D01*
X131003763Y-87574767D01*
X130978448Y-87582446D01*
X130805836Y-87634807D01*
X130753902Y-87639922D01*
X130651580Y-87650000D01*
X130548420Y-87650000D01*
X130446098Y-87639922D01*
X130394164Y-87634807D01*
X130221552Y-87582446D01*
X130196237Y-87574767D01*
X130013828Y-87477267D01*
X129853946Y-87346054D01*
X129722733Y-87186172D01*
X129625233Y-87003763D01*
X129593781Y-86900078D01*
X129565193Y-86805836D01*
X129544920Y-86600000D01*
X129565193Y-86394164D01*
X129625233Y-86196238D01*
X129625233Y-86196237D01*
X129722733Y-86013828D01*
X129853946Y-85853946D01*
X130013828Y-85722733D01*
X130196237Y-85625233D01*
X130262213Y-85605220D01*
X130394164Y-85565193D01*
X130471293Y-85557596D01*
X130548420Y-85550000D01*
X130651580Y-85550000D01*
X130728707Y-85557596D01*
X130728707Y-85557596D01*
G37*
G36*
X128188707Y-85557596D02*
X128265836Y-85565193D01*
X128397787Y-85605220D01*
X128463763Y-85625233D01*
X128646172Y-85722733D01*
X128806054Y-85853946D01*
X128937267Y-86013828D01*
X129034767Y-86196237D01*
X129034767Y-86196238D01*
X129094807Y-86394164D01*
X129115080Y-86600000D01*
X129094807Y-86805836D01*
X129066219Y-86900078D01*
X129034767Y-87003763D01*
X128937267Y-87186172D01*
X128806054Y-87346054D01*
X128646172Y-87477267D01*
X128463763Y-87574767D01*
X128438448Y-87582446D01*
X128265836Y-87634807D01*
X128213902Y-87639922D01*
X128111580Y-87650000D01*
X128008420Y-87650000D01*
X127906098Y-87639922D01*
X127854164Y-87634807D01*
X127681552Y-87582446D01*
X127656237Y-87574767D01*
X127473828Y-87477267D01*
X127313946Y-87346054D01*
X127182733Y-87186172D01*
X127085233Y-87003763D01*
X127053781Y-86900078D01*
X127025193Y-86805836D01*
X127004920Y-86600000D01*
X127025193Y-86394164D01*
X127085233Y-86196238D01*
X127085233Y-86196237D01*
X127182733Y-86013828D01*
X127313946Y-85853946D01*
X127473828Y-85722733D01*
X127656237Y-85625233D01*
X127722213Y-85605220D01*
X127854164Y-85565193D01*
X127931293Y-85557596D01*
X128008420Y-85550000D01*
X128111580Y-85550000D01*
X128188707Y-85557596D01*
X128188707Y-85557596D01*
G37*
G36*
X125575000Y-87200000D02*
X117625000Y-87200000D01*
X117625000Y-85700000D01*
X125575000Y-85700000D01*
X125575000Y-87200000D01*
X125575000Y-87200000D01*
G37*
G36*
X111100000Y-85450000D02*
X109200000Y-85450000D01*
X109200000Y-83750000D01*
X111100000Y-83750000D01*
X111100000Y-85450000D01*
X111100000Y-85450000D01*
G37*
G36*
X108400000Y-85450000D02*
X106500000Y-85450000D01*
X106500000Y-83750000D01*
X108400000Y-83750000D01*
X108400000Y-85450000D01*
X108400000Y-85450000D01*
G37*
G36*
X128188707Y-83017597D02*
X128265836Y-83025193D01*
X128397787Y-83065220D01*
X128463763Y-83085233D01*
X128646172Y-83182733D01*
X128806054Y-83313946D01*
X128937267Y-83473828D01*
X129034767Y-83656237D01*
X129034767Y-83656238D01*
X129094807Y-83854164D01*
X129115080Y-84060000D01*
X129094807Y-84265836D01*
X129066219Y-84360078D01*
X129034767Y-84463763D01*
X128937267Y-84646172D01*
X128806054Y-84806054D01*
X128646172Y-84937267D01*
X128463763Y-85034767D01*
X128397787Y-85054780D01*
X128265836Y-85094807D01*
X128213902Y-85099922D01*
X128111580Y-85110000D01*
X128008420Y-85110000D01*
X127906098Y-85099922D01*
X127854164Y-85094807D01*
X127722213Y-85054780D01*
X127656237Y-85034767D01*
X127473828Y-84937267D01*
X127313946Y-84806054D01*
X127182733Y-84646172D01*
X127085233Y-84463763D01*
X127053781Y-84360078D01*
X127025193Y-84265836D01*
X127004920Y-84060000D01*
X127025193Y-83854164D01*
X127085233Y-83656238D01*
X127085233Y-83656237D01*
X127182733Y-83473828D01*
X127313946Y-83313946D01*
X127473828Y-83182733D01*
X127656237Y-83085233D01*
X127722213Y-83065220D01*
X127854164Y-83025193D01*
X127931293Y-83017597D01*
X128008420Y-83010000D01*
X128111580Y-83010000D01*
X128188707Y-83017597D01*
X128188707Y-83017597D01*
G37*
G36*
X130728707Y-83017597D02*
X130805836Y-83025193D01*
X130937787Y-83065220D01*
X131003763Y-83085233D01*
X131186172Y-83182733D01*
X131346054Y-83313946D01*
X131477267Y-83473828D01*
X131574767Y-83656237D01*
X131574767Y-83656238D01*
X131634807Y-83854164D01*
X131655080Y-84060000D01*
X131634807Y-84265836D01*
X131606219Y-84360078D01*
X131574767Y-84463763D01*
X131477267Y-84646172D01*
X131346054Y-84806054D01*
X131186172Y-84937267D01*
X131003763Y-85034767D01*
X130937787Y-85054780D01*
X130805836Y-85094807D01*
X130753902Y-85099922D01*
X130651580Y-85110000D01*
X130548420Y-85110000D01*
X130446098Y-85099922D01*
X130394164Y-85094807D01*
X130262213Y-85054780D01*
X130196237Y-85034767D01*
X130013828Y-84937267D01*
X129853946Y-84806054D01*
X129722733Y-84646172D01*
X129625233Y-84463763D01*
X129593781Y-84360078D01*
X129565193Y-84265836D01*
X129544920Y-84060000D01*
X129565193Y-83854164D01*
X129625233Y-83656238D01*
X129625233Y-83656237D01*
X129722733Y-83473828D01*
X129853946Y-83313946D01*
X130013828Y-83182733D01*
X130196237Y-83085233D01*
X130262213Y-83065220D01*
X130394164Y-83025193D01*
X130471293Y-83017597D01*
X130548420Y-83010000D01*
X130651580Y-83010000D01*
X130728707Y-83017597D01*
X130728707Y-83017597D01*
G37*
G36*
X129110000Y-82570000D02*
X127010000Y-82570000D01*
X127010000Y-80470000D01*
X129110000Y-80470000D01*
X129110000Y-82570000D01*
X129110000Y-82570000D01*
G37*
G36*
X130728707Y-80477597D02*
X130805836Y-80485193D01*
X130937787Y-80525220D01*
X131003763Y-80545233D01*
X131186172Y-80642733D01*
X131346054Y-80773946D01*
X131477267Y-80933828D01*
X131574767Y-81116237D01*
X131574767Y-81116238D01*
X131634807Y-81314164D01*
X131655080Y-81520000D01*
X131634807Y-81725836D01*
X131612334Y-81799920D01*
X131574767Y-81923763D01*
X131477267Y-82106172D01*
X131346054Y-82266054D01*
X131186172Y-82397267D01*
X131003763Y-82494767D01*
X130937787Y-82514780D01*
X130805836Y-82554807D01*
X130728707Y-82562403D01*
X130651580Y-82570000D01*
X130548420Y-82570000D01*
X130471293Y-82562403D01*
X130394164Y-82554807D01*
X130262213Y-82514780D01*
X130196237Y-82494767D01*
X130013828Y-82397267D01*
X129853946Y-82266054D01*
X129722733Y-82106172D01*
X129625233Y-81923763D01*
X129587666Y-81799920D01*
X129565193Y-81725836D01*
X129544920Y-81520000D01*
X129565193Y-81314164D01*
X129625233Y-81116238D01*
X129625233Y-81116237D01*
X129722733Y-80933828D01*
X129853946Y-80773946D01*
X130013828Y-80642733D01*
X130196237Y-80545233D01*
X130262213Y-80525220D01*
X130394164Y-80485193D01*
X130471293Y-80477597D01*
X130548420Y-80470000D01*
X130651580Y-80470000D01*
X130728707Y-80477597D01*
X130728707Y-80477597D01*
G37*
G36*
X125575000Y-81500000D02*
X117625000Y-81500000D01*
X117625000Y-80000000D01*
X125575000Y-80000000D01*
X125575000Y-81500000D01*
X125575000Y-81500000D01*
G37*
G36*
X108400000Y-81450000D02*
X106500000Y-81450000D01*
X106500000Y-79750000D01*
X108400000Y-79750000D01*
X108400000Y-81450000D01*
X108400000Y-81450000D01*
G37*
G36*
X111100000Y-81450000D02*
X109200000Y-81450000D01*
X109200000Y-79750000D01*
X111100000Y-79750000D01*
X111100000Y-81450000D01*
X111100000Y-81450000D01*
G37*
G36*
X125000000Y-77850000D02*
X123100000Y-77850000D01*
X123100000Y-76150000D01*
X125000000Y-76150000D01*
X125000000Y-77850000D01*
X125000000Y-77850000D01*
G37*
G36*
X127700000Y-77850000D02*
X125800000Y-77850000D01*
X125800000Y-76150000D01*
X127700000Y-76150000D01*
X127700000Y-77850000D01*
X127700000Y-77850000D01*
G37*
G36*
X129900000Y-70580000D02*
X127500000Y-70580000D01*
X127500000Y-69580000D01*
X129900000Y-69580000D01*
X129900000Y-70580000D01*
X129900000Y-70580000D01*
G37*
G36*
X120500000Y-70580000D02*
X118100000Y-70580000D01*
X118100000Y-69580000D01*
X120500000Y-69580000D01*
X120500000Y-70580000D01*
X120500000Y-70580000D01*
G37*
G36*
X129900000Y-69310000D02*
X127500000Y-69310000D01*
X127500000Y-68310000D01*
X129900000Y-68310000D01*
X129900000Y-69310000D01*
X129900000Y-69310000D01*
G37*
G36*
X120500000Y-69310000D02*
X118100000Y-69310000D01*
X118100000Y-68310000D01*
X120500000Y-68310000D01*
X120500000Y-69310000D01*
X120500000Y-69310000D01*
G37*
G36*
X120500000Y-68040000D02*
X118100000Y-68040000D01*
X118100000Y-67040000D01*
X120500000Y-67040000D01*
X120500000Y-68040000D01*
X120500000Y-68040000D01*
G37*
G36*
X129900000Y-68040000D02*
X127500000Y-68040000D01*
X127500000Y-67040000D01*
X129900000Y-67040000D01*
X129900000Y-68040000D01*
X129900000Y-68040000D01*
G37*
G36*
X129900000Y-66770000D02*
X127500000Y-66770000D01*
X127500000Y-65770000D01*
X129900000Y-65770000D01*
X129900000Y-66770000D01*
X129900000Y-66770000D01*
G37*
G36*
X120500000Y-66770000D02*
X118100000Y-66770000D01*
X118100000Y-65770000D01*
X120500000Y-65770000D01*
X120500000Y-66770000D01*
X120500000Y-66770000D01*
G37*
G36*
X120500000Y-65500000D02*
X118100000Y-65500000D01*
X118100000Y-64500000D01*
X120500000Y-64500000D01*
X120500000Y-65500000D01*
X120500000Y-65500000D01*
G37*
G36*
X129900000Y-65500000D02*
X127500000Y-65500000D01*
X127500000Y-64500000D01*
X129900000Y-64500000D01*
X129900000Y-65500000D01*
X129900000Y-65500000D01*
G37*
G36*
X120500000Y-64230000D02*
X118100000Y-64230000D01*
X118100000Y-63230000D01*
X120500000Y-63230000D01*
X120500000Y-64230000D01*
X120500000Y-64230000D01*
G37*
G36*
X129900000Y-64230000D02*
X127500000Y-64230000D01*
X127500000Y-63230000D01*
X129900000Y-63230000D01*
X129900000Y-64230000D01*
X129900000Y-64230000D01*
G37*
G36*
X129900000Y-62960000D02*
X127500000Y-62960000D01*
X127500000Y-61960000D01*
X129900000Y-61960000D01*
X129900000Y-62960000D01*
X129900000Y-62960000D01*
G37*
G36*
X120500000Y-62960000D02*
X118100000Y-62960000D01*
X118100000Y-61960000D01*
X120500000Y-61960000D01*
X120500000Y-62960000D01*
X120500000Y-62960000D01*
G37*
G36*
X129900000Y-61690000D02*
X127500000Y-61690000D01*
X127500000Y-60690000D01*
X129900000Y-60690000D01*
X129900000Y-61690000D01*
X129900000Y-61690000D01*
G37*
G36*
X120500000Y-61690000D02*
X118100000Y-61690000D01*
X118100000Y-60690000D01*
X120500000Y-60690000D01*
X120500000Y-61690000D01*
X120500000Y-61690000D01*
G37*
G36*
X120500000Y-60420000D02*
X118100000Y-60420000D01*
X118100000Y-59420000D01*
X120500000Y-59420000D01*
X120500000Y-60420000D01*
X120500000Y-60420000D01*
G37*
G36*
X129900000Y-60420000D02*
X127500000Y-60420000D01*
X127500000Y-59420000D01*
X129900000Y-59420000D01*
X129900000Y-60420000D01*
X129900000Y-60420000D01*
G37*
G36*
X100900000Y-52435000D02*
X99230000Y-52435000D01*
X99230000Y-50565000D01*
X100900000Y-50565000D01*
X100900000Y-52435000D01*
X100900000Y-52435000D01*
G37*
G36*
X104770000Y-52435000D02*
X103100000Y-52435000D01*
X103100000Y-50565000D01*
X104770000Y-50565000D01*
X104770000Y-52435000D01*
X104770000Y-52435000D01*
G37*
M02*
