M48
;DRILL file {KiCad 4.0.7} date 12/30/17 14:03:56
;FORMAT={3:3/ absolute / metric / suppress leading zeros}
FMAT,2
METRIC,TZ
T1C0.400
T2C1.000
T3C1.016
T4C3.200
%
G90
G05
M71
T1
X92000Y-43000
X92000Y-48000
X92000Y-53000
X92000Y-58000
X92000Y-63000
X92000Y-68000
X92000Y-73000
X92000Y-78000
X92000Y-83000
X92000Y-88000
X92000Y-93000
X92000Y-98000
X92000Y-103000
X92000Y-108000
X92000Y-113000
X92000Y-118000
X95000Y-45000
X95000Y-92000
X95000Y-120000
X95000Y-125000
X96000Y-79000
X99000Y-79000
X99000Y-86000
X99000Y-92000
X100000Y-40000
X100000Y-130000
X102000Y-79000
X102000Y-86000
X102000Y-92000
X105000Y-40000
X105000Y-130000
X105500Y-115500
X106500Y-53200
X106500Y-116500
X107000Y-79000
X107000Y-86000
X107000Y-92000
X107500Y-117500
X108500Y-53200
X108500Y-118500
X109000Y-111000
X110000Y-40000
X110000Y-79000
X110000Y-86000
X110000Y-92000
X110000Y-130000
X110200Y-53200
X112000Y-89800
X113000Y-79000
X113000Y-86000
X113000Y-92000
X113000Y-111000
X113600Y-89800
X115000Y-40000
X115000Y-130000
X115400Y-80600
X115400Y-89800
X117000Y-111000
X117950Y-75352
X117950Y-76400
X117950Y-77400
X118400Y-83000
X119200Y-83000
X120000Y-40000
X120000Y-130000
X120000Y-83000
X121000Y-111000
X122200Y-83000
X122800Y-83600
X123400Y-84200
X123500Y-56500
X125000Y-40000
X125000Y-111000
X125000Y-130000
X126200Y-97000
X126200Y-98400
X126200Y-99600
X126200Y-100800
X126200Y-102000
X126500Y-56500
X126500Y-60000
X126500Y-62500
X126500Y-65000
X126500Y-67500
X126500Y-70000
X127000Y-72000
X129000Y-111000
X129500Y-56500
X130000Y-40000
X130050Y-73006
X130050Y-75800
X131000Y-78000
X133000Y-80000
X133000Y-111000
X138000Y-46000
X138750Y-83500
X138750Y-84750
X138750Y-86000
X139000Y-50000
X139000Y-55000
X139000Y-60000
X139000Y-65000
X139000Y-70000
X139000Y-75000
X139000Y-80000
X139000Y-89000
X139000Y-94000
X139000Y-99000
X139000Y-104000
X139000Y-109000
X139000Y-114000
X139000Y-119000
X139000Y-124000
T2
X128060Y-81520
X128060Y-84060
X128060Y-86600
X130600Y-81520
X130600Y-84060
X130600Y-86600
X136100Y-116250
X136100Y-118790
X136750Y-51250
X136750Y-53790
T3
X95076Y-48730
X95076Y-51270
X95076Y-54840
X95076Y-57380
X95076Y-59920
X95076Y-62460
X95076Y-65000
X95076Y-67540
X95076Y-70080
X95076Y-72620
X95076Y-75160
X95076Y-82190
X95076Y-84730
X95076Y-87270
X95076Y-89810
X95076Y-94840
X95076Y-97380
X95076Y-99920
X95076Y-102460
X95076Y-105000
X95076Y-107540
X95076Y-110080
X95076Y-112620
X95076Y-115160
X136000Y-58570
X136000Y-61110
X136000Y-63650
X136000Y-66190
X136000Y-68730
X136000Y-71270
X136000Y-73810
X136000Y-76350
X136000Y-78890
X136000Y-81430
X136100Y-88600
X136100Y-91140
X136100Y-93680
X136100Y-96220
X136100Y-98760
X136100Y-101300
X136100Y-103840
X136100Y-106380
X136100Y-108920
X136100Y-111460
T4
X95000Y-40000
X95000Y-130000
X135000Y-40000
X135000Y-130000
T0
M30
