G04 #@! TF.FileFunction,Legend,Bot*
%FSLAX46Y46*%
G04 Gerber Fmt 4.6, Leading zero omitted, Abs format (unit mm)*
G04 Created by KiCad (PCBNEW 4.0.7) date 12/30/17 14:03:50*
%MOMM*%
%LPD*%
G01*
G04 APERTURE LIST*
%ADD10C,0.100000*%
%ADD11C,0.300000*%
%ADD12C,0.120000*%
%ADD13C,0.150000*%
G04 APERTURE END LIST*
D10*
D11*
X124914286Y-81700000D02*
X124200000Y-81700000D01*
X125057143Y-82128571D02*
X124557143Y-80628571D01*
X124057143Y-82128571D01*
X122771429Y-82128571D02*
X123628572Y-82128571D01*
X123200000Y-82128571D02*
X123200000Y-80628571D01*
X123342857Y-80842857D01*
X123485715Y-80985714D01*
X123628572Y-81057143D01*
X124914286Y-84250000D02*
X124200000Y-84250000D01*
X125057143Y-84678571D02*
X124557143Y-83178571D01*
X124057143Y-84678571D01*
X123628572Y-83321429D02*
X123557143Y-83250000D01*
X123414286Y-83178571D01*
X123057143Y-83178571D01*
X122914286Y-83250000D01*
X122842857Y-83321429D01*
X122771429Y-83464286D01*
X122771429Y-83607143D01*
X122842857Y-83821429D01*
X123700000Y-84678571D01*
X122771429Y-84678571D01*
X124914286Y-86800000D02*
X124200000Y-86800000D01*
X125057143Y-87228571D02*
X124557143Y-85728571D01*
X124057143Y-87228571D01*
X123271429Y-85728571D02*
X123128572Y-85728571D01*
X122985715Y-85800000D01*
X122914286Y-85871429D01*
X122842857Y-86014286D01*
X122771429Y-86300000D01*
X122771429Y-86657143D01*
X122842857Y-86942857D01*
X122914286Y-87085714D01*
X122985715Y-87157143D01*
X123128572Y-87228571D01*
X123271429Y-87228571D01*
X123414286Y-87157143D01*
X123485715Y-87085714D01*
X123557143Y-86942857D01*
X123628572Y-86657143D01*
X123628572Y-86300000D01*
X123557143Y-86014286D01*
X123485715Y-85871429D01*
X123414286Y-85800000D01*
X123271429Y-85728571D01*
X132985714Y-88303571D02*
X132057143Y-88303571D01*
X132557143Y-88875000D01*
X132342857Y-88875000D01*
X132200000Y-88946429D01*
X132128571Y-89017857D01*
X132057143Y-89160714D01*
X132057143Y-89517857D01*
X132128571Y-89660714D01*
X132200000Y-89732143D01*
X132342857Y-89803571D01*
X132771429Y-89803571D01*
X132914286Y-89732143D01*
X132985714Y-89660714D01*
X131128572Y-88303571D02*
X130985715Y-88303571D01*
X130842858Y-88375000D01*
X130771429Y-88446429D01*
X130700000Y-88589286D01*
X130628572Y-88875000D01*
X130628572Y-89232143D01*
X130700000Y-89517857D01*
X130771429Y-89660714D01*
X130842858Y-89732143D01*
X130985715Y-89803571D01*
X131128572Y-89803571D01*
X131271429Y-89732143D01*
X131342858Y-89660714D01*
X131414286Y-89517857D01*
X131485715Y-89232143D01*
X131485715Y-88875000D01*
X131414286Y-88589286D01*
X131342858Y-88446429D01*
X131271429Y-88375000D01*
X131128572Y-88303571D01*
X128914287Y-88232143D02*
X130200001Y-90160714D01*
X128485715Y-88446429D02*
X128414286Y-88375000D01*
X128271429Y-88303571D01*
X127914286Y-88303571D01*
X127771429Y-88375000D01*
X127700000Y-88446429D01*
X127628572Y-88589286D01*
X127628572Y-88732143D01*
X127700000Y-88946429D01*
X128557143Y-89803571D01*
X127628572Y-89803571D01*
X126700001Y-88303571D02*
X126557144Y-88303571D01*
X126414287Y-88375000D01*
X126342858Y-88446429D01*
X126271429Y-88589286D01*
X126200001Y-88875000D01*
X126200001Y-89232143D01*
X126271429Y-89517857D01*
X126342858Y-89660714D01*
X126414287Y-89732143D01*
X126557144Y-89803571D01*
X126700001Y-89803571D01*
X126842858Y-89732143D01*
X126914287Y-89660714D01*
X126985715Y-89517857D01*
X127057144Y-89232143D01*
X127057144Y-88875000D01*
X126985715Y-88589286D01*
X126914287Y-88446429D01*
X126842858Y-88375000D01*
X126700001Y-88303571D01*
X125557144Y-89803571D02*
X125557144Y-88803571D01*
X125557144Y-88946429D02*
X125485716Y-88875000D01*
X125342858Y-88803571D01*
X125128573Y-88803571D01*
X124985716Y-88875000D01*
X124914287Y-89017857D01*
X124914287Y-89803571D01*
X124914287Y-89017857D02*
X124842858Y-88875000D01*
X124700001Y-88803571D01*
X124485716Y-88803571D01*
X124342858Y-88875000D01*
X124271430Y-89017857D01*
X124271430Y-89803571D01*
X132200000Y-90853571D02*
X132485714Y-90853571D01*
X132628571Y-90925000D01*
X132700000Y-90996429D01*
X132842857Y-91210714D01*
X132914286Y-91496429D01*
X132914286Y-92067857D01*
X132842857Y-92210714D01*
X132771429Y-92282143D01*
X132628571Y-92353571D01*
X132342857Y-92353571D01*
X132200000Y-92282143D01*
X132128571Y-92210714D01*
X132057143Y-92067857D01*
X132057143Y-91710714D01*
X132128571Y-91567857D01*
X132200000Y-91496429D01*
X132342857Y-91425000D01*
X132628571Y-91425000D01*
X132771429Y-91496429D01*
X132842857Y-91567857D01*
X132914286Y-91710714D01*
X131128572Y-90853571D02*
X130985715Y-90853571D01*
X130842858Y-90925000D01*
X130771429Y-90996429D01*
X130700000Y-91139286D01*
X130628572Y-91425000D01*
X130628572Y-91782143D01*
X130700000Y-92067857D01*
X130771429Y-92210714D01*
X130842858Y-92282143D01*
X130985715Y-92353571D01*
X131128572Y-92353571D01*
X131271429Y-92282143D01*
X131342858Y-92210714D01*
X131414286Y-92067857D01*
X131485715Y-91782143D01*
X131485715Y-91425000D01*
X131414286Y-91139286D01*
X131342858Y-90996429D01*
X131271429Y-90925000D01*
X131128572Y-90853571D01*
X128914287Y-90782143D02*
X130200001Y-92710714D01*
X120914287Y-91353571D02*
X120914287Y-92353571D01*
X121271430Y-90782143D02*
X121628573Y-91853571D01*
X120700001Y-91853571D01*
X119842859Y-90853571D02*
X119700002Y-90853571D01*
X119557145Y-90925000D01*
X119485716Y-90996429D01*
X119414287Y-91139286D01*
X119342859Y-91425000D01*
X119342859Y-91782143D01*
X119414287Y-92067857D01*
X119485716Y-92210714D01*
X119557145Y-92282143D01*
X119700002Y-92353571D01*
X119842859Y-92353571D01*
X119985716Y-92282143D01*
X120057145Y-92210714D01*
X120128573Y-92067857D01*
X120200002Y-91782143D01*
X120200002Y-91425000D01*
X120128573Y-91139286D01*
X120057145Y-90996429D01*
X119985716Y-90925000D01*
X119842859Y-90853571D01*
X118700002Y-92353571D02*
X118700002Y-91353571D01*
X118700002Y-91496429D02*
X118628574Y-91425000D01*
X118485716Y-91353571D01*
X118271431Y-91353571D01*
X118128574Y-91425000D01*
X118057145Y-91567857D01*
X118057145Y-92353571D01*
X118057145Y-91567857D02*
X117985716Y-91425000D01*
X117842859Y-91353571D01*
X117628574Y-91353571D01*
X117485716Y-91425000D01*
X117414288Y-91567857D01*
X117414288Y-92353571D01*
X132628571Y-94046429D02*
X132771429Y-93975000D01*
X132842857Y-93903571D01*
X132914286Y-93760714D01*
X132914286Y-93689286D01*
X132842857Y-93546429D01*
X132771429Y-93475000D01*
X132628571Y-93403571D01*
X132342857Y-93403571D01*
X132200000Y-93475000D01*
X132128571Y-93546429D01*
X132057143Y-93689286D01*
X132057143Y-93760714D01*
X132128571Y-93903571D01*
X132200000Y-93975000D01*
X132342857Y-94046429D01*
X132628571Y-94046429D01*
X132771429Y-94117857D01*
X132842857Y-94189286D01*
X132914286Y-94332143D01*
X132914286Y-94617857D01*
X132842857Y-94760714D01*
X132771429Y-94832143D01*
X132628571Y-94903571D01*
X132342857Y-94903571D01*
X132200000Y-94832143D01*
X132128571Y-94760714D01*
X132057143Y-94617857D01*
X132057143Y-94332143D01*
X132128571Y-94189286D01*
X132200000Y-94117857D01*
X132342857Y-94046429D01*
X131128572Y-93403571D02*
X130985715Y-93403571D01*
X130842858Y-93475000D01*
X130771429Y-93546429D01*
X130700000Y-93689286D01*
X130628572Y-93975000D01*
X130628572Y-94332143D01*
X130700000Y-94617857D01*
X130771429Y-94760714D01*
X130842858Y-94832143D01*
X130985715Y-94903571D01*
X131128572Y-94903571D01*
X131271429Y-94832143D01*
X131342858Y-94760714D01*
X131414286Y-94617857D01*
X131485715Y-94332143D01*
X131485715Y-93975000D01*
X131414286Y-93689286D01*
X131342858Y-93546429D01*
X131271429Y-93475000D01*
X131128572Y-93403571D01*
X129985715Y-94903571D02*
X129985715Y-93903571D01*
X129985715Y-94046429D02*
X129914287Y-93975000D01*
X129771429Y-93903571D01*
X129557144Y-93903571D01*
X129414287Y-93975000D01*
X129342858Y-94117857D01*
X129342858Y-94903571D01*
X129342858Y-94117857D02*
X129271429Y-93975000D01*
X129128572Y-93903571D01*
X128914287Y-93903571D01*
X128771429Y-93975000D01*
X128700001Y-94117857D01*
X128700001Y-94903571D01*
X132057143Y-97453571D02*
X132914286Y-97453571D01*
X132485714Y-97453571D02*
X132485714Y-95953571D01*
X132628571Y-96167857D01*
X132771429Y-96310714D01*
X132914286Y-96382143D01*
X130771429Y-95953571D02*
X131057143Y-95953571D01*
X131200000Y-96025000D01*
X131271429Y-96096429D01*
X131414286Y-96310714D01*
X131485715Y-96596429D01*
X131485715Y-97167857D01*
X131414286Y-97310714D01*
X131342858Y-97382143D01*
X131200000Y-97453571D01*
X130914286Y-97453571D01*
X130771429Y-97382143D01*
X130700000Y-97310714D01*
X130628572Y-97167857D01*
X130628572Y-96810714D01*
X130700000Y-96667857D01*
X130771429Y-96596429D01*
X130914286Y-96525000D01*
X131200000Y-96525000D01*
X131342858Y-96596429D01*
X131414286Y-96667857D01*
X131485715Y-96810714D01*
X129700001Y-95953571D02*
X129557144Y-95953571D01*
X129414287Y-96025000D01*
X129342858Y-96096429D01*
X129271429Y-96239286D01*
X129200001Y-96525000D01*
X129200001Y-96882143D01*
X129271429Y-97167857D01*
X129342858Y-97310714D01*
X129414287Y-97382143D01*
X129557144Y-97453571D01*
X129700001Y-97453571D01*
X129842858Y-97382143D01*
X129914287Y-97310714D01*
X129985715Y-97167857D01*
X130057144Y-96882143D01*
X130057144Y-96525000D01*
X129985715Y-96239286D01*
X129914287Y-96096429D01*
X129842858Y-96025000D01*
X129700001Y-95953571D01*
X128557144Y-97453571D02*
X128557144Y-96453571D01*
X128557144Y-96596429D02*
X128485716Y-96525000D01*
X128342858Y-96453571D01*
X128128573Y-96453571D01*
X127985716Y-96525000D01*
X127914287Y-96667857D01*
X127914287Y-97453571D01*
X127914287Y-96667857D02*
X127842858Y-96525000D01*
X127700001Y-96453571D01*
X127485716Y-96453571D01*
X127342858Y-96525000D01*
X127271430Y-96667857D01*
X127271430Y-97453571D01*
X132200000Y-98503571D02*
X132485714Y-98503571D01*
X132628571Y-98575000D01*
X132700000Y-98646429D01*
X132842857Y-98860714D01*
X132914286Y-99146429D01*
X132914286Y-99717857D01*
X132842857Y-99860714D01*
X132771429Y-99932143D01*
X132628571Y-100003571D01*
X132342857Y-100003571D01*
X132200000Y-99932143D01*
X132128571Y-99860714D01*
X132057143Y-99717857D01*
X132057143Y-99360714D01*
X132128571Y-99217857D01*
X132200000Y-99146429D01*
X132342857Y-99075000D01*
X132628571Y-99075000D01*
X132771429Y-99146429D01*
X132842857Y-99217857D01*
X132914286Y-99360714D01*
X131414286Y-100003571D02*
X131414286Y-99003571D01*
X131414286Y-99146429D02*
X131342858Y-99075000D01*
X131200000Y-99003571D01*
X130985715Y-99003571D01*
X130842858Y-99075000D01*
X130771429Y-99217857D01*
X130771429Y-100003571D01*
X130771429Y-99217857D02*
X130700000Y-99075000D01*
X130557143Y-99003571D01*
X130342858Y-99003571D01*
X130200000Y-99075000D01*
X130128572Y-99217857D01*
X130128572Y-100003571D01*
X132057143Y-102553571D02*
X132914286Y-102553571D01*
X132485714Y-102553571D02*
X132485714Y-101053571D01*
X132628571Y-101267857D01*
X132771429Y-101410714D01*
X132914286Y-101482143D01*
X131485715Y-101196429D02*
X131414286Y-101125000D01*
X131271429Y-101053571D01*
X130914286Y-101053571D01*
X130771429Y-101125000D01*
X130700000Y-101196429D01*
X130628572Y-101339286D01*
X130628572Y-101482143D01*
X130700000Y-101696429D01*
X131557143Y-102553571D01*
X130628572Y-102553571D01*
X128914287Y-100982143D02*
X130200001Y-102910714D01*
X127628572Y-102553571D02*
X128485715Y-102553571D01*
X128057143Y-102553571D02*
X128057143Y-101053571D01*
X128200000Y-101267857D01*
X128342858Y-101410714D01*
X128485715Y-101482143D01*
X126700001Y-101053571D02*
X126557144Y-101053571D01*
X126414287Y-101125000D01*
X126342858Y-101196429D01*
X126271429Y-101339286D01*
X126200001Y-101625000D01*
X126200001Y-101982143D01*
X126271429Y-102267857D01*
X126342858Y-102410714D01*
X126414287Y-102482143D01*
X126557144Y-102553571D01*
X126700001Y-102553571D01*
X126842858Y-102482143D01*
X126914287Y-102410714D01*
X126985715Y-102267857D01*
X127057144Y-101982143D01*
X127057144Y-101625000D01*
X126985715Y-101339286D01*
X126914287Y-101196429D01*
X126842858Y-101125000D01*
X126700001Y-101053571D01*
X125557144Y-102553571D02*
X125557144Y-101553571D01*
X125557144Y-101696429D02*
X125485716Y-101625000D01*
X125342858Y-101553571D01*
X125128573Y-101553571D01*
X124985716Y-101625000D01*
X124914287Y-101767857D01*
X124914287Y-102553571D01*
X124914287Y-101767857D02*
X124842858Y-101625000D01*
X124700001Y-101553571D01*
X124485716Y-101553571D01*
X124342858Y-101625000D01*
X124271430Y-101767857D01*
X124271430Y-102553571D01*
X132057143Y-105103571D02*
X132914286Y-105103571D01*
X132485714Y-105103571D02*
X132485714Y-103603571D01*
X132628571Y-103817857D01*
X132771429Y-103960714D01*
X132914286Y-104032143D01*
X131557143Y-103603571D02*
X130557143Y-103603571D01*
X131200000Y-105103571D01*
X128914287Y-103532143D02*
X130200001Y-105460714D01*
X127628572Y-105103571D02*
X128485715Y-105103571D01*
X128057143Y-105103571D02*
X128057143Y-103603571D01*
X128200000Y-103817857D01*
X128342858Y-103960714D01*
X128485715Y-104032143D01*
X126271429Y-103603571D02*
X126985715Y-103603571D01*
X127057144Y-104317857D01*
X126985715Y-104246429D01*
X126842858Y-104175000D01*
X126485715Y-104175000D01*
X126342858Y-104246429D01*
X126271429Y-104317857D01*
X126200001Y-104460714D01*
X126200001Y-104817857D01*
X126271429Y-104960714D01*
X126342858Y-105032143D01*
X126485715Y-105103571D01*
X126842858Y-105103571D01*
X126985715Y-105032143D01*
X127057144Y-104960714D01*
X125557144Y-105103571D02*
X125557144Y-104103571D01*
X125557144Y-104246429D02*
X125485716Y-104175000D01*
X125342858Y-104103571D01*
X125128573Y-104103571D01*
X124985716Y-104175000D01*
X124914287Y-104317857D01*
X124914287Y-105103571D01*
X124914287Y-104317857D02*
X124842858Y-104175000D01*
X124700001Y-104103571D01*
X124485716Y-104103571D01*
X124342858Y-104175000D01*
X124271430Y-104317857D01*
X124271430Y-105103571D01*
X132914286Y-112325000D02*
X132200000Y-112325000D01*
X133057143Y-112753571D02*
X132557143Y-111253571D01*
X132057143Y-112753571D01*
X131342857Y-112753571D02*
X131485715Y-112682143D01*
X131557143Y-112539286D01*
X131557143Y-111253571D01*
X130200001Y-112682143D02*
X130342858Y-112753571D01*
X130628572Y-112753571D01*
X130771429Y-112682143D01*
X130842858Y-112539286D01*
X130842858Y-111967857D01*
X130771429Y-111825000D01*
X130628572Y-111753571D01*
X130342858Y-111753571D01*
X130200001Y-111825000D01*
X130128572Y-111967857D01*
X130128572Y-112110714D01*
X130842858Y-112253571D01*
X129628572Y-112753571D02*
X128842858Y-111753571D01*
X129628572Y-111753571D02*
X128842858Y-112753571D01*
X126414286Y-112753571D02*
X127128572Y-112753571D01*
X127128572Y-111253571D01*
X125914286Y-112753571D02*
X125914286Y-111253571D01*
X125342858Y-111253571D01*
X125200000Y-111325000D01*
X125128572Y-111396429D01*
X125057143Y-111539286D01*
X125057143Y-111753571D01*
X125128572Y-111896429D01*
X125200000Y-111967857D01*
X125342858Y-112039286D01*
X125914286Y-112039286D01*
X123914286Y-111967857D02*
X124414286Y-111967857D01*
X124414286Y-112753571D02*
X124414286Y-111253571D01*
X123700000Y-111253571D01*
X133464286Y-56300000D02*
X132750000Y-56300000D01*
X133607143Y-56728571D02*
X133107143Y-55228571D01*
X132607143Y-56728571D01*
X131892857Y-56728571D02*
X132035715Y-56657143D01*
X132107143Y-56514286D01*
X132107143Y-55228571D01*
X130750001Y-56657143D02*
X130892858Y-56728571D01*
X131178572Y-56728571D01*
X131321429Y-56657143D01*
X131392858Y-56514286D01*
X131392858Y-55942857D01*
X131321429Y-55800000D01*
X131178572Y-55728571D01*
X130892858Y-55728571D01*
X130750001Y-55800000D01*
X130678572Y-55942857D01*
X130678572Y-56085714D01*
X131392858Y-56228571D01*
X130178572Y-56728571D02*
X129392858Y-55728571D01*
X130178572Y-55728571D02*
X129392858Y-56728571D01*
X127678572Y-56728571D02*
X127678572Y-55228571D01*
X127678572Y-55942857D02*
X126821429Y-55942857D01*
X126821429Y-56728571D02*
X126821429Y-55228571D01*
X126107143Y-56728571D02*
X126107143Y-55228571D01*
X125535715Y-55228571D01*
X125392857Y-55300000D01*
X125321429Y-55371429D01*
X125250000Y-55514286D01*
X125250000Y-55728571D01*
X125321429Y-55871429D01*
X125392857Y-55942857D01*
X125535715Y-56014286D01*
X126107143Y-56014286D01*
X124107143Y-55942857D02*
X124607143Y-55942857D01*
X124607143Y-56728571D02*
X124607143Y-55228571D01*
X123892857Y-55228571D01*
X132607143Y-59278571D02*
X133464286Y-59278571D01*
X133035714Y-59278571D02*
X133035714Y-57778571D01*
X133178571Y-57992857D01*
X133321429Y-58135714D01*
X133464286Y-58207143D01*
X132107143Y-57778571D02*
X131178572Y-57778571D01*
X131678572Y-58350000D01*
X131464286Y-58350000D01*
X131321429Y-58421429D01*
X131250000Y-58492857D01*
X131178572Y-58635714D01*
X131178572Y-58992857D01*
X131250000Y-59135714D01*
X131321429Y-59207143D01*
X131464286Y-59278571D01*
X131892858Y-59278571D01*
X132035715Y-59207143D01*
X132107143Y-59135714D01*
X129392858Y-59278571D02*
X129392858Y-57778571D01*
X128892858Y-58850000D01*
X128392858Y-57778571D01*
X128392858Y-59278571D01*
X127678572Y-59278571D02*
X127678572Y-57778571D01*
X127678572Y-58492857D02*
X126821429Y-58492857D01*
X126821429Y-59278571D02*
X126821429Y-57778571D01*
X126250000Y-58278571D02*
X125464286Y-58278571D01*
X126250000Y-59278571D01*
X125464286Y-59278571D01*
X133464286Y-60471429D02*
X133392857Y-60400000D01*
X133250000Y-60328571D01*
X132892857Y-60328571D01*
X132750000Y-60400000D01*
X132678571Y-60471429D01*
X132607143Y-60614286D01*
X132607143Y-60757143D01*
X132678571Y-60971429D01*
X133535714Y-61828571D01*
X132607143Y-61828571D01*
X131678572Y-60328571D02*
X131535715Y-60328571D01*
X131392858Y-60400000D01*
X131321429Y-60471429D01*
X131250000Y-60614286D01*
X131178572Y-60900000D01*
X131178572Y-61257143D01*
X131250000Y-61542857D01*
X131321429Y-61685714D01*
X131392858Y-61757143D01*
X131535715Y-61828571D01*
X131678572Y-61828571D01*
X131821429Y-61757143D01*
X131892858Y-61685714D01*
X131964286Y-61542857D01*
X132035715Y-61257143D01*
X132035715Y-60900000D01*
X131964286Y-60614286D01*
X131892858Y-60471429D01*
X131821429Y-60400000D01*
X131678572Y-60328571D01*
X129392858Y-61828571D02*
X129392858Y-60328571D01*
X128892858Y-61400000D01*
X128392858Y-60328571D01*
X128392858Y-61828571D01*
X127678572Y-61828571D02*
X127678572Y-60328571D01*
X127678572Y-61042857D02*
X126821429Y-61042857D01*
X126821429Y-61828571D02*
X126821429Y-60328571D01*
X126250000Y-60828571D02*
X125464286Y-60828571D01*
X126250000Y-61828571D01*
X125464286Y-61828571D01*
X133321429Y-64378571D02*
X133035714Y-64378571D01*
X132892857Y-64307143D01*
X132821429Y-64235714D01*
X132678571Y-64021429D01*
X132607143Y-63735714D01*
X132607143Y-63164286D01*
X132678571Y-63021429D01*
X132750000Y-62950000D01*
X132892857Y-62878571D01*
X133178571Y-62878571D01*
X133321429Y-62950000D01*
X133392857Y-63021429D01*
X133464286Y-63164286D01*
X133464286Y-63521429D01*
X133392857Y-63664286D01*
X133321429Y-63735714D01*
X133178571Y-63807143D01*
X132892857Y-63807143D01*
X132750000Y-63735714D01*
X132678571Y-63664286D01*
X132607143Y-63521429D01*
X131964286Y-64235714D02*
X131892858Y-64307143D01*
X131964286Y-64378571D01*
X132035715Y-64307143D01*
X131964286Y-64235714D01*
X131964286Y-64378571D01*
X130535714Y-62878571D02*
X131250000Y-62878571D01*
X131321429Y-63592857D01*
X131250000Y-63521429D01*
X131107143Y-63450000D01*
X130750000Y-63450000D01*
X130607143Y-63521429D01*
X130535714Y-63592857D01*
X130464286Y-63735714D01*
X130464286Y-64092857D01*
X130535714Y-64235714D01*
X130607143Y-64307143D01*
X130750000Y-64378571D01*
X131107143Y-64378571D01*
X131250000Y-64307143D01*
X131321429Y-64235714D01*
X128678572Y-64378571D02*
X128678572Y-62878571D01*
X128178572Y-63950000D01*
X127678572Y-62878571D01*
X127678572Y-64378571D01*
X126964286Y-64378571D02*
X126964286Y-62878571D01*
X126964286Y-63592857D02*
X126107143Y-63592857D01*
X126107143Y-64378571D02*
X126107143Y-62878571D01*
X125535714Y-63378571D02*
X124750000Y-63378571D01*
X125535714Y-64378571D01*
X124750000Y-64378571D01*
X132750000Y-65428571D02*
X133035714Y-65428571D01*
X133178571Y-65500000D01*
X133250000Y-65571429D01*
X133392857Y-65785714D01*
X133464286Y-66071429D01*
X133464286Y-66642857D01*
X133392857Y-66785714D01*
X133321429Y-66857143D01*
X133178571Y-66928571D01*
X132892857Y-66928571D01*
X132750000Y-66857143D01*
X132678571Y-66785714D01*
X132607143Y-66642857D01*
X132607143Y-66285714D01*
X132678571Y-66142857D01*
X132750000Y-66071429D01*
X132892857Y-66000000D01*
X133178571Y-66000000D01*
X133321429Y-66071429D01*
X133392857Y-66142857D01*
X133464286Y-66285714D01*
X131964286Y-66785714D02*
X131892858Y-66857143D01*
X131964286Y-66928571D01*
X132035715Y-66857143D01*
X131964286Y-66785714D01*
X131964286Y-66928571D01*
X130535714Y-65428571D02*
X131250000Y-65428571D01*
X131321429Y-66142857D01*
X131250000Y-66071429D01*
X131107143Y-66000000D01*
X130750000Y-66000000D01*
X130607143Y-66071429D01*
X130535714Y-66142857D01*
X130464286Y-66285714D01*
X130464286Y-66642857D01*
X130535714Y-66785714D01*
X130607143Y-66857143D01*
X130750000Y-66928571D01*
X131107143Y-66928571D01*
X131250000Y-66857143D01*
X131321429Y-66785714D01*
X128678572Y-66928571D02*
X128678572Y-65428571D01*
X128178572Y-66500000D01*
X127678572Y-65428571D01*
X127678572Y-66928571D01*
X126964286Y-66928571D02*
X126964286Y-65428571D01*
X126964286Y-66142857D02*
X126107143Y-66142857D01*
X126107143Y-66928571D02*
X126107143Y-65428571D01*
X125535714Y-65928571D02*
X124750000Y-65928571D01*
X125535714Y-66928571D01*
X124750000Y-66928571D01*
X132607143Y-69478571D02*
X133464286Y-69478571D01*
X133035714Y-69478571D02*
X133035714Y-67978571D01*
X133178571Y-68192857D01*
X133321429Y-68335714D01*
X133464286Y-68407143D01*
X131964286Y-69335714D02*
X131892858Y-69407143D01*
X131964286Y-69478571D01*
X132035715Y-69407143D01*
X131964286Y-69335714D01*
X131964286Y-69478571D01*
X130535714Y-67978571D02*
X131250000Y-67978571D01*
X131321429Y-68692857D01*
X131250000Y-68621429D01*
X131107143Y-68550000D01*
X130750000Y-68550000D01*
X130607143Y-68621429D01*
X130535714Y-68692857D01*
X130464286Y-68835714D01*
X130464286Y-69192857D01*
X130535714Y-69335714D01*
X130607143Y-69407143D01*
X130750000Y-69478571D01*
X131107143Y-69478571D01*
X131250000Y-69407143D01*
X131321429Y-69335714D01*
X128678572Y-69478571D02*
X128678572Y-67978571D01*
X128178572Y-69050000D01*
X127678572Y-67978571D01*
X127678572Y-69478571D01*
X126964286Y-69478571D02*
X126964286Y-67978571D01*
X126964286Y-68692857D02*
X126107143Y-68692857D01*
X126107143Y-69478571D02*
X126107143Y-67978571D01*
X125535714Y-68478571D02*
X124750000Y-68478571D01*
X125535714Y-69478571D01*
X124750000Y-69478571D01*
X132892857Y-71242857D02*
X132678571Y-71314286D01*
X132607143Y-71385714D01*
X132535714Y-71528571D01*
X132535714Y-71742857D01*
X132607143Y-71885714D01*
X132678571Y-71957143D01*
X132821429Y-72028571D01*
X133392857Y-72028571D01*
X133392857Y-70528571D01*
X132892857Y-70528571D01*
X132750000Y-70600000D01*
X132678571Y-70671429D01*
X132607143Y-70814286D01*
X132607143Y-70957143D01*
X132678571Y-71100000D01*
X132750000Y-71171429D01*
X132892857Y-71242857D01*
X133392857Y-71242857D01*
X132035714Y-71028571D02*
X131678571Y-72028571D01*
X131321429Y-71028571D02*
X131678571Y-72028571D01*
X131821429Y-72385714D01*
X131892857Y-72457143D01*
X132035714Y-72528571D01*
X130750000Y-72028571D02*
X130750000Y-70528571D01*
X130178572Y-70528571D01*
X130035714Y-70600000D01*
X129964286Y-70671429D01*
X129892857Y-70814286D01*
X129892857Y-71028571D01*
X129964286Y-71171429D01*
X130035714Y-71242857D01*
X130178572Y-71314286D01*
X130750000Y-71314286D01*
X128607143Y-72028571D02*
X128607143Y-71242857D01*
X128678572Y-71100000D01*
X128821429Y-71028571D01*
X129107143Y-71028571D01*
X129250000Y-71100000D01*
X128607143Y-71957143D02*
X128750000Y-72028571D01*
X129107143Y-72028571D01*
X129250000Y-71957143D01*
X129321429Y-71814286D01*
X129321429Y-71671429D01*
X129250000Y-71528571D01*
X129107143Y-71457143D01*
X128750000Y-71457143D01*
X128607143Y-71385714D01*
X127964286Y-71957143D02*
X127821429Y-72028571D01*
X127535714Y-72028571D01*
X127392857Y-71957143D01*
X127321429Y-71814286D01*
X127321429Y-71742857D01*
X127392857Y-71600000D01*
X127535714Y-71528571D01*
X127750000Y-71528571D01*
X127892857Y-71457143D01*
X127964286Y-71314286D01*
X127964286Y-71242857D01*
X127892857Y-71100000D01*
X127750000Y-71028571D01*
X127535714Y-71028571D01*
X127392857Y-71100000D01*
X126750000Y-71957143D02*
X126607143Y-72028571D01*
X126321428Y-72028571D01*
X126178571Y-71957143D01*
X126107143Y-71814286D01*
X126107143Y-71742857D01*
X126178571Y-71600000D01*
X126321428Y-71528571D01*
X126535714Y-71528571D01*
X126678571Y-71457143D01*
X126750000Y-71314286D01*
X126750000Y-71242857D01*
X126678571Y-71100000D01*
X126535714Y-71028571D01*
X126321428Y-71028571D01*
X126178571Y-71100000D01*
X132678571Y-74578571D02*
X133392857Y-74578571D01*
X133392857Y-73078571D01*
X132178571Y-74578571D02*
X132178571Y-73078571D01*
X131321428Y-74578571D01*
X131321428Y-73078571D01*
X130678571Y-74150000D02*
X129964285Y-74150000D01*
X130821428Y-74578571D02*
X130321428Y-73078571D01*
X129821428Y-74578571D01*
X127892857Y-73078571D02*
X127607143Y-73078571D01*
X127464285Y-73150000D01*
X127321428Y-73292857D01*
X127250000Y-73578571D01*
X127250000Y-74078571D01*
X127321428Y-74364286D01*
X127464285Y-74507143D01*
X127607143Y-74578571D01*
X127892857Y-74578571D01*
X128035714Y-74507143D01*
X128178571Y-74364286D01*
X128250000Y-74078571D01*
X128250000Y-73578571D01*
X128178571Y-73292857D01*
X128035714Y-73150000D01*
X127892857Y-73078571D01*
X126607142Y-73578571D02*
X126607142Y-74578571D01*
X126607142Y-73721429D02*
X126535714Y-73650000D01*
X126392856Y-73578571D01*
X126178571Y-73578571D01*
X126035714Y-73650000D01*
X125964285Y-73792857D01*
X125964285Y-74578571D01*
X124178571Y-73007143D02*
X125464285Y-74935714D01*
X123392856Y-73078571D02*
X123107142Y-73078571D01*
X122964284Y-73150000D01*
X122821427Y-73292857D01*
X122749999Y-73578571D01*
X122749999Y-74078571D01*
X122821427Y-74364286D01*
X122964284Y-74507143D01*
X123107142Y-74578571D01*
X123392856Y-74578571D01*
X123535713Y-74507143D01*
X123678570Y-74364286D01*
X123749999Y-74078571D01*
X123749999Y-73578571D01*
X123678570Y-73292857D01*
X123535713Y-73150000D01*
X123392856Y-73078571D01*
X122321427Y-73578571D02*
X121749998Y-73578571D01*
X122107141Y-74578571D02*
X122107141Y-73292857D01*
X122035713Y-73150000D01*
X121892855Y-73078571D01*
X121749998Y-73078571D01*
X121464284Y-73578571D02*
X120892855Y-73578571D01*
X121249998Y-74578571D02*
X121249998Y-73292857D01*
X121178570Y-73150000D01*
X121035712Y-73078571D01*
X120892855Y-73078571D01*
X133607143Y-75628571D02*
X132750000Y-75628571D01*
X133178571Y-77128571D02*
X133178571Y-75628571D01*
X131178572Y-75557143D02*
X132464286Y-77485714D01*
X129821428Y-77128571D02*
X130321428Y-76414286D01*
X130678571Y-77128571D02*
X130678571Y-75628571D01*
X130107143Y-75628571D01*
X129964285Y-75700000D01*
X129892857Y-75771429D01*
X129821428Y-75914286D01*
X129821428Y-76128571D01*
X129892857Y-76271429D01*
X129964285Y-76342857D01*
X130107143Y-76414286D01*
X130678571Y-76414286D01*
X125750000Y-77128571D02*
X125750000Y-75628571D01*
X125392857Y-75628571D01*
X125178572Y-75700000D01*
X125035714Y-75842857D01*
X124964286Y-75985714D01*
X124892857Y-76271429D01*
X124892857Y-76485714D01*
X124964286Y-76771429D01*
X125035714Y-76914286D01*
X125178572Y-77057143D01*
X125392857Y-77128571D01*
X125750000Y-77128571D01*
X124250000Y-77128571D02*
X124250000Y-76128571D01*
X124250000Y-75628571D02*
X124321429Y-75700000D01*
X124250000Y-75771429D01*
X124178572Y-75700000D01*
X124250000Y-75628571D01*
X124250000Y-75771429D01*
X123607143Y-77057143D02*
X123464286Y-77128571D01*
X123178571Y-77128571D01*
X123035714Y-77057143D01*
X122964286Y-76914286D01*
X122964286Y-76842857D01*
X123035714Y-76700000D01*
X123178571Y-76628571D01*
X123392857Y-76628571D01*
X123535714Y-76557143D01*
X123607143Y-76414286D01*
X123607143Y-76342857D01*
X123535714Y-76200000D01*
X123392857Y-76128571D01*
X123178571Y-76128571D01*
X123035714Y-76200000D01*
X121678571Y-77128571D02*
X121678571Y-76342857D01*
X121750000Y-76200000D01*
X121892857Y-76128571D01*
X122178571Y-76128571D01*
X122321428Y-76200000D01*
X121678571Y-77057143D02*
X121821428Y-77128571D01*
X122178571Y-77128571D01*
X122321428Y-77057143D01*
X122392857Y-76914286D01*
X122392857Y-76771429D01*
X122321428Y-76628571D01*
X122178571Y-76557143D01*
X121821428Y-76557143D01*
X121678571Y-76485714D01*
X120964285Y-77128571D02*
X120964285Y-75628571D01*
X120964285Y-76200000D02*
X120821428Y-76128571D01*
X120535714Y-76128571D01*
X120392857Y-76200000D01*
X120321428Y-76271429D01*
X120249999Y-76414286D01*
X120249999Y-76842857D01*
X120321428Y-76985714D01*
X120392857Y-77057143D01*
X120535714Y-77128571D01*
X120821428Y-77128571D01*
X120964285Y-77057143D01*
X119392856Y-77128571D02*
X119535714Y-77057143D01*
X119607142Y-76914286D01*
X119607142Y-75628571D01*
X118250000Y-77057143D02*
X118392857Y-77128571D01*
X118678571Y-77128571D01*
X118821428Y-77057143D01*
X118892857Y-76914286D01*
X118892857Y-76342857D01*
X118821428Y-76200000D01*
X118678571Y-76128571D01*
X118392857Y-76128571D01*
X118250000Y-76200000D01*
X118178571Y-76342857D01*
X118178571Y-76485714D01*
X118892857Y-76628571D01*
D12*
X127450000Y-92700000D02*
X127450000Y-93700000D01*
X125750000Y-93700000D02*
X125750000Y-92700000D01*
X125250000Y-92700000D02*
X125250000Y-93700000D01*
X123550000Y-93700000D02*
X123550000Y-92700000D01*
X136400000Y-83320000D02*
X135200000Y-83320000D01*
X135200000Y-85080000D02*
X136400000Y-85080000D01*
X136400000Y-85320000D02*
X135200000Y-85320000D01*
X135200000Y-87080000D02*
X136400000Y-87080000D01*
D13*
X125857143Y-96833334D02*
X125904762Y-96785715D01*
X125952381Y-96642858D01*
X125952381Y-96547620D01*
X125904762Y-96404762D01*
X125809524Y-96309524D01*
X125714286Y-96261905D01*
X125523810Y-96214286D01*
X125380952Y-96214286D01*
X125190476Y-96261905D01*
X125095238Y-96309524D01*
X125000000Y-96404762D01*
X124952381Y-96547620D01*
X124952381Y-96642858D01*
X125000000Y-96785715D01*
X125047619Y-96833334D01*
X124952381Y-97738096D02*
X124952381Y-97261905D01*
X125428571Y-97214286D01*
X125380952Y-97261905D01*
X125333333Y-97357143D01*
X125333333Y-97595239D01*
X125380952Y-97690477D01*
X125428571Y-97738096D01*
X125523810Y-97785715D01*
X125761905Y-97785715D01*
X125857143Y-97738096D01*
X125904762Y-97690477D01*
X125952381Y-97595239D01*
X125952381Y-97357143D01*
X125904762Y-97261905D01*
X125857143Y-97214286D01*
X123357143Y-96833334D02*
X123404762Y-96785715D01*
X123452381Y-96642858D01*
X123452381Y-96547620D01*
X123404762Y-96404762D01*
X123309524Y-96309524D01*
X123214286Y-96261905D01*
X123023810Y-96214286D01*
X122880952Y-96214286D01*
X122690476Y-96261905D01*
X122595238Y-96309524D01*
X122500000Y-96404762D01*
X122452381Y-96547620D01*
X122452381Y-96642858D01*
X122500000Y-96785715D01*
X122547619Y-96833334D01*
X122452381Y-97690477D02*
X122452381Y-97500000D01*
X122500000Y-97404762D01*
X122547619Y-97357143D01*
X122690476Y-97261905D01*
X122880952Y-97214286D01*
X123261905Y-97214286D01*
X123357143Y-97261905D01*
X123404762Y-97309524D01*
X123452381Y-97404762D01*
X123452381Y-97595239D01*
X123404762Y-97690477D01*
X123357143Y-97738096D01*
X123261905Y-97785715D01*
X123023810Y-97785715D01*
X122928571Y-97738096D01*
X122880952Y-97690477D01*
X122833333Y-97595239D01*
X122833333Y-97404762D01*
X122880952Y-97309524D01*
X122928571Y-97261905D01*
X123023810Y-97214286D01*
X133052381Y-83033334D02*
X132576190Y-82700000D01*
X133052381Y-82461905D02*
X132052381Y-82461905D01*
X132052381Y-82842858D01*
X132100000Y-82938096D01*
X132147619Y-82985715D01*
X132242857Y-83033334D01*
X132385714Y-83033334D01*
X132480952Y-82985715D01*
X132528571Y-82938096D01*
X132576190Y-82842858D01*
X132576190Y-82461905D01*
X132147619Y-83414286D02*
X132100000Y-83461905D01*
X132052381Y-83557143D01*
X132052381Y-83795239D01*
X132100000Y-83890477D01*
X132147619Y-83938096D01*
X132242857Y-83985715D01*
X132338095Y-83985715D01*
X132480952Y-83938096D01*
X133052381Y-83366667D01*
X133052381Y-83985715D01*
X132852381Y-85833334D02*
X132376190Y-85500000D01*
X132852381Y-85261905D02*
X131852381Y-85261905D01*
X131852381Y-85642858D01*
X131900000Y-85738096D01*
X131947619Y-85785715D01*
X132042857Y-85833334D01*
X132185714Y-85833334D01*
X132280952Y-85785715D01*
X132328571Y-85738096D01*
X132376190Y-85642858D01*
X132376190Y-85261905D01*
X131852381Y-86166667D02*
X131852381Y-86785715D01*
X132233333Y-86452381D01*
X132233333Y-86595239D01*
X132280952Y-86690477D01*
X132328571Y-86738096D01*
X132423810Y-86785715D01*
X132661905Y-86785715D01*
X132757143Y-86738096D01*
X132804762Y-86690477D01*
X132852381Y-86595239D01*
X132852381Y-86309524D01*
X132804762Y-86214286D01*
X132757143Y-86166667D01*
M02*
