G04 #@! TF.FileFunction,Copper,L2,Bot,Signal*
%FSLAX46Y46*%
G04 Gerber Fmt 4.6, Leading zero omitted, Abs format (unit mm)*
G04 Created by KiCad (PCBNEW 4.0.7) date 12/30/17 14:03:50*
%MOMM*%
%LPD*%
G01*
G04 APERTURE LIST*
%ADD10C,0.100000*%
%ADD11R,1.250000X1.500000*%
%ADD12R,2.197100X1.524000*%
%ADD13O,2.197100X1.524000*%
%ADD14R,1.500000X1.300000*%
%ADD15C,5.500000*%
%ADD16R,1.700000X1.700000*%
%ADD17O,1.700000X1.700000*%
%ADD18C,0.600000*%
%ADD19C,0.250000*%
%ADD20C,0.800000*%
%ADD21C,0.300000*%
%ADD22C,0.600000*%
%ADD23C,1.200000*%
%ADD24C,0.254000*%
G04 APERTURE END LIST*
D10*
D11*
X126600000Y-94450000D03*
X126600000Y-91950000D03*
X124400000Y-94450000D03*
X124400000Y-91950000D03*
D12*
X95076200Y-48730000D03*
D13*
X95076200Y-51270000D03*
X136000000Y-78890000D03*
X136000000Y-76350000D03*
X136000000Y-73810000D03*
X136000000Y-68730000D03*
X136000000Y-66190000D03*
X136000000Y-63650000D03*
X136000000Y-81430000D03*
X136000000Y-71270000D03*
D12*
X136000000Y-58570000D03*
D13*
X136000000Y-61110000D03*
X136100000Y-108920000D03*
X136100000Y-106380000D03*
X136100000Y-103840000D03*
X136100000Y-98760000D03*
X136100000Y-96220000D03*
X136100000Y-93680000D03*
X136100000Y-111460000D03*
X136100000Y-101300000D03*
D12*
X136100000Y-88600000D03*
D13*
X136100000Y-91140000D03*
D14*
X134450000Y-84200000D03*
X137150000Y-84200000D03*
X134450000Y-86200000D03*
X137150000Y-86200000D03*
D15*
X95000000Y-40000000D03*
X95000000Y-130000000D03*
X135000000Y-130000000D03*
X135000000Y-40000000D03*
D13*
X95076200Y-72620000D03*
X95076200Y-70080000D03*
X95076200Y-65000000D03*
X95076200Y-62460000D03*
X95076200Y-59920000D03*
X95076200Y-75160000D03*
X95076200Y-67540000D03*
D12*
X95076200Y-54840000D03*
D13*
X95076200Y-57380000D03*
X95076200Y-112620000D03*
X95076200Y-110080000D03*
X95076200Y-105000000D03*
X95076200Y-102460000D03*
X95076200Y-99920000D03*
X95076200Y-115160000D03*
X95076200Y-107540000D03*
D12*
X95076200Y-94840000D03*
D13*
X95076200Y-97380000D03*
X95076200Y-89810000D03*
X95076200Y-87270000D03*
D12*
X95076200Y-82190000D03*
D13*
X95076200Y-84730000D03*
D16*
X136100000Y-116250000D03*
D17*
X136100000Y-118790000D03*
D16*
X136750000Y-51250000D03*
D17*
X136750000Y-53790000D03*
D16*
X128060000Y-81520000D03*
D17*
X130600000Y-81520000D03*
X128060000Y-84060000D03*
X130600000Y-84060000D03*
X128060000Y-86600000D03*
X130600000Y-86600000D03*
D18*
X117949908Y-75352132D03*
X117949908Y-77400000D03*
X117949908Y-76400000D03*
X130050010Y-75800000D03*
X130050010Y-73005551D03*
X139000000Y-89000000D03*
X139000000Y-124000000D03*
X139000000Y-119000000D03*
X139000000Y-114000000D03*
X139000000Y-109000000D03*
X139000000Y-104000000D03*
X139000000Y-99000000D03*
X139000000Y-94000000D03*
X139000000Y-80000000D03*
X139000000Y-75000000D03*
X139000000Y-70000000D03*
X139000000Y-65000000D03*
X139000000Y-60000000D03*
X139000000Y-55000000D03*
X139000000Y-50000000D03*
X138000000Y-46000000D03*
X95000000Y-125000000D03*
X95000000Y-120000000D03*
X92000000Y-43000000D03*
X92000000Y-48000000D03*
X92000000Y-53000000D03*
X92000000Y-58000000D03*
X92000000Y-63000000D03*
X92000000Y-68000000D03*
X92000000Y-73000000D03*
X92000000Y-78000000D03*
X92000000Y-83000000D03*
X92000000Y-88000000D03*
X92000000Y-93000000D03*
X92000000Y-98000000D03*
X92000000Y-103000000D03*
X92000000Y-108000000D03*
X92000000Y-113000000D03*
X92000000Y-118000000D03*
X113000000Y-92000000D03*
X110000000Y-92000000D03*
X107000000Y-92000000D03*
X102000000Y-92000000D03*
X99000000Y-92000000D03*
X95000000Y-92000000D03*
X113000000Y-86000000D03*
X110000000Y-86000000D03*
X107000000Y-86000000D03*
X102000000Y-86000000D03*
X99000000Y-86000000D03*
X113000000Y-79000000D03*
X110000000Y-79000000D03*
X107000000Y-79000000D03*
X102000000Y-79000000D03*
X99000000Y-79000000D03*
X96000000Y-79000000D03*
X133000000Y-80000000D03*
X131000000Y-78000000D03*
X127000000Y-72000000D03*
X129500000Y-56500000D03*
X126500000Y-56500000D03*
X123500000Y-56500000D03*
X126500000Y-60000000D03*
X126500000Y-62500000D03*
X126500000Y-65000000D03*
X126500000Y-67500000D03*
X126500000Y-70000000D03*
X126200000Y-102000000D03*
X126200000Y-100800000D03*
X126200000Y-99600000D03*
X126200000Y-98400000D03*
X126200000Y-97000000D03*
X138750000Y-86000000D03*
X138750000Y-84750000D03*
X138750000Y-83500000D03*
X95000000Y-45000000D03*
X100000000Y-40000000D03*
X105000000Y-40000000D03*
X110000000Y-40000000D03*
X130000000Y-40000000D03*
X125000000Y-40000000D03*
X120000000Y-40000000D03*
X115000000Y-40000000D03*
X125000000Y-130000000D03*
X120000000Y-130000000D03*
X115000000Y-130000000D03*
X110000000Y-130000000D03*
X105000000Y-130000000D03*
X100000000Y-130000000D03*
X109000000Y-111000000D03*
X113000000Y-111000000D03*
X117000000Y-111000000D03*
X121000000Y-111000000D03*
X125000000Y-111000000D03*
X129000000Y-111000000D03*
X133000000Y-111000000D03*
X118400000Y-83000000D03*
X119200000Y-83000000D03*
X120000010Y-82999990D03*
X122200000Y-82999990D03*
X122800000Y-83600002D03*
X123400000Y-84200006D03*
X110200000Y-53200000D03*
X108500000Y-53200000D03*
X106500000Y-53200000D03*
X107500000Y-117500000D03*
X106500000Y-116500000D03*
X105500000Y-115500000D03*
X108500000Y-118500000D03*
X115400000Y-80600000D03*
X113600000Y-89800000D03*
X112000000Y-89800000D03*
X115400000Y-89800000D03*
D19*
X117949908Y-76400000D02*
X117949908Y-77400000D01*
X130050010Y-73005551D02*
X130050010Y-75800000D01*
X139000000Y-89000000D02*
X139000000Y-94000000D01*
X139000000Y-119000000D02*
X139000000Y-124000000D01*
X139000000Y-109000000D02*
X139000000Y-114000000D01*
X139000000Y-99000000D02*
X139000000Y-104000000D01*
X135000000Y-40000000D02*
X135000000Y-43000000D01*
X139000000Y-70000000D02*
X139000000Y-75000000D01*
X139000000Y-60000000D02*
X139000000Y-65000000D01*
X139000000Y-50000000D02*
X139000000Y-55000000D01*
X135000000Y-43000000D02*
X138000000Y-46000000D01*
X95000000Y-120000000D02*
X94000000Y-120000000D01*
X95000000Y-130000000D02*
X95000000Y-125000000D01*
X92000000Y-43000000D02*
X95000000Y-40000000D01*
X92000000Y-53000000D02*
X92000000Y-48000000D01*
X92000000Y-63000000D02*
X92000000Y-58000000D01*
X92000000Y-73000000D02*
X92000000Y-68000000D01*
X92000000Y-83000000D02*
X92000000Y-78000000D01*
X92000000Y-93000000D02*
X92000000Y-88000000D01*
X92000000Y-103000000D02*
X92000000Y-98000000D01*
X92000000Y-113000000D02*
X92000000Y-108000000D01*
X94000000Y-120000000D02*
X92000000Y-118000000D01*
X95076200Y-87270000D02*
X93730000Y-87270000D01*
X107000000Y-92000000D02*
X110000000Y-92000000D01*
X99000000Y-92000000D02*
X102000000Y-92000000D01*
X94000000Y-92000000D02*
X95000000Y-92000000D01*
X93000000Y-91000000D02*
X94000000Y-92000000D01*
X93000000Y-88000000D02*
X93000000Y-91000000D01*
X93730000Y-87270000D02*
X93000000Y-88000000D01*
X107000000Y-86000000D02*
X110000000Y-86000000D01*
X99000000Y-86000000D02*
X102000000Y-86000000D01*
X95076200Y-75160000D02*
X95076200Y-78076200D01*
X107000000Y-79000000D02*
X110000000Y-79000000D01*
X99000000Y-79000000D02*
X102000000Y-79000000D01*
X95076200Y-78076200D02*
X96000000Y-79000000D01*
X127000000Y-72000000D02*
X127000000Y-70500000D01*
X133000000Y-80000000D02*
X131000000Y-78000000D01*
X123500000Y-56500000D02*
X126500000Y-56500000D01*
X126500000Y-62500000D02*
X126500000Y-60000000D01*
X126500000Y-67500000D02*
X126500000Y-65000000D01*
X127000000Y-70500000D02*
X126500000Y-70000000D01*
D20*
X124400000Y-94450000D02*
X126600000Y-94450000D01*
D19*
X126600000Y-94450000D02*
X126600000Y-96600000D01*
X126200000Y-100800000D02*
X126200000Y-102000000D01*
X126200000Y-98400000D02*
X126200000Y-99600000D01*
X126600000Y-96600000D02*
X126200000Y-97000000D01*
X137076200Y-81430000D02*
X137076200Y-83976200D01*
X137076200Y-83976200D02*
X137000000Y-84052400D01*
X137000000Y-84052400D02*
X137000000Y-86000000D01*
X137000000Y-86000000D02*
X138750000Y-86000000D01*
X138750000Y-84750000D02*
X138750000Y-83500000D01*
X125000000Y-111000000D02*
X125000000Y-125000000D01*
X125000000Y-125000000D02*
X130000000Y-130000000D01*
X95000000Y-40000000D02*
X100000000Y-40000000D01*
X105000000Y-40000000D02*
X110000000Y-40000000D01*
X125000000Y-40000000D02*
X130000000Y-40000000D01*
X115000000Y-40000000D02*
X120000000Y-40000000D01*
X135000000Y-130000000D02*
X130000000Y-130000000D01*
X100000000Y-130000000D02*
X95000000Y-130000000D01*
X130000000Y-130000000D02*
X125000000Y-130000000D01*
X120000000Y-130000000D02*
X115000000Y-130000000D01*
X110000000Y-130000000D02*
X105000000Y-130000000D01*
X137076200Y-111430000D02*
X133430000Y-111430000D01*
X113000000Y-111000000D02*
X109000000Y-111000000D01*
X121000000Y-111000000D02*
X117000000Y-111000000D01*
X129000000Y-111000000D02*
X125000000Y-111000000D01*
X133430000Y-111430000D02*
X133000000Y-111000000D01*
D21*
X119200000Y-83000000D02*
X118400000Y-83000000D01*
X120000010Y-82999990D02*
X119200010Y-82999990D01*
X119200010Y-82999990D02*
X119200000Y-83000000D01*
X121775736Y-82999990D02*
X120000010Y-82999990D01*
X121775736Y-82999990D02*
X122200000Y-82999990D01*
X122299999Y-83099999D02*
X122200000Y-83000000D01*
X122200000Y-83000000D02*
X122200000Y-82999990D01*
X122800000Y-83600002D02*
X122299999Y-83099999D01*
X122500001Y-83300003D02*
X122299999Y-83099999D01*
X123400000Y-84200006D02*
X122800000Y-83600006D01*
X122800000Y-83600006D02*
X122800000Y-83600002D01*
X123200000Y-84000000D02*
X123099999Y-83900001D01*
X123099999Y-83900001D02*
X122800000Y-83600002D01*
D22*
X134450000Y-84200000D02*
X130740000Y-84200000D01*
X130740000Y-84200000D02*
X130600000Y-84060000D01*
X134450000Y-86200000D02*
X131000000Y-86200000D01*
X131000000Y-86200000D02*
X130600000Y-86600000D01*
D23*
X134770000Y-51230000D02*
X136730000Y-51230000D01*
X136730000Y-51230000D02*
X136750000Y-51250000D01*
X134770000Y-51230000D02*
X133000000Y-53000000D01*
X133000000Y-53000000D02*
X133000000Y-76000000D01*
X133000000Y-76000000D02*
X135890000Y-78890000D01*
X108500000Y-53200000D02*
X110200000Y-53200000D01*
X106500000Y-53200000D02*
X108500000Y-53200000D01*
X107500000Y-117500000D02*
X104750000Y-114750000D01*
X104750000Y-54250000D02*
X105800000Y-53200000D01*
X104750000Y-114750000D02*
X104750000Y-54250000D01*
X105800000Y-53200000D02*
X106500000Y-53200000D01*
X106500000Y-116500000D02*
X105500000Y-115500000D01*
X107500000Y-117500000D02*
X108500000Y-118500000D01*
D20*
X115400000Y-80600000D02*
X115400000Y-89800000D01*
X115400000Y-89800000D02*
X113600000Y-89800000D01*
X112000000Y-89800000D02*
X113600000Y-89800000D01*
X119800000Y-89800000D02*
X120000000Y-90000000D01*
D23*
X120000000Y-90000000D02*
X124400000Y-90000000D01*
D20*
X115400000Y-89800000D02*
X119800000Y-89800000D01*
X124400000Y-91950000D02*
X124400000Y-90000000D01*
X124400000Y-90000000D02*
X124400000Y-90200000D01*
X124400000Y-90200000D02*
X124400000Y-90000000D01*
X126600000Y-91950000D02*
X126600000Y-90200000D01*
X126600000Y-90200000D02*
X126400000Y-90000000D01*
D23*
X124400000Y-90000000D02*
X126400000Y-90000000D01*
X126400000Y-90000000D02*
X128060000Y-88340000D01*
X128060000Y-88340000D02*
X128060000Y-86600000D01*
X128060000Y-81520000D02*
X128060000Y-84060000D01*
X128060000Y-84060000D02*
X128060000Y-86600000D01*
D24*
G36*
X139290000Y-134290000D02*
X90710000Y-134290000D01*
X90710000Y-132416266D01*
X92763339Y-132416266D01*
X93075487Y-132864932D01*
X94318343Y-133383331D01*
X95664976Y-133386648D01*
X96910371Y-132874380D01*
X96924513Y-132864932D01*
X97236661Y-132416266D01*
X132763339Y-132416266D01*
X133075487Y-132864932D01*
X134318343Y-133383331D01*
X135664976Y-133386648D01*
X136910371Y-132874380D01*
X136924513Y-132864932D01*
X137236661Y-132416266D01*
X135000000Y-130179605D01*
X132763339Y-132416266D01*
X97236661Y-132416266D01*
X95000000Y-130179605D01*
X92763339Y-132416266D01*
X90710000Y-132416266D01*
X90710000Y-130664976D01*
X91613352Y-130664976D01*
X92125620Y-131910371D01*
X92135068Y-131924513D01*
X92583734Y-132236661D01*
X94820395Y-130000000D01*
X95179605Y-130000000D01*
X97416266Y-132236661D01*
X97864932Y-131924513D01*
X98383331Y-130681657D01*
X98383372Y-130664976D01*
X131613352Y-130664976D01*
X132125620Y-131910371D01*
X132135068Y-131924513D01*
X132583734Y-132236661D01*
X134820395Y-130000000D01*
X135179605Y-130000000D01*
X137416266Y-132236661D01*
X137864932Y-131924513D01*
X138383331Y-130681657D01*
X138386648Y-129335024D01*
X137874380Y-128089629D01*
X137864932Y-128075487D01*
X137416266Y-127763339D01*
X135179605Y-130000000D01*
X134820395Y-130000000D01*
X132583734Y-127763339D01*
X132135068Y-128075487D01*
X131616669Y-129318343D01*
X131613352Y-130664976D01*
X98383372Y-130664976D01*
X98386648Y-129335024D01*
X97874380Y-128089629D01*
X97864932Y-128075487D01*
X97416266Y-127763339D01*
X95179605Y-130000000D01*
X94820395Y-130000000D01*
X92583734Y-127763339D01*
X92135068Y-128075487D01*
X91616669Y-129318343D01*
X91613352Y-130664976D01*
X90710000Y-130664976D01*
X90710000Y-127583734D01*
X92763339Y-127583734D01*
X95000000Y-129820395D01*
X97236661Y-127583734D01*
X132763339Y-127583734D01*
X135000000Y-129820395D01*
X137236661Y-127583734D01*
X136924513Y-127135068D01*
X135681657Y-126616669D01*
X134335024Y-126613352D01*
X133089629Y-127125620D01*
X133075487Y-127135068D01*
X132763339Y-127583734D01*
X97236661Y-127583734D01*
X96924513Y-127135068D01*
X95681657Y-126616669D01*
X94335024Y-126613352D01*
X93089629Y-127125620D01*
X93075487Y-127135068D01*
X92763339Y-127583734D01*
X90710000Y-127583734D01*
X90710000Y-115503070D01*
X93385430Y-115503070D01*
X93400390Y-115577277D01*
X93662020Y-116058026D01*
X94087709Y-116402059D01*
X94612650Y-116557000D01*
X94949200Y-116557000D01*
X94949200Y-115287000D01*
X95203200Y-115287000D01*
X95203200Y-116557000D01*
X95539750Y-116557000D01*
X96064691Y-116402059D01*
X96490380Y-116058026D01*
X96752010Y-115577277D01*
X96766970Y-115503070D01*
X96644470Y-115287000D01*
X95203200Y-115287000D01*
X94949200Y-115287000D01*
X93507930Y-115287000D01*
X93385430Y-115503070D01*
X90710000Y-115503070D01*
X90710000Y-97380000D01*
X93308688Y-97380000D01*
X93415028Y-97914609D01*
X93717860Y-98367828D01*
X94140159Y-98650000D01*
X93717860Y-98932172D01*
X93415028Y-99385391D01*
X93308688Y-99920000D01*
X93415028Y-100454609D01*
X93717860Y-100907828D01*
X94140159Y-101190000D01*
X93717860Y-101472172D01*
X93415028Y-101925391D01*
X93308688Y-102460000D01*
X93415028Y-102994609D01*
X93717860Y-103447828D01*
X94140159Y-103730000D01*
X93717860Y-104012172D01*
X93415028Y-104465391D01*
X93308688Y-105000000D01*
X93415028Y-105534609D01*
X93717860Y-105987828D01*
X94140159Y-106270000D01*
X93717860Y-106552172D01*
X93415028Y-107005391D01*
X93308688Y-107540000D01*
X93415028Y-108074609D01*
X93717860Y-108527828D01*
X94140159Y-108810000D01*
X93717860Y-109092172D01*
X93415028Y-109545391D01*
X93308688Y-110080000D01*
X93415028Y-110614609D01*
X93717860Y-111067828D01*
X94140159Y-111350000D01*
X93717860Y-111632172D01*
X93415028Y-112085391D01*
X93308688Y-112620000D01*
X93415028Y-113154609D01*
X93717860Y-113607828D01*
X94153093Y-113898642D01*
X94087709Y-113917941D01*
X93662020Y-114261974D01*
X93400390Y-114742723D01*
X93385430Y-114816930D01*
X93507930Y-115033000D01*
X94949200Y-115033000D01*
X94949200Y-115013000D01*
X95203200Y-115013000D01*
X95203200Y-115033000D01*
X96644470Y-115033000D01*
X96766970Y-114816930D01*
X96752010Y-114742723D01*
X96490380Y-114261974D01*
X96064691Y-113917941D01*
X95999307Y-113898642D01*
X96434540Y-113607828D01*
X96737372Y-113154609D01*
X96843712Y-112620000D01*
X96737372Y-112085391D01*
X96434540Y-111632172D01*
X96012241Y-111350000D01*
X96434540Y-111067828D01*
X96737372Y-110614609D01*
X96843712Y-110080000D01*
X96737372Y-109545391D01*
X96434540Y-109092172D01*
X96012241Y-108810000D01*
X96434540Y-108527828D01*
X96737372Y-108074609D01*
X96843712Y-107540000D01*
X96737372Y-107005391D01*
X96434540Y-106552172D01*
X96012241Y-106270000D01*
X96434540Y-105987828D01*
X96737372Y-105534609D01*
X96843712Y-105000000D01*
X96737372Y-104465391D01*
X96434540Y-104012172D01*
X96012241Y-103730000D01*
X96434540Y-103447828D01*
X96737372Y-102994609D01*
X96843712Y-102460000D01*
X96737372Y-101925391D01*
X96434540Y-101472172D01*
X96012241Y-101190000D01*
X96434540Y-100907828D01*
X96737372Y-100454609D01*
X96843712Y-99920000D01*
X96737372Y-99385391D01*
X96434540Y-98932172D01*
X96012241Y-98650000D01*
X96434540Y-98367828D01*
X96737372Y-97914609D01*
X96843712Y-97380000D01*
X96737372Y-96845391D01*
X96434540Y-96392172D01*
X96210781Y-96242660D01*
X96410067Y-96205162D01*
X96626191Y-96066090D01*
X96771181Y-95853890D01*
X96822190Y-95602000D01*
X96822190Y-94078000D01*
X96777912Y-93842683D01*
X96638840Y-93626559D01*
X96426640Y-93481569D01*
X96174750Y-93430560D01*
X93977650Y-93430560D01*
X93742333Y-93474838D01*
X93526209Y-93613910D01*
X93381219Y-93826110D01*
X93330210Y-94078000D01*
X93330210Y-95602000D01*
X93374488Y-95837317D01*
X93513560Y-96053441D01*
X93725760Y-96198431D01*
X93942213Y-96242264D01*
X93717860Y-96392172D01*
X93415028Y-96845391D01*
X93308688Y-97380000D01*
X90710000Y-97380000D01*
X90710000Y-89810000D01*
X93308688Y-89810000D01*
X93415028Y-90344609D01*
X93717860Y-90797828D01*
X94171079Y-91100660D01*
X94705688Y-91207000D01*
X95446712Y-91207000D01*
X95981321Y-91100660D01*
X96434540Y-90797828D01*
X96737372Y-90344609D01*
X96843712Y-89810000D01*
X96737372Y-89275391D01*
X96434540Y-88822172D01*
X95999307Y-88531358D01*
X96064691Y-88512059D01*
X96490380Y-88168026D01*
X96752010Y-87687277D01*
X96766970Y-87613070D01*
X96644470Y-87397000D01*
X95203200Y-87397000D01*
X95203200Y-87417000D01*
X94949200Y-87417000D01*
X94949200Y-87397000D01*
X93507930Y-87397000D01*
X93385430Y-87613070D01*
X93400390Y-87687277D01*
X93662020Y-88168026D01*
X94087709Y-88512059D01*
X94153093Y-88531358D01*
X93717860Y-88822172D01*
X93415028Y-89275391D01*
X93308688Y-89810000D01*
X90710000Y-89810000D01*
X90710000Y-84730000D01*
X93308688Y-84730000D01*
X93415028Y-85264609D01*
X93717860Y-85717828D01*
X94153093Y-86008642D01*
X94087709Y-86027941D01*
X93662020Y-86371974D01*
X93400390Y-86852723D01*
X93385430Y-86926930D01*
X93507930Y-87143000D01*
X94949200Y-87143000D01*
X94949200Y-87123000D01*
X95203200Y-87123000D01*
X95203200Y-87143000D01*
X96644470Y-87143000D01*
X96766970Y-86926930D01*
X96752010Y-86852723D01*
X96490380Y-86371974D01*
X96064691Y-86027941D01*
X95999307Y-86008642D01*
X96434540Y-85717828D01*
X96737372Y-85264609D01*
X96843712Y-84730000D01*
X96737372Y-84195391D01*
X96434540Y-83742172D01*
X96210781Y-83592660D01*
X96410067Y-83555162D01*
X96626191Y-83416090D01*
X96771181Y-83203890D01*
X96822190Y-82952000D01*
X96822190Y-81428000D01*
X96777912Y-81192683D01*
X96638840Y-80976559D01*
X96426640Y-80831569D01*
X96174750Y-80780560D01*
X93977650Y-80780560D01*
X93742333Y-80824838D01*
X93526209Y-80963910D01*
X93381219Y-81176110D01*
X93330210Y-81428000D01*
X93330210Y-82952000D01*
X93374488Y-83187317D01*
X93513560Y-83403441D01*
X93725760Y-83548431D01*
X93942213Y-83592264D01*
X93717860Y-83742172D01*
X93415028Y-84195391D01*
X93308688Y-84730000D01*
X90710000Y-84730000D01*
X90710000Y-75503070D01*
X93385430Y-75503070D01*
X93400390Y-75577277D01*
X93662020Y-76058026D01*
X94087709Y-76402059D01*
X94612650Y-76557000D01*
X94949200Y-76557000D01*
X94949200Y-75287000D01*
X95203200Y-75287000D01*
X95203200Y-76557000D01*
X95539750Y-76557000D01*
X96064691Y-76402059D01*
X96490380Y-76058026D01*
X96752010Y-75577277D01*
X96766970Y-75503070D01*
X96644470Y-75287000D01*
X95203200Y-75287000D01*
X94949200Y-75287000D01*
X93507930Y-75287000D01*
X93385430Y-75503070D01*
X90710000Y-75503070D01*
X90710000Y-57380000D01*
X93308688Y-57380000D01*
X93415028Y-57914609D01*
X93717860Y-58367828D01*
X94140159Y-58650000D01*
X93717860Y-58932172D01*
X93415028Y-59385391D01*
X93308688Y-59920000D01*
X93415028Y-60454609D01*
X93717860Y-60907828D01*
X94140159Y-61190000D01*
X93717860Y-61472172D01*
X93415028Y-61925391D01*
X93308688Y-62460000D01*
X93415028Y-62994609D01*
X93717860Y-63447828D01*
X94140159Y-63730000D01*
X93717860Y-64012172D01*
X93415028Y-64465391D01*
X93308688Y-65000000D01*
X93415028Y-65534609D01*
X93717860Y-65987828D01*
X94140159Y-66270000D01*
X93717860Y-66552172D01*
X93415028Y-67005391D01*
X93308688Y-67540000D01*
X93415028Y-68074609D01*
X93717860Y-68527828D01*
X94140159Y-68810000D01*
X93717860Y-69092172D01*
X93415028Y-69545391D01*
X93308688Y-70080000D01*
X93415028Y-70614609D01*
X93717860Y-71067828D01*
X94140159Y-71350000D01*
X93717860Y-71632172D01*
X93415028Y-72085391D01*
X93308688Y-72620000D01*
X93415028Y-73154609D01*
X93717860Y-73607828D01*
X94153093Y-73898642D01*
X94087709Y-73917941D01*
X93662020Y-74261974D01*
X93400390Y-74742723D01*
X93385430Y-74816930D01*
X93507930Y-75033000D01*
X94949200Y-75033000D01*
X94949200Y-75013000D01*
X95203200Y-75013000D01*
X95203200Y-75033000D01*
X96644470Y-75033000D01*
X96766970Y-74816930D01*
X96752010Y-74742723D01*
X96490380Y-74261974D01*
X96064691Y-73917941D01*
X95999307Y-73898642D01*
X96434540Y-73607828D01*
X96737372Y-73154609D01*
X96843712Y-72620000D01*
X96737372Y-72085391D01*
X96434540Y-71632172D01*
X96012241Y-71350000D01*
X96434540Y-71067828D01*
X96737372Y-70614609D01*
X96843712Y-70080000D01*
X96737372Y-69545391D01*
X96434540Y-69092172D01*
X96012241Y-68810000D01*
X96434540Y-68527828D01*
X96737372Y-68074609D01*
X96843712Y-67540000D01*
X96737372Y-67005391D01*
X96434540Y-66552172D01*
X96012241Y-66270000D01*
X96434540Y-65987828D01*
X96737372Y-65534609D01*
X96843712Y-65000000D01*
X96737372Y-64465391D01*
X96434540Y-64012172D01*
X96012241Y-63730000D01*
X96434540Y-63447828D01*
X96737372Y-62994609D01*
X96843712Y-62460000D01*
X96737372Y-61925391D01*
X96434540Y-61472172D01*
X96012241Y-61190000D01*
X96434540Y-60907828D01*
X96737372Y-60454609D01*
X96843712Y-59920000D01*
X96737372Y-59385391D01*
X96434540Y-58932172D01*
X96012241Y-58650000D01*
X96434540Y-58367828D01*
X96737372Y-57914609D01*
X96843712Y-57380000D01*
X96737372Y-56845391D01*
X96434540Y-56392172D01*
X96210781Y-56242660D01*
X96410067Y-56205162D01*
X96626191Y-56066090D01*
X96771181Y-55853890D01*
X96822190Y-55602000D01*
X96822190Y-54250000D01*
X103515000Y-54250000D01*
X103515000Y-114750000D01*
X103609009Y-115222614D01*
X103876723Y-115623277D01*
X107626723Y-119373277D01*
X108027386Y-119640991D01*
X108500000Y-119735000D01*
X108972614Y-119640991D01*
X109373277Y-119373277D01*
X109640991Y-118972614D01*
X109677315Y-118790000D01*
X134585907Y-118790000D01*
X134698946Y-119358285D01*
X135020853Y-119840054D01*
X135502622Y-120161961D01*
X136070907Y-120275000D01*
X136129093Y-120275000D01*
X136697378Y-120161961D01*
X137179147Y-119840054D01*
X137501054Y-119358285D01*
X137614093Y-118790000D01*
X137501054Y-118221715D01*
X137179147Y-117739946D01*
X137137548Y-117712150D01*
X137185317Y-117703162D01*
X137401441Y-117564090D01*
X137546431Y-117351890D01*
X137597440Y-117100000D01*
X137597440Y-115400000D01*
X137553162Y-115164683D01*
X137414090Y-114948559D01*
X137201890Y-114803569D01*
X136950000Y-114752560D01*
X135250000Y-114752560D01*
X135014683Y-114796838D01*
X134798559Y-114935910D01*
X134653569Y-115148110D01*
X134602560Y-115400000D01*
X134602560Y-117100000D01*
X134646838Y-117335317D01*
X134785910Y-117551441D01*
X134998110Y-117696431D01*
X135065541Y-117710086D01*
X135020853Y-117739946D01*
X134698946Y-118221715D01*
X134585907Y-118790000D01*
X109677315Y-118790000D01*
X109735000Y-118500000D01*
X109640991Y-118027386D01*
X109373277Y-117626723D01*
X105985000Y-114238446D01*
X105985000Y-111803070D01*
X134409230Y-111803070D01*
X134424190Y-111877277D01*
X134685820Y-112358026D01*
X135111509Y-112702059D01*
X135636450Y-112857000D01*
X135973000Y-112857000D01*
X135973000Y-111587000D01*
X136227000Y-111587000D01*
X136227000Y-112857000D01*
X136563550Y-112857000D01*
X137088491Y-112702059D01*
X137514180Y-112358026D01*
X137775810Y-111877277D01*
X137790770Y-111803070D01*
X137668270Y-111587000D01*
X136227000Y-111587000D01*
X135973000Y-111587000D01*
X134531730Y-111587000D01*
X134409230Y-111803070D01*
X105985000Y-111803070D01*
X105985000Y-94735750D01*
X123140000Y-94735750D01*
X123140000Y-95326309D01*
X123236673Y-95559698D01*
X123415301Y-95738327D01*
X123648690Y-95835000D01*
X124114250Y-95835000D01*
X124273000Y-95676250D01*
X124273000Y-94577000D01*
X124527000Y-94577000D01*
X124527000Y-95676250D01*
X124685750Y-95835000D01*
X125151310Y-95835000D01*
X125384699Y-95738327D01*
X125500000Y-95623025D01*
X125615301Y-95738327D01*
X125848690Y-95835000D01*
X126314250Y-95835000D01*
X126473000Y-95676250D01*
X126473000Y-94577000D01*
X126727000Y-94577000D01*
X126727000Y-95676250D01*
X126885750Y-95835000D01*
X127351310Y-95835000D01*
X127584699Y-95738327D01*
X127763327Y-95559698D01*
X127860000Y-95326309D01*
X127860000Y-94735750D01*
X127701250Y-94577000D01*
X126727000Y-94577000D01*
X126473000Y-94577000D01*
X124527000Y-94577000D01*
X124273000Y-94577000D01*
X123298750Y-94577000D01*
X123140000Y-94735750D01*
X105985000Y-94735750D01*
X105985000Y-89800000D01*
X110965000Y-89800000D01*
X111043785Y-90196077D01*
X111268144Y-90531856D01*
X111603923Y-90756215D01*
X112000000Y-90835000D01*
X119101147Y-90835000D01*
X119126723Y-90873277D01*
X119527386Y-91140991D01*
X120000000Y-91235000D01*
X123127560Y-91235000D01*
X123127560Y-92700000D01*
X123171838Y-92935317D01*
X123310910Y-93151441D01*
X123379006Y-93197969D01*
X123236673Y-93340302D01*
X123140000Y-93573691D01*
X123140000Y-94164250D01*
X123298750Y-94323000D01*
X124273000Y-94323000D01*
X124273000Y-94303000D01*
X124527000Y-94303000D01*
X124527000Y-94323000D01*
X126473000Y-94323000D01*
X126473000Y-94303000D01*
X126727000Y-94303000D01*
X126727000Y-94323000D01*
X127701250Y-94323000D01*
X127860000Y-94164250D01*
X127860000Y-93573691D01*
X127763327Y-93340302D01*
X127622090Y-93199064D01*
X127676441Y-93164090D01*
X127821431Y-92951890D01*
X127872440Y-92700000D01*
X127872440Y-91200000D01*
X127828162Y-90964683D01*
X127689090Y-90748559D01*
X127635000Y-90711601D01*
X127635000Y-90511554D01*
X128933277Y-89213277D01*
X129200991Y-88812614D01*
X129295001Y-88340000D01*
X129295000Y-88339995D01*
X129295000Y-87416803D01*
X129330000Y-87364422D01*
X129520853Y-87650054D01*
X130002622Y-87971961D01*
X130570907Y-88085000D01*
X130629093Y-88085000D01*
X131197378Y-87971961D01*
X131679147Y-87650054D01*
X132001054Y-87168285D01*
X132007675Y-87135000D01*
X133128808Y-87135000D01*
X133235910Y-87301441D01*
X133448110Y-87446431D01*
X133700000Y-87497440D01*
X134465605Y-87497440D01*
X134405019Y-87586110D01*
X134354010Y-87838000D01*
X134354010Y-89362000D01*
X134398288Y-89597317D01*
X134537360Y-89813441D01*
X134749560Y-89958431D01*
X134966013Y-90002264D01*
X134741660Y-90152172D01*
X134438828Y-90605391D01*
X134332488Y-91140000D01*
X134438828Y-91674609D01*
X134741660Y-92127828D01*
X135163959Y-92410000D01*
X134741660Y-92692172D01*
X134438828Y-93145391D01*
X134332488Y-93680000D01*
X134438828Y-94214609D01*
X134741660Y-94667828D01*
X135163959Y-94950000D01*
X134741660Y-95232172D01*
X134438828Y-95685391D01*
X134332488Y-96220000D01*
X134438828Y-96754609D01*
X134741660Y-97207828D01*
X135163959Y-97490000D01*
X134741660Y-97772172D01*
X134438828Y-98225391D01*
X134332488Y-98760000D01*
X134438828Y-99294609D01*
X134741660Y-99747828D01*
X135163959Y-100030000D01*
X134741660Y-100312172D01*
X134438828Y-100765391D01*
X134332488Y-101300000D01*
X134438828Y-101834609D01*
X134741660Y-102287828D01*
X135163959Y-102570000D01*
X134741660Y-102852172D01*
X134438828Y-103305391D01*
X134332488Y-103840000D01*
X134438828Y-104374609D01*
X134741660Y-104827828D01*
X135163959Y-105110000D01*
X134741660Y-105392172D01*
X134438828Y-105845391D01*
X134332488Y-106380000D01*
X134438828Y-106914609D01*
X134741660Y-107367828D01*
X135163959Y-107650000D01*
X134741660Y-107932172D01*
X134438828Y-108385391D01*
X134332488Y-108920000D01*
X134438828Y-109454609D01*
X134741660Y-109907828D01*
X135176893Y-110198642D01*
X135111509Y-110217941D01*
X134685820Y-110561974D01*
X134424190Y-111042723D01*
X134409230Y-111116930D01*
X134531730Y-111333000D01*
X135973000Y-111333000D01*
X135973000Y-111313000D01*
X136227000Y-111313000D01*
X136227000Y-111333000D01*
X137668270Y-111333000D01*
X137790770Y-111116930D01*
X137775810Y-111042723D01*
X137514180Y-110561974D01*
X137088491Y-110217941D01*
X137023107Y-110198642D01*
X137458340Y-109907828D01*
X137761172Y-109454609D01*
X137867512Y-108920000D01*
X137761172Y-108385391D01*
X137458340Y-107932172D01*
X137036041Y-107650000D01*
X137458340Y-107367828D01*
X137761172Y-106914609D01*
X137867512Y-106380000D01*
X137761172Y-105845391D01*
X137458340Y-105392172D01*
X137036041Y-105110000D01*
X137458340Y-104827828D01*
X137761172Y-104374609D01*
X137867512Y-103840000D01*
X137761172Y-103305391D01*
X137458340Y-102852172D01*
X137036041Y-102570000D01*
X137458340Y-102287828D01*
X137761172Y-101834609D01*
X137867512Y-101300000D01*
X137761172Y-100765391D01*
X137458340Y-100312172D01*
X137036041Y-100030000D01*
X137458340Y-99747828D01*
X137761172Y-99294609D01*
X137867512Y-98760000D01*
X137761172Y-98225391D01*
X137458340Y-97772172D01*
X137036041Y-97490000D01*
X137458340Y-97207828D01*
X137761172Y-96754609D01*
X137867512Y-96220000D01*
X137761172Y-95685391D01*
X137458340Y-95232172D01*
X137036041Y-94950000D01*
X137458340Y-94667828D01*
X137761172Y-94214609D01*
X137867512Y-93680000D01*
X137761172Y-93145391D01*
X137458340Y-92692172D01*
X137036041Y-92410000D01*
X137458340Y-92127828D01*
X137761172Y-91674609D01*
X137867512Y-91140000D01*
X137761172Y-90605391D01*
X137458340Y-90152172D01*
X137234581Y-90002660D01*
X137433867Y-89965162D01*
X137649991Y-89826090D01*
X137794981Y-89613890D01*
X137845990Y-89362000D01*
X137845990Y-87838000D01*
X137801712Y-87602683D01*
X137725985Y-87485000D01*
X138026309Y-87485000D01*
X138259698Y-87388327D01*
X138438327Y-87209699D01*
X138535000Y-86976310D01*
X138535000Y-86485750D01*
X138376250Y-86327000D01*
X137277000Y-86327000D01*
X137277000Y-86347000D01*
X137023000Y-86347000D01*
X137023000Y-86327000D01*
X137003000Y-86327000D01*
X137003000Y-86073000D01*
X137023000Y-86073000D01*
X137023000Y-84327000D01*
X137277000Y-84327000D01*
X137277000Y-86073000D01*
X138376250Y-86073000D01*
X138535000Y-85914250D01*
X138535000Y-85423690D01*
X138442344Y-85200000D01*
X138535000Y-84976310D01*
X138535000Y-84485750D01*
X138376250Y-84327000D01*
X137277000Y-84327000D01*
X137023000Y-84327000D01*
X137003000Y-84327000D01*
X137003000Y-84073000D01*
X137023000Y-84073000D01*
X137023000Y-83073750D01*
X137277000Y-83073750D01*
X137277000Y-84073000D01*
X138376250Y-84073000D01*
X138535000Y-83914250D01*
X138535000Y-83423690D01*
X138438327Y-83190301D01*
X138259698Y-83011673D01*
X138026309Y-82915000D01*
X137435750Y-82915000D01*
X137277000Y-83073750D01*
X137023000Y-83073750D01*
X136864250Y-82915000D01*
X136273691Y-82915000D01*
X136040302Y-83011673D01*
X135861673Y-83190301D01*
X135805346Y-83326287D01*
X135803162Y-83314683D01*
X135664090Y-83098559D01*
X135451890Y-82953569D01*
X135200000Y-82902560D01*
X133700000Y-82902560D01*
X133464683Y-82946838D01*
X133248559Y-83085910D01*
X133126192Y-83265000D01*
X131849568Y-83265000D01*
X131679147Y-83009946D01*
X131349974Y-82790000D01*
X131679147Y-82570054D01*
X132001054Y-82088285D01*
X132063754Y-81773070D01*
X134309230Y-81773070D01*
X134324190Y-81847277D01*
X134585820Y-82328026D01*
X135011509Y-82672059D01*
X135536450Y-82827000D01*
X135873000Y-82827000D01*
X135873000Y-81557000D01*
X136127000Y-81557000D01*
X136127000Y-82827000D01*
X136463550Y-82827000D01*
X136988491Y-82672059D01*
X137414180Y-82328026D01*
X137675810Y-81847277D01*
X137690770Y-81773070D01*
X137568270Y-81557000D01*
X136127000Y-81557000D01*
X135873000Y-81557000D01*
X134431730Y-81557000D01*
X134309230Y-81773070D01*
X132063754Y-81773070D01*
X132114093Y-81520000D01*
X132001054Y-80951715D01*
X131679147Y-80469946D01*
X131197378Y-80148039D01*
X130629093Y-80035000D01*
X130570907Y-80035000D01*
X130002622Y-80148039D01*
X129520853Y-80469946D01*
X129520029Y-80471179D01*
X129513162Y-80434683D01*
X129374090Y-80218559D01*
X129161890Y-80073569D01*
X128910000Y-80022560D01*
X127210000Y-80022560D01*
X126974683Y-80066838D01*
X126758559Y-80205910D01*
X126613569Y-80418110D01*
X126562560Y-80670000D01*
X126562560Y-82370000D01*
X126606838Y-82605317D01*
X126745910Y-82821441D01*
X126825000Y-82875481D01*
X126825000Y-83243197D01*
X126658946Y-83491715D01*
X126545907Y-84060000D01*
X126658946Y-84628285D01*
X126825000Y-84876803D01*
X126825000Y-85783197D01*
X126658946Y-86031715D01*
X126545907Y-86600000D01*
X126658946Y-87168285D01*
X126825000Y-87416803D01*
X126825000Y-87828446D01*
X125888446Y-88765000D01*
X120000000Y-88765000D01*
X119900002Y-88784891D01*
X119800000Y-88764999D01*
X119799995Y-88765000D01*
X116435000Y-88765000D01*
X116435000Y-83185167D01*
X117464838Y-83185167D01*
X117606883Y-83528943D01*
X117869673Y-83792192D01*
X118213201Y-83934838D01*
X118585167Y-83935162D01*
X118800104Y-83846352D01*
X119013201Y-83934838D01*
X119385167Y-83935162D01*
X119600121Y-83846345D01*
X119813211Y-83934828D01*
X120185177Y-83935152D01*
X120528953Y-83793107D01*
X120537084Y-83784990D01*
X121662494Y-83784990D01*
X121669673Y-83792182D01*
X121908756Y-83891458D01*
X122006883Y-84128945D01*
X122269673Y-84392194D01*
X122508760Y-84491472D01*
X122606883Y-84728949D01*
X122869673Y-84992198D01*
X123213201Y-85134844D01*
X123585167Y-85135168D01*
X123928943Y-84993123D01*
X124192192Y-84730333D01*
X124334838Y-84386805D01*
X124335162Y-84014839D01*
X124193117Y-83671063D01*
X123930327Y-83407814D01*
X123691240Y-83308536D01*
X123593117Y-83071059D01*
X123330327Y-82807810D01*
X123091244Y-82708534D01*
X122993117Y-82471047D01*
X122730327Y-82207798D01*
X122386799Y-82065152D01*
X122014833Y-82064828D01*
X121671057Y-82206873D01*
X121662926Y-82214990D01*
X120537516Y-82214990D01*
X120530337Y-82207798D01*
X120186809Y-82065152D01*
X119814843Y-82064828D01*
X119599889Y-82153645D01*
X119386799Y-82065162D01*
X119014833Y-82064838D01*
X118799896Y-82153648D01*
X118586799Y-82065162D01*
X118214833Y-82064838D01*
X117871057Y-82206883D01*
X117607808Y-82469673D01*
X117465162Y-82813201D01*
X117464838Y-83185167D01*
X116435000Y-83185167D01*
X116435000Y-80600000D01*
X116356215Y-80203923D01*
X116131856Y-79868144D01*
X115796077Y-79643785D01*
X115400000Y-79565000D01*
X115003923Y-79643785D01*
X114668144Y-79868144D01*
X114443785Y-80203923D01*
X114365000Y-80600000D01*
X114365000Y-88765000D01*
X112000000Y-88765000D01*
X111603923Y-88843785D01*
X111268144Y-89068144D01*
X111043785Y-89403923D01*
X110965000Y-89800000D01*
X105985000Y-89800000D01*
X105985000Y-54761554D01*
X106311554Y-54435000D01*
X110200000Y-54435000D01*
X110672614Y-54340991D01*
X111073277Y-54073277D01*
X111340991Y-53672614D01*
X111435000Y-53200000D01*
X111395218Y-53000000D01*
X131765000Y-53000000D01*
X131765000Y-76000000D01*
X131859009Y-76472614D01*
X132126723Y-76873277D01*
X134254597Y-79001151D01*
X134338828Y-79424609D01*
X134641660Y-79877828D01*
X135076893Y-80168642D01*
X135011509Y-80187941D01*
X134585820Y-80531974D01*
X134324190Y-81012723D01*
X134309230Y-81086930D01*
X134431730Y-81303000D01*
X135873000Y-81303000D01*
X135873000Y-81283000D01*
X136127000Y-81283000D01*
X136127000Y-81303000D01*
X137568270Y-81303000D01*
X137690770Y-81086930D01*
X137675810Y-81012723D01*
X137414180Y-80531974D01*
X136988491Y-80187941D01*
X136923107Y-80168642D01*
X137358340Y-79877828D01*
X137661172Y-79424609D01*
X137767512Y-78890000D01*
X137661172Y-78355391D01*
X137358340Y-77902172D01*
X136936041Y-77620000D01*
X137358340Y-77337828D01*
X137661172Y-76884609D01*
X137767512Y-76350000D01*
X137661172Y-75815391D01*
X137358340Y-75362172D01*
X136936041Y-75080000D01*
X137358340Y-74797828D01*
X137661172Y-74344609D01*
X137767512Y-73810000D01*
X137661172Y-73275391D01*
X137358340Y-72822172D01*
X136936041Y-72540000D01*
X137358340Y-72257828D01*
X137661172Y-71804609D01*
X137767512Y-71270000D01*
X137661172Y-70735391D01*
X137358340Y-70282172D01*
X136936041Y-70000000D01*
X137358340Y-69717828D01*
X137661172Y-69264609D01*
X137767512Y-68730000D01*
X137661172Y-68195391D01*
X137358340Y-67742172D01*
X136936041Y-67460000D01*
X137358340Y-67177828D01*
X137661172Y-66724609D01*
X137767512Y-66190000D01*
X137661172Y-65655391D01*
X137358340Y-65202172D01*
X136936041Y-64920000D01*
X137358340Y-64637828D01*
X137661172Y-64184609D01*
X137767512Y-63650000D01*
X137661172Y-63115391D01*
X137358340Y-62662172D01*
X136936041Y-62380000D01*
X137358340Y-62097828D01*
X137661172Y-61644609D01*
X137767512Y-61110000D01*
X137661172Y-60575391D01*
X137358340Y-60122172D01*
X137134581Y-59972660D01*
X137333867Y-59935162D01*
X137549991Y-59796090D01*
X137694981Y-59583890D01*
X137745990Y-59332000D01*
X137745990Y-57808000D01*
X137701712Y-57572683D01*
X137562640Y-57356559D01*
X137350440Y-57211569D01*
X137098550Y-57160560D01*
X134901450Y-57160560D01*
X134666133Y-57204838D01*
X134450009Y-57343910D01*
X134305019Y-57556110D01*
X134254010Y-57808000D01*
X134254010Y-59332000D01*
X134298288Y-59567317D01*
X134437360Y-59783441D01*
X134649560Y-59928431D01*
X134866013Y-59972264D01*
X134641660Y-60122172D01*
X134338828Y-60575391D01*
X134235000Y-61097371D01*
X134235000Y-53511554D01*
X135281554Y-52465000D01*
X135380287Y-52465000D01*
X135435910Y-52551441D01*
X135648110Y-52696431D01*
X135715541Y-52710086D01*
X135670853Y-52739946D01*
X135348946Y-53221715D01*
X135235907Y-53790000D01*
X135348946Y-54358285D01*
X135670853Y-54840054D01*
X136152622Y-55161961D01*
X136720907Y-55275000D01*
X136779093Y-55275000D01*
X137347378Y-55161961D01*
X137829147Y-54840054D01*
X138151054Y-54358285D01*
X138264093Y-53790000D01*
X138151054Y-53221715D01*
X137829147Y-52739946D01*
X137787548Y-52712150D01*
X137835317Y-52703162D01*
X138051441Y-52564090D01*
X138196431Y-52351890D01*
X138247440Y-52100000D01*
X138247440Y-50400000D01*
X138203162Y-50164683D01*
X138064090Y-49948559D01*
X137851890Y-49803569D01*
X137600000Y-49752560D01*
X135900000Y-49752560D01*
X135664683Y-49796838D01*
X135448559Y-49935910D01*
X135408185Y-49995000D01*
X134770000Y-49995000D01*
X134297386Y-50089009D01*
X133896723Y-50356723D01*
X132126723Y-52126723D01*
X131859009Y-52527386D01*
X131765000Y-53000000D01*
X111395218Y-53000000D01*
X111340991Y-52727386D01*
X111073277Y-52326723D01*
X110672614Y-52059009D01*
X110200000Y-51965000D01*
X105800000Y-51965000D01*
X105327386Y-52059009D01*
X104926723Y-52326723D01*
X103876723Y-53376723D01*
X103609009Y-53777386D01*
X103515000Y-54250000D01*
X96822190Y-54250000D01*
X96822190Y-54078000D01*
X96777912Y-53842683D01*
X96638840Y-53626559D01*
X96426640Y-53481569D01*
X96174750Y-53430560D01*
X93977650Y-53430560D01*
X93742333Y-53474838D01*
X93526209Y-53613910D01*
X93381219Y-53826110D01*
X93330210Y-54078000D01*
X93330210Y-55602000D01*
X93374488Y-55837317D01*
X93513560Y-56053441D01*
X93725760Y-56198431D01*
X93942213Y-56242264D01*
X93717860Y-56392172D01*
X93415028Y-56845391D01*
X93308688Y-57380000D01*
X90710000Y-57380000D01*
X90710000Y-51270000D01*
X93308688Y-51270000D01*
X93415028Y-51804609D01*
X93717860Y-52257828D01*
X94171079Y-52560660D01*
X94705688Y-52667000D01*
X95446712Y-52667000D01*
X95981321Y-52560660D01*
X96434540Y-52257828D01*
X96737372Y-51804609D01*
X96843712Y-51270000D01*
X96737372Y-50735391D01*
X96434540Y-50282172D01*
X96202309Y-50127000D01*
X96301060Y-50127000D01*
X96534449Y-50030327D01*
X96713077Y-49851698D01*
X96809750Y-49618309D01*
X96809750Y-49015750D01*
X96651000Y-48857000D01*
X95203200Y-48857000D01*
X95203200Y-48877000D01*
X94949200Y-48877000D01*
X94949200Y-48857000D01*
X93501400Y-48857000D01*
X93342650Y-49015750D01*
X93342650Y-49618309D01*
X93439323Y-49851698D01*
X93617951Y-50030327D01*
X93851340Y-50127000D01*
X93950091Y-50127000D01*
X93717860Y-50282172D01*
X93415028Y-50735391D01*
X93308688Y-51270000D01*
X90710000Y-51270000D01*
X90710000Y-47841691D01*
X93342650Y-47841691D01*
X93342650Y-48444250D01*
X93501400Y-48603000D01*
X94949200Y-48603000D01*
X94949200Y-47491750D01*
X95203200Y-47491750D01*
X95203200Y-48603000D01*
X96651000Y-48603000D01*
X96809750Y-48444250D01*
X96809750Y-47841691D01*
X96713077Y-47608302D01*
X96534449Y-47429673D01*
X96301060Y-47333000D01*
X95361950Y-47333000D01*
X95203200Y-47491750D01*
X94949200Y-47491750D01*
X94790450Y-47333000D01*
X93851340Y-47333000D01*
X93617951Y-47429673D01*
X93439323Y-47608302D01*
X93342650Y-47841691D01*
X90710000Y-47841691D01*
X90710000Y-42416266D01*
X92763339Y-42416266D01*
X93075487Y-42864932D01*
X94318343Y-43383331D01*
X95664976Y-43386648D01*
X96910371Y-42874380D01*
X96924513Y-42864932D01*
X97236661Y-42416266D01*
X132763339Y-42416266D01*
X133075487Y-42864932D01*
X134318343Y-43383331D01*
X135664976Y-43386648D01*
X136910371Y-42874380D01*
X136924513Y-42864932D01*
X137236661Y-42416266D01*
X135000000Y-40179605D01*
X132763339Y-42416266D01*
X97236661Y-42416266D01*
X95000000Y-40179605D01*
X92763339Y-42416266D01*
X90710000Y-42416266D01*
X90710000Y-40664976D01*
X91613352Y-40664976D01*
X92125620Y-41910371D01*
X92135068Y-41924513D01*
X92583734Y-42236661D01*
X94820395Y-40000000D01*
X95179605Y-40000000D01*
X97416266Y-42236661D01*
X97864932Y-41924513D01*
X98383331Y-40681657D01*
X98383372Y-40664976D01*
X131613352Y-40664976D01*
X132125620Y-41910371D01*
X132135068Y-41924513D01*
X132583734Y-42236661D01*
X134820395Y-40000000D01*
X135179605Y-40000000D01*
X137416266Y-42236661D01*
X137864932Y-41924513D01*
X138383331Y-40681657D01*
X138386648Y-39335024D01*
X137874380Y-38089629D01*
X137864932Y-38075487D01*
X137416266Y-37763339D01*
X135179605Y-40000000D01*
X134820395Y-40000000D01*
X132583734Y-37763339D01*
X132135068Y-38075487D01*
X131616669Y-39318343D01*
X131613352Y-40664976D01*
X98383372Y-40664976D01*
X98386648Y-39335024D01*
X97874380Y-38089629D01*
X97864932Y-38075487D01*
X97416266Y-37763339D01*
X95179605Y-40000000D01*
X94820395Y-40000000D01*
X92583734Y-37763339D01*
X92135068Y-38075487D01*
X91616669Y-39318343D01*
X91613352Y-40664976D01*
X90710000Y-40664976D01*
X90710000Y-37583734D01*
X92763339Y-37583734D01*
X95000000Y-39820395D01*
X97236661Y-37583734D01*
X132763339Y-37583734D01*
X135000000Y-39820395D01*
X137236661Y-37583734D01*
X136924513Y-37135068D01*
X135681657Y-36616669D01*
X134335024Y-36613352D01*
X133089629Y-37125620D01*
X133075487Y-37135068D01*
X132763339Y-37583734D01*
X97236661Y-37583734D01*
X96924513Y-37135068D01*
X95681657Y-36616669D01*
X94335024Y-36613352D01*
X93089629Y-37125620D01*
X93075487Y-37135068D01*
X92763339Y-37583734D01*
X90710000Y-37583734D01*
X90710000Y-35710000D01*
X139290000Y-35710000D01*
X139290000Y-134290000D01*
X139290000Y-134290000D01*
G37*
X139290000Y-134290000D02*
X90710000Y-134290000D01*
X90710000Y-132416266D01*
X92763339Y-132416266D01*
X93075487Y-132864932D01*
X94318343Y-133383331D01*
X95664976Y-133386648D01*
X96910371Y-132874380D01*
X96924513Y-132864932D01*
X97236661Y-132416266D01*
X132763339Y-132416266D01*
X133075487Y-132864932D01*
X134318343Y-133383331D01*
X135664976Y-133386648D01*
X136910371Y-132874380D01*
X136924513Y-132864932D01*
X137236661Y-132416266D01*
X135000000Y-130179605D01*
X132763339Y-132416266D01*
X97236661Y-132416266D01*
X95000000Y-130179605D01*
X92763339Y-132416266D01*
X90710000Y-132416266D01*
X90710000Y-130664976D01*
X91613352Y-130664976D01*
X92125620Y-131910371D01*
X92135068Y-131924513D01*
X92583734Y-132236661D01*
X94820395Y-130000000D01*
X95179605Y-130000000D01*
X97416266Y-132236661D01*
X97864932Y-131924513D01*
X98383331Y-130681657D01*
X98383372Y-130664976D01*
X131613352Y-130664976D01*
X132125620Y-131910371D01*
X132135068Y-131924513D01*
X132583734Y-132236661D01*
X134820395Y-130000000D01*
X135179605Y-130000000D01*
X137416266Y-132236661D01*
X137864932Y-131924513D01*
X138383331Y-130681657D01*
X138386648Y-129335024D01*
X137874380Y-128089629D01*
X137864932Y-128075487D01*
X137416266Y-127763339D01*
X135179605Y-130000000D01*
X134820395Y-130000000D01*
X132583734Y-127763339D01*
X132135068Y-128075487D01*
X131616669Y-129318343D01*
X131613352Y-130664976D01*
X98383372Y-130664976D01*
X98386648Y-129335024D01*
X97874380Y-128089629D01*
X97864932Y-128075487D01*
X97416266Y-127763339D01*
X95179605Y-130000000D01*
X94820395Y-130000000D01*
X92583734Y-127763339D01*
X92135068Y-128075487D01*
X91616669Y-129318343D01*
X91613352Y-130664976D01*
X90710000Y-130664976D01*
X90710000Y-127583734D01*
X92763339Y-127583734D01*
X95000000Y-129820395D01*
X97236661Y-127583734D01*
X132763339Y-127583734D01*
X135000000Y-129820395D01*
X137236661Y-127583734D01*
X136924513Y-127135068D01*
X135681657Y-126616669D01*
X134335024Y-126613352D01*
X133089629Y-127125620D01*
X133075487Y-127135068D01*
X132763339Y-127583734D01*
X97236661Y-127583734D01*
X96924513Y-127135068D01*
X95681657Y-126616669D01*
X94335024Y-126613352D01*
X93089629Y-127125620D01*
X93075487Y-127135068D01*
X92763339Y-127583734D01*
X90710000Y-127583734D01*
X90710000Y-115503070D01*
X93385430Y-115503070D01*
X93400390Y-115577277D01*
X93662020Y-116058026D01*
X94087709Y-116402059D01*
X94612650Y-116557000D01*
X94949200Y-116557000D01*
X94949200Y-115287000D01*
X95203200Y-115287000D01*
X95203200Y-116557000D01*
X95539750Y-116557000D01*
X96064691Y-116402059D01*
X96490380Y-116058026D01*
X96752010Y-115577277D01*
X96766970Y-115503070D01*
X96644470Y-115287000D01*
X95203200Y-115287000D01*
X94949200Y-115287000D01*
X93507930Y-115287000D01*
X93385430Y-115503070D01*
X90710000Y-115503070D01*
X90710000Y-97380000D01*
X93308688Y-97380000D01*
X93415028Y-97914609D01*
X93717860Y-98367828D01*
X94140159Y-98650000D01*
X93717860Y-98932172D01*
X93415028Y-99385391D01*
X93308688Y-99920000D01*
X93415028Y-100454609D01*
X93717860Y-100907828D01*
X94140159Y-101190000D01*
X93717860Y-101472172D01*
X93415028Y-101925391D01*
X93308688Y-102460000D01*
X93415028Y-102994609D01*
X93717860Y-103447828D01*
X94140159Y-103730000D01*
X93717860Y-104012172D01*
X93415028Y-104465391D01*
X93308688Y-105000000D01*
X93415028Y-105534609D01*
X93717860Y-105987828D01*
X94140159Y-106270000D01*
X93717860Y-106552172D01*
X93415028Y-107005391D01*
X93308688Y-107540000D01*
X93415028Y-108074609D01*
X93717860Y-108527828D01*
X94140159Y-108810000D01*
X93717860Y-109092172D01*
X93415028Y-109545391D01*
X93308688Y-110080000D01*
X93415028Y-110614609D01*
X93717860Y-111067828D01*
X94140159Y-111350000D01*
X93717860Y-111632172D01*
X93415028Y-112085391D01*
X93308688Y-112620000D01*
X93415028Y-113154609D01*
X93717860Y-113607828D01*
X94153093Y-113898642D01*
X94087709Y-113917941D01*
X93662020Y-114261974D01*
X93400390Y-114742723D01*
X93385430Y-114816930D01*
X93507930Y-115033000D01*
X94949200Y-115033000D01*
X94949200Y-115013000D01*
X95203200Y-115013000D01*
X95203200Y-115033000D01*
X96644470Y-115033000D01*
X96766970Y-114816930D01*
X96752010Y-114742723D01*
X96490380Y-114261974D01*
X96064691Y-113917941D01*
X95999307Y-113898642D01*
X96434540Y-113607828D01*
X96737372Y-113154609D01*
X96843712Y-112620000D01*
X96737372Y-112085391D01*
X96434540Y-111632172D01*
X96012241Y-111350000D01*
X96434540Y-111067828D01*
X96737372Y-110614609D01*
X96843712Y-110080000D01*
X96737372Y-109545391D01*
X96434540Y-109092172D01*
X96012241Y-108810000D01*
X96434540Y-108527828D01*
X96737372Y-108074609D01*
X96843712Y-107540000D01*
X96737372Y-107005391D01*
X96434540Y-106552172D01*
X96012241Y-106270000D01*
X96434540Y-105987828D01*
X96737372Y-105534609D01*
X96843712Y-105000000D01*
X96737372Y-104465391D01*
X96434540Y-104012172D01*
X96012241Y-103730000D01*
X96434540Y-103447828D01*
X96737372Y-102994609D01*
X96843712Y-102460000D01*
X96737372Y-101925391D01*
X96434540Y-101472172D01*
X96012241Y-101190000D01*
X96434540Y-100907828D01*
X96737372Y-100454609D01*
X96843712Y-99920000D01*
X96737372Y-99385391D01*
X96434540Y-98932172D01*
X96012241Y-98650000D01*
X96434540Y-98367828D01*
X96737372Y-97914609D01*
X96843712Y-97380000D01*
X96737372Y-96845391D01*
X96434540Y-96392172D01*
X96210781Y-96242660D01*
X96410067Y-96205162D01*
X96626191Y-96066090D01*
X96771181Y-95853890D01*
X96822190Y-95602000D01*
X96822190Y-94078000D01*
X96777912Y-93842683D01*
X96638840Y-93626559D01*
X96426640Y-93481569D01*
X96174750Y-93430560D01*
X93977650Y-93430560D01*
X93742333Y-93474838D01*
X93526209Y-93613910D01*
X93381219Y-93826110D01*
X93330210Y-94078000D01*
X93330210Y-95602000D01*
X93374488Y-95837317D01*
X93513560Y-96053441D01*
X93725760Y-96198431D01*
X93942213Y-96242264D01*
X93717860Y-96392172D01*
X93415028Y-96845391D01*
X93308688Y-97380000D01*
X90710000Y-97380000D01*
X90710000Y-89810000D01*
X93308688Y-89810000D01*
X93415028Y-90344609D01*
X93717860Y-90797828D01*
X94171079Y-91100660D01*
X94705688Y-91207000D01*
X95446712Y-91207000D01*
X95981321Y-91100660D01*
X96434540Y-90797828D01*
X96737372Y-90344609D01*
X96843712Y-89810000D01*
X96737372Y-89275391D01*
X96434540Y-88822172D01*
X95999307Y-88531358D01*
X96064691Y-88512059D01*
X96490380Y-88168026D01*
X96752010Y-87687277D01*
X96766970Y-87613070D01*
X96644470Y-87397000D01*
X95203200Y-87397000D01*
X95203200Y-87417000D01*
X94949200Y-87417000D01*
X94949200Y-87397000D01*
X93507930Y-87397000D01*
X93385430Y-87613070D01*
X93400390Y-87687277D01*
X93662020Y-88168026D01*
X94087709Y-88512059D01*
X94153093Y-88531358D01*
X93717860Y-88822172D01*
X93415028Y-89275391D01*
X93308688Y-89810000D01*
X90710000Y-89810000D01*
X90710000Y-84730000D01*
X93308688Y-84730000D01*
X93415028Y-85264609D01*
X93717860Y-85717828D01*
X94153093Y-86008642D01*
X94087709Y-86027941D01*
X93662020Y-86371974D01*
X93400390Y-86852723D01*
X93385430Y-86926930D01*
X93507930Y-87143000D01*
X94949200Y-87143000D01*
X94949200Y-87123000D01*
X95203200Y-87123000D01*
X95203200Y-87143000D01*
X96644470Y-87143000D01*
X96766970Y-86926930D01*
X96752010Y-86852723D01*
X96490380Y-86371974D01*
X96064691Y-86027941D01*
X95999307Y-86008642D01*
X96434540Y-85717828D01*
X96737372Y-85264609D01*
X96843712Y-84730000D01*
X96737372Y-84195391D01*
X96434540Y-83742172D01*
X96210781Y-83592660D01*
X96410067Y-83555162D01*
X96626191Y-83416090D01*
X96771181Y-83203890D01*
X96822190Y-82952000D01*
X96822190Y-81428000D01*
X96777912Y-81192683D01*
X96638840Y-80976559D01*
X96426640Y-80831569D01*
X96174750Y-80780560D01*
X93977650Y-80780560D01*
X93742333Y-80824838D01*
X93526209Y-80963910D01*
X93381219Y-81176110D01*
X93330210Y-81428000D01*
X93330210Y-82952000D01*
X93374488Y-83187317D01*
X93513560Y-83403441D01*
X93725760Y-83548431D01*
X93942213Y-83592264D01*
X93717860Y-83742172D01*
X93415028Y-84195391D01*
X93308688Y-84730000D01*
X90710000Y-84730000D01*
X90710000Y-75503070D01*
X93385430Y-75503070D01*
X93400390Y-75577277D01*
X93662020Y-76058026D01*
X94087709Y-76402059D01*
X94612650Y-76557000D01*
X94949200Y-76557000D01*
X94949200Y-75287000D01*
X95203200Y-75287000D01*
X95203200Y-76557000D01*
X95539750Y-76557000D01*
X96064691Y-76402059D01*
X96490380Y-76058026D01*
X96752010Y-75577277D01*
X96766970Y-75503070D01*
X96644470Y-75287000D01*
X95203200Y-75287000D01*
X94949200Y-75287000D01*
X93507930Y-75287000D01*
X93385430Y-75503070D01*
X90710000Y-75503070D01*
X90710000Y-57380000D01*
X93308688Y-57380000D01*
X93415028Y-57914609D01*
X93717860Y-58367828D01*
X94140159Y-58650000D01*
X93717860Y-58932172D01*
X93415028Y-59385391D01*
X93308688Y-59920000D01*
X93415028Y-60454609D01*
X93717860Y-60907828D01*
X94140159Y-61190000D01*
X93717860Y-61472172D01*
X93415028Y-61925391D01*
X93308688Y-62460000D01*
X93415028Y-62994609D01*
X93717860Y-63447828D01*
X94140159Y-63730000D01*
X93717860Y-64012172D01*
X93415028Y-64465391D01*
X93308688Y-65000000D01*
X93415028Y-65534609D01*
X93717860Y-65987828D01*
X94140159Y-66270000D01*
X93717860Y-66552172D01*
X93415028Y-67005391D01*
X93308688Y-67540000D01*
X93415028Y-68074609D01*
X93717860Y-68527828D01*
X94140159Y-68810000D01*
X93717860Y-69092172D01*
X93415028Y-69545391D01*
X93308688Y-70080000D01*
X93415028Y-70614609D01*
X93717860Y-71067828D01*
X94140159Y-71350000D01*
X93717860Y-71632172D01*
X93415028Y-72085391D01*
X93308688Y-72620000D01*
X93415028Y-73154609D01*
X93717860Y-73607828D01*
X94153093Y-73898642D01*
X94087709Y-73917941D01*
X93662020Y-74261974D01*
X93400390Y-74742723D01*
X93385430Y-74816930D01*
X93507930Y-75033000D01*
X94949200Y-75033000D01*
X94949200Y-75013000D01*
X95203200Y-75013000D01*
X95203200Y-75033000D01*
X96644470Y-75033000D01*
X96766970Y-74816930D01*
X96752010Y-74742723D01*
X96490380Y-74261974D01*
X96064691Y-73917941D01*
X95999307Y-73898642D01*
X96434540Y-73607828D01*
X96737372Y-73154609D01*
X96843712Y-72620000D01*
X96737372Y-72085391D01*
X96434540Y-71632172D01*
X96012241Y-71350000D01*
X96434540Y-71067828D01*
X96737372Y-70614609D01*
X96843712Y-70080000D01*
X96737372Y-69545391D01*
X96434540Y-69092172D01*
X96012241Y-68810000D01*
X96434540Y-68527828D01*
X96737372Y-68074609D01*
X96843712Y-67540000D01*
X96737372Y-67005391D01*
X96434540Y-66552172D01*
X96012241Y-66270000D01*
X96434540Y-65987828D01*
X96737372Y-65534609D01*
X96843712Y-65000000D01*
X96737372Y-64465391D01*
X96434540Y-64012172D01*
X96012241Y-63730000D01*
X96434540Y-63447828D01*
X96737372Y-62994609D01*
X96843712Y-62460000D01*
X96737372Y-61925391D01*
X96434540Y-61472172D01*
X96012241Y-61190000D01*
X96434540Y-60907828D01*
X96737372Y-60454609D01*
X96843712Y-59920000D01*
X96737372Y-59385391D01*
X96434540Y-58932172D01*
X96012241Y-58650000D01*
X96434540Y-58367828D01*
X96737372Y-57914609D01*
X96843712Y-57380000D01*
X96737372Y-56845391D01*
X96434540Y-56392172D01*
X96210781Y-56242660D01*
X96410067Y-56205162D01*
X96626191Y-56066090D01*
X96771181Y-55853890D01*
X96822190Y-55602000D01*
X96822190Y-54250000D01*
X103515000Y-54250000D01*
X103515000Y-114750000D01*
X103609009Y-115222614D01*
X103876723Y-115623277D01*
X107626723Y-119373277D01*
X108027386Y-119640991D01*
X108500000Y-119735000D01*
X108972614Y-119640991D01*
X109373277Y-119373277D01*
X109640991Y-118972614D01*
X109677315Y-118790000D01*
X134585907Y-118790000D01*
X134698946Y-119358285D01*
X135020853Y-119840054D01*
X135502622Y-120161961D01*
X136070907Y-120275000D01*
X136129093Y-120275000D01*
X136697378Y-120161961D01*
X137179147Y-119840054D01*
X137501054Y-119358285D01*
X137614093Y-118790000D01*
X137501054Y-118221715D01*
X137179147Y-117739946D01*
X137137548Y-117712150D01*
X137185317Y-117703162D01*
X137401441Y-117564090D01*
X137546431Y-117351890D01*
X137597440Y-117100000D01*
X137597440Y-115400000D01*
X137553162Y-115164683D01*
X137414090Y-114948559D01*
X137201890Y-114803569D01*
X136950000Y-114752560D01*
X135250000Y-114752560D01*
X135014683Y-114796838D01*
X134798559Y-114935910D01*
X134653569Y-115148110D01*
X134602560Y-115400000D01*
X134602560Y-117100000D01*
X134646838Y-117335317D01*
X134785910Y-117551441D01*
X134998110Y-117696431D01*
X135065541Y-117710086D01*
X135020853Y-117739946D01*
X134698946Y-118221715D01*
X134585907Y-118790000D01*
X109677315Y-118790000D01*
X109735000Y-118500000D01*
X109640991Y-118027386D01*
X109373277Y-117626723D01*
X105985000Y-114238446D01*
X105985000Y-111803070D01*
X134409230Y-111803070D01*
X134424190Y-111877277D01*
X134685820Y-112358026D01*
X135111509Y-112702059D01*
X135636450Y-112857000D01*
X135973000Y-112857000D01*
X135973000Y-111587000D01*
X136227000Y-111587000D01*
X136227000Y-112857000D01*
X136563550Y-112857000D01*
X137088491Y-112702059D01*
X137514180Y-112358026D01*
X137775810Y-111877277D01*
X137790770Y-111803070D01*
X137668270Y-111587000D01*
X136227000Y-111587000D01*
X135973000Y-111587000D01*
X134531730Y-111587000D01*
X134409230Y-111803070D01*
X105985000Y-111803070D01*
X105985000Y-94735750D01*
X123140000Y-94735750D01*
X123140000Y-95326309D01*
X123236673Y-95559698D01*
X123415301Y-95738327D01*
X123648690Y-95835000D01*
X124114250Y-95835000D01*
X124273000Y-95676250D01*
X124273000Y-94577000D01*
X124527000Y-94577000D01*
X124527000Y-95676250D01*
X124685750Y-95835000D01*
X125151310Y-95835000D01*
X125384699Y-95738327D01*
X125500000Y-95623025D01*
X125615301Y-95738327D01*
X125848690Y-95835000D01*
X126314250Y-95835000D01*
X126473000Y-95676250D01*
X126473000Y-94577000D01*
X126727000Y-94577000D01*
X126727000Y-95676250D01*
X126885750Y-95835000D01*
X127351310Y-95835000D01*
X127584699Y-95738327D01*
X127763327Y-95559698D01*
X127860000Y-95326309D01*
X127860000Y-94735750D01*
X127701250Y-94577000D01*
X126727000Y-94577000D01*
X126473000Y-94577000D01*
X124527000Y-94577000D01*
X124273000Y-94577000D01*
X123298750Y-94577000D01*
X123140000Y-94735750D01*
X105985000Y-94735750D01*
X105985000Y-89800000D01*
X110965000Y-89800000D01*
X111043785Y-90196077D01*
X111268144Y-90531856D01*
X111603923Y-90756215D01*
X112000000Y-90835000D01*
X119101147Y-90835000D01*
X119126723Y-90873277D01*
X119527386Y-91140991D01*
X120000000Y-91235000D01*
X123127560Y-91235000D01*
X123127560Y-92700000D01*
X123171838Y-92935317D01*
X123310910Y-93151441D01*
X123379006Y-93197969D01*
X123236673Y-93340302D01*
X123140000Y-93573691D01*
X123140000Y-94164250D01*
X123298750Y-94323000D01*
X124273000Y-94323000D01*
X124273000Y-94303000D01*
X124527000Y-94303000D01*
X124527000Y-94323000D01*
X126473000Y-94323000D01*
X126473000Y-94303000D01*
X126727000Y-94303000D01*
X126727000Y-94323000D01*
X127701250Y-94323000D01*
X127860000Y-94164250D01*
X127860000Y-93573691D01*
X127763327Y-93340302D01*
X127622090Y-93199064D01*
X127676441Y-93164090D01*
X127821431Y-92951890D01*
X127872440Y-92700000D01*
X127872440Y-91200000D01*
X127828162Y-90964683D01*
X127689090Y-90748559D01*
X127635000Y-90711601D01*
X127635000Y-90511554D01*
X128933277Y-89213277D01*
X129200991Y-88812614D01*
X129295001Y-88340000D01*
X129295000Y-88339995D01*
X129295000Y-87416803D01*
X129330000Y-87364422D01*
X129520853Y-87650054D01*
X130002622Y-87971961D01*
X130570907Y-88085000D01*
X130629093Y-88085000D01*
X131197378Y-87971961D01*
X131679147Y-87650054D01*
X132001054Y-87168285D01*
X132007675Y-87135000D01*
X133128808Y-87135000D01*
X133235910Y-87301441D01*
X133448110Y-87446431D01*
X133700000Y-87497440D01*
X134465605Y-87497440D01*
X134405019Y-87586110D01*
X134354010Y-87838000D01*
X134354010Y-89362000D01*
X134398288Y-89597317D01*
X134537360Y-89813441D01*
X134749560Y-89958431D01*
X134966013Y-90002264D01*
X134741660Y-90152172D01*
X134438828Y-90605391D01*
X134332488Y-91140000D01*
X134438828Y-91674609D01*
X134741660Y-92127828D01*
X135163959Y-92410000D01*
X134741660Y-92692172D01*
X134438828Y-93145391D01*
X134332488Y-93680000D01*
X134438828Y-94214609D01*
X134741660Y-94667828D01*
X135163959Y-94950000D01*
X134741660Y-95232172D01*
X134438828Y-95685391D01*
X134332488Y-96220000D01*
X134438828Y-96754609D01*
X134741660Y-97207828D01*
X135163959Y-97490000D01*
X134741660Y-97772172D01*
X134438828Y-98225391D01*
X134332488Y-98760000D01*
X134438828Y-99294609D01*
X134741660Y-99747828D01*
X135163959Y-100030000D01*
X134741660Y-100312172D01*
X134438828Y-100765391D01*
X134332488Y-101300000D01*
X134438828Y-101834609D01*
X134741660Y-102287828D01*
X135163959Y-102570000D01*
X134741660Y-102852172D01*
X134438828Y-103305391D01*
X134332488Y-103840000D01*
X134438828Y-104374609D01*
X134741660Y-104827828D01*
X135163959Y-105110000D01*
X134741660Y-105392172D01*
X134438828Y-105845391D01*
X134332488Y-106380000D01*
X134438828Y-106914609D01*
X134741660Y-107367828D01*
X135163959Y-107650000D01*
X134741660Y-107932172D01*
X134438828Y-108385391D01*
X134332488Y-108920000D01*
X134438828Y-109454609D01*
X134741660Y-109907828D01*
X135176893Y-110198642D01*
X135111509Y-110217941D01*
X134685820Y-110561974D01*
X134424190Y-111042723D01*
X134409230Y-111116930D01*
X134531730Y-111333000D01*
X135973000Y-111333000D01*
X135973000Y-111313000D01*
X136227000Y-111313000D01*
X136227000Y-111333000D01*
X137668270Y-111333000D01*
X137790770Y-111116930D01*
X137775810Y-111042723D01*
X137514180Y-110561974D01*
X137088491Y-110217941D01*
X137023107Y-110198642D01*
X137458340Y-109907828D01*
X137761172Y-109454609D01*
X137867512Y-108920000D01*
X137761172Y-108385391D01*
X137458340Y-107932172D01*
X137036041Y-107650000D01*
X137458340Y-107367828D01*
X137761172Y-106914609D01*
X137867512Y-106380000D01*
X137761172Y-105845391D01*
X137458340Y-105392172D01*
X137036041Y-105110000D01*
X137458340Y-104827828D01*
X137761172Y-104374609D01*
X137867512Y-103840000D01*
X137761172Y-103305391D01*
X137458340Y-102852172D01*
X137036041Y-102570000D01*
X137458340Y-102287828D01*
X137761172Y-101834609D01*
X137867512Y-101300000D01*
X137761172Y-100765391D01*
X137458340Y-100312172D01*
X137036041Y-100030000D01*
X137458340Y-99747828D01*
X137761172Y-99294609D01*
X137867512Y-98760000D01*
X137761172Y-98225391D01*
X137458340Y-97772172D01*
X137036041Y-97490000D01*
X137458340Y-97207828D01*
X137761172Y-96754609D01*
X137867512Y-96220000D01*
X137761172Y-95685391D01*
X137458340Y-95232172D01*
X137036041Y-94950000D01*
X137458340Y-94667828D01*
X137761172Y-94214609D01*
X137867512Y-93680000D01*
X137761172Y-93145391D01*
X137458340Y-92692172D01*
X137036041Y-92410000D01*
X137458340Y-92127828D01*
X137761172Y-91674609D01*
X137867512Y-91140000D01*
X137761172Y-90605391D01*
X137458340Y-90152172D01*
X137234581Y-90002660D01*
X137433867Y-89965162D01*
X137649991Y-89826090D01*
X137794981Y-89613890D01*
X137845990Y-89362000D01*
X137845990Y-87838000D01*
X137801712Y-87602683D01*
X137725985Y-87485000D01*
X138026309Y-87485000D01*
X138259698Y-87388327D01*
X138438327Y-87209699D01*
X138535000Y-86976310D01*
X138535000Y-86485750D01*
X138376250Y-86327000D01*
X137277000Y-86327000D01*
X137277000Y-86347000D01*
X137023000Y-86347000D01*
X137023000Y-86327000D01*
X137003000Y-86327000D01*
X137003000Y-86073000D01*
X137023000Y-86073000D01*
X137023000Y-84327000D01*
X137277000Y-84327000D01*
X137277000Y-86073000D01*
X138376250Y-86073000D01*
X138535000Y-85914250D01*
X138535000Y-85423690D01*
X138442344Y-85200000D01*
X138535000Y-84976310D01*
X138535000Y-84485750D01*
X138376250Y-84327000D01*
X137277000Y-84327000D01*
X137023000Y-84327000D01*
X137003000Y-84327000D01*
X137003000Y-84073000D01*
X137023000Y-84073000D01*
X137023000Y-83073750D01*
X137277000Y-83073750D01*
X137277000Y-84073000D01*
X138376250Y-84073000D01*
X138535000Y-83914250D01*
X138535000Y-83423690D01*
X138438327Y-83190301D01*
X138259698Y-83011673D01*
X138026309Y-82915000D01*
X137435750Y-82915000D01*
X137277000Y-83073750D01*
X137023000Y-83073750D01*
X136864250Y-82915000D01*
X136273691Y-82915000D01*
X136040302Y-83011673D01*
X135861673Y-83190301D01*
X135805346Y-83326287D01*
X135803162Y-83314683D01*
X135664090Y-83098559D01*
X135451890Y-82953569D01*
X135200000Y-82902560D01*
X133700000Y-82902560D01*
X133464683Y-82946838D01*
X133248559Y-83085910D01*
X133126192Y-83265000D01*
X131849568Y-83265000D01*
X131679147Y-83009946D01*
X131349974Y-82790000D01*
X131679147Y-82570054D01*
X132001054Y-82088285D01*
X132063754Y-81773070D01*
X134309230Y-81773070D01*
X134324190Y-81847277D01*
X134585820Y-82328026D01*
X135011509Y-82672059D01*
X135536450Y-82827000D01*
X135873000Y-82827000D01*
X135873000Y-81557000D01*
X136127000Y-81557000D01*
X136127000Y-82827000D01*
X136463550Y-82827000D01*
X136988491Y-82672059D01*
X137414180Y-82328026D01*
X137675810Y-81847277D01*
X137690770Y-81773070D01*
X137568270Y-81557000D01*
X136127000Y-81557000D01*
X135873000Y-81557000D01*
X134431730Y-81557000D01*
X134309230Y-81773070D01*
X132063754Y-81773070D01*
X132114093Y-81520000D01*
X132001054Y-80951715D01*
X131679147Y-80469946D01*
X131197378Y-80148039D01*
X130629093Y-80035000D01*
X130570907Y-80035000D01*
X130002622Y-80148039D01*
X129520853Y-80469946D01*
X129520029Y-80471179D01*
X129513162Y-80434683D01*
X129374090Y-80218559D01*
X129161890Y-80073569D01*
X128910000Y-80022560D01*
X127210000Y-80022560D01*
X126974683Y-80066838D01*
X126758559Y-80205910D01*
X126613569Y-80418110D01*
X126562560Y-80670000D01*
X126562560Y-82370000D01*
X126606838Y-82605317D01*
X126745910Y-82821441D01*
X126825000Y-82875481D01*
X126825000Y-83243197D01*
X126658946Y-83491715D01*
X126545907Y-84060000D01*
X126658946Y-84628285D01*
X126825000Y-84876803D01*
X126825000Y-85783197D01*
X126658946Y-86031715D01*
X126545907Y-86600000D01*
X126658946Y-87168285D01*
X126825000Y-87416803D01*
X126825000Y-87828446D01*
X125888446Y-88765000D01*
X120000000Y-88765000D01*
X119900002Y-88784891D01*
X119800000Y-88764999D01*
X119799995Y-88765000D01*
X116435000Y-88765000D01*
X116435000Y-83185167D01*
X117464838Y-83185167D01*
X117606883Y-83528943D01*
X117869673Y-83792192D01*
X118213201Y-83934838D01*
X118585167Y-83935162D01*
X118800104Y-83846352D01*
X119013201Y-83934838D01*
X119385167Y-83935162D01*
X119600121Y-83846345D01*
X119813211Y-83934828D01*
X120185177Y-83935152D01*
X120528953Y-83793107D01*
X120537084Y-83784990D01*
X121662494Y-83784990D01*
X121669673Y-83792182D01*
X121908756Y-83891458D01*
X122006883Y-84128945D01*
X122269673Y-84392194D01*
X122508760Y-84491472D01*
X122606883Y-84728949D01*
X122869673Y-84992198D01*
X123213201Y-85134844D01*
X123585167Y-85135168D01*
X123928943Y-84993123D01*
X124192192Y-84730333D01*
X124334838Y-84386805D01*
X124335162Y-84014839D01*
X124193117Y-83671063D01*
X123930327Y-83407814D01*
X123691240Y-83308536D01*
X123593117Y-83071059D01*
X123330327Y-82807810D01*
X123091244Y-82708534D01*
X122993117Y-82471047D01*
X122730327Y-82207798D01*
X122386799Y-82065152D01*
X122014833Y-82064828D01*
X121671057Y-82206873D01*
X121662926Y-82214990D01*
X120537516Y-82214990D01*
X120530337Y-82207798D01*
X120186809Y-82065152D01*
X119814843Y-82064828D01*
X119599889Y-82153645D01*
X119386799Y-82065162D01*
X119014833Y-82064838D01*
X118799896Y-82153648D01*
X118586799Y-82065162D01*
X118214833Y-82064838D01*
X117871057Y-82206883D01*
X117607808Y-82469673D01*
X117465162Y-82813201D01*
X117464838Y-83185167D01*
X116435000Y-83185167D01*
X116435000Y-80600000D01*
X116356215Y-80203923D01*
X116131856Y-79868144D01*
X115796077Y-79643785D01*
X115400000Y-79565000D01*
X115003923Y-79643785D01*
X114668144Y-79868144D01*
X114443785Y-80203923D01*
X114365000Y-80600000D01*
X114365000Y-88765000D01*
X112000000Y-88765000D01*
X111603923Y-88843785D01*
X111268144Y-89068144D01*
X111043785Y-89403923D01*
X110965000Y-89800000D01*
X105985000Y-89800000D01*
X105985000Y-54761554D01*
X106311554Y-54435000D01*
X110200000Y-54435000D01*
X110672614Y-54340991D01*
X111073277Y-54073277D01*
X111340991Y-53672614D01*
X111435000Y-53200000D01*
X111395218Y-53000000D01*
X131765000Y-53000000D01*
X131765000Y-76000000D01*
X131859009Y-76472614D01*
X132126723Y-76873277D01*
X134254597Y-79001151D01*
X134338828Y-79424609D01*
X134641660Y-79877828D01*
X135076893Y-80168642D01*
X135011509Y-80187941D01*
X134585820Y-80531974D01*
X134324190Y-81012723D01*
X134309230Y-81086930D01*
X134431730Y-81303000D01*
X135873000Y-81303000D01*
X135873000Y-81283000D01*
X136127000Y-81283000D01*
X136127000Y-81303000D01*
X137568270Y-81303000D01*
X137690770Y-81086930D01*
X137675810Y-81012723D01*
X137414180Y-80531974D01*
X136988491Y-80187941D01*
X136923107Y-80168642D01*
X137358340Y-79877828D01*
X137661172Y-79424609D01*
X137767512Y-78890000D01*
X137661172Y-78355391D01*
X137358340Y-77902172D01*
X136936041Y-77620000D01*
X137358340Y-77337828D01*
X137661172Y-76884609D01*
X137767512Y-76350000D01*
X137661172Y-75815391D01*
X137358340Y-75362172D01*
X136936041Y-75080000D01*
X137358340Y-74797828D01*
X137661172Y-74344609D01*
X137767512Y-73810000D01*
X137661172Y-73275391D01*
X137358340Y-72822172D01*
X136936041Y-72540000D01*
X137358340Y-72257828D01*
X137661172Y-71804609D01*
X137767512Y-71270000D01*
X137661172Y-70735391D01*
X137358340Y-70282172D01*
X136936041Y-70000000D01*
X137358340Y-69717828D01*
X137661172Y-69264609D01*
X137767512Y-68730000D01*
X137661172Y-68195391D01*
X137358340Y-67742172D01*
X136936041Y-67460000D01*
X137358340Y-67177828D01*
X137661172Y-66724609D01*
X137767512Y-66190000D01*
X137661172Y-65655391D01*
X137358340Y-65202172D01*
X136936041Y-64920000D01*
X137358340Y-64637828D01*
X137661172Y-64184609D01*
X137767512Y-63650000D01*
X137661172Y-63115391D01*
X137358340Y-62662172D01*
X136936041Y-62380000D01*
X137358340Y-62097828D01*
X137661172Y-61644609D01*
X137767512Y-61110000D01*
X137661172Y-60575391D01*
X137358340Y-60122172D01*
X137134581Y-59972660D01*
X137333867Y-59935162D01*
X137549991Y-59796090D01*
X137694981Y-59583890D01*
X137745990Y-59332000D01*
X137745990Y-57808000D01*
X137701712Y-57572683D01*
X137562640Y-57356559D01*
X137350440Y-57211569D01*
X137098550Y-57160560D01*
X134901450Y-57160560D01*
X134666133Y-57204838D01*
X134450009Y-57343910D01*
X134305019Y-57556110D01*
X134254010Y-57808000D01*
X134254010Y-59332000D01*
X134298288Y-59567317D01*
X134437360Y-59783441D01*
X134649560Y-59928431D01*
X134866013Y-59972264D01*
X134641660Y-60122172D01*
X134338828Y-60575391D01*
X134235000Y-61097371D01*
X134235000Y-53511554D01*
X135281554Y-52465000D01*
X135380287Y-52465000D01*
X135435910Y-52551441D01*
X135648110Y-52696431D01*
X135715541Y-52710086D01*
X135670853Y-52739946D01*
X135348946Y-53221715D01*
X135235907Y-53790000D01*
X135348946Y-54358285D01*
X135670853Y-54840054D01*
X136152622Y-55161961D01*
X136720907Y-55275000D01*
X136779093Y-55275000D01*
X137347378Y-55161961D01*
X137829147Y-54840054D01*
X138151054Y-54358285D01*
X138264093Y-53790000D01*
X138151054Y-53221715D01*
X137829147Y-52739946D01*
X137787548Y-52712150D01*
X137835317Y-52703162D01*
X138051441Y-52564090D01*
X138196431Y-52351890D01*
X138247440Y-52100000D01*
X138247440Y-50400000D01*
X138203162Y-50164683D01*
X138064090Y-49948559D01*
X137851890Y-49803569D01*
X137600000Y-49752560D01*
X135900000Y-49752560D01*
X135664683Y-49796838D01*
X135448559Y-49935910D01*
X135408185Y-49995000D01*
X134770000Y-49995000D01*
X134297386Y-50089009D01*
X133896723Y-50356723D01*
X132126723Y-52126723D01*
X131859009Y-52527386D01*
X131765000Y-53000000D01*
X111395218Y-53000000D01*
X111340991Y-52727386D01*
X111073277Y-52326723D01*
X110672614Y-52059009D01*
X110200000Y-51965000D01*
X105800000Y-51965000D01*
X105327386Y-52059009D01*
X104926723Y-52326723D01*
X103876723Y-53376723D01*
X103609009Y-53777386D01*
X103515000Y-54250000D01*
X96822190Y-54250000D01*
X96822190Y-54078000D01*
X96777912Y-53842683D01*
X96638840Y-53626559D01*
X96426640Y-53481569D01*
X96174750Y-53430560D01*
X93977650Y-53430560D01*
X93742333Y-53474838D01*
X93526209Y-53613910D01*
X93381219Y-53826110D01*
X93330210Y-54078000D01*
X93330210Y-55602000D01*
X93374488Y-55837317D01*
X93513560Y-56053441D01*
X93725760Y-56198431D01*
X93942213Y-56242264D01*
X93717860Y-56392172D01*
X93415028Y-56845391D01*
X93308688Y-57380000D01*
X90710000Y-57380000D01*
X90710000Y-51270000D01*
X93308688Y-51270000D01*
X93415028Y-51804609D01*
X93717860Y-52257828D01*
X94171079Y-52560660D01*
X94705688Y-52667000D01*
X95446712Y-52667000D01*
X95981321Y-52560660D01*
X96434540Y-52257828D01*
X96737372Y-51804609D01*
X96843712Y-51270000D01*
X96737372Y-50735391D01*
X96434540Y-50282172D01*
X96202309Y-50127000D01*
X96301060Y-50127000D01*
X96534449Y-50030327D01*
X96713077Y-49851698D01*
X96809750Y-49618309D01*
X96809750Y-49015750D01*
X96651000Y-48857000D01*
X95203200Y-48857000D01*
X95203200Y-48877000D01*
X94949200Y-48877000D01*
X94949200Y-48857000D01*
X93501400Y-48857000D01*
X93342650Y-49015750D01*
X93342650Y-49618309D01*
X93439323Y-49851698D01*
X93617951Y-50030327D01*
X93851340Y-50127000D01*
X93950091Y-50127000D01*
X93717860Y-50282172D01*
X93415028Y-50735391D01*
X93308688Y-51270000D01*
X90710000Y-51270000D01*
X90710000Y-47841691D01*
X93342650Y-47841691D01*
X93342650Y-48444250D01*
X93501400Y-48603000D01*
X94949200Y-48603000D01*
X94949200Y-47491750D01*
X95203200Y-47491750D01*
X95203200Y-48603000D01*
X96651000Y-48603000D01*
X96809750Y-48444250D01*
X96809750Y-47841691D01*
X96713077Y-47608302D01*
X96534449Y-47429673D01*
X96301060Y-47333000D01*
X95361950Y-47333000D01*
X95203200Y-47491750D01*
X94949200Y-47491750D01*
X94790450Y-47333000D01*
X93851340Y-47333000D01*
X93617951Y-47429673D01*
X93439323Y-47608302D01*
X93342650Y-47841691D01*
X90710000Y-47841691D01*
X90710000Y-42416266D01*
X92763339Y-42416266D01*
X93075487Y-42864932D01*
X94318343Y-43383331D01*
X95664976Y-43386648D01*
X96910371Y-42874380D01*
X96924513Y-42864932D01*
X97236661Y-42416266D01*
X132763339Y-42416266D01*
X133075487Y-42864932D01*
X134318343Y-43383331D01*
X135664976Y-43386648D01*
X136910371Y-42874380D01*
X136924513Y-42864932D01*
X137236661Y-42416266D01*
X135000000Y-40179605D01*
X132763339Y-42416266D01*
X97236661Y-42416266D01*
X95000000Y-40179605D01*
X92763339Y-42416266D01*
X90710000Y-42416266D01*
X90710000Y-40664976D01*
X91613352Y-40664976D01*
X92125620Y-41910371D01*
X92135068Y-41924513D01*
X92583734Y-42236661D01*
X94820395Y-40000000D01*
X95179605Y-40000000D01*
X97416266Y-42236661D01*
X97864932Y-41924513D01*
X98383331Y-40681657D01*
X98383372Y-40664976D01*
X131613352Y-40664976D01*
X132125620Y-41910371D01*
X132135068Y-41924513D01*
X132583734Y-42236661D01*
X134820395Y-40000000D01*
X135179605Y-40000000D01*
X137416266Y-42236661D01*
X137864932Y-41924513D01*
X138383331Y-40681657D01*
X138386648Y-39335024D01*
X137874380Y-38089629D01*
X137864932Y-38075487D01*
X137416266Y-37763339D01*
X135179605Y-40000000D01*
X134820395Y-40000000D01*
X132583734Y-37763339D01*
X132135068Y-38075487D01*
X131616669Y-39318343D01*
X131613352Y-40664976D01*
X98383372Y-40664976D01*
X98386648Y-39335024D01*
X97874380Y-38089629D01*
X97864932Y-38075487D01*
X97416266Y-37763339D01*
X95179605Y-40000000D01*
X94820395Y-40000000D01*
X92583734Y-37763339D01*
X92135068Y-38075487D01*
X91616669Y-39318343D01*
X91613352Y-40664976D01*
X90710000Y-40664976D01*
X90710000Y-37583734D01*
X92763339Y-37583734D01*
X95000000Y-39820395D01*
X97236661Y-37583734D01*
X132763339Y-37583734D01*
X135000000Y-39820395D01*
X137236661Y-37583734D01*
X136924513Y-37135068D01*
X135681657Y-36616669D01*
X134335024Y-36613352D01*
X133089629Y-37125620D01*
X133075487Y-37135068D01*
X132763339Y-37583734D01*
X97236661Y-37583734D01*
X96924513Y-37135068D01*
X95681657Y-36616669D01*
X94335024Y-36613352D01*
X93089629Y-37125620D01*
X93075487Y-37135068D01*
X92763339Y-37583734D01*
X90710000Y-37583734D01*
X90710000Y-35710000D01*
X139290000Y-35710000D01*
X139290000Y-134290000D01*
M02*
