G04 #@! TF.FileFunction,Copper,L1,Top,Signal*
%FSLAX46Y46*%
G04 Gerber Fmt 4.6, Leading zero omitted, Abs format (unit mm)*
G04 Created by KiCad (PCBNEW 4.0.7) date 12/30/17 14:03:50*
%MOMM*%
%LPD*%
G01*
G04 APERTURE LIST*
%ADD10C,0.100000*%
%ADD11R,2.197100X1.524000*%
%ADD12O,2.197100X1.524000*%
%ADD13R,1.500000X1.300000*%
%ADD14R,2.000000X0.600000*%
%ADD15C,5.500000*%
%ADD16R,1.700000X1.700000*%
%ADD17O,1.700000X1.700000*%
%ADD18R,0.400000X1.100000*%
%ADD19R,1.270000X1.470000*%
%ADD20C,0.600000*%
%ADD21C,0.250000*%
%ADD22C,0.800000*%
%ADD23C,0.300000*%
%ADD24C,0.600000*%
%ADD25C,1.200000*%
%ADD26C,0.254000*%
G04 APERTURE END LIST*
D10*
D11*
X95076200Y-48730000D03*
D12*
X95076200Y-51270000D03*
X136000000Y-78890000D03*
X136000000Y-76350000D03*
X136000000Y-73810000D03*
X136000000Y-68730000D03*
X136000000Y-66190000D03*
X136000000Y-63650000D03*
X136000000Y-81430000D03*
X136000000Y-71270000D03*
D11*
X136000000Y-58570000D03*
D12*
X136000000Y-61110000D03*
X136100000Y-108920000D03*
X136100000Y-106380000D03*
X136100000Y-103840000D03*
X136100000Y-98760000D03*
X136100000Y-96220000D03*
X136100000Y-93680000D03*
X136100000Y-111460000D03*
X136100000Y-101300000D03*
D11*
X136100000Y-88600000D03*
D12*
X136100000Y-91140000D03*
D13*
X134250000Y-84400000D03*
X136950000Y-84400000D03*
D14*
X119300000Y-59920000D03*
X119300000Y-61190000D03*
X119300000Y-62460000D03*
X119300000Y-63730000D03*
X119300000Y-65000000D03*
X119300000Y-66270000D03*
X119300000Y-67540000D03*
X119300000Y-68810000D03*
X119300000Y-70080000D03*
X128700000Y-70080000D03*
X128700000Y-68810000D03*
X128700000Y-67540000D03*
X128700000Y-66270000D03*
X128700000Y-65000000D03*
X128700000Y-63730000D03*
X128700000Y-62460000D03*
X128700000Y-61190000D03*
X128700000Y-59920000D03*
X119300000Y-96920000D03*
X119300000Y-98190000D03*
X119300000Y-99460000D03*
X119300000Y-100730000D03*
X119300000Y-102000000D03*
X119300000Y-103270000D03*
X119300000Y-104540000D03*
X119300000Y-105810000D03*
X119300000Y-107080000D03*
X128700000Y-107080000D03*
X128700000Y-105810000D03*
X128700000Y-104540000D03*
X128700000Y-103270000D03*
X128700000Y-102000000D03*
X128700000Y-100730000D03*
X128700000Y-99460000D03*
X128700000Y-98190000D03*
X128700000Y-96920000D03*
D15*
X95000000Y-40000000D03*
X95000000Y-130000000D03*
X135000000Y-130000000D03*
X135000000Y-40000000D03*
D12*
X95076200Y-72620000D03*
X95076200Y-70080000D03*
X95076200Y-65000000D03*
X95076200Y-62460000D03*
X95076200Y-59920000D03*
X95076200Y-75160000D03*
X95076200Y-67540000D03*
D11*
X95076200Y-54840000D03*
D12*
X95076200Y-57380000D03*
X95076200Y-112620000D03*
X95076200Y-110080000D03*
X95076200Y-105000000D03*
X95076200Y-102460000D03*
X95076200Y-99920000D03*
X95076200Y-115160000D03*
X95076200Y-107540000D03*
D11*
X95076200Y-94840000D03*
D12*
X95076200Y-97380000D03*
X95076200Y-89810000D03*
X95076200Y-87270000D03*
D11*
X95076200Y-82190000D03*
D12*
X95076200Y-84730000D03*
D16*
X136100000Y-116250000D03*
D17*
X136100000Y-118790000D03*
D16*
X136750000Y-51250000D03*
D17*
X136750000Y-53790000D03*
D18*
X125175000Y-80750000D03*
X124525000Y-80750000D03*
X123875000Y-80750000D03*
X123225000Y-80750000D03*
X122575000Y-80750000D03*
X121925000Y-80750000D03*
X121275000Y-80750000D03*
X120625000Y-80750000D03*
X119975000Y-80750000D03*
X119325000Y-80750000D03*
X118675000Y-80750000D03*
X118025000Y-80750000D03*
X118025000Y-86450000D03*
X118675000Y-86450000D03*
X119325000Y-86450000D03*
X119975000Y-86450000D03*
X120625000Y-86450000D03*
X121275000Y-86450000D03*
X121925000Y-86450000D03*
X122575000Y-86450000D03*
X123225000Y-86450000D03*
X123875000Y-86450000D03*
X124525000Y-86450000D03*
X125175000Y-86450000D03*
D16*
X128060000Y-81520000D03*
D17*
X130600000Y-81520000D03*
X128060000Y-84060000D03*
X130600000Y-84060000D03*
X128060000Y-86600000D03*
X130600000Y-86600000D03*
D19*
X103935000Y-51500000D03*
X100065000Y-51500000D03*
D13*
X110150000Y-89800000D03*
X107450000Y-89800000D03*
X107450000Y-80600000D03*
X110150000Y-80600000D03*
X110150000Y-84600000D03*
X107450000Y-84600000D03*
X126750000Y-77000000D03*
X124050000Y-77000000D03*
D20*
X117949908Y-75352132D03*
X117949908Y-77400000D03*
X117949908Y-76400000D03*
X130050010Y-75800000D03*
X130050010Y-73005551D03*
X139000000Y-89000000D03*
X139000000Y-124000000D03*
X139000000Y-119000000D03*
X139000000Y-114000000D03*
X139000000Y-109000000D03*
X139000000Y-104000000D03*
X139000000Y-99000000D03*
X139000000Y-94000000D03*
X139000000Y-80000000D03*
X139000000Y-75000000D03*
X139000000Y-70000000D03*
X139000000Y-65000000D03*
X139000000Y-60000000D03*
X139000000Y-55000000D03*
X139000000Y-50000000D03*
X138000000Y-46000000D03*
X95000000Y-125000000D03*
X95000000Y-120000000D03*
X92000000Y-43000000D03*
X92000000Y-48000000D03*
X92000000Y-53000000D03*
X92000000Y-58000000D03*
X92000000Y-63000000D03*
X92000000Y-68000000D03*
X92000000Y-73000000D03*
X92000000Y-78000000D03*
X92000000Y-83000000D03*
X92000000Y-88000000D03*
X92000000Y-93000000D03*
X92000000Y-98000000D03*
X92000000Y-103000000D03*
X92000000Y-108000000D03*
X92000000Y-113000000D03*
X92000000Y-118000000D03*
X113000000Y-92000000D03*
X110000000Y-92000000D03*
X107000000Y-92000000D03*
X102000000Y-92000000D03*
X99000000Y-92000000D03*
X95000000Y-92000000D03*
X113000000Y-86000000D03*
X110000000Y-86000000D03*
X107000000Y-86000000D03*
X102000000Y-86000000D03*
X99000000Y-86000000D03*
X113000000Y-79000000D03*
X110000000Y-79000000D03*
X107000000Y-79000000D03*
X102000000Y-79000000D03*
X99000000Y-79000000D03*
X96000000Y-79000000D03*
X133000000Y-80000000D03*
X131000000Y-78000000D03*
X127000000Y-72000000D03*
X129500000Y-56500000D03*
X126500000Y-56500000D03*
X123500000Y-56500000D03*
X126500000Y-60000000D03*
X126500000Y-62500000D03*
X126500000Y-65000000D03*
X126500000Y-67500000D03*
X126500000Y-70000000D03*
X126200000Y-102000000D03*
X126200000Y-100800000D03*
X126200000Y-99600000D03*
X126200000Y-98400000D03*
X126200000Y-97000000D03*
X138750000Y-86000000D03*
X138750000Y-84750000D03*
X138750000Y-83500000D03*
X95000000Y-45000000D03*
X100000000Y-40000000D03*
X105000000Y-40000000D03*
X110000000Y-40000000D03*
X130000000Y-40000000D03*
X125000000Y-40000000D03*
X120000000Y-40000000D03*
X115000000Y-40000000D03*
X125000000Y-130000000D03*
X120000000Y-130000000D03*
X115000000Y-130000000D03*
X110000000Y-130000000D03*
X105000000Y-130000000D03*
X100000000Y-130000000D03*
X109000000Y-111000000D03*
X113000000Y-111000000D03*
X117000000Y-111000000D03*
X121000000Y-111000000D03*
X125000000Y-111000000D03*
X129000000Y-111000000D03*
X133000000Y-111000000D03*
X118400000Y-83000000D03*
X119200000Y-83000000D03*
X120000010Y-82999990D03*
X122200000Y-82999990D03*
X122800000Y-83600002D03*
X123400000Y-84200006D03*
X110200000Y-53200000D03*
X108500000Y-53200000D03*
X106500000Y-53200000D03*
X107500000Y-117500000D03*
X106500000Y-116500000D03*
X105500000Y-115500000D03*
X108500000Y-118500000D03*
X115400000Y-80600000D03*
X113600000Y-89800000D03*
X112000000Y-89800000D03*
X115400000Y-89800000D03*
D21*
X131000000Y-78000000D02*
X131000000Y-76800000D01*
X131000000Y-76800000D02*
X130050010Y-75850010D01*
X130050010Y-75850010D02*
X130050010Y-75800000D01*
X117949908Y-76400000D02*
X117949908Y-75352132D01*
X118025000Y-77475092D02*
X117949908Y-77400000D01*
X118025000Y-80750000D02*
X118025000Y-77475092D01*
X130050010Y-72581287D02*
X130050010Y-73005551D01*
X129468723Y-72000000D02*
X130050010Y-72581287D01*
X127000000Y-72000000D02*
X129468723Y-72000000D01*
X138750000Y-86000000D02*
X138750000Y-88750000D01*
X138750000Y-88750000D02*
X139000000Y-89000000D01*
X139000000Y-124000000D02*
X135000000Y-128000000D01*
X139000000Y-114000000D02*
X139000000Y-119000000D01*
X139000000Y-104000000D02*
X139000000Y-109000000D01*
X139000000Y-94000000D02*
X139000000Y-99000000D01*
X135000000Y-128000000D02*
X135000000Y-130000000D01*
X139000000Y-75000000D02*
X139000000Y-80000000D01*
X139000000Y-65000000D02*
X139000000Y-70000000D01*
X139000000Y-55000000D02*
X139000000Y-60000000D01*
X139000000Y-47000000D02*
X139000000Y-50000000D01*
X138000000Y-46000000D02*
X139000000Y-47000000D01*
X95000000Y-125000000D02*
X95000000Y-120000000D01*
X92000000Y-48000000D02*
X92000000Y-43000000D01*
X92000000Y-58000000D02*
X92000000Y-53000000D01*
X92000000Y-68000000D02*
X92000000Y-63000000D01*
X92000000Y-78000000D02*
X92000000Y-73000000D01*
X92000000Y-88000000D02*
X92000000Y-83000000D01*
X92000000Y-98000000D02*
X92000000Y-93000000D01*
X92000000Y-108000000D02*
X92000000Y-103000000D01*
X92000000Y-118000000D02*
X92000000Y-113000000D01*
X110000000Y-92000000D02*
X113000000Y-92000000D01*
X102000000Y-92000000D02*
X107000000Y-92000000D01*
X95000000Y-92000000D02*
X99000000Y-92000000D01*
X95076200Y-87270000D02*
X97730000Y-87270000D01*
X110000000Y-86000000D02*
X113000000Y-86000000D01*
X102000000Y-86000000D02*
X107000000Y-86000000D01*
X97730000Y-87270000D02*
X99000000Y-86000000D01*
X110000000Y-79000000D02*
X113000000Y-79000000D01*
X102000000Y-79000000D02*
X107000000Y-79000000D01*
X96000000Y-79000000D02*
X99000000Y-79000000D01*
X134430000Y-81430000D02*
X133000000Y-80000000D01*
X136000000Y-81430000D02*
X134430000Y-81430000D01*
X126500000Y-56500000D02*
X129500000Y-56500000D01*
X123500000Y-57000000D02*
X123500000Y-56500000D01*
X126500000Y-60000000D02*
X123500000Y-57000000D01*
X126500000Y-65000000D02*
X126500000Y-62500000D01*
X126500000Y-70000000D02*
X126500000Y-67500000D01*
X126200000Y-99600000D02*
X126200000Y-100800000D01*
X126200000Y-97000000D02*
X126200000Y-98400000D01*
X138750000Y-86000000D02*
X138750000Y-84750000D01*
X95000000Y-40000000D02*
X95000000Y-45000000D01*
X100000000Y-40000000D02*
X105000000Y-40000000D01*
X110000000Y-40000000D02*
X115000000Y-40000000D01*
X130000000Y-40000000D02*
X135000000Y-40000000D01*
X120000000Y-40000000D02*
X125000000Y-40000000D01*
X125000000Y-130000000D02*
X120000000Y-130000000D01*
X115000000Y-130000000D02*
X110000000Y-130000000D01*
X105000000Y-130000000D02*
X100000000Y-130000000D01*
X117000000Y-111000000D02*
X113000000Y-111000000D01*
X125000000Y-111000000D02*
X121000000Y-111000000D01*
X133000000Y-111000000D02*
X129000000Y-111000000D01*
D22*
X107450000Y-80600000D02*
X96666200Y-80600000D01*
X96666200Y-80600000D02*
X95076200Y-82190000D01*
D23*
X123875000Y-85837002D02*
X123875000Y-86450000D01*
X95076200Y-82190000D02*
X120227998Y-82190000D01*
X120227998Y-82190000D02*
X123875000Y-85837002D01*
D22*
X107450000Y-84600000D02*
X95206200Y-84600000D01*
X95206200Y-84600000D02*
X95076200Y-84730000D01*
X95306200Y-84500000D02*
X95076200Y-84730000D01*
D23*
X99400000Y-83000000D02*
X97670000Y-84730000D01*
X97670000Y-84730000D02*
X95076200Y-84730000D01*
X118400000Y-83000000D02*
X99400000Y-83000000D01*
X119200000Y-83000000D02*
X118400000Y-83000000D01*
X120000010Y-82999990D02*
X119200010Y-82999990D01*
X119200010Y-82999990D02*
X119200000Y-83000000D01*
X122299999Y-83099999D02*
X122200000Y-83000000D01*
X122200000Y-83000000D02*
X122200000Y-82999990D01*
X122800000Y-83600002D02*
X122299999Y-83099999D01*
X122500001Y-83300003D02*
X122299999Y-83099999D01*
X123400000Y-84200006D02*
X122800000Y-83600006D01*
X123099999Y-83900001D02*
X122800000Y-83600002D01*
X123200000Y-84000000D02*
X123099999Y-83900001D01*
X122800000Y-83600006D02*
X122800000Y-83600002D01*
X123699999Y-84500005D02*
X123400000Y-84200006D01*
X124525000Y-85325006D02*
X123699999Y-84500005D01*
X124525000Y-86450000D02*
X124525000Y-85325006D01*
X124525000Y-80750000D02*
X124525000Y-81525000D01*
X129340000Y-82800000D02*
X130600000Y-84060000D01*
X125800000Y-82800000D02*
X129340000Y-82800000D01*
X124525000Y-81525000D02*
X125800000Y-82800000D01*
X123225000Y-86450000D02*
X123225000Y-87300000D01*
X123225000Y-87300000D02*
X124525000Y-88600000D01*
X124525000Y-88600000D02*
X129800000Y-88600000D01*
X129800000Y-88600000D02*
X130600000Y-87800000D01*
X130600000Y-87800000D02*
X130600000Y-86600000D01*
D24*
X128700000Y-68810000D02*
X130810000Y-68810000D01*
X135600000Y-76350000D02*
X136350000Y-76350000D01*
X130810000Y-68810000D02*
X133000000Y-71000000D01*
X133000000Y-71000000D02*
X133000000Y-73750000D01*
X133000000Y-73750000D02*
X135600000Y-76350000D01*
X128700000Y-67540000D02*
X131040000Y-67540000D01*
X131040000Y-67540000D02*
X134000000Y-70500000D01*
X134000000Y-70500000D02*
X134000000Y-71750000D01*
X134000000Y-71750000D02*
X136060000Y-73810000D01*
X128700000Y-65000000D02*
X132250000Y-65000000D01*
X132250000Y-65000000D02*
X135980000Y-68730000D01*
X128700000Y-63730000D02*
X133480000Y-63730000D01*
X133480000Y-63730000D02*
X135940000Y-66190000D01*
X128700000Y-62460000D02*
X134710000Y-62460000D01*
X134710000Y-62460000D02*
X135900000Y-63650000D01*
X128700000Y-66270000D02*
X131020000Y-66270000D01*
X131020000Y-66270000D02*
X136020000Y-71270000D01*
X133430000Y-58570000D02*
X136000000Y-58570000D01*
X128700000Y-59920000D02*
X132080000Y-59920000D01*
X132080000Y-59920000D02*
X133430000Y-58570000D01*
X128700000Y-61190000D02*
X135920000Y-61190000D01*
X135920000Y-61190000D02*
X136000000Y-61110000D01*
X128700000Y-105810000D02*
X135530000Y-105810000D01*
X135530000Y-105810000D02*
X136100000Y-106380000D01*
X136100000Y-103840000D02*
X135220000Y-103840000D01*
X135220000Y-103840000D02*
X135190000Y-103810000D01*
X134460000Y-104540000D02*
X128700000Y-104540000D01*
X135190000Y-103810000D02*
X134460000Y-104540000D01*
X136100000Y-98760000D02*
X135240000Y-98760000D01*
X135240000Y-98760000D02*
X135100000Y-98900000D01*
X132000000Y-102000000D02*
X128700000Y-102000000D01*
X135270000Y-98730000D02*
X132000000Y-102000000D01*
X136100000Y-96220000D02*
X135780000Y-96220000D01*
X135780000Y-96220000D02*
X135300000Y-96700000D01*
X131270000Y-100730000D02*
X128700000Y-100730000D01*
X135810000Y-96190000D02*
X131270000Y-100730000D01*
X137076200Y-93650000D02*
X134350000Y-93650000D01*
X130540000Y-99460000D02*
X128700000Y-99460000D01*
X132000000Y-98000000D02*
X130540000Y-99460000D01*
X132000000Y-96000000D02*
X132000000Y-98000000D01*
X134350000Y-93650000D02*
X132000000Y-96000000D01*
X136100000Y-101300000D02*
X135700000Y-101300000D01*
X135700000Y-101300000D02*
X135200000Y-101800000D01*
X133730000Y-103270000D02*
X128700000Y-103270000D01*
X135730000Y-101270000D02*
X133730000Y-103270000D01*
X132430000Y-88570000D02*
X132460000Y-88600000D01*
X132460000Y-88600000D02*
X136100000Y-88600000D01*
X128700000Y-92300000D02*
X128700000Y-96920000D01*
X132430000Y-88570000D02*
X128700000Y-92300000D01*
X132890000Y-91110000D02*
X132920000Y-91140000D01*
X132920000Y-91140000D02*
X136100000Y-91140000D01*
X129810000Y-98190000D02*
X128700000Y-98190000D01*
X131000000Y-97000000D02*
X129810000Y-98190000D01*
X131000000Y-93000000D02*
X131000000Y-97000000D01*
X132890000Y-91110000D02*
X131000000Y-93000000D01*
D23*
X122099989Y-75792889D02*
X122099989Y-78239233D01*
X123225000Y-79900000D02*
X123225000Y-80750000D01*
X123225000Y-79364244D02*
X123225000Y-79900000D01*
X124174978Y-73717900D02*
X122099989Y-75792889D01*
X122099989Y-78239233D02*
X123225000Y-79364244D01*
X124174978Y-64094978D02*
X124174978Y-73717900D01*
X120000000Y-59920000D02*
X124174978Y-64094978D01*
X119300000Y-59920000D02*
X120000000Y-59920000D01*
D24*
X97840000Y-54840000D02*
X95076200Y-54840000D01*
X119300000Y-59920000D02*
X102920000Y-59920000D01*
X102920000Y-59920000D02*
X97840000Y-54840000D01*
D23*
X119300000Y-61190000D02*
X120000000Y-61190000D01*
X122575000Y-79421366D02*
X122575000Y-79900000D01*
X121599979Y-78446345D02*
X122575000Y-79421366D01*
X121599978Y-75585778D02*
X121599979Y-78446345D01*
X123674967Y-73510789D02*
X121599978Y-75585778D01*
X123674967Y-64864967D02*
X123674967Y-73510789D01*
X120000000Y-61190000D02*
X123674967Y-64864967D01*
X122575000Y-79900000D02*
X122575000Y-80750000D01*
D24*
X96380000Y-57380000D02*
X95076200Y-57380000D01*
X119300000Y-61190000D02*
X100190000Y-61190000D01*
X100190000Y-61190000D02*
X96380000Y-57380000D01*
D23*
X123174956Y-73303678D02*
X121099968Y-75378668D01*
X119300000Y-62460000D02*
X120000000Y-62460000D01*
X120000000Y-62460000D02*
X123174956Y-65634956D01*
X121925000Y-79900000D02*
X121925000Y-80750000D01*
X121925000Y-79478488D02*
X121925000Y-79900000D01*
X121099969Y-78653457D02*
X121925000Y-79478488D01*
X121099968Y-75378668D02*
X121099969Y-78653457D01*
X123174956Y-65634956D02*
X123174956Y-73303678D01*
D24*
X96820000Y-59920000D02*
X95076200Y-59920000D01*
X119300000Y-62460000D02*
X99360000Y-62460000D01*
X99360000Y-62460000D02*
X96820000Y-59920000D01*
D23*
X121275000Y-79535610D02*
X121275000Y-79900000D01*
X120599959Y-78860569D02*
X121275000Y-79535610D01*
X120599958Y-75171558D02*
X120599959Y-78860569D01*
X122674945Y-66404945D02*
X122674945Y-73096569D01*
X120000000Y-63730000D02*
X122674945Y-66404945D01*
X119300000Y-63730000D02*
X120000000Y-63730000D01*
X122674945Y-73096569D02*
X120599958Y-75171558D01*
X121275000Y-79900000D02*
X121275000Y-80750000D01*
D24*
X96760000Y-62460000D02*
X95076200Y-62460000D01*
X119300000Y-63730000D02*
X98030000Y-63730000D01*
X98030000Y-63730000D02*
X96760000Y-62460000D01*
D23*
X122174934Y-67174934D02*
X122174934Y-72889460D01*
X120625000Y-79592732D02*
X120625000Y-79900000D01*
X120000000Y-65000000D02*
X122174934Y-67174934D01*
X120099949Y-79067681D02*
X120625000Y-79592732D01*
X122174934Y-72889460D02*
X120099948Y-74964448D01*
X119300000Y-65000000D02*
X120000000Y-65000000D01*
X120625000Y-79900000D02*
X120625000Y-80750000D01*
X120099948Y-74964448D02*
X120099949Y-79067681D01*
D24*
X119300000Y-65000000D02*
X95076200Y-65000000D01*
D23*
X120000000Y-66270000D02*
X121674923Y-67944923D01*
X119975000Y-79649854D02*
X119975000Y-79900000D01*
X119599939Y-79274793D02*
X119975000Y-79649854D01*
X119599938Y-74757338D02*
X119599939Y-79274793D01*
X119300000Y-66270000D02*
X120000000Y-66270000D01*
X121674923Y-72682351D02*
X119599938Y-74757338D01*
X121674923Y-67944923D02*
X121674923Y-72682351D01*
X119975000Y-79900000D02*
X119975000Y-80750000D01*
D24*
X114000000Y-66270000D02*
X96346200Y-66270000D01*
X96346200Y-66270000D02*
X95076200Y-67540000D01*
X119300000Y-66270000D02*
X114000000Y-66270000D01*
D23*
X119325000Y-79900000D02*
X119325000Y-80750000D01*
X119325000Y-79706976D02*
X119325000Y-79900000D01*
X119099929Y-79481905D02*
X119325000Y-79706976D01*
X119099928Y-74550228D02*
X119099929Y-79481905D01*
X121174912Y-68714912D02*
X121174912Y-72475242D01*
X120000000Y-67540000D02*
X121174912Y-68714912D01*
X121174912Y-72475242D02*
X119099928Y-74550228D01*
X120000000Y-67540000D02*
X120476439Y-68016439D01*
X119300000Y-67540000D02*
X120000000Y-67540000D01*
D24*
X113000000Y-67540000D02*
X97952750Y-67540000D01*
X97952750Y-67540000D02*
X95412750Y-70080000D01*
X95412750Y-70080000D02*
X95076200Y-70080000D01*
X113000000Y-67540000D02*
X119300000Y-67540000D01*
D23*
X118675000Y-79900000D02*
X118675000Y-80750000D01*
X120674901Y-69484901D02*
X120674901Y-72268133D01*
X120674901Y-72268133D02*
X118599918Y-74343117D01*
X118599918Y-74343117D02*
X118599918Y-79824918D01*
X119300000Y-68810000D02*
X120000000Y-68810000D01*
X118599918Y-79824918D02*
X118675000Y-79900000D01*
X120000000Y-68810000D02*
X120674901Y-69484901D01*
D24*
X99190000Y-68810000D02*
X99190000Y-68842750D01*
X99190000Y-68842750D02*
X95412750Y-72620000D01*
X95412750Y-72620000D02*
X95076200Y-72620000D01*
X111310000Y-68810000D02*
X106400000Y-68810000D01*
X106400000Y-68810000D02*
X99190000Y-68810000D01*
X119300000Y-68810000D02*
X111310000Y-68810000D01*
D23*
X119300000Y-105810000D02*
X120000000Y-105810000D01*
X120000000Y-105810000D02*
X124800000Y-101010000D01*
X124800000Y-101010000D02*
X124800000Y-93400000D01*
X122575000Y-91175000D02*
X122575000Y-86450000D01*
X124800000Y-93400000D02*
X122575000Y-91175000D01*
D24*
X97380000Y-112620000D02*
X95076200Y-112620000D01*
X119300000Y-105810000D02*
X104190000Y-105810000D01*
X104190000Y-105810000D02*
X97380000Y-112620000D01*
D23*
X119300000Y-104540000D02*
X120000000Y-104540000D01*
X120000000Y-104540000D02*
X124200000Y-100340000D01*
X124200000Y-100340000D02*
X124200000Y-93800000D01*
X124200000Y-93800000D02*
X121925000Y-91525000D01*
X121925000Y-91525000D02*
X121925000Y-86450000D01*
D24*
X96920000Y-110080000D02*
X95076200Y-110080000D01*
X119300000Y-104540000D02*
X102460000Y-104540000D01*
X102460000Y-104540000D02*
X96920000Y-110080000D01*
D23*
X119300000Y-102000000D02*
X120000000Y-102000000D01*
X120625000Y-87300000D02*
X120625000Y-86450000D01*
X120000000Y-102000000D02*
X123000000Y-99000000D01*
X123000000Y-99000000D02*
X123000000Y-94400000D01*
X123000000Y-94400000D02*
X120625000Y-92025000D01*
X120625000Y-92025000D02*
X120625000Y-87300000D01*
D24*
X97000000Y-105000000D02*
X95076200Y-105000000D01*
X119300000Y-102000000D02*
X100000000Y-102000000D01*
X100000000Y-102000000D02*
X97000000Y-105000000D01*
D23*
X119300000Y-100730000D02*
X118930000Y-100730000D01*
X118930000Y-100730000D02*
X119000000Y-100800000D01*
X119000000Y-100800000D02*
X120400000Y-100800000D01*
X119975000Y-87300000D02*
X119975000Y-86450000D01*
X120400000Y-100800000D02*
X122400000Y-98800000D01*
X122400000Y-98800000D02*
X122400000Y-94600000D01*
X122400000Y-94600000D02*
X119975000Y-92175000D01*
X119975000Y-92175000D02*
X119975000Y-87300000D01*
D24*
X113750000Y-100750000D02*
X97122750Y-100750000D01*
X95412750Y-102460000D02*
X95076200Y-102460000D01*
X97122750Y-100750000D02*
X95412750Y-102460000D01*
X119300000Y-100730000D02*
X114000000Y-100730000D01*
X114000000Y-100730000D02*
X113770000Y-100730000D01*
X113770000Y-100730000D02*
X113750000Y-100750000D01*
D23*
X119300000Y-99460000D02*
X120940000Y-99460000D01*
X119325000Y-87300000D02*
X119325000Y-86450000D01*
X120940000Y-99460000D02*
X121800000Y-98600000D01*
X121800000Y-98600000D02*
X121800000Y-94800000D01*
X121800000Y-94800000D02*
X119325000Y-92325000D01*
X119325000Y-92325000D02*
X119325000Y-87300000D01*
D24*
X112500000Y-99500000D02*
X95496200Y-99500000D01*
X95496200Y-99500000D02*
X95076200Y-99920000D01*
X119300000Y-99460000D02*
X112540000Y-99460000D01*
X112540000Y-99460000D02*
X112500000Y-99500000D01*
D23*
X119300000Y-103270000D02*
X120000000Y-103270000D01*
X120000000Y-103270000D02*
X123600000Y-99670000D01*
X123600000Y-99670000D02*
X123600000Y-94200000D01*
X123600000Y-94200000D02*
X121275000Y-91875000D01*
X121275000Y-91875000D02*
X121275000Y-86450000D01*
D24*
X96460000Y-107540000D02*
X95076200Y-107540000D01*
X119300000Y-103270000D02*
X100730000Y-103270000D01*
X100730000Y-103270000D02*
X96460000Y-107540000D01*
D23*
X119300000Y-96920000D02*
X119400000Y-96820000D01*
X119400000Y-96820000D02*
X119400000Y-94600000D01*
X119400000Y-94600000D02*
X118025000Y-93225000D01*
X118025000Y-93225000D02*
X118025000Y-87300000D01*
X118025000Y-87300000D02*
X118025000Y-86450000D01*
D24*
X107840000Y-94840000D02*
X95076200Y-94840000D01*
X107840000Y-94840000D02*
X110000000Y-97000000D01*
X119300000Y-96920000D02*
X110080000Y-96920000D01*
X110080000Y-96920000D02*
X110000000Y-97000000D01*
D23*
X119300000Y-98190000D02*
X120810000Y-98190000D01*
X120810000Y-98190000D02*
X121200000Y-97800000D01*
X118675000Y-92875000D02*
X118675000Y-87300000D01*
X121200000Y-97800000D02*
X121200000Y-95400000D01*
X121200000Y-95400000D02*
X118675000Y-92875000D01*
X118675000Y-87300000D02*
X118675000Y-86450000D01*
D24*
X107380000Y-97380000D02*
X95076200Y-97380000D01*
X111310000Y-98190000D02*
X108190000Y-98190000D01*
X108190000Y-98190000D02*
X107380000Y-97380000D01*
X119300000Y-98190000D02*
X111310000Y-98190000D01*
X128700000Y-70080000D02*
X130080000Y-70080000D01*
X130080000Y-70080000D02*
X132000000Y-72000000D01*
X132000000Y-72000000D02*
X132000000Y-75000000D01*
X132000000Y-75000000D02*
X135890000Y-78890000D01*
D22*
X134200000Y-112853800D02*
X134353800Y-112853800D01*
X134353800Y-112853800D02*
X136100000Y-114600000D01*
X136100000Y-114600000D02*
X136100000Y-116250000D01*
X136110000Y-108890000D02*
X134200000Y-110800000D01*
X134200000Y-110800000D02*
X134200000Y-112853800D01*
D24*
X128700000Y-107080000D02*
X134080000Y-107080000D01*
X134080000Y-107080000D02*
X135890000Y-108890000D01*
D23*
X123875000Y-80750000D02*
X123875000Y-79307122D01*
X123875000Y-79307122D02*
X122600000Y-78032122D01*
X122600000Y-78032122D02*
X122600000Y-76000000D01*
X127800000Y-74800000D02*
X129400000Y-76400000D01*
X130600000Y-79800000D02*
X130600000Y-81520000D01*
X122600000Y-76000000D02*
X123800000Y-74800000D01*
X123800000Y-74800000D02*
X127800000Y-74800000D01*
X129400000Y-76400000D02*
X129400000Y-78600000D01*
X129400000Y-78600000D02*
X130600000Y-79800000D01*
D24*
X134250000Y-84400000D02*
X134250000Y-83650000D01*
X132120000Y-81520000D02*
X130600000Y-81520000D01*
X134250000Y-83650000D02*
X132120000Y-81520000D01*
D25*
X95076200Y-51270000D02*
X99835000Y-51270000D01*
X99835000Y-51270000D02*
X100065000Y-51500000D01*
D22*
X107450000Y-89800000D02*
X95086200Y-89800000D01*
X95086200Y-89800000D02*
X95076200Y-89810000D01*
D25*
X95266200Y-90000000D02*
X95076200Y-89810000D01*
X95266200Y-90000000D02*
X95076200Y-89810000D01*
D23*
X125175000Y-80750000D02*
X125250000Y-80750000D01*
X124050000Y-77000000D02*
X124050000Y-77950000D01*
X124050000Y-77950000D02*
X125175000Y-79075000D01*
X125175000Y-79075000D02*
X125175000Y-79900000D01*
X125175000Y-79900000D02*
X125175000Y-80750000D01*
D25*
X108500000Y-53200000D02*
X136160000Y-53200000D01*
X136160000Y-53200000D02*
X136750000Y-53790000D01*
X108500000Y-53200000D02*
X106500000Y-53200000D01*
X106500000Y-53200000D02*
X105635000Y-53200000D01*
X105635000Y-53200000D02*
X103935000Y-51500000D01*
D22*
X103680000Y-51270000D02*
X103700000Y-51250000D01*
D25*
X130646200Y-118900000D02*
X130756200Y-118790000D01*
X130756200Y-118790000D02*
X136100000Y-118790000D01*
X108900000Y-118900000D02*
X130646200Y-118900000D01*
X108500000Y-118500000D02*
X108900000Y-118900000D01*
X108500000Y-118500000D02*
X107500000Y-117500000D01*
X106500000Y-116500000D02*
X105500000Y-115500000D01*
X107500000Y-117500000D02*
X106500000Y-116500000D01*
D22*
X110150000Y-80600000D02*
X115400000Y-80600000D01*
X110150000Y-84600000D02*
X113200000Y-84600000D01*
X115400000Y-86800000D02*
X115400000Y-89800000D01*
X113200000Y-84600000D02*
X115400000Y-86800000D01*
D23*
X128060000Y-81520000D02*
X128060000Y-78210000D01*
X128060000Y-78210000D02*
X126850000Y-77000000D01*
X126750000Y-77000000D02*
X126850000Y-77000000D01*
D24*
X128000000Y-81460000D02*
X128060000Y-81520000D01*
D22*
X112000000Y-89800000D02*
X113600000Y-89800000D01*
X110150000Y-89800000D02*
X112000000Y-89800000D01*
X113600000Y-89800000D02*
X115400000Y-89800000D01*
D23*
X125175000Y-86450000D02*
X127910000Y-86450000D01*
X127910000Y-86450000D02*
X128060000Y-86600000D01*
D25*
X128060000Y-84060000D02*
X128060000Y-86600000D01*
D26*
G36*
X139290000Y-134290000D02*
X90710000Y-134290000D01*
X90710000Y-132416266D01*
X92763339Y-132416266D01*
X93075487Y-132864932D01*
X94318343Y-133383331D01*
X95664976Y-133386648D01*
X96910371Y-132874380D01*
X96924513Y-132864932D01*
X97236661Y-132416266D01*
X132763339Y-132416266D01*
X133075487Y-132864932D01*
X134318343Y-133383331D01*
X135664976Y-133386648D01*
X136910371Y-132874380D01*
X136924513Y-132864932D01*
X137236661Y-132416266D01*
X135000000Y-130179605D01*
X132763339Y-132416266D01*
X97236661Y-132416266D01*
X95000000Y-130179605D01*
X92763339Y-132416266D01*
X90710000Y-132416266D01*
X90710000Y-130664976D01*
X91613352Y-130664976D01*
X92125620Y-131910371D01*
X92135068Y-131924513D01*
X92583734Y-132236661D01*
X94820395Y-130000000D01*
X95179605Y-130000000D01*
X97416266Y-132236661D01*
X97864932Y-131924513D01*
X98383331Y-130681657D01*
X98383372Y-130664976D01*
X131613352Y-130664976D01*
X132125620Y-131910371D01*
X132135068Y-131924513D01*
X132583734Y-132236661D01*
X134820395Y-130000000D01*
X135179605Y-130000000D01*
X137416266Y-132236661D01*
X137864932Y-131924513D01*
X138383331Y-130681657D01*
X138386648Y-129335024D01*
X137874380Y-128089629D01*
X137864932Y-128075487D01*
X137416266Y-127763339D01*
X135179605Y-130000000D01*
X134820395Y-130000000D01*
X132583734Y-127763339D01*
X132135068Y-128075487D01*
X131616669Y-129318343D01*
X131613352Y-130664976D01*
X98383372Y-130664976D01*
X98386648Y-129335024D01*
X97874380Y-128089629D01*
X97864932Y-128075487D01*
X97416266Y-127763339D01*
X95179605Y-130000000D01*
X94820395Y-130000000D01*
X92583734Y-127763339D01*
X92135068Y-128075487D01*
X91616669Y-129318343D01*
X91613352Y-130664976D01*
X90710000Y-130664976D01*
X90710000Y-127583734D01*
X92763339Y-127583734D01*
X95000000Y-129820395D01*
X97236661Y-127583734D01*
X132763339Y-127583734D01*
X135000000Y-129820395D01*
X137236661Y-127583734D01*
X136924513Y-127135068D01*
X135681657Y-126616669D01*
X134335024Y-126613352D01*
X133089629Y-127125620D01*
X133075487Y-127135068D01*
X132763339Y-127583734D01*
X97236661Y-127583734D01*
X96924513Y-127135068D01*
X95681657Y-126616669D01*
X94335024Y-126613352D01*
X93089629Y-127125620D01*
X93075487Y-127135068D01*
X92763339Y-127583734D01*
X90710000Y-127583734D01*
X90710000Y-115503070D01*
X93385430Y-115503070D01*
X93400390Y-115577277D01*
X93662020Y-116058026D01*
X94087709Y-116402059D01*
X94612650Y-116557000D01*
X94949200Y-116557000D01*
X94949200Y-115287000D01*
X95203200Y-115287000D01*
X95203200Y-116557000D01*
X95539750Y-116557000D01*
X96064691Y-116402059D01*
X96490380Y-116058026D01*
X96752010Y-115577277D01*
X96766970Y-115503070D01*
X96765230Y-115500000D01*
X104265000Y-115500000D01*
X104359009Y-115972614D01*
X104626723Y-116373277D01*
X108026723Y-119773277D01*
X108427386Y-120040991D01*
X108900000Y-120135000D01*
X130646200Y-120135000D01*
X131118814Y-120040991D01*
X131142746Y-120025000D01*
X135297645Y-120025000D01*
X135502622Y-120161961D01*
X136070907Y-120275000D01*
X136129093Y-120275000D01*
X136697378Y-120161961D01*
X137179147Y-119840054D01*
X137501054Y-119358285D01*
X137614093Y-118790000D01*
X137501054Y-118221715D01*
X137179147Y-117739946D01*
X137137548Y-117712150D01*
X137185317Y-117703162D01*
X137401441Y-117564090D01*
X137546431Y-117351890D01*
X137597440Y-117100000D01*
X137597440Y-115400000D01*
X137553162Y-115164683D01*
X137414090Y-114948559D01*
X137201890Y-114803569D01*
X137135000Y-114790023D01*
X137135000Y-114600005D01*
X137135001Y-114600000D01*
X137056215Y-114203923D01*
X136831856Y-113868144D01*
X136831853Y-113868142D01*
X135820712Y-112857000D01*
X135973000Y-112857000D01*
X135973000Y-111587000D01*
X136227000Y-111587000D01*
X136227000Y-112857000D01*
X136563550Y-112857000D01*
X137088491Y-112702059D01*
X137514180Y-112358026D01*
X137775810Y-111877277D01*
X137790770Y-111803070D01*
X137668270Y-111587000D01*
X136227000Y-111587000D01*
X135973000Y-111587000D01*
X135953000Y-111587000D01*
X135953000Y-111333000D01*
X135973000Y-111333000D01*
X135973000Y-111313000D01*
X136227000Y-111313000D01*
X136227000Y-111333000D01*
X137668270Y-111333000D01*
X137790770Y-111116930D01*
X137775810Y-111042723D01*
X137514180Y-110561974D01*
X137088491Y-110217941D01*
X137023107Y-110198642D01*
X137458340Y-109907828D01*
X137761172Y-109454609D01*
X137867512Y-108920000D01*
X137761172Y-108385391D01*
X137458340Y-107932172D01*
X137036041Y-107650000D01*
X137458340Y-107367828D01*
X137761172Y-106914609D01*
X137867512Y-106380000D01*
X137761172Y-105845391D01*
X137458340Y-105392172D01*
X137036041Y-105110000D01*
X137458340Y-104827828D01*
X137761172Y-104374609D01*
X137867512Y-103840000D01*
X137761172Y-103305391D01*
X137458340Y-102852172D01*
X137036041Y-102570000D01*
X137458340Y-102287828D01*
X137761172Y-101834609D01*
X137867512Y-101300000D01*
X137761172Y-100765391D01*
X137458340Y-100312172D01*
X137036041Y-100030000D01*
X137458340Y-99747828D01*
X137761172Y-99294609D01*
X137867512Y-98760000D01*
X137761172Y-98225391D01*
X137458340Y-97772172D01*
X137036041Y-97490000D01*
X137458340Y-97207828D01*
X137761172Y-96754609D01*
X137867512Y-96220000D01*
X137761172Y-95685391D01*
X137458340Y-95232172D01*
X137036041Y-94950000D01*
X137458340Y-94667828D01*
X137663860Y-94360246D01*
X137737345Y-94311145D01*
X137940027Y-94007809D01*
X138011200Y-93650000D01*
X137940027Y-93292191D01*
X137737345Y-92988855D01*
X137591434Y-92891361D01*
X137458340Y-92692172D01*
X137036041Y-92410000D01*
X137458340Y-92127828D01*
X137761172Y-91674609D01*
X137867512Y-91140000D01*
X137761172Y-90605391D01*
X137458340Y-90152172D01*
X137234581Y-90002660D01*
X137433867Y-89965162D01*
X137649991Y-89826090D01*
X137794981Y-89613890D01*
X137845990Y-89362000D01*
X137845990Y-87838000D01*
X137801712Y-87602683D01*
X137662640Y-87386559D01*
X137450440Y-87241569D01*
X137198550Y-87190560D01*
X135001450Y-87190560D01*
X134766133Y-87234838D01*
X134550009Y-87373910D01*
X134405019Y-87586110D01*
X134389043Y-87665000D01*
X132580822Y-87665000D01*
X132430000Y-87634999D01*
X132167187Y-87687277D01*
X132072191Y-87706173D01*
X131768855Y-87908855D01*
X128038855Y-91638855D01*
X127836173Y-91942191D01*
X127765000Y-92300000D01*
X127765000Y-95972560D01*
X127700000Y-95972560D01*
X127464683Y-96016838D01*
X127248559Y-96155910D01*
X127103569Y-96368110D01*
X127052560Y-96620000D01*
X127052560Y-97220000D01*
X127096838Y-97455317D01*
X127160678Y-97554528D01*
X127103569Y-97638110D01*
X127052560Y-97890000D01*
X127052560Y-98490000D01*
X127096838Y-98725317D01*
X127160678Y-98824528D01*
X127103569Y-98908110D01*
X127052560Y-99160000D01*
X127052560Y-99760000D01*
X127096838Y-99995317D01*
X127160678Y-100094528D01*
X127103569Y-100178110D01*
X127052560Y-100430000D01*
X127052560Y-101030000D01*
X127096838Y-101265317D01*
X127160678Y-101364528D01*
X127103569Y-101448110D01*
X127052560Y-101700000D01*
X127052560Y-102300000D01*
X127096838Y-102535317D01*
X127160678Y-102634528D01*
X127103569Y-102718110D01*
X127052560Y-102970000D01*
X127052560Y-103570000D01*
X127096838Y-103805317D01*
X127160678Y-103904528D01*
X127103569Y-103988110D01*
X127052560Y-104240000D01*
X127052560Y-104840000D01*
X127096838Y-105075317D01*
X127160678Y-105174528D01*
X127103569Y-105258110D01*
X127052560Y-105510000D01*
X127052560Y-106110000D01*
X127096838Y-106345317D01*
X127160678Y-106444528D01*
X127103569Y-106528110D01*
X127052560Y-106780000D01*
X127052560Y-107380000D01*
X127096838Y-107615317D01*
X127235910Y-107831441D01*
X127448110Y-107976431D01*
X127700000Y-108027440D01*
X129700000Y-108027440D01*
X129766113Y-108015000D01*
X133692710Y-108015000D01*
X134376491Y-108698781D01*
X134332488Y-108920000D01*
X134379573Y-109156715D01*
X133468144Y-110068144D01*
X133243785Y-110403923D01*
X133164999Y-110800000D01*
X133165000Y-110800005D01*
X133165000Y-112853800D01*
X133243785Y-113249877D01*
X133468144Y-113585656D01*
X133803923Y-113810015D01*
X133856826Y-113820538D01*
X134904213Y-114867924D01*
X134798559Y-114935910D01*
X134653569Y-115148110D01*
X134602560Y-115400000D01*
X134602560Y-117100000D01*
X134646838Y-117335317D01*
X134785910Y-117551441D01*
X134791119Y-117555000D01*
X130756200Y-117555000D01*
X130283586Y-117649009D01*
X130259654Y-117665000D01*
X109411554Y-117665000D01*
X106373277Y-114626723D01*
X105972614Y-114359009D01*
X105500000Y-114265000D01*
X105027386Y-114359009D01*
X104626723Y-114626723D01*
X104359009Y-115027386D01*
X104265000Y-115500000D01*
X96765230Y-115500000D01*
X96644470Y-115287000D01*
X95203200Y-115287000D01*
X94949200Y-115287000D01*
X93507930Y-115287000D01*
X93385430Y-115503070D01*
X90710000Y-115503070D01*
X90710000Y-75503070D01*
X93385430Y-75503070D01*
X93400390Y-75577277D01*
X93662020Y-76058026D01*
X94087709Y-76402059D01*
X94612650Y-76557000D01*
X94949200Y-76557000D01*
X94949200Y-75287000D01*
X95203200Y-75287000D01*
X95203200Y-76557000D01*
X95539750Y-76557000D01*
X96064691Y-76402059D01*
X96490380Y-76058026D01*
X96752010Y-75577277D01*
X96766970Y-75503070D01*
X96644470Y-75287000D01*
X95203200Y-75287000D01*
X94949200Y-75287000D01*
X93507930Y-75287000D01*
X93385430Y-75503070D01*
X90710000Y-75503070D01*
X90710000Y-57380000D01*
X93308688Y-57380000D01*
X93415028Y-57914609D01*
X93717860Y-58367828D01*
X94140159Y-58650000D01*
X93717860Y-58932172D01*
X93415028Y-59385391D01*
X93308688Y-59920000D01*
X93415028Y-60454609D01*
X93717860Y-60907828D01*
X94140159Y-61190000D01*
X93717860Y-61472172D01*
X93415028Y-61925391D01*
X93308688Y-62460000D01*
X93415028Y-62994609D01*
X93717860Y-63447828D01*
X94140159Y-63730000D01*
X93717860Y-64012172D01*
X93415028Y-64465391D01*
X93308688Y-65000000D01*
X93415028Y-65534609D01*
X93717860Y-65987828D01*
X94140159Y-66270000D01*
X93717860Y-66552172D01*
X93415028Y-67005391D01*
X93308688Y-67540000D01*
X93415028Y-68074609D01*
X93717860Y-68527828D01*
X94140159Y-68810000D01*
X93717860Y-69092172D01*
X93415028Y-69545391D01*
X93308688Y-70080000D01*
X93415028Y-70614609D01*
X93717860Y-71067828D01*
X94140159Y-71350000D01*
X93717860Y-71632172D01*
X93415028Y-72085391D01*
X93308688Y-72620000D01*
X93415028Y-73154609D01*
X93717860Y-73607828D01*
X94153093Y-73898642D01*
X94087709Y-73917941D01*
X93662020Y-74261974D01*
X93400390Y-74742723D01*
X93385430Y-74816930D01*
X93507930Y-75033000D01*
X94949200Y-75033000D01*
X94949200Y-75013000D01*
X95203200Y-75013000D01*
X95203200Y-75033000D01*
X96644470Y-75033000D01*
X96766970Y-74816930D01*
X96752010Y-74742723D01*
X96490380Y-74261974D01*
X96064691Y-73917941D01*
X95999307Y-73898642D01*
X96434540Y-73607828D01*
X96737372Y-73154609D01*
X96843712Y-72620000D01*
X96825682Y-72529358D01*
X98989290Y-70365750D01*
X117665000Y-70365750D01*
X117665000Y-70506310D01*
X117761673Y-70739699D01*
X117940302Y-70918327D01*
X118173691Y-71015000D01*
X119014250Y-71015000D01*
X119173000Y-70856250D01*
X119173000Y-70207000D01*
X117823750Y-70207000D01*
X117665000Y-70365750D01*
X98989290Y-70365750D01*
X99610040Y-69745000D01*
X117665000Y-69745000D01*
X117665000Y-69794250D01*
X117823750Y-69953000D01*
X119173000Y-69953000D01*
X119173000Y-69933000D01*
X119427000Y-69933000D01*
X119427000Y-69953000D01*
X119447000Y-69953000D01*
X119447000Y-70207000D01*
X119427000Y-70207000D01*
X119427000Y-70856250D01*
X119585750Y-71015000D01*
X119889901Y-71015000D01*
X119889901Y-71942975D01*
X118044839Y-73788038D01*
X117874673Y-74042711D01*
X117814918Y-74343117D01*
X117814918Y-79613668D01*
X117766250Y-79565000D01*
X117698690Y-79565000D01*
X117465301Y-79661673D01*
X117286673Y-79840302D01*
X117190000Y-80073691D01*
X117190000Y-80464250D01*
X117348750Y-80623000D01*
X117827560Y-80623000D01*
X117827560Y-80877000D01*
X117348750Y-80877000D01*
X117190000Y-81035750D01*
X117190000Y-81405000D01*
X116022388Y-81405000D01*
X116131856Y-81331856D01*
X116356215Y-80996077D01*
X116435000Y-80600000D01*
X116356215Y-80203923D01*
X116131856Y-79868144D01*
X115796077Y-79643785D01*
X115400000Y-79565000D01*
X111406844Y-79565000D01*
X111364090Y-79498559D01*
X111151890Y-79353569D01*
X110900000Y-79302560D01*
X109400000Y-79302560D01*
X109164683Y-79346838D01*
X108948559Y-79485910D01*
X108803569Y-79698110D01*
X108800919Y-79711197D01*
X108664090Y-79498559D01*
X108451890Y-79353569D01*
X108200000Y-79302560D01*
X106700000Y-79302560D01*
X106464683Y-79346838D01*
X106248559Y-79485910D01*
X106194519Y-79565000D01*
X96666205Y-79565000D01*
X96666200Y-79564999D01*
X96339027Y-79630079D01*
X96270123Y-79643785D01*
X95934344Y-79868144D01*
X95934342Y-79868147D01*
X95021928Y-80780560D01*
X93977650Y-80780560D01*
X93742333Y-80824838D01*
X93526209Y-80963910D01*
X93381219Y-81176110D01*
X93330210Y-81428000D01*
X93330210Y-82952000D01*
X93374488Y-83187317D01*
X93513560Y-83403441D01*
X93725760Y-83548431D01*
X93942213Y-83592264D01*
X93717860Y-83742172D01*
X93415028Y-84195391D01*
X93308688Y-84730000D01*
X93415028Y-85264609D01*
X93717860Y-85717828D01*
X94153093Y-86008642D01*
X94087709Y-86027941D01*
X93662020Y-86371974D01*
X93400390Y-86852723D01*
X93385430Y-86926930D01*
X93507930Y-87143000D01*
X94949200Y-87143000D01*
X94949200Y-87123000D01*
X95203200Y-87123000D01*
X95203200Y-87143000D01*
X96644470Y-87143000D01*
X96766970Y-86926930D01*
X96752010Y-86852723D01*
X96490380Y-86371974D01*
X96064691Y-86027941D01*
X95999307Y-86008642D01*
X96434540Y-85717828D01*
X96489884Y-85635000D01*
X106193156Y-85635000D01*
X106235910Y-85701441D01*
X106448110Y-85846431D01*
X106700000Y-85897440D01*
X108200000Y-85897440D01*
X108435317Y-85853162D01*
X108651441Y-85714090D01*
X108796431Y-85501890D01*
X108799081Y-85488803D01*
X108935910Y-85701441D01*
X109148110Y-85846431D01*
X109400000Y-85897440D01*
X110900000Y-85897440D01*
X111135317Y-85853162D01*
X111351441Y-85714090D01*
X111405481Y-85635000D01*
X112771288Y-85635000D01*
X114365000Y-87228711D01*
X114365000Y-88765000D01*
X111406844Y-88765000D01*
X111364090Y-88698559D01*
X111151890Y-88553569D01*
X110900000Y-88502560D01*
X109400000Y-88502560D01*
X109164683Y-88546838D01*
X108948559Y-88685910D01*
X108803569Y-88898110D01*
X108800919Y-88911197D01*
X108664090Y-88698559D01*
X108451890Y-88553569D01*
X108200000Y-88502560D01*
X106700000Y-88502560D01*
X106464683Y-88546838D01*
X106248559Y-88685910D01*
X106194519Y-88765000D01*
X96348976Y-88765000D01*
X95999307Y-88531358D01*
X96064691Y-88512059D01*
X96490380Y-88168026D01*
X96752010Y-87687277D01*
X96766970Y-87613070D01*
X96644470Y-87397000D01*
X95203200Y-87397000D01*
X95203200Y-87417000D01*
X94949200Y-87417000D01*
X94949200Y-87397000D01*
X93507930Y-87397000D01*
X93385430Y-87613070D01*
X93400390Y-87687277D01*
X93662020Y-88168026D01*
X94087709Y-88512059D01*
X94153093Y-88531358D01*
X93717860Y-88822172D01*
X93415028Y-89275391D01*
X93308688Y-89810000D01*
X93415028Y-90344609D01*
X93717860Y-90797828D01*
X94171079Y-91100660D01*
X94705688Y-91207000D01*
X95125435Y-91207000D01*
X95266200Y-91235000D01*
X95406965Y-91207000D01*
X95446712Y-91207000D01*
X95981321Y-91100660D01*
X96378908Y-90835000D01*
X106193156Y-90835000D01*
X106235910Y-90901441D01*
X106448110Y-91046431D01*
X106700000Y-91097440D01*
X108200000Y-91097440D01*
X108435317Y-91053162D01*
X108651441Y-90914090D01*
X108796431Y-90701890D01*
X108799081Y-90688803D01*
X108935910Y-90901441D01*
X109148110Y-91046431D01*
X109400000Y-91097440D01*
X110900000Y-91097440D01*
X111135317Y-91053162D01*
X111351441Y-90914090D01*
X111405481Y-90835000D01*
X115400000Y-90835000D01*
X115796077Y-90756215D01*
X116131856Y-90531856D01*
X116356215Y-90196077D01*
X116435000Y-89800000D01*
X116435000Y-86800005D01*
X116435001Y-86800000D01*
X116356215Y-86403923D01*
X116286504Y-86299593D01*
X116131856Y-86068144D01*
X116131853Y-86068142D01*
X113931856Y-83868144D01*
X113807421Y-83785000D01*
X117862494Y-83785000D01*
X117869673Y-83792192D01*
X118213201Y-83934838D01*
X118585167Y-83935162D01*
X118800104Y-83846352D01*
X119013201Y-83934838D01*
X119385167Y-83935162D01*
X119600121Y-83846345D01*
X119813211Y-83934828D01*
X120185177Y-83935152D01*
X120528953Y-83793107D01*
X120625034Y-83697194D01*
X122194468Y-85266628D01*
X122125000Y-85252560D01*
X121725000Y-85252560D01*
X121595411Y-85276944D01*
X121475000Y-85252560D01*
X121075000Y-85252560D01*
X120945411Y-85276944D01*
X120825000Y-85252560D01*
X120425000Y-85252560D01*
X120295411Y-85276944D01*
X120175000Y-85252560D01*
X119775000Y-85252560D01*
X119645411Y-85276944D01*
X119525000Y-85252560D01*
X119125000Y-85252560D01*
X118995411Y-85276944D01*
X118875000Y-85252560D01*
X118475000Y-85252560D01*
X118345411Y-85276944D01*
X118225000Y-85252560D01*
X117825000Y-85252560D01*
X117589683Y-85296838D01*
X117373559Y-85435910D01*
X117228569Y-85648110D01*
X117177560Y-85900000D01*
X117177560Y-87000000D01*
X117221838Y-87235317D01*
X117240000Y-87263542D01*
X117240000Y-93225000D01*
X117299755Y-93525407D01*
X117469921Y-93780079D01*
X118615000Y-94925158D01*
X118615000Y-95972560D01*
X118300000Y-95972560D01*
X118233887Y-95985000D01*
X110307290Y-95985000D01*
X108501145Y-94178855D01*
X108197809Y-93976173D01*
X107840000Y-93905000D01*
X96789638Y-93905000D01*
X96777912Y-93842683D01*
X96638840Y-93626559D01*
X96426640Y-93481569D01*
X96174750Y-93430560D01*
X93977650Y-93430560D01*
X93742333Y-93474838D01*
X93526209Y-93613910D01*
X93381219Y-93826110D01*
X93330210Y-94078000D01*
X93330210Y-95602000D01*
X93374488Y-95837317D01*
X93513560Y-96053441D01*
X93725760Y-96198431D01*
X93942213Y-96242264D01*
X93717860Y-96392172D01*
X93415028Y-96845391D01*
X93308688Y-97380000D01*
X93415028Y-97914609D01*
X93717860Y-98367828D01*
X94140159Y-98650000D01*
X93717860Y-98932172D01*
X93415028Y-99385391D01*
X93308688Y-99920000D01*
X93415028Y-100454609D01*
X93717860Y-100907828D01*
X94140159Y-101190000D01*
X93717860Y-101472172D01*
X93415028Y-101925391D01*
X93308688Y-102460000D01*
X93415028Y-102994609D01*
X93717860Y-103447828D01*
X94140159Y-103730000D01*
X93717860Y-104012172D01*
X93415028Y-104465391D01*
X93308688Y-105000000D01*
X93415028Y-105534609D01*
X93717860Y-105987828D01*
X94140159Y-106270000D01*
X93717860Y-106552172D01*
X93415028Y-107005391D01*
X93308688Y-107540000D01*
X93415028Y-108074609D01*
X93717860Y-108527828D01*
X94140159Y-108810000D01*
X93717860Y-109092172D01*
X93415028Y-109545391D01*
X93308688Y-110080000D01*
X93415028Y-110614609D01*
X93717860Y-111067828D01*
X94140159Y-111350000D01*
X93717860Y-111632172D01*
X93415028Y-112085391D01*
X93308688Y-112620000D01*
X93415028Y-113154609D01*
X93717860Y-113607828D01*
X94153093Y-113898642D01*
X94087709Y-113917941D01*
X93662020Y-114261974D01*
X93400390Y-114742723D01*
X93385430Y-114816930D01*
X93507930Y-115033000D01*
X94949200Y-115033000D01*
X94949200Y-115013000D01*
X95203200Y-115013000D01*
X95203200Y-115033000D01*
X96644470Y-115033000D01*
X96766970Y-114816930D01*
X96752010Y-114742723D01*
X96490380Y-114261974D01*
X96064691Y-113917941D01*
X95999307Y-113898642D01*
X96434540Y-113607828D01*
X96469839Y-113555000D01*
X97380000Y-113555000D01*
X97737809Y-113483827D01*
X98041145Y-113281145D01*
X103956540Y-107365750D01*
X117665000Y-107365750D01*
X117665000Y-107506310D01*
X117761673Y-107739699D01*
X117940302Y-107918327D01*
X118173691Y-108015000D01*
X119014250Y-108015000D01*
X119173000Y-107856250D01*
X119173000Y-107207000D01*
X119427000Y-107207000D01*
X119427000Y-107856250D01*
X119585750Y-108015000D01*
X120426309Y-108015000D01*
X120659698Y-107918327D01*
X120838327Y-107739699D01*
X120935000Y-107506310D01*
X120935000Y-107365750D01*
X120776250Y-107207000D01*
X119427000Y-107207000D01*
X119173000Y-107207000D01*
X117823750Y-107207000D01*
X117665000Y-107365750D01*
X103956540Y-107365750D01*
X104577290Y-106745000D01*
X117665000Y-106745000D01*
X117665000Y-106794250D01*
X117823750Y-106953000D01*
X119173000Y-106953000D01*
X119173000Y-106933000D01*
X119427000Y-106933000D01*
X119427000Y-106953000D01*
X120776250Y-106953000D01*
X120935000Y-106794250D01*
X120935000Y-106653690D01*
X120845194Y-106436878D01*
X120896431Y-106361890D01*
X120947440Y-106110000D01*
X120947440Y-105972718D01*
X125355079Y-101565079D01*
X125525245Y-101310407D01*
X125585000Y-101010000D01*
X125585000Y-93400000D01*
X125525245Y-93099594D01*
X125525245Y-93099593D01*
X125355079Y-92844921D01*
X123360000Y-90849842D01*
X123360000Y-88545158D01*
X123969921Y-89155079D01*
X124224594Y-89325245D01*
X124525000Y-89385001D01*
X124525005Y-89385000D01*
X129800000Y-89385000D01*
X130100407Y-89325245D01*
X130355079Y-89155079D01*
X131155079Y-88355079D01*
X131325245Y-88100406D01*
X131374311Y-87853739D01*
X131679147Y-87650054D01*
X132001054Y-87168285D01*
X132114093Y-86600000D01*
X132001054Y-86031715D01*
X131679147Y-85549946D01*
X131349974Y-85330000D01*
X131679147Y-85110054D01*
X132001054Y-84628285D01*
X132114093Y-84060000D01*
X132001054Y-83491715D01*
X131679147Y-83009946D01*
X131349974Y-82790000D01*
X131679147Y-82570054D01*
X131746685Y-82468975D01*
X132882056Y-83604346D01*
X132852560Y-83750000D01*
X132852560Y-85050000D01*
X132896838Y-85285317D01*
X133035910Y-85501441D01*
X133248110Y-85646431D01*
X133500000Y-85697440D01*
X135000000Y-85697440D01*
X135235317Y-85653162D01*
X135451441Y-85514090D01*
X135596431Y-85301890D01*
X135603191Y-85268510D01*
X135661673Y-85409699D01*
X135840302Y-85588327D01*
X136073691Y-85685000D01*
X136664250Y-85685000D01*
X136823000Y-85526250D01*
X136823000Y-84527000D01*
X137077000Y-84527000D01*
X137077000Y-85526250D01*
X137235750Y-85685000D01*
X137826309Y-85685000D01*
X138059698Y-85588327D01*
X138238327Y-85409699D01*
X138335000Y-85176310D01*
X138335000Y-84685750D01*
X138176250Y-84527000D01*
X137077000Y-84527000D01*
X136823000Y-84527000D01*
X136803000Y-84527000D01*
X136803000Y-84273000D01*
X136823000Y-84273000D01*
X136823000Y-83273750D01*
X137077000Y-83273750D01*
X137077000Y-84273000D01*
X138176250Y-84273000D01*
X138335000Y-84114250D01*
X138335000Y-83623690D01*
X138238327Y-83390301D01*
X138059698Y-83211673D01*
X137826309Y-83115000D01*
X137235750Y-83115000D01*
X137077000Y-83273750D01*
X136823000Y-83273750D01*
X136664250Y-83115000D01*
X136073691Y-83115000D01*
X135840302Y-83211673D01*
X135661673Y-83390301D01*
X135605346Y-83526287D01*
X135603162Y-83514683D01*
X135464090Y-83298559D01*
X135251890Y-83153569D01*
X135000000Y-83102560D01*
X134987120Y-83102560D01*
X134911145Y-82988855D01*
X133695360Y-81773070D01*
X134309230Y-81773070D01*
X134324190Y-81847277D01*
X134585820Y-82328026D01*
X135011509Y-82672059D01*
X135536450Y-82827000D01*
X135873000Y-82827000D01*
X135873000Y-81557000D01*
X136127000Y-81557000D01*
X136127000Y-82827000D01*
X136463550Y-82827000D01*
X136988491Y-82672059D01*
X137414180Y-82328026D01*
X137675810Y-81847277D01*
X137690770Y-81773070D01*
X137568270Y-81557000D01*
X136127000Y-81557000D01*
X135873000Y-81557000D01*
X134431730Y-81557000D01*
X134309230Y-81773070D01*
X133695360Y-81773070D01*
X132781145Y-80858855D01*
X132477809Y-80656173D01*
X132120000Y-80585000D01*
X131756023Y-80585000D01*
X131679147Y-80469946D01*
X131385000Y-80273404D01*
X131385000Y-79800000D01*
X131355134Y-79649854D01*
X131325245Y-79499593D01*
X131155079Y-79244921D01*
X130185000Y-78274842D01*
X130185000Y-76400000D01*
X130125245Y-76099594D01*
X129955079Y-75844921D01*
X128355079Y-74244921D01*
X128100407Y-74074755D01*
X127800000Y-74015000D01*
X124900881Y-74015000D01*
X124959979Y-73717900D01*
X124959978Y-73717895D01*
X124959978Y-64094983D01*
X124959979Y-64094978D01*
X124900223Y-63794572D01*
X124870882Y-63750660D01*
X124730057Y-63539899D01*
X124730054Y-63539897D01*
X120947440Y-59757282D01*
X120947440Y-59620000D01*
X127052560Y-59620000D01*
X127052560Y-60220000D01*
X127096838Y-60455317D01*
X127160678Y-60554528D01*
X127103569Y-60638110D01*
X127052560Y-60890000D01*
X127052560Y-61490000D01*
X127096838Y-61725317D01*
X127160678Y-61824528D01*
X127103569Y-61908110D01*
X127052560Y-62160000D01*
X127052560Y-62760000D01*
X127096838Y-62995317D01*
X127160678Y-63094528D01*
X127103569Y-63178110D01*
X127052560Y-63430000D01*
X127052560Y-64030000D01*
X127096838Y-64265317D01*
X127160678Y-64364528D01*
X127103569Y-64448110D01*
X127052560Y-64700000D01*
X127052560Y-65300000D01*
X127096838Y-65535317D01*
X127160678Y-65634528D01*
X127103569Y-65718110D01*
X127052560Y-65970000D01*
X127052560Y-66570000D01*
X127096838Y-66805317D01*
X127160678Y-66904528D01*
X127103569Y-66988110D01*
X127052560Y-67240000D01*
X127052560Y-67840000D01*
X127096838Y-68075317D01*
X127160678Y-68174528D01*
X127103569Y-68258110D01*
X127052560Y-68510000D01*
X127052560Y-69110000D01*
X127096838Y-69345317D01*
X127160678Y-69444528D01*
X127103569Y-69528110D01*
X127052560Y-69780000D01*
X127052560Y-70380000D01*
X127096838Y-70615317D01*
X127235910Y-70831441D01*
X127448110Y-70976431D01*
X127700000Y-71027440D01*
X129700000Y-71027440D01*
X129704334Y-71026624D01*
X131065000Y-72387290D01*
X131065000Y-75000000D01*
X131136173Y-75357809D01*
X131338855Y-75661145D01*
X134288105Y-78610395D01*
X134232488Y-78890000D01*
X134338828Y-79424609D01*
X134641660Y-79877828D01*
X135076893Y-80168642D01*
X135011509Y-80187941D01*
X134585820Y-80531974D01*
X134324190Y-81012723D01*
X134309230Y-81086930D01*
X134431730Y-81303000D01*
X135873000Y-81303000D01*
X135873000Y-81283000D01*
X136127000Y-81283000D01*
X136127000Y-81303000D01*
X137568270Y-81303000D01*
X137690770Y-81086930D01*
X137675810Y-81012723D01*
X137414180Y-80531974D01*
X136988491Y-80187941D01*
X136923107Y-80168642D01*
X137358340Y-79877828D01*
X137661172Y-79424609D01*
X137767512Y-78890000D01*
X137661172Y-78355391D01*
X137358340Y-77902172D01*
X136936041Y-77620000D01*
X137358340Y-77337828D01*
X137661172Y-76884609D01*
X137767512Y-76350000D01*
X137661172Y-75815391D01*
X137358340Y-75362172D01*
X136936041Y-75080000D01*
X137358340Y-74797828D01*
X137661172Y-74344609D01*
X137767512Y-73810000D01*
X137661172Y-73275391D01*
X137358340Y-72822172D01*
X136936041Y-72540000D01*
X137358340Y-72257828D01*
X137661172Y-71804609D01*
X137767512Y-71270000D01*
X137661172Y-70735391D01*
X137358340Y-70282172D01*
X136936041Y-70000000D01*
X137358340Y-69717828D01*
X137661172Y-69264609D01*
X137767512Y-68730000D01*
X137661172Y-68195391D01*
X137358340Y-67742172D01*
X136936041Y-67460000D01*
X137358340Y-67177828D01*
X137661172Y-66724609D01*
X137767512Y-66190000D01*
X137661172Y-65655391D01*
X137358340Y-65202172D01*
X136936041Y-64920000D01*
X137358340Y-64637828D01*
X137661172Y-64184609D01*
X137767512Y-63650000D01*
X137661172Y-63115391D01*
X137358340Y-62662172D01*
X136936041Y-62380000D01*
X137358340Y-62097828D01*
X137661172Y-61644609D01*
X137767512Y-61110000D01*
X137661172Y-60575391D01*
X137358340Y-60122172D01*
X137134581Y-59972660D01*
X137333867Y-59935162D01*
X137549991Y-59796090D01*
X137694981Y-59583890D01*
X137745990Y-59332000D01*
X137745990Y-57808000D01*
X137701712Y-57572683D01*
X137562640Y-57356559D01*
X137350440Y-57211569D01*
X137098550Y-57160560D01*
X134901450Y-57160560D01*
X134666133Y-57204838D01*
X134450009Y-57343910D01*
X134305019Y-57556110D01*
X134289043Y-57635000D01*
X133430000Y-57635000D01*
X133072191Y-57706173D01*
X132768855Y-57908855D01*
X131692710Y-58985000D01*
X129761431Y-58985000D01*
X129700000Y-58972560D01*
X127700000Y-58972560D01*
X127464683Y-59016838D01*
X127248559Y-59155910D01*
X127103569Y-59368110D01*
X127052560Y-59620000D01*
X120947440Y-59620000D01*
X120903162Y-59384683D01*
X120764090Y-59168559D01*
X120551890Y-59023569D01*
X120300000Y-58972560D01*
X118300000Y-58972560D01*
X118233887Y-58985000D01*
X103307290Y-58985000D01*
X98501145Y-54178855D01*
X98197809Y-53976173D01*
X97840000Y-53905000D01*
X96789638Y-53905000D01*
X96777912Y-53842683D01*
X96638840Y-53626559D01*
X96426640Y-53481569D01*
X96174750Y-53430560D01*
X93977650Y-53430560D01*
X93742333Y-53474838D01*
X93526209Y-53613910D01*
X93381219Y-53826110D01*
X93330210Y-54078000D01*
X93330210Y-55602000D01*
X93374488Y-55837317D01*
X93513560Y-56053441D01*
X93725760Y-56198431D01*
X93942213Y-56242264D01*
X93717860Y-56392172D01*
X93415028Y-56845391D01*
X93308688Y-57380000D01*
X90710000Y-57380000D01*
X90710000Y-51270000D01*
X93308688Y-51270000D01*
X93415028Y-51804609D01*
X93717860Y-52257828D01*
X94171079Y-52560660D01*
X94705688Y-52667000D01*
X95446712Y-52667000D01*
X95981321Y-52560660D01*
X96064622Y-52505000D01*
X98849156Y-52505000D01*
X98965910Y-52686441D01*
X99178110Y-52831431D01*
X99430000Y-52882440D01*
X100700000Y-52882440D01*
X100935317Y-52838162D01*
X101151441Y-52699090D01*
X101296431Y-52486890D01*
X101347440Y-52235000D01*
X101347440Y-51270000D01*
X102644999Y-51270000D01*
X102652560Y-51308011D01*
X102652560Y-52235000D01*
X102696838Y-52470317D01*
X102835910Y-52686441D01*
X103048110Y-52831431D01*
X103300000Y-52882440D01*
X103570886Y-52882440D01*
X104761723Y-54073277D01*
X105162386Y-54340991D01*
X105635000Y-54435000D01*
X135400205Y-54435000D01*
X135670853Y-54840054D01*
X136152622Y-55161961D01*
X136720907Y-55275000D01*
X136779093Y-55275000D01*
X137347378Y-55161961D01*
X137829147Y-54840054D01*
X138151054Y-54358285D01*
X138264093Y-53790000D01*
X138151054Y-53221715D01*
X137829147Y-52739946D01*
X137787548Y-52712150D01*
X137835317Y-52703162D01*
X138051441Y-52564090D01*
X138196431Y-52351890D01*
X138247440Y-52100000D01*
X138247440Y-50400000D01*
X138203162Y-50164683D01*
X138064090Y-49948559D01*
X137851890Y-49803569D01*
X137600000Y-49752560D01*
X135900000Y-49752560D01*
X135664683Y-49796838D01*
X135448559Y-49935910D01*
X135303569Y-50148110D01*
X135252560Y-50400000D01*
X135252560Y-51965000D01*
X106146554Y-51965000D01*
X105217440Y-51035886D01*
X105217440Y-50765000D01*
X105173162Y-50529683D01*
X105034090Y-50313559D01*
X104821890Y-50168569D01*
X104570000Y-50117560D01*
X103300000Y-50117560D01*
X103064683Y-50161838D01*
X102848559Y-50300910D01*
X102703569Y-50513110D01*
X102652560Y-50765000D01*
X102652560Y-51231989D01*
X102644999Y-51270000D01*
X101347440Y-51270000D01*
X101347440Y-50765000D01*
X101303162Y-50529683D01*
X101164090Y-50313559D01*
X100951890Y-50168569D01*
X100700000Y-50117560D01*
X100250056Y-50117560D01*
X99835000Y-50035000D01*
X96523167Y-50035000D01*
X96534449Y-50030327D01*
X96713077Y-49851698D01*
X96809750Y-49618309D01*
X96809750Y-49015750D01*
X96651000Y-48857000D01*
X95203200Y-48857000D01*
X95203200Y-48877000D01*
X94949200Y-48877000D01*
X94949200Y-48857000D01*
X93501400Y-48857000D01*
X93342650Y-49015750D01*
X93342650Y-49618309D01*
X93439323Y-49851698D01*
X93617951Y-50030327D01*
X93851340Y-50127000D01*
X93950091Y-50127000D01*
X93717860Y-50282172D01*
X93415028Y-50735391D01*
X93308688Y-51270000D01*
X90710000Y-51270000D01*
X90710000Y-47841691D01*
X93342650Y-47841691D01*
X93342650Y-48444250D01*
X93501400Y-48603000D01*
X94949200Y-48603000D01*
X94949200Y-47491750D01*
X95203200Y-47491750D01*
X95203200Y-48603000D01*
X96651000Y-48603000D01*
X96809750Y-48444250D01*
X96809750Y-47841691D01*
X96713077Y-47608302D01*
X96534449Y-47429673D01*
X96301060Y-47333000D01*
X95361950Y-47333000D01*
X95203200Y-47491750D01*
X94949200Y-47491750D01*
X94790450Y-47333000D01*
X93851340Y-47333000D01*
X93617951Y-47429673D01*
X93439323Y-47608302D01*
X93342650Y-47841691D01*
X90710000Y-47841691D01*
X90710000Y-42416266D01*
X92763339Y-42416266D01*
X93075487Y-42864932D01*
X94318343Y-43383331D01*
X95664976Y-43386648D01*
X96910371Y-42874380D01*
X96924513Y-42864932D01*
X97236661Y-42416266D01*
X132763339Y-42416266D01*
X133075487Y-42864932D01*
X134318343Y-43383331D01*
X135664976Y-43386648D01*
X136910371Y-42874380D01*
X136924513Y-42864932D01*
X137236661Y-42416266D01*
X135000000Y-40179605D01*
X132763339Y-42416266D01*
X97236661Y-42416266D01*
X95000000Y-40179605D01*
X92763339Y-42416266D01*
X90710000Y-42416266D01*
X90710000Y-40664976D01*
X91613352Y-40664976D01*
X92125620Y-41910371D01*
X92135068Y-41924513D01*
X92583734Y-42236661D01*
X94820395Y-40000000D01*
X95179605Y-40000000D01*
X97416266Y-42236661D01*
X97864932Y-41924513D01*
X98383331Y-40681657D01*
X98383372Y-40664976D01*
X131613352Y-40664976D01*
X132125620Y-41910371D01*
X132135068Y-41924513D01*
X132583734Y-42236661D01*
X134820395Y-40000000D01*
X135179605Y-40000000D01*
X137416266Y-42236661D01*
X137864932Y-41924513D01*
X138383331Y-40681657D01*
X138386648Y-39335024D01*
X137874380Y-38089629D01*
X137864932Y-38075487D01*
X137416266Y-37763339D01*
X135179605Y-40000000D01*
X134820395Y-40000000D01*
X132583734Y-37763339D01*
X132135068Y-38075487D01*
X131616669Y-39318343D01*
X131613352Y-40664976D01*
X98383372Y-40664976D01*
X98386648Y-39335024D01*
X97874380Y-38089629D01*
X97864932Y-38075487D01*
X97416266Y-37763339D01*
X95179605Y-40000000D01*
X94820395Y-40000000D01*
X92583734Y-37763339D01*
X92135068Y-38075487D01*
X91616669Y-39318343D01*
X91613352Y-40664976D01*
X90710000Y-40664976D01*
X90710000Y-37583734D01*
X92763339Y-37583734D01*
X95000000Y-39820395D01*
X97236661Y-37583734D01*
X132763339Y-37583734D01*
X135000000Y-39820395D01*
X137236661Y-37583734D01*
X136924513Y-37135068D01*
X135681657Y-36616669D01*
X134335024Y-36613352D01*
X133089629Y-37125620D01*
X133075487Y-37135068D01*
X132763339Y-37583734D01*
X97236661Y-37583734D01*
X96924513Y-37135068D01*
X95681657Y-36616669D01*
X94335024Y-36613352D01*
X93089629Y-37125620D01*
X93075487Y-37135068D01*
X92763339Y-37583734D01*
X90710000Y-37583734D01*
X90710000Y-35710000D01*
X139290000Y-35710000D01*
X139290000Y-134290000D01*
X139290000Y-134290000D01*
G37*
X139290000Y-134290000D02*
X90710000Y-134290000D01*
X90710000Y-132416266D01*
X92763339Y-132416266D01*
X93075487Y-132864932D01*
X94318343Y-133383331D01*
X95664976Y-133386648D01*
X96910371Y-132874380D01*
X96924513Y-132864932D01*
X97236661Y-132416266D01*
X132763339Y-132416266D01*
X133075487Y-132864932D01*
X134318343Y-133383331D01*
X135664976Y-133386648D01*
X136910371Y-132874380D01*
X136924513Y-132864932D01*
X137236661Y-132416266D01*
X135000000Y-130179605D01*
X132763339Y-132416266D01*
X97236661Y-132416266D01*
X95000000Y-130179605D01*
X92763339Y-132416266D01*
X90710000Y-132416266D01*
X90710000Y-130664976D01*
X91613352Y-130664976D01*
X92125620Y-131910371D01*
X92135068Y-131924513D01*
X92583734Y-132236661D01*
X94820395Y-130000000D01*
X95179605Y-130000000D01*
X97416266Y-132236661D01*
X97864932Y-131924513D01*
X98383331Y-130681657D01*
X98383372Y-130664976D01*
X131613352Y-130664976D01*
X132125620Y-131910371D01*
X132135068Y-131924513D01*
X132583734Y-132236661D01*
X134820395Y-130000000D01*
X135179605Y-130000000D01*
X137416266Y-132236661D01*
X137864932Y-131924513D01*
X138383331Y-130681657D01*
X138386648Y-129335024D01*
X137874380Y-128089629D01*
X137864932Y-128075487D01*
X137416266Y-127763339D01*
X135179605Y-130000000D01*
X134820395Y-130000000D01*
X132583734Y-127763339D01*
X132135068Y-128075487D01*
X131616669Y-129318343D01*
X131613352Y-130664976D01*
X98383372Y-130664976D01*
X98386648Y-129335024D01*
X97874380Y-128089629D01*
X97864932Y-128075487D01*
X97416266Y-127763339D01*
X95179605Y-130000000D01*
X94820395Y-130000000D01*
X92583734Y-127763339D01*
X92135068Y-128075487D01*
X91616669Y-129318343D01*
X91613352Y-130664976D01*
X90710000Y-130664976D01*
X90710000Y-127583734D01*
X92763339Y-127583734D01*
X95000000Y-129820395D01*
X97236661Y-127583734D01*
X132763339Y-127583734D01*
X135000000Y-129820395D01*
X137236661Y-127583734D01*
X136924513Y-127135068D01*
X135681657Y-126616669D01*
X134335024Y-126613352D01*
X133089629Y-127125620D01*
X133075487Y-127135068D01*
X132763339Y-127583734D01*
X97236661Y-127583734D01*
X96924513Y-127135068D01*
X95681657Y-126616669D01*
X94335024Y-126613352D01*
X93089629Y-127125620D01*
X93075487Y-127135068D01*
X92763339Y-127583734D01*
X90710000Y-127583734D01*
X90710000Y-115503070D01*
X93385430Y-115503070D01*
X93400390Y-115577277D01*
X93662020Y-116058026D01*
X94087709Y-116402059D01*
X94612650Y-116557000D01*
X94949200Y-116557000D01*
X94949200Y-115287000D01*
X95203200Y-115287000D01*
X95203200Y-116557000D01*
X95539750Y-116557000D01*
X96064691Y-116402059D01*
X96490380Y-116058026D01*
X96752010Y-115577277D01*
X96766970Y-115503070D01*
X96765230Y-115500000D01*
X104265000Y-115500000D01*
X104359009Y-115972614D01*
X104626723Y-116373277D01*
X108026723Y-119773277D01*
X108427386Y-120040991D01*
X108900000Y-120135000D01*
X130646200Y-120135000D01*
X131118814Y-120040991D01*
X131142746Y-120025000D01*
X135297645Y-120025000D01*
X135502622Y-120161961D01*
X136070907Y-120275000D01*
X136129093Y-120275000D01*
X136697378Y-120161961D01*
X137179147Y-119840054D01*
X137501054Y-119358285D01*
X137614093Y-118790000D01*
X137501054Y-118221715D01*
X137179147Y-117739946D01*
X137137548Y-117712150D01*
X137185317Y-117703162D01*
X137401441Y-117564090D01*
X137546431Y-117351890D01*
X137597440Y-117100000D01*
X137597440Y-115400000D01*
X137553162Y-115164683D01*
X137414090Y-114948559D01*
X137201890Y-114803569D01*
X137135000Y-114790023D01*
X137135000Y-114600005D01*
X137135001Y-114600000D01*
X137056215Y-114203923D01*
X136831856Y-113868144D01*
X136831853Y-113868142D01*
X135820712Y-112857000D01*
X135973000Y-112857000D01*
X135973000Y-111587000D01*
X136227000Y-111587000D01*
X136227000Y-112857000D01*
X136563550Y-112857000D01*
X137088491Y-112702059D01*
X137514180Y-112358026D01*
X137775810Y-111877277D01*
X137790770Y-111803070D01*
X137668270Y-111587000D01*
X136227000Y-111587000D01*
X135973000Y-111587000D01*
X135953000Y-111587000D01*
X135953000Y-111333000D01*
X135973000Y-111333000D01*
X135973000Y-111313000D01*
X136227000Y-111313000D01*
X136227000Y-111333000D01*
X137668270Y-111333000D01*
X137790770Y-111116930D01*
X137775810Y-111042723D01*
X137514180Y-110561974D01*
X137088491Y-110217941D01*
X137023107Y-110198642D01*
X137458340Y-109907828D01*
X137761172Y-109454609D01*
X137867512Y-108920000D01*
X137761172Y-108385391D01*
X137458340Y-107932172D01*
X137036041Y-107650000D01*
X137458340Y-107367828D01*
X137761172Y-106914609D01*
X137867512Y-106380000D01*
X137761172Y-105845391D01*
X137458340Y-105392172D01*
X137036041Y-105110000D01*
X137458340Y-104827828D01*
X137761172Y-104374609D01*
X137867512Y-103840000D01*
X137761172Y-103305391D01*
X137458340Y-102852172D01*
X137036041Y-102570000D01*
X137458340Y-102287828D01*
X137761172Y-101834609D01*
X137867512Y-101300000D01*
X137761172Y-100765391D01*
X137458340Y-100312172D01*
X137036041Y-100030000D01*
X137458340Y-99747828D01*
X137761172Y-99294609D01*
X137867512Y-98760000D01*
X137761172Y-98225391D01*
X137458340Y-97772172D01*
X137036041Y-97490000D01*
X137458340Y-97207828D01*
X137761172Y-96754609D01*
X137867512Y-96220000D01*
X137761172Y-95685391D01*
X137458340Y-95232172D01*
X137036041Y-94950000D01*
X137458340Y-94667828D01*
X137663860Y-94360246D01*
X137737345Y-94311145D01*
X137940027Y-94007809D01*
X138011200Y-93650000D01*
X137940027Y-93292191D01*
X137737345Y-92988855D01*
X137591434Y-92891361D01*
X137458340Y-92692172D01*
X137036041Y-92410000D01*
X137458340Y-92127828D01*
X137761172Y-91674609D01*
X137867512Y-91140000D01*
X137761172Y-90605391D01*
X137458340Y-90152172D01*
X137234581Y-90002660D01*
X137433867Y-89965162D01*
X137649991Y-89826090D01*
X137794981Y-89613890D01*
X137845990Y-89362000D01*
X137845990Y-87838000D01*
X137801712Y-87602683D01*
X137662640Y-87386559D01*
X137450440Y-87241569D01*
X137198550Y-87190560D01*
X135001450Y-87190560D01*
X134766133Y-87234838D01*
X134550009Y-87373910D01*
X134405019Y-87586110D01*
X134389043Y-87665000D01*
X132580822Y-87665000D01*
X132430000Y-87634999D01*
X132167187Y-87687277D01*
X132072191Y-87706173D01*
X131768855Y-87908855D01*
X128038855Y-91638855D01*
X127836173Y-91942191D01*
X127765000Y-92300000D01*
X127765000Y-95972560D01*
X127700000Y-95972560D01*
X127464683Y-96016838D01*
X127248559Y-96155910D01*
X127103569Y-96368110D01*
X127052560Y-96620000D01*
X127052560Y-97220000D01*
X127096838Y-97455317D01*
X127160678Y-97554528D01*
X127103569Y-97638110D01*
X127052560Y-97890000D01*
X127052560Y-98490000D01*
X127096838Y-98725317D01*
X127160678Y-98824528D01*
X127103569Y-98908110D01*
X127052560Y-99160000D01*
X127052560Y-99760000D01*
X127096838Y-99995317D01*
X127160678Y-100094528D01*
X127103569Y-100178110D01*
X127052560Y-100430000D01*
X127052560Y-101030000D01*
X127096838Y-101265317D01*
X127160678Y-101364528D01*
X127103569Y-101448110D01*
X127052560Y-101700000D01*
X127052560Y-102300000D01*
X127096838Y-102535317D01*
X127160678Y-102634528D01*
X127103569Y-102718110D01*
X127052560Y-102970000D01*
X127052560Y-103570000D01*
X127096838Y-103805317D01*
X127160678Y-103904528D01*
X127103569Y-103988110D01*
X127052560Y-104240000D01*
X127052560Y-104840000D01*
X127096838Y-105075317D01*
X127160678Y-105174528D01*
X127103569Y-105258110D01*
X127052560Y-105510000D01*
X127052560Y-106110000D01*
X127096838Y-106345317D01*
X127160678Y-106444528D01*
X127103569Y-106528110D01*
X127052560Y-106780000D01*
X127052560Y-107380000D01*
X127096838Y-107615317D01*
X127235910Y-107831441D01*
X127448110Y-107976431D01*
X127700000Y-108027440D01*
X129700000Y-108027440D01*
X129766113Y-108015000D01*
X133692710Y-108015000D01*
X134376491Y-108698781D01*
X134332488Y-108920000D01*
X134379573Y-109156715D01*
X133468144Y-110068144D01*
X133243785Y-110403923D01*
X133164999Y-110800000D01*
X133165000Y-110800005D01*
X133165000Y-112853800D01*
X133243785Y-113249877D01*
X133468144Y-113585656D01*
X133803923Y-113810015D01*
X133856826Y-113820538D01*
X134904213Y-114867924D01*
X134798559Y-114935910D01*
X134653569Y-115148110D01*
X134602560Y-115400000D01*
X134602560Y-117100000D01*
X134646838Y-117335317D01*
X134785910Y-117551441D01*
X134791119Y-117555000D01*
X130756200Y-117555000D01*
X130283586Y-117649009D01*
X130259654Y-117665000D01*
X109411554Y-117665000D01*
X106373277Y-114626723D01*
X105972614Y-114359009D01*
X105500000Y-114265000D01*
X105027386Y-114359009D01*
X104626723Y-114626723D01*
X104359009Y-115027386D01*
X104265000Y-115500000D01*
X96765230Y-115500000D01*
X96644470Y-115287000D01*
X95203200Y-115287000D01*
X94949200Y-115287000D01*
X93507930Y-115287000D01*
X93385430Y-115503070D01*
X90710000Y-115503070D01*
X90710000Y-75503070D01*
X93385430Y-75503070D01*
X93400390Y-75577277D01*
X93662020Y-76058026D01*
X94087709Y-76402059D01*
X94612650Y-76557000D01*
X94949200Y-76557000D01*
X94949200Y-75287000D01*
X95203200Y-75287000D01*
X95203200Y-76557000D01*
X95539750Y-76557000D01*
X96064691Y-76402059D01*
X96490380Y-76058026D01*
X96752010Y-75577277D01*
X96766970Y-75503070D01*
X96644470Y-75287000D01*
X95203200Y-75287000D01*
X94949200Y-75287000D01*
X93507930Y-75287000D01*
X93385430Y-75503070D01*
X90710000Y-75503070D01*
X90710000Y-57380000D01*
X93308688Y-57380000D01*
X93415028Y-57914609D01*
X93717860Y-58367828D01*
X94140159Y-58650000D01*
X93717860Y-58932172D01*
X93415028Y-59385391D01*
X93308688Y-59920000D01*
X93415028Y-60454609D01*
X93717860Y-60907828D01*
X94140159Y-61190000D01*
X93717860Y-61472172D01*
X93415028Y-61925391D01*
X93308688Y-62460000D01*
X93415028Y-62994609D01*
X93717860Y-63447828D01*
X94140159Y-63730000D01*
X93717860Y-64012172D01*
X93415028Y-64465391D01*
X93308688Y-65000000D01*
X93415028Y-65534609D01*
X93717860Y-65987828D01*
X94140159Y-66270000D01*
X93717860Y-66552172D01*
X93415028Y-67005391D01*
X93308688Y-67540000D01*
X93415028Y-68074609D01*
X93717860Y-68527828D01*
X94140159Y-68810000D01*
X93717860Y-69092172D01*
X93415028Y-69545391D01*
X93308688Y-70080000D01*
X93415028Y-70614609D01*
X93717860Y-71067828D01*
X94140159Y-71350000D01*
X93717860Y-71632172D01*
X93415028Y-72085391D01*
X93308688Y-72620000D01*
X93415028Y-73154609D01*
X93717860Y-73607828D01*
X94153093Y-73898642D01*
X94087709Y-73917941D01*
X93662020Y-74261974D01*
X93400390Y-74742723D01*
X93385430Y-74816930D01*
X93507930Y-75033000D01*
X94949200Y-75033000D01*
X94949200Y-75013000D01*
X95203200Y-75013000D01*
X95203200Y-75033000D01*
X96644470Y-75033000D01*
X96766970Y-74816930D01*
X96752010Y-74742723D01*
X96490380Y-74261974D01*
X96064691Y-73917941D01*
X95999307Y-73898642D01*
X96434540Y-73607828D01*
X96737372Y-73154609D01*
X96843712Y-72620000D01*
X96825682Y-72529358D01*
X98989290Y-70365750D01*
X117665000Y-70365750D01*
X117665000Y-70506310D01*
X117761673Y-70739699D01*
X117940302Y-70918327D01*
X118173691Y-71015000D01*
X119014250Y-71015000D01*
X119173000Y-70856250D01*
X119173000Y-70207000D01*
X117823750Y-70207000D01*
X117665000Y-70365750D01*
X98989290Y-70365750D01*
X99610040Y-69745000D01*
X117665000Y-69745000D01*
X117665000Y-69794250D01*
X117823750Y-69953000D01*
X119173000Y-69953000D01*
X119173000Y-69933000D01*
X119427000Y-69933000D01*
X119427000Y-69953000D01*
X119447000Y-69953000D01*
X119447000Y-70207000D01*
X119427000Y-70207000D01*
X119427000Y-70856250D01*
X119585750Y-71015000D01*
X119889901Y-71015000D01*
X119889901Y-71942975D01*
X118044839Y-73788038D01*
X117874673Y-74042711D01*
X117814918Y-74343117D01*
X117814918Y-79613668D01*
X117766250Y-79565000D01*
X117698690Y-79565000D01*
X117465301Y-79661673D01*
X117286673Y-79840302D01*
X117190000Y-80073691D01*
X117190000Y-80464250D01*
X117348750Y-80623000D01*
X117827560Y-80623000D01*
X117827560Y-80877000D01*
X117348750Y-80877000D01*
X117190000Y-81035750D01*
X117190000Y-81405000D01*
X116022388Y-81405000D01*
X116131856Y-81331856D01*
X116356215Y-80996077D01*
X116435000Y-80600000D01*
X116356215Y-80203923D01*
X116131856Y-79868144D01*
X115796077Y-79643785D01*
X115400000Y-79565000D01*
X111406844Y-79565000D01*
X111364090Y-79498559D01*
X111151890Y-79353569D01*
X110900000Y-79302560D01*
X109400000Y-79302560D01*
X109164683Y-79346838D01*
X108948559Y-79485910D01*
X108803569Y-79698110D01*
X108800919Y-79711197D01*
X108664090Y-79498559D01*
X108451890Y-79353569D01*
X108200000Y-79302560D01*
X106700000Y-79302560D01*
X106464683Y-79346838D01*
X106248559Y-79485910D01*
X106194519Y-79565000D01*
X96666205Y-79565000D01*
X96666200Y-79564999D01*
X96339027Y-79630079D01*
X96270123Y-79643785D01*
X95934344Y-79868144D01*
X95934342Y-79868147D01*
X95021928Y-80780560D01*
X93977650Y-80780560D01*
X93742333Y-80824838D01*
X93526209Y-80963910D01*
X93381219Y-81176110D01*
X93330210Y-81428000D01*
X93330210Y-82952000D01*
X93374488Y-83187317D01*
X93513560Y-83403441D01*
X93725760Y-83548431D01*
X93942213Y-83592264D01*
X93717860Y-83742172D01*
X93415028Y-84195391D01*
X93308688Y-84730000D01*
X93415028Y-85264609D01*
X93717860Y-85717828D01*
X94153093Y-86008642D01*
X94087709Y-86027941D01*
X93662020Y-86371974D01*
X93400390Y-86852723D01*
X93385430Y-86926930D01*
X93507930Y-87143000D01*
X94949200Y-87143000D01*
X94949200Y-87123000D01*
X95203200Y-87123000D01*
X95203200Y-87143000D01*
X96644470Y-87143000D01*
X96766970Y-86926930D01*
X96752010Y-86852723D01*
X96490380Y-86371974D01*
X96064691Y-86027941D01*
X95999307Y-86008642D01*
X96434540Y-85717828D01*
X96489884Y-85635000D01*
X106193156Y-85635000D01*
X106235910Y-85701441D01*
X106448110Y-85846431D01*
X106700000Y-85897440D01*
X108200000Y-85897440D01*
X108435317Y-85853162D01*
X108651441Y-85714090D01*
X108796431Y-85501890D01*
X108799081Y-85488803D01*
X108935910Y-85701441D01*
X109148110Y-85846431D01*
X109400000Y-85897440D01*
X110900000Y-85897440D01*
X111135317Y-85853162D01*
X111351441Y-85714090D01*
X111405481Y-85635000D01*
X112771288Y-85635000D01*
X114365000Y-87228711D01*
X114365000Y-88765000D01*
X111406844Y-88765000D01*
X111364090Y-88698559D01*
X111151890Y-88553569D01*
X110900000Y-88502560D01*
X109400000Y-88502560D01*
X109164683Y-88546838D01*
X108948559Y-88685910D01*
X108803569Y-88898110D01*
X108800919Y-88911197D01*
X108664090Y-88698559D01*
X108451890Y-88553569D01*
X108200000Y-88502560D01*
X106700000Y-88502560D01*
X106464683Y-88546838D01*
X106248559Y-88685910D01*
X106194519Y-88765000D01*
X96348976Y-88765000D01*
X95999307Y-88531358D01*
X96064691Y-88512059D01*
X96490380Y-88168026D01*
X96752010Y-87687277D01*
X96766970Y-87613070D01*
X96644470Y-87397000D01*
X95203200Y-87397000D01*
X95203200Y-87417000D01*
X94949200Y-87417000D01*
X94949200Y-87397000D01*
X93507930Y-87397000D01*
X93385430Y-87613070D01*
X93400390Y-87687277D01*
X93662020Y-88168026D01*
X94087709Y-88512059D01*
X94153093Y-88531358D01*
X93717860Y-88822172D01*
X93415028Y-89275391D01*
X93308688Y-89810000D01*
X93415028Y-90344609D01*
X93717860Y-90797828D01*
X94171079Y-91100660D01*
X94705688Y-91207000D01*
X95125435Y-91207000D01*
X95266200Y-91235000D01*
X95406965Y-91207000D01*
X95446712Y-91207000D01*
X95981321Y-91100660D01*
X96378908Y-90835000D01*
X106193156Y-90835000D01*
X106235910Y-90901441D01*
X106448110Y-91046431D01*
X106700000Y-91097440D01*
X108200000Y-91097440D01*
X108435317Y-91053162D01*
X108651441Y-90914090D01*
X108796431Y-90701890D01*
X108799081Y-90688803D01*
X108935910Y-90901441D01*
X109148110Y-91046431D01*
X109400000Y-91097440D01*
X110900000Y-91097440D01*
X111135317Y-91053162D01*
X111351441Y-90914090D01*
X111405481Y-90835000D01*
X115400000Y-90835000D01*
X115796077Y-90756215D01*
X116131856Y-90531856D01*
X116356215Y-90196077D01*
X116435000Y-89800000D01*
X116435000Y-86800005D01*
X116435001Y-86800000D01*
X116356215Y-86403923D01*
X116286504Y-86299593D01*
X116131856Y-86068144D01*
X116131853Y-86068142D01*
X113931856Y-83868144D01*
X113807421Y-83785000D01*
X117862494Y-83785000D01*
X117869673Y-83792192D01*
X118213201Y-83934838D01*
X118585167Y-83935162D01*
X118800104Y-83846352D01*
X119013201Y-83934838D01*
X119385167Y-83935162D01*
X119600121Y-83846345D01*
X119813211Y-83934828D01*
X120185177Y-83935152D01*
X120528953Y-83793107D01*
X120625034Y-83697194D01*
X122194468Y-85266628D01*
X122125000Y-85252560D01*
X121725000Y-85252560D01*
X121595411Y-85276944D01*
X121475000Y-85252560D01*
X121075000Y-85252560D01*
X120945411Y-85276944D01*
X120825000Y-85252560D01*
X120425000Y-85252560D01*
X120295411Y-85276944D01*
X120175000Y-85252560D01*
X119775000Y-85252560D01*
X119645411Y-85276944D01*
X119525000Y-85252560D01*
X119125000Y-85252560D01*
X118995411Y-85276944D01*
X118875000Y-85252560D01*
X118475000Y-85252560D01*
X118345411Y-85276944D01*
X118225000Y-85252560D01*
X117825000Y-85252560D01*
X117589683Y-85296838D01*
X117373559Y-85435910D01*
X117228569Y-85648110D01*
X117177560Y-85900000D01*
X117177560Y-87000000D01*
X117221838Y-87235317D01*
X117240000Y-87263542D01*
X117240000Y-93225000D01*
X117299755Y-93525407D01*
X117469921Y-93780079D01*
X118615000Y-94925158D01*
X118615000Y-95972560D01*
X118300000Y-95972560D01*
X118233887Y-95985000D01*
X110307290Y-95985000D01*
X108501145Y-94178855D01*
X108197809Y-93976173D01*
X107840000Y-93905000D01*
X96789638Y-93905000D01*
X96777912Y-93842683D01*
X96638840Y-93626559D01*
X96426640Y-93481569D01*
X96174750Y-93430560D01*
X93977650Y-93430560D01*
X93742333Y-93474838D01*
X93526209Y-93613910D01*
X93381219Y-93826110D01*
X93330210Y-94078000D01*
X93330210Y-95602000D01*
X93374488Y-95837317D01*
X93513560Y-96053441D01*
X93725760Y-96198431D01*
X93942213Y-96242264D01*
X93717860Y-96392172D01*
X93415028Y-96845391D01*
X93308688Y-97380000D01*
X93415028Y-97914609D01*
X93717860Y-98367828D01*
X94140159Y-98650000D01*
X93717860Y-98932172D01*
X93415028Y-99385391D01*
X93308688Y-99920000D01*
X93415028Y-100454609D01*
X93717860Y-100907828D01*
X94140159Y-101190000D01*
X93717860Y-101472172D01*
X93415028Y-101925391D01*
X93308688Y-102460000D01*
X93415028Y-102994609D01*
X93717860Y-103447828D01*
X94140159Y-103730000D01*
X93717860Y-104012172D01*
X93415028Y-104465391D01*
X93308688Y-105000000D01*
X93415028Y-105534609D01*
X93717860Y-105987828D01*
X94140159Y-106270000D01*
X93717860Y-106552172D01*
X93415028Y-107005391D01*
X93308688Y-107540000D01*
X93415028Y-108074609D01*
X93717860Y-108527828D01*
X94140159Y-108810000D01*
X93717860Y-109092172D01*
X93415028Y-109545391D01*
X93308688Y-110080000D01*
X93415028Y-110614609D01*
X93717860Y-111067828D01*
X94140159Y-111350000D01*
X93717860Y-111632172D01*
X93415028Y-112085391D01*
X93308688Y-112620000D01*
X93415028Y-113154609D01*
X93717860Y-113607828D01*
X94153093Y-113898642D01*
X94087709Y-113917941D01*
X93662020Y-114261974D01*
X93400390Y-114742723D01*
X93385430Y-114816930D01*
X93507930Y-115033000D01*
X94949200Y-115033000D01*
X94949200Y-115013000D01*
X95203200Y-115013000D01*
X95203200Y-115033000D01*
X96644470Y-115033000D01*
X96766970Y-114816930D01*
X96752010Y-114742723D01*
X96490380Y-114261974D01*
X96064691Y-113917941D01*
X95999307Y-113898642D01*
X96434540Y-113607828D01*
X96469839Y-113555000D01*
X97380000Y-113555000D01*
X97737809Y-113483827D01*
X98041145Y-113281145D01*
X103956540Y-107365750D01*
X117665000Y-107365750D01*
X117665000Y-107506310D01*
X117761673Y-107739699D01*
X117940302Y-107918327D01*
X118173691Y-108015000D01*
X119014250Y-108015000D01*
X119173000Y-107856250D01*
X119173000Y-107207000D01*
X119427000Y-107207000D01*
X119427000Y-107856250D01*
X119585750Y-108015000D01*
X120426309Y-108015000D01*
X120659698Y-107918327D01*
X120838327Y-107739699D01*
X120935000Y-107506310D01*
X120935000Y-107365750D01*
X120776250Y-107207000D01*
X119427000Y-107207000D01*
X119173000Y-107207000D01*
X117823750Y-107207000D01*
X117665000Y-107365750D01*
X103956540Y-107365750D01*
X104577290Y-106745000D01*
X117665000Y-106745000D01*
X117665000Y-106794250D01*
X117823750Y-106953000D01*
X119173000Y-106953000D01*
X119173000Y-106933000D01*
X119427000Y-106933000D01*
X119427000Y-106953000D01*
X120776250Y-106953000D01*
X120935000Y-106794250D01*
X120935000Y-106653690D01*
X120845194Y-106436878D01*
X120896431Y-106361890D01*
X120947440Y-106110000D01*
X120947440Y-105972718D01*
X125355079Y-101565079D01*
X125525245Y-101310407D01*
X125585000Y-101010000D01*
X125585000Y-93400000D01*
X125525245Y-93099594D01*
X125525245Y-93099593D01*
X125355079Y-92844921D01*
X123360000Y-90849842D01*
X123360000Y-88545158D01*
X123969921Y-89155079D01*
X124224594Y-89325245D01*
X124525000Y-89385001D01*
X124525005Y-89385000D01*
X129800000Y-89385000D01*
X130100407Y-89325245D01*
X130355079Y-89155079D01*
X131155079Y-88355079D01*
X131325245Y-88100406D01*
X131374311Y-87853739D01*
X131679147Y-87650054D01*
X132001054Y-87168285D01*
X132114093Y-86600000D01*
X132001054Y-86031715D01*
X131679147Y-85549946D01*
X131349974Y-85330000D01*
X131679147Y-85110054D01*
X132001054Y-84628285D01*
X132114093Y-84060000D01*
X132001054Y-83491715D01*
X131679147Y-83009946D01*
X131349974Y-82790000D01*
X131679147Y-82570054D01*
X131746685Y-82468975D01*
X132882056Y-83604346D01*
X132852560Y-83750000D01*
X132852560Y-85050000D01*
X132896838Y-85285317D01*
X133035910Y-85501441D01*
X133248110Y-85646431D01*
X133500000Y-85697440D01*
X135000000Y-85697440D01*
X135235317Y-85653162D01*
X135451441Y-85514090D01*
X135596431Y-85301890D01*
X135603191Y-85268510D01*
X135661673Y-85409699D01*
X135840302Y-85588327D01*
X136073691Y-85685000D01*
X136664250Y-85685000D01*
X136823000Y-85526250D01*
X136823000Y-84527000D01*
X137077000Y-84527000D01*
X137077000Y-85526250D01*
X137235750Y-85685000D01*
X137826309Y-85685000D01*
X138059698Y-85588327D01*
X138238327Y-85409699D01*
X138335000Y-85176310D01*
X138335000Y-84685750D01*
X138176250Y-84527000D01*
X137077000Y-84527000D01*
X136823000Y-84527000D01*
X136803000Y-84527000D01*
X136803000Y-84273000D01*
X136823000Y-84273000D01*
X136823000Y-83273750D01*
X137077000Y-83273750D01*
X137077000Y-84273000D01*
X138176250Y-84273000D01*
X138335000Y-84114250D01*
X138335000Y-83623690D01*
X138238327Y-83390301D01*
X138059698Y-83211673D01*
X137826309Y-83115000D01*
X137235750Y-83115000D01*
X137077000Y-83273750D01*
X136823000Y-83273750D01*
X136664250Y-83115000D01*
X136073691Y-83115000D01*
X135840302Y-83211673D01*
X135661673Y-83390301D01*
X135605346Y-83526287D01*
X135603162Y-83514683D01*
X135464090Y-83298559D01*
X135251890Y-83153569D01*
X135000000Y-83102560D01*
X134987120Y-83102560D01*
X134911145Y-82988855D01*
X133695360Y-81773070D01*
X134309230Y-81773070D01*
X134324190Y-81847277D01*
X134585820Y-82328026D01*
X135011509Y-82672059D01*
X135536450Y-82827000D01*
X135873000Y-82827000D01*
X135873000Y-81557000D01*
X136127000Y-81557000D01*
X136127000Y-82827000D01*
X136463550Y-82827000D01*
X136988491Y-82672059D01*
X137414180Y-82328026D01*
X137675810Y-81847277D01*
X137690770Y-81773070D01*
X137568270Y-81557000D01*
X136127000Y-81557000D01*
X135873000Y-81557000D01*
X134431730Y-81557000D01*
X134309230Y-81773070D01*
X133695360Y-81773070D01*
X132781145Y-80858855D01*
X132477809Y-80656173D01*
X132120000Y-80585000D01*
X131756023Y-80585000D01*
X131679147Y-80469946D01*
X131385000Y-80273404D01*
X131385000Y-79800000D01*
X131355134Y-79649854D01*
X131325245Y-79499593D01*
X131155079Y-79244921D01*
X130185000Y-78274842D01*
X130185000Y-76400000D01*
X130125245Y-76099594D01*
X129955079Y-75844921D01*
X128355079Y-74244921D01*
X128100407Y-74074755D01*
X127800000Y-74015000D01*
X124900881Y-74015000D01*
X124959979Y-73717900D01*
X124959978Y-73717895D01*
X124959978Y-64094983D01*
X124959979Y-64094978D01*
X124900223Y-63794572D01*
X124870882Y-63750660D01*
X124730057Y-63539899D01*
X124730054Y-63539897D01*
X120947440Y-59757282D01*
X120947440Y-59620000D01*
X127052560Y-59620000D01*
X127052560Y-60220000D01*
X127096838Y-60455317D01*
X127160678Y-60554528D01*
X127103569Y-60638110D01*
X127052560Y-60890000D01*
X127052560Y-61490000D01*
X127096838Y-61725317D01*
X127160678Y-61824528D01*
X127103569Y-61908110D01*
X127052560Y-62160000D01*
X127052560Y-62760000D01*
X127096838Y-62995317D01*
X127160678Y-63094528D01*
X127103569Y-63178110D01*
X127052560Y-63430000D01*
X127052560Y-64030000D01*
X127096838Y-64265317D01*
X127160678Y-64364528D01*
X127103569Y-64448110D01*
X127052560Y-64700000D01*
X127052560Y-65300000D01*
X127096838Y-65535317D01*
X127160678Y-65634528D01*
X127103569Y-65718110D01*
X127052560Y-65970000D01*
X127052560Y-66570000D01*
X127096838Y-66805317D01*
X127160678Y-66904528D01*
X127103569Y-66988110D01*
X127052560Y-67240000D01*
X127052560Y-67840000D01*
X127096838Y-68075317D01*
X127160678Y-68174528D01*
X127103569Y-68258110D01*
X127052560Y-68510000D01*
X127052560Y-69110000D01*
X127096838Y-69345317D01*
X127160678Y-69444528D01*
X127103569Y-69528110D01*
X127052560Y-69780000D01*
X127052560Y-70380000D01*
X127096838Y-70615317D01*
X127235910Y-70831441D01*
X127448110Y-70976431D01*
X127700000Y-71027440D01*
X129700000Y-71027440D01*
X129704334Y-71026624D01*
X131065000Y-72387290D01*
X131065000Y-75000000D01*
X131136173Y-75357809D01*
X131338855Y-75661145D01*
X134288105Y-78610395D01*
X134232488Y-78890000D01*
X134338828Y-79424609D01*
X134641660Y-79877828D01*
X135076893Y-80168642D01*
X135011509Y-80187941D01*
X134585820Y-80531974D01*
X134324190Y-81012723D01*
X134309230Y-81086930D01*
X134431730Y-81303000D01*
X135873000Y-81303000D01*
X135873000Y-81283000D01*
X136127000Y-81283000D01*
X136127000Y-81303000D01*
X137568270Y-81303000D01*
X137690770Y-81086930D01*
X137675810Y-81012723D01*
X137414180Y-80531974D01*
X136988491Y-80187941D01*
X136923107Y-80168642D01*
X137358340Y-79877828D01*
X137661172Y-79424609D01*
X137767512Y-78890000D01*
X137661172Y-78355391D01*
X137358340Y-77902172D01*
X136936041Y-77620000D01*
X137358340Y-77337828D01*
X137661172Y-76884609D01*
X137767512Y-76350000D01*
X137661172Y-75815391D01*
X137358340Y-75362172D01*
X136936041Y-75080000D01*
X137358340Y-74797828D01*
X137661172Y-74344609D01*
X137767512Y-73810000D01*
X137661172Y-73275391D01*
X137358340Y-72822172D01*
X136936041Y-72540000D01*
X137358340Y-72257828D01*
X137661172Y-71804609D01*
X137767512Y-71270000D01*
X137661172Y-70735391D01*
X137358340Y-70282172D01*
X136936041Y-70000000D01*
X137358340Y-69717828D01*
X137661172Y-69264609D01*
X137767512Y-68730000D01*
X137661172Y-68195391D01*
X137358340Y-67742172D01*
X136936041Y-67460000D01*
X137358340Y-67177828D01*
X137661172Y-66724609D01*
X137767512Y-66190000D01*
X137661172Y-65655391D01*
X137358340Y-65202172D01*
X136936041Y-64920000D01*
X137358340Y-64637828D01*
X137661172Y-64184609D01*
X137767512Y-63650000D01*
X137661172Y-63115391D01*
X137358340Y-62662172D01*
X136936041Y-62380000D01*
X137358340Y-62097828D01*
X137661172Y-61644609D01*
X137767512Y-61110000D01*
X137661172Y-60575391D01*
X137358340Y-60122172D01*
X137134581Y-59972660D01*
X137333867Y-59935162D01*
X137549991Y-59796090D01*
X137694981Y-59583890D01*
X137745990Y-59332000D01*
X137745990Y-57808000D01*
X137701712Y-57572683D01*
X137562640Y-57356559D01*
X137350440Y-57211569D01*
X137098550Y-57160560D01*
X134901450Y-57160560D01*
X134666133Y-57204838D01*
X134450009Y-57343910D01*
X134305019Y-57556110D01*
X134289043Y-57635000D01*
X133430000Y-57635000D01*
X133072191Y-57706173D01*
X132768855Y-57908855D01*
X131692710Y-58985000D01*
X129761431Y-58985000D01*
X129700000Y-58972560D01*
X127700000Y-58972560D01*
X127464683Y-59016838D01*
X127248559Y-59155910D01*
X127103569Y-59368110D01*
X127052560Y-59620000D01*
X120947440Y-59620000D01*
X120903162Y-59384683D01*
X120764090Y-59168559D01*
X120551890Y-59023569D01*
X120300000Y-58972560D01*
X118300000Y-58972560D01*
X118233887Y-58985000D01*
X103307290Y-58985000D01*
X98501145Y-54178855D01*
X98197809Y-53976173D01*
X97840000Y-53905000D01*
X96789638Y-53905000D01*
X96777912Y-53842683D01*
X96638840Y-53626559D01*
X96426640Y-53481569D01*
X96174750Y-53430560D01*
X93977650Y-53430560D01*
X93742333Y-53474838D01*
X93526209Y-53613910D01*
X93381219Y-53826110D01*
X93330210Y-54078000D01*
X93330210Y-55602000D01*
X93374488Y-55837317D01*
X93513560Y-56053441D01*
X93725760Y-56198431D01*
X93942213Y-56242264D01*
X93717860Y-56392172D01*
X93415028Y-56845391D01*
X93308688Y-57380000D01*
X90710000Y-57380000D01*
X90710000Y-51270000D01*
X93308688Y-51270000D01*
X93415028Y-51804609D01*
X93717860Y-52257828D01*
X94171079Y-52560660D01*
X94705688Y-52667000D01*
X95446712Y-52667000D01*
X95981321Y-52560660D01*
X96064622Y-52505000D01*
X98849156Y-52505000D01*
X98965910Y-52686441D01*
X99178110Y-52831431D01*
X99430000Y-52882440D01*
X100700000Y-52882440D01*
X100935317Y-52838162D01*
X101151441Y-52699090D01*
X101296431Y-52486890D01*
X101347440Y-52235000D01*
X101347440Y-51270000D01*
X102644999Y-51270000D01*
X102652560Y-51308011D01*
X102652560Y-52235000D01*
X102696838Y-52470317D01*
X102835910Y-52686441D01*
X103048110Y-52831431D01*
X103300000Y-52882440D01*
X103570886Y-52882440D01*
X104761723Y-54073277D01*
X105162386Y-54340991D01*
X105635000Y-54435000D01*
X135400205Y-54435000D01*
X135670853Y-54840054D01*
X136152622Y-55161961D01*
X136720907Y-55275000D01*
X136779093Y-55275000D01*
X137347378Y-55161961D01*
X137829147Y-54840054D01*
X138151054Y-54358285D01*
X138264093Y-53790000D01*
X138151054Y-53221715D01*
X137829147Y-52739946D01*
X137787548Y-52712150D01*
X137835317Y-52703162D01*
X138051441Y-52564090D01*
X138196431Y-52351890D01*
X138247440Y-52100000D01*
X138247440Y-50400000D01*
X138203162Y-50164683D01*
X138064090Y-49948559D01*
X137851890Y-49803569D01*
X137600000Y-49752560D01*
X135900000Y-49752560D01*
X135664683Y-49796838D01*
X135448559Y-49935910D01*
X135303569Y-50148110D01*
X135252560Y-50400000D01*
X135252560Y-51965000D01*
X106146554Y-51965000D01*
X105217440Y-51035886D01*
X105217440Y-50765000D01*
X105173162Y-50529683D01*
X105034090Y-50313559D01*
X104821890Y-50168569D01*
X104570000Y-50117560D01*
X103300000Y-50117560D01*
X103064683Y-50161838D01*
X102848559Y-50300910D01*
X102703569Y-50513110D01*
X102652560Y-50765000D01*
X102652560Y-51231989D01*
X102644999Y-51270000D01*
X101347440Y-51270000D01*
X101347440Y-50765000D01*
X101303162Y-50529683D01*
X101164090Y-50313559D01*
X100951890Y-50168569D01*
X100700000Y-50117560D01*
X100250056Y-50117560D01*
X99835000Y-50035000D01*
X96523167Y-50035000D01*
X96534449Y-50030327D01*
X96713077Y-49851698D01*
X96809750Y-49618309D01*
X96809750Y-49015750D01*
X96651000Y-48857000D01*
X95203200Y-48857000D01*
X95203200Y-48877000D01*
X94949200Y-48877000D01*
X94949200Y-48857000D01*
X93501400Y-48857000D01*
X93342650Y-49015750D01*
X93342650Y-49618309D01*
X93439323Y-49851698D01*
X93617951Y-50030327D01*
X93851340Y-50127000D01*
X93950091Y-50127000D01*
X93717860Y-50282172D01*
X93415028Y-50735391D01*
X93308688Y-51270000D01*
X90710000Y-51270000D01*
X90710000Y-47841691D01*
X93342650Y-47841691D01*
X93342650Y-48444250D01*
X93501400Y-48603000D01*
X94949200Y-48603000D01*
X94949200Y-47491750D01*
X95203200Y-47491750D01*
X95203200Y-48603000D01*
X96651000Y-48603000D01*
X96809750Y-48444250D01*
X96809750Y-47841691D01*
X96713077Y-47608302D01*
X96534449Y-47429673D01*
X96301060Y-47333000D01*
X95361950Y-47333000D01*
X95203200Y-47491750D01*
X94949200Y-47491750D01*
X94790450Y-47333000D01*
X93851340Y-47333000D01*
X93617951Y-47429673D01*
X93439323Y-47608302D01*
X93342650Y-47841691D01*
X90710000Y-47841691D01*
X90710000Y-42416266D01*
X92763339Y-42416266D01*
X93075487Y-42864932D01*
X94318343Y-43383331D01*
X95664976Y-43386648D01*
X96910371Y-42874380D01*
X96924513Y-42864932D01*
X97236661Y-42416266D01*
X132763339Y-42416266D01*
X133075487Y-42864932D01*
X134318343Y-43383331D01*
X135664976Y-43386648D01*
X136910371Y-42874380D01*
X136924513Y-42864932D01*
X137236661Y-42416266D01*
X135000000Y-40179605D01*
X132763339Y-42416266D01*
X97236661Y-42416266D01*
X95000000Y-40179605D01*
X92763339Y-42416266D01*
X90710000Y-42416266D01*
X90710000Y-40664976D01*
X91613352Y-40664976D01*
X92125620Y-41910371D01*
X92135068Y-41924513D01*
X92583734Y-42236661D01*
X94820395Y-40000000D01*
X95179605Y-40000000D01*
X97416266Y-42236661D01*
X97864932Y-41924513D01*
X98383331Y-40681657D01*
X98383372Y-40664976D01*
X131613352Y-40664976D01*
X132125620Y-41910371D01*
X132135068Y-41924513D01*
X132583734Y-42236661D01*
X134820395Y-40000000D01*
X135179605Y-40000000D01*
X137416266Y-42236661D01*
X137864932Y-41924513D01*
X138383331Y-40681657D01*
X138386648Y-39335024D01*
X137874380Y-38089629D01*
X137864932Y-38075487D01*
X137416266Y-37763339D01*
X135179605Y-40000000D01*
X134820395Y-40000000D01*
X132583734Y-37763339D01*
X132135068Y-38075487D01*
X131616669Y-39318343D01*
X131613352Y-40664976D01*
X98383372Y-40664976D01*
X98386648Y-39335024D01*
X97874380Y-38089629D01*
X97864932Y-38075487D01*
X97416266Y-37763339D01*
X95179605Y-40000000D01*
X94820395Y-40000000D01*
X92583734Y-37763339D01*
X92135068Y-38075487D01*
X91616669Y-39318343D01*
X91613352Y-40664976D01*
X90710000Y-40664976D01*
X90710000Y-37583734D01*
X92763339Y-37583734D01*
X95000000Y-39820395D01*
X97236661Y-37583734D01*
X132763339Y-37583734D01*
X135000000Y-39820395D01*
X137236661Y-37583734D01*
X136924513Y-37135068D01*
X135681657Y-36616669D01*
X134335024Y-36613352D01*
X133089629Y-37125620D01*
X133075487Y-37135068D01*
X132763339Y-37583734D01*
X97236661Y-37583734D01*
X96924513Y-37135068D01*
X95681657Y-36616669D01*
X94335024Y-36613352D01*
X93089629Y-37125620D01*
X93075487Y-37135068D01*
X92763339Y-37583734D01*
X90710000Y-37583734D01*
X90710000Y-35710000D01*
X139290000Y-35710000D01*
X139290000Y-134290000D01*
M02*
