G04 #@! TF.GenerationSoftware,KiCad,Pcbnew,(5.0.2)-1*
G04 #@! TF.CreationDate,2019-03-14T17:23:15+01:00*
G04 #@! TF.ProjectId,Alexi2c,416c6578-6932-4632-9e6b-696361645f70,rev?*
G04 #@! TF.SameCoordinates,Original*
G04 #@! TF.FileFunction,Copper,L2,Bot*
G04 #@! TF.FilePolarity,Positive*
%FSLAX46Y46*%
G04 Gerber Fmt 4.6, Leading zero omitted, Abs format (unit mm)*
G04 Created by KiCad (PCBNEW (5.0.2)-1) date 14/03/2019 17:23:15*
%MOMM*%
%LPD*%
G01*
G04 APERTURE LIST*
G04 #@! TA.AperFunction,NonConductor*
%ADD10C,0.150000*%
G04 #@! TD*
G04 #@! TA.AperFunction,ComponentPad*
%ADD11O,2.197100X1.524000*%
G04 #@! TD*
G04 #@! TA.AperFunction,ComponentPad*
%ADD12R,2.197100X1.524000*%
G04 #@! TD*
G04 #@! TA.AperFunction,ViaPad*
%ADD13C,0.800000*%
G04 #@! TD*
G04 #@! TA.AperFunction,SMDPad,CuDef*
%ADD14R,1.250000X1.500000*%
G04 #@! TD*
G04 #@! TA.AperFunction,SMDPad,CuDef*
%ADD15R,1.500000X1.300000*%
G04 #@! TD*
G04 #@! TA.AperFunction,ComponentPad*
%ADD16R,1.700000X1.700000*%
G04 #@! TD*
G04 #@! TA.AperFunction,ComponentPad*
%ADD17O,1.700000X1.700000*%
G04 #@! TD*
G04 #@! TA.AperFunction,ComponentPad*
%ADD18C,5.500000*%
G04 #@! TD*
G04 #@! TA.AperFunction,ViaPad*
%ADD19C,0.600000*%
G04 #@! TD*
G04 #@! TA.AperFunction,Conductor*
%ADD20C,0.250000*%
G04 #@! TD*
G04 #@! TA.AperFunction,Conductor*
%ADD21C,0.600000*%
G04 #@! TD*
G04 #@! TA.AperFunction,Conductor*
%ADD22C,0.800000*%
G04 #@! TD*
G04 #@! TA.AperFunction,Conductor*
%ADD23C,0.300000*%
G04 #@! TD*
G04 #@! TA.AperFunction,Conductor*
%ADD24C,1.200000*%
G04 #@! TD*
G04 #@! TA.AperFunction,Conductor*
%ADD25C,0.254000*%
G04 #@! TD*
G04 APERTURE END LIST*
D10*
X90000000Y-135000000D02*
X90000000Y-35000000D01*
X140000000Y-135000000D02*
X90000000Y-135000000D01*
X140000000Y-35000000D02*
X140000000Y-135000000D01*
X90000000Y-35000000D02*
X140000000Y-35000000D01*
D11*
G04 #@! TO.P,J11,8*
G04 #@! TO.N,Net-(J11-Pad8)*
X95076200Y-112620000D03*
G04 #@! TO.P,J11,7*
G04 #@! TO.N,Net-(J11-Pad7)*
X95076200Y-110080000D03*
G04 #@! TO.P,J11,5*
G04 #@! TO.N,Net-(J11-Pad5)*
X95076200Y-105000000D03*
G04 #@! TO.P,J11,4*
G04 #@! TO.N,Net-(J11-Pad4)*
X95076200Y-102460000D03*
G04 #@! TO.P,J11,3*
G04 #@! TO.N,Net-(J11-Pad3)*
X95076200Y-99920000D03*
G04 #@! TO.P,J11,9*
G04 #@! TO.N,GND*
X95076200Y-115160000D03*
G04 #@! TO.P,J11,6*
G04 #@! TO.N,Net-(J11-Pad6)*
X95076200Y-107540000D03*
D12*
G04 #@! TO.P,J11,1*
G04 #@! TO.N,Net-(J11-Pad1)*
X95076200Y-94840000D03*
D11*
G04 #@! TO.P,J11,2*
G04 #@! TO.N,Net-(J11-Pad2)*
X95076200Y-97380000D03*
G04 #@! TD*
G04 #@! TO.P,J6,8*
G04 #@! TO.N,Net-(J6-Pad8)*
X95076200Y-72620000D03*
G04 #@! TO.P,J6,7*
G04 #@! TO.N,Net-(J6-Pad7)*
X95076200Y-70080000D03*
G04 #@! TO.P,J6,5*
G04 #@! TO.N,Net-(J6-Pad5)*
X95076200Y-65000000D03*
G04 #@! TO.P,J6,4*
G04 #@! TO.N,Net-(J6-Pad4)*
X95076200Y-62460000D03*
G04 #@! TO.P,J6,3*
G04 #@! TO.N,Net-(J6-Pad3)*
X95076200Y-59920000D03*
G04 #@! TO.P,J6,9*
G04 #@! TO.N,GND*
X95076200Y-75160000D03*
G04 #@! TO.P,J6,6*
G04 #@! TO.N,Net-(J6-Pad6)*
X95076200Y-67540000D03*
D12*
G04 #@! TO.P,J6,1*
G04 #@! TO.N,Net-(J6-Pad1)*
X95076200Y-54840000D03*
D11*
G04 #@! TO.P,J6,2*
G04 #@! TO.N,Net-(J6-Pad2)*
X95076200Y-57380000D03*
G04 #@! TD*
D12*
G04 #@! TO.P,J3,1*
G04 #@! TO.N,GND*
X95076200Y-48730000D03*
D11*
G04 #@! TO.P,J3,2*
G04 #@! TO.N,Net-(D1-Pad2)*
X95076200Y-51270000D03*
G04 #@! TD*
D13*
G04 #@! TO.N,GND*
G04 #@! TO.C,REF\002A\002A*
X92500000Y-93000000D03*
G04 #@! TD*
D11*
G04 #@! TO.P,J1,4*
G04 #@! TO.N,Net-(J1-Pad4)*
X95076200Y-89810000D03*
G04 #@! TO.P,J1,3*
G04 #@! TO.N,GND*
X95076200Y-87270000D03*
D12*
G04 #@! TO.P,J1,1*
G04 #@! TO.N,Net-(J1-Pad1)*
X95076200Y-82190000D03*
D11*
G04 #@! TO.P,J1,2*
G04 #@! TO.N,Net-(J1-Pad2)*
X95076200Y-84730000D03*
G04 #@! TD*
D13*
G04 #@! TO.N,GND*
G04 #@! TO.C,REF\002A\002A*
X139000000Y-50000000D03*
G04 #@! TD*
G04 #@! TO.N,GND*
G04 #@! TO.C,REF\002A\002A*
X139000000Y-51500000D03*
G04 #@! TD*
G04 #@! TO.N,GND*
G04 #@! TO.C,REF\002A\002A*
X139000000Y-53000000D03*
G04 #@! TD*
G04 #@! TO.N,GND*
G04 #@! TO.C,REF\002A\002A*
X139000000Y-54500000D03*
G04 #@! TD*
G04 #@! TO.N,GND*
G04 #@! TO.C,REF\002A\002A*
X139000000Y-56000000D03*
G04 #@! TD*
G04 #@! TO.N,GND*
G04 #@! TO.C,REF\002A\002A*
X139000000Y-57500000D03*
G04 #@! TD*
G04 #@! TO.N,GND*
G04 #@! TO.C,REF\002A\002A*
X139000000Y-59000000D03*
G04 #@! TD*
G04 #@! TO.N,GND*
G04 #@! TO.C,REF\002A\002A*
X139000000Y-60500000D03*
G04 #@! TD*
G04 #@! TO.N,GND*
G04 #@! TO.C,REF\002A\002A*
X139000000Y-62000000D03*
G04 #@! TD*
G04 #@! TO.N,GND*
G04 #@! TO.C,REF\002A\002A*
X139000000Y-63500000D03*
G04 #@! TD*
G04 #@! TO.N,GND*
G04 #@! TO.C,REF\002A\002A*
X139000000Y-65000000D03*
G04 #@! TD*
G04 #@! TO.N,GND*
G04 #@! TO.C,REF\002A\002A*
X139000000Y-66500000D03*
G04 #@! TD*
G04 #@! TO.N,GND*
G04 #@! TO.C,REF\002A\002A*
X139000000Y-68000000D03*
G04 #@! TD*
G04 #@! TO.N,GND*
G04 #@! TO.C,REF\002A\002A*
X139000000Y-69500000D03*
G04 #@! TD*
G04 #@! TO.N,GND*
G04 #@! TO.C,REF\002A\002A*
X139000000Y-71000000D03*
G04 #@! TD*
G04 #@! TO.N,GND*
G04 #@! TO.C,REF\002A\002A*
X139000000Y-72500000D03*
G04 #@! TD*
G04 #@! TO.N,GND*
G04 #@! TO.C,REF\002A\002A*
X139000000Y-74000000D03*
G04 #@! TD*
G04 #@! TO.N,GND*
G04 #@! TO.C,REF\002A\002A*
X139000000Y-75500000D03*
G04 #@! TD*
G04 #@! TO.N,GND*
G04 #@! TO.C,REF\002A\002A*
X139000000Y-77000000D03*
G04 #@! TD*
G04 #@! TO.N,GND*
G04 #@! TO.C,REF\002A\002A*
X139000000Y-78500000D03*
G04 #@! TD*
G04 #@! TO.N,GND*
G04 #@! TO.C,REF\002A\002A*
X139000000Y-80000000D03*
G04 #@! TD*
G04 #@! TO.N,GND*
G04 #@! TO.C,REF\002A\002A*
X139000000Y-81500000D03*
G04 #@! TD*
G04 #@! TO.N,GND*
G04 #@! TO.C,REF\002A\002A*
X139000000Y-83000000D03*
G04 #@! TD*
G04 #@! TO.N,GND*
G04 #@! TO.C,REF\002A\002A*
X139000000Y-84500000D03*
G04 #@! TD*
G04 #@! TO.N,GND*
G04 #@! TO.C,REF\002A\002A*
X139000000Y-86000000D03*
G04 #@! TD*
G04 #@! TO.N,GND*
G04 #@! TO.C,REF\002A\002A*
X139000000Y-87500000D03*
G04 #@! TD*
G04 #@! TO.N,GND*
G04 #@! TO.C,REF\002A\002A*
X139000000Y-89000000D03*
G04 #@! TD*
G04 #@! TO.N,GND*
G04 #@! TO.C,REF\002A\002A*
X139000000Y-90500000D03*
G04 #@! TD*
G04 #@! TO.N,GND*
G04 #@! TO.C,REF\002A\002A*
X139000000Y-92000000D03*
G04 #@! TD*
G04 #@! TO.N,GND*
G04 #@! TO.C,REF\002A\002A*
X139000000Y-93500000D03*
G04 #@! TD*
G04 #@! TO.N,GND*
G04 #@! TO.C,REF\002A\002A*
X139000000Y-95000000D03*
G04 #@! TD*
G04 #@! TO.N,GND*
G04 #@! TO.C,REF\002A\002A*
X139000000Y-96500000D03*
G04 #@! TD*
G04 #@! TO.N,GND*
G04 #@! TO.C,REF\002A\002A*
X139000000Y-98000000D03*
G04 #@! TD*
G04 #@! TO.N,GND*
G04 #@! TO.C,REF\002A\002A*
X139000000Y-99500000D03*
G04 #@! TD*
G04 #@! TO.N,GND*
G04 #@! TO.C,REF\002A\002A*
X139000000Y-101000000D03*
G04 #@! TD*
G04 #@! TO.N,GND*
G04 #@! TO.C,REF\002A\002A*
X139000000Y-102500000D03*
G04 #@! TD*
G04 #@! TO.N,GND*
G04 #@! TO.C,REF\002A\002A*
X139000000Y-104000000D03*
G04 #@! TD*
G04 #@! TO.N,GND*
G04 #@! TO.C,REF\002A\002A*
X139000000Y-105500000D03*
G04 #@! TD*
G04 #@! TO.N,GND*
G04 #@! TO.C,REF\002A\002A*
X139000000Y-107000000D03*
G04 #@! TD*
G04 #@! TO.N,GND*
G04 #@! TO.C,REF\002A\002A*
X139000000Y-108500000D03*
G04 #@! TD*
G04 #@! TO.N,GND*
G04 #@! TO.C,REF\002A\002A*
X139000000Y-110000000D03*
G04 #@! TD*
G04 #@! TO.N,GND*
G04 #@! TO.C,REF\002A\002A*
X139000000Y-111500000D03*
G04 #@! TD*
G04 #@! TO.N,GND*
G04 #@! TO.C,REF\002A\002A*
X139000000Y-113000000D03*
G04 #@! TD*
G04 #@! TO.N,GND*
G04 #@! TO.C,REF\002A\002A*
X139000000Y-114500000D03*
G04 #@! TD*
G04 #@! TO.N,GND*
G04 #@! TO.C,REF\002A\002A*
X139000000Y-116000000D03*
G04 #@! TD*
G04 #@! TO.N,GND*
G04 #@! TO.C,REF\002A\002A*
X139000000Y-117500000D03*
G04 #@! TD*
G04 #@! TO.N,GND*
G04 #@! TO.C,REF\002A\002A*
X139000000Y-119000000D03*
G04 #@! TD*
G04 #@! TO.N,GND*
G04 #@! TO.C,REF\002A\002A*
X139000000Y-120500000D03*
G04 #@! TD*
G04 #@! TO.N,GND*
G04 #@! TO.C,REF\002A\002A*
X139000000Y-122000000D03*
G04 #@! TD*
G04 #@! TO.N,GND*
G04 #@! TO.C,REF\002A\002A*
X139000000Y-123500000D03*
G04 #@! TD*
G04 #@! TO.N,GND*
G04 #@! TO.C,REF\002A\002A*
X139000000Y-125000000D03*
G04 #@! TD*
G04 #@! TO.N,GND*
G04 #@! TO.C,REF\002A\002A*
X139000000Y-126500000D03*
G04 #@! TD*
G04 #@! TO.N,GND*
G04 #@! TO.C,REF\002A\002A*
X139000000Y-128000000D03*
G04 #@! TD*
G04 #@! TO.N,GND*
G04 #@! TO.C,REF\002A\002A*
X139000000Y-129500000D03*
G04 #@! TD*
G04 #@! TO.N,GND*
G04 #@! TO.C,REF\002A\002A*
X91000000Y-124500000D03*
G04 #@! TD*
G04 #@! TO.N,GND*
G04 #@! TO.C,REF\002A\002A*
X91000000Y-123000000D03*
G04 #@! TD*
G04 #@! TO.N,GND*
G04 #@! TO.C,REF\002A\002A*
X91000000Y-121500000D03*
G04 #@! TD*
G04 #@! TO.N,GND*
G04 #@! TO.C,REF\002A\002A*
X91000000Y-120000000D03*
G04 #@! TD*
G04 #@! TO.N,GND*
G04 #@! TO.C,REF\002A\002A*
X91000000Y-118500000D03*
G04 #@! TD*
G04 #@! TO.N,GND*
G04 #@! TO.C,REF\002A\002A*
X91000000Y-117000000D03*
G04 #@! TD*
G04 #@! TO.N,GND*
G04 #@! TO.C,REF\002A\002A*
X91000000Y-115500000D03*
G04 #@! TD*
G04 #@! TO.N,GND*
G04 #@! TO.C,REF\002A\002A*
X91000000Y-114000000D03*
G04 #@! TD*
G04 #@! TO.N,GND*
G04 #@! TO.C,REF\002A\002A*
X91000000Y-112500000D03*
G04 #@! TD*
G04 #@! TO.N,GND*
G04 #@! TO.C,REF\002A\002A*
X91000000Y-111000000D03*
G04 #@! TD*
G04 #@! TO.N,GND*
G04 #@! TO.C,REF\002A\002A*
X91000000Y-109500000D03*
G04 #@! TD*
G04 #@! TO.N,GND*
G04 #@! TO.C,REF\002A\002A*
X91000000Y-108000000D03*
G04 #@! TD*
G04 #@! TO.N,GND*
G04 #@! TO.C,REF\002A\002A*
X91000000Y-106500000D03*
G04 #@! TD*
G04 #@! TO.N,GND*
G04 #@! TO.C,REF\002A\002A*
X91000000Y-105000000D03*
G04 #@! TD*
G04 #@! TO.N,GND*
G04 #@! TO.C,REF\002A\002A*
X91000000Y-103500000D03*
G04 #@! TD*
G04 #@! TO.N,GND*
G04 #@! TO.C,REF\002A\002A*
X91000000Y-102000000D03*
G04 #@! TD*
G04 #@! TO.N,GND*
G04 #@! TO.C,REF\002A\002A*
X91000000Y-100500000D03*
G04 #@! TD*
G04 #@! TO.N,GND*
G04 #@! TO.C,REF\002A\002A*
X91000000Y-99000000D03*
G04 #@! TD*
G04 #@! TO.N,GND*
G04 #@! TO.C,REF\002A\002A*
X91000000Y-97500000D03*
G04 #@! TD*
G04 #@! TO.N,GND*
G04 #@! TO.C,REF\002A\002A*
X91000000Y-96000000D03*
G04 #@! TD*
G04 #@! TO.N,GND*
G04 #@! TO.C,REF\002A\002A*
X91000000Y-94500000D03*
G04 #@! TD*
G04 #@! TO.N,GND*
G04 #@! TO.C,REF\002A\002A*
X91000000Y-93000000D03*
G04 #@! TD*
G04 #@! TO.N,GND*
G04 #@! TO.C,REF\002A\002A*
X91000000Y-91500000D03*
G04 #@! TD*
G04 #@! TO.N,GND*
G04 #@! TO.C,REF\002A\002A*
X91000000Y-90000000D03*
G04 #@! TD*
G04 #@! TO.N,GND*
G04 #@! TO.C,REF\002A\002A*
X91000000Y-88500000D03*
G04 #@! TD*
G04 #@! TO.N,GND*
G04 #@! TO.C,REF\002A\002A*
X91000000Y-87000000D03*
G04 #@! TD*
G04 #@! TO.N,GND*
G04 #@! TO.C,REF\002A\002A*
X91000000Y-85500000D03*
G04 #@! TD*
G04 #@! TO.N,GND*
G04 #@! TO.C,REF\002A\002A*
X91000000Y-84000000D03*
G04 #@! TD*
G04 #@! TO.N,GND*
G04 #@! TO.C,REF\002A\002A*
X91000000Y-82500000D03*
G04 #@! TD*
G04 #@! TO.N,GND*
G04 #@! TO.C,REF\002A\002A*
X91000000Y-81000000D03*
G04 #@! TD*
G04 #@! TO.N,GND*
G04 #@! TO.C,REF\002A\002A*
X91000000Y-79500000D03*
G04 #@! TD*
G04 #@! TO.N,GND*
G04 #@! TO.C,REF\002A\002A*
X91000000Y-78000000D03*
G04 #@! TD*
G04 #@! TO.N,GND*
G04 #@! TO.C,REF\002A\002A*
X91000000Y-76500000D03*
G04 #@! TD*
G04 #@! TO.N,GND*
G04 #@! TO.C,REF\002A\002A*
X91000000Y-75000000D03*
G04 #@! TD*
G04 #@! TO.N,GND*
G04 #@! TO.C,REF\002A\002A*
X91000000Y-73500000D03*
G04 #@! TD*
G04 #@! TO.N,GND*
G04 #@! TO.C,REF\002A\002A*
X91000000Y-72000000D03*
G04 #@! TD*
G04 #@! TO.N,GND*
G04 #@! TO.C,REF\002A\002A*
X91000000Y-70500000D03*
G04 #@! TD*
G04 #@! TO.N,GND*
G04 #@! TO.C,REF\002A\002A*
X91000000Y-69000000D03*
G04 #@! TD*
G04 #@! TO.N,GND*
G04 #@! TO.C,REF\002A\002A*
X91000000Y-67500000D03*
G04 #@! TD*
G04 #@! TO.N,GND*
G04 #@! TO.C,REF\002A\002A*
X91000000Y-66000000D03*
G04 #@! TD*
G04 #@! TO.N,GND*
G04 #@! TO.C,REF\002A\002A*
X91000000Y-64500000D03*
G04 #@! TD*
G04 #@! TO.N,GND*
G04 #@! TO.C,REF\002A\002A*
X91000000Y-63000000D03*
G04 #@! TD*
G04 #@! TO.N,GND*
G04 #@! TO.C,REF\002A\002A*
X91000000Y-61500000D03*
G04 #@! TD*
G04 #@! TO.N,GND*
G04 #@! TO.C,REF\002A\002A*
X91000000Y-60000000D03*
G04 #@! TD*
G04 #@! TO.N,GND*
G04 #@! TO.C,REF\002A\002A*
X91000000Y-58500000D03*
G04 #@! TD*
G04 #@! TO.N,GND*
G04 #@! TO.C,REF\002A\002A*
X91000000Y-57000000D03*
G04 #@! TD*
G04 #@! TO.N,GND*
G04 #@! TO.C,REF\002A\002A*
X91000000Y-55500000D03*
G04 #@! TD*
G04 #@! TO.N,GND*
G04 #@! TO.C,REF\002A\002A*
X91000000Y-54000000D03*
G04 #@! TD*
G04 #@! TO.N,GND*
G04 #@! TO.C,REF\002A\002A*
X91000000Y-52500000D03*
G04 #@! TD*
G04 #@! TO.N,GND*
G04 #@! TO.C,REF\002A\002A*
X91000000Y-51000000D03*
G04 #@! TD*
G04 #@! TO.N,GND*
G04 #@! TO.C,REF\002A\002A*
X91000000Y-49500000D03*
G04 #@! TD*
G04 #@! TO.N,GND*
G04 #@! TO.C,REF\002A\002A*
X91000000Y-48000000D03*
G04 #@! TD*
G04 #@! TO.N,GND*
G04 #@! TO.C,REF\002A\002A*
X91000000Y-46500000D03*
G04 #@! TD*
G04 #@! TO.N,GND*
G04 #@! TO.C,REF\002A\002A*
X91000000Y-45000000D03*
G04 #@! TD*
G04 #@! TO.N,GND*
G04 #@! TO.C,REF\002A\002A*
X103000000Y-76500000D03*
G04 #@! TD*
G04 #@! TO.N,GND*
G04 #@! TO.C,REF\002A\002A*
X101500000Y-76500000D03*
G04 #@! TD*
G04 #@! TO.N,GND*
G04 #@! TO.C,REF\002A\002A*
X100000000Y-76500000D03*
G04 #@! TD*
G04 #@! TO.N,GND*
G04 #@! TO.C,REF\002A\002A*
X103000000Y-75000000D03*
G04 #@! TD*
G04 #@! TO.N,GND*
G04 #@! TO.C,REF\002A\002A*
X101500000Y-75000000D03*
G04 #@! TD*
G04 #@! TO.N,GND*
G04 #@! TO.C,REF\002A\002A*
X100000000Y-75000000D03*
G04 #@! TD*
G04 #@! TO.N,GND*
G04 #@! TO.C,REF\002A\002A*
X103000000Y-73500000D03*
G04 #@! TD*
G04 #@! TO.N,GND*
G04 #@! TO.C,REF\002A\002A*
X101500000Y-73500000D03*
G04 #@! TD*
G04 #@! TO.N,GND*
G04 #@! TO.C,REF\002A\002A*
X100000000Y-73500000D03*
G04 #@! TD*
G04 #@! TO.N,GND*
G04 #@! TO.C,REF\002A\002A*
X103000000Y-72000000D03*
G04 #@! TD*
G04 #@! TO.N,GND*
G04 #@! TO.C,REF\002A\002A*
X101500000Y-72000000D03*
G04 #@! TD*
G04 #@! TO.N,GND*
G04 #@! TO.C,REF\002A\002A*
X100000000Y-72000000D03*
G04 #@! TD*
G04 #@! TO.N,GND*
G04 #@! TO.C,REF\002A\002A*
X108500000Y-72000000D03*
G04 #@! TD*
G04 #@! TO.N,GND*
G04 #@! TO.C,REF\002A\002A*
X110000000Y-72000000D03*
G04 #@! TD*
G04 #@! TO.N,GND*
G04 #@! TO.C,REF\002A\002A*
X111500000Y-72000000D03*
G04 #@! TD*
G04 #@! TO.N,GND*
G04 #@! TO.C,REF\002A\002A*
X113000000Y-72000000D03*
G04 #@! TD*
G04 #@! TO.N,GND*
G04 #@! TO.C,REF\002A\002A*
X114500000Y-72000000D03*
G04 #@! TD*
G04 #@! TO.N,GND*
G04 #@! TO.C,REF\002A\002A*
X116000000Y-72000000D03*
G04 #@! TD*
G04 #@! TO.N,GND*
G04 #@! TO.C,REF\002A\002A*
X108500000Y-73500000D03*
G04 #@! TD*
G04 #@! TO.N,GND*
G04 #@! TO.C,REF\002A\002A*
X110000000Y-73500000D03*
G04 #@! TD*
G04 #@! TO.N,GND*
G04 #@! TO.C,REF\002A\002A*
X111500000Y-73500000D03*
G04 #@! TD*
G04 #@! TO.N,GND*
G04 #@! TO.C,REF\002A\002A*
X113000000Y-73500000D03*
G04 #@! TD*
G04 #@! TO.N,GND*
G04 #@! TO.C,REF\002A\002A*
X114500000Y-73500000D03*
G04 #@! TD*
G04 #@! TO.N,GND*
G04 #@! TO.C,REF\002A\002A*
X116000000Y-73500000D03*
G04 #@! TD*
G04 #@! TO.N,GND*
G04 #@! TO.C,REF\002A\002A*
X108500000Y-75000000D03*
G04 #@! TD*
G04 #@! TO.N,GND*
G04 #@! TO.C,REF\002A\002A*
X110000000Y-75000000D03*
G04 #@! TD*
G04 #@! TO.N,GND*
G04 #@! TO.C,REF\002A\002A*
X111500000Y-75000000D03*
G04 #@! TD*
G04 #@! TO.N,GND*
G04 #@! TO.C,REF\002A\002A*
X113000000Y-75000000D03*
G04 #@! TD*
G04 #@! TO.N,GND*
G04 #@! TO.C,REF\002A\002A*
X114500000Y-75000000D03*
G04 #@! TD*
G04 #@! TO.N,GND*
G04 #@! TO.C,REF\002A\002A*
X116000000Y-75000000D03*
G04 #@! TD*
G04 #@! TO.N,GND*
G04 #@! TO.C,REF\002A\002A*
X108500000Y-76500000D03*
G04 #@! TD*
G04 #@! TO.N,GND*
G04 #@! TO.C,REF\002A\002A*
X110000000Y-76500000D03*
G04 #@! TD*
G04 #@! TO.N,GND*
G04 #@! TO.C,REF\002A\002A*
X111500000Y-76500000D03*
G04 #@! TD*
G04 #@! TO.N,GND*
G04 #@! TO.C,REF\002A\002A*
X113000000Y-76500000D03*
G04 #@! TD*
G04 #@! TO.N,GND*
G04 #@! TO.C,REF\002A\002A*
X114500000Y-76500000D03*
G04 #@! TD*
G04 #@! TO.N,GND*
G04 #@! TO.C,REF\002A\002A*
X116000000Y-76500000D03*
G04 #@! TD*
G04 #@! TO.N,GND*
G04 #@! TO.C,REF\002A\002A*
X102500000Y-93500000D03*
G04 #@! TD*
G04 #@! TO.N,GND*
G04 #@! TO.C,REF\002A\002A*
X101000000Y-93500000D03*
G04 #@! TD*
G04 #@! TO.N,GND*
G04 #@! TO.C,REF\002A\002A*
X99500000Y-93500000D03*
G04 #@! TD*
G04 #@! TO.N,GND*
G04 #@! TO.C,REF\002A\002A*
X102500000Y-92000000D03*
G04 #@! TD*
G04 #@! TO.N,GND*
G04 #@! TO.C,REF\002A\002A*
X101000000Y-92000000D03*
G04 #@! TD*
G04 #@! TO.N,GND*
G04 #@! TO.C,REF\002A\002A*
X99500000Y-92000000D03*
G04 #@! TD*
G04 #@! TO.N,GND*
G04 #@! TO.C,REF\002A\002A*
X107500000Y-92000000D03*
G04 #@! TD*
G04 #@! TO.N,GND*
G04 #@! TO.C,REF\002A\002A*
X109000000Y-92000000D03*
G04 #@! TD*
G04 #@! TO.N,GND*
G04 #@! TO.C,REF\002A\002A*
X110500000Y-92000000D03*
G04 #@! TD*
G04 #@! TO.N,GND*
G04 #@! TO.C,REF\002A\002A*
X112000000Y-92000000D03*
G04 #@! TD*
G04 #@! TO.N,GND*
G04 #@! TO.C,REF\002A\002A*
X113500000Y-92000000D03*
G04 #@! TD*
G04 #@! TO.N,GND*
G04 #@! TO.C,REF\002A\002A*
X115000000Y-92000000D03*
G04 #@! TD*
G04 #@! TO.N,GND*
G04 #@! TO.C,REF\002A\002A*
X116500000Y-92000000D03*
G04 #@! TD*
G04 #@! TO.N,GND*
G04 #@! TO.C,REF\002A\002A*
X107500000Y-93500000D03*
G04 #@! TD*
G04 #@! TO.N,GND*
G04 #@! TO.C,REF\002A\002A*
X109000000Y-93500000D03*
G04 #@! TD*
G04 #@! TO.N,GND*
G04 #@! TO.C,REF\002A\002A*
X110500000Y-93500000D03*
G04 #@! TD*
G04 #@! TO.N,GND*
G04 #@! TO.C,REF\002A\002A*
X112000000Y-93500000D03*
G04 #@! TD*
G04 #@! TO.N,GND*
G04 #@! TO.C,REF\002A\002A*
X113500000Y-93500000D03*
G04 #@! TD*
G04 #@! TO.N,GND*
G04 #@! TO.C,REF\002A\002A*
X115000000Y-93500000D03*
G04 #@! TD*
G04 #@! TO.N,GND*
G04 #@! TO.C,REF\002A\002A*
X116500000Y-93500000D03*
G04 #@! TD*
G04 #@! TO.N,GND*
G04 #@! TO.C,REF\002A\002A*
X128500000Y-115000000D03*
G04 #@! TD*
G04 #@! TO.N,GND*
G04 #@! TO.C,REF\002A\002A*
X127000000Y-115000000D03*
G04 #@! TD*
G04 #@! TO.N,GND*
G04 #@! TO.C,REF\002A\002A*
X125500000Y-115000000D03*
G04 #@! TD*
G04 #@! TO.N,GND*
G04 #@! TO.C,REF\002A\002A*
X124000000Y-115000000D03*
G04 #@! TD*
G04 #@! TO.N,GND*
G04 #@! TO.C,REF\002A\002A*
X122500000Y-115000000D03*
G04 #@! TD*
G04 #@! TO.N,GND*
G04 #@! TO.C,REF\002A\002A*
X121000000Y-115000000D03*
G04 #@! TD*
G04 #@! TO.N,GND*
G04 #@! TO.C,REF\002A\002A*
X119500000Y-115000000D03*
G04 #@! TD*
G04 #@! TO.N,GND*
G04 #@! TO.C,REF\002A\002A*
X118000000Y-115000000D03*
G04 #@! TD*
G04 #@! TO.N,GND*
G04 #@! TO.C,REF\002A\002A*
X116500000Y-115000000D03*
G04 #@! TD*
G04 #@! TO.N,GND*
G04 #@! TO.C,REF\002A\002A*
X115000000Y-115000000D03*
G04 #@! TD*
G04 #@! TO.N,GND*
G04 #@! TO.C,REF\002A\002A*
X113500000Y-115000000D03*
G04 #@! TD*
G04 #@! TO.N,GND*
G04 #@! TO.C,REF\002A\002A*
X112000000Y-115000000D03*
G04 #@! TD*
G04 #@! TO.N,GND*
G04 #@! TO.C,REF\002A\002A*
X110500000Y-115000000D03*
G04 #@! TD*
G04 #@! TO.N,GND*
G04 #@! TO.C,REF\002A\002A*
X109000000Y-115000000D03*
G04 #@! TD*
G04 #@! TO.N,GND*
G04 #@! TO.C,REF\002A\002A*
X128500000Y-113500000D03*
G04 #@! TD*
G04 #@! TO.N,GND*
G04 #@! TO.C,REF\002A\002A*
X127000000Y-113500000D03*
G04 #@! TD*
G04 #@! TO.N,GND*
G04 #@! TO.C,REF\002A\002A*
X125500000Y-113500000D03*
G04 #@! TD*
G04 #@! TO.N,GND*
G04 #@! TO.C,REF\002A\002A*
X124000000Y-113500000D03*
G04 #@! TD*
G04 #@! TO.N,GND*
G04 #@! TO.C,REF\002A\002A*
X122500000Y-113500000D03*
G04 #@! TD*
G04 #@! TO.N,GND*
G04 #@! TO.C,REF\002A\002A*
X121000000Y-113500000D03*
G04 #@! TD*
G04 #@! TO.N,GND*
G04 #@! TO.C,REF\002A\002A*
X119500000Y-113500000D03*
G04 #@! TD*
G04 #@! TO.N,GND*
G04 #@! TO.C,REF\002A\002A*
X118000000Y-113500000D03*
G04 #@! TD*
G04 #@! TO.N,GND*
G04 #@! TO.C,REF\002A\002A*
X116500000Y-113500000D03*
G04 #@! TD*
G04 #@! TO.N,GND*
G04 #@! TO.C,REF\002A\002A*
X115000000Y-113500000D03*
G04 #@! TD*
G04 #@! TO.N,GND*
G04 #@! TO.C,REF\002A\002A*
X113500000Y-113500000D03*
G04 #@! TD*
G04 #@! TO.N,GND*
G04 #@! TO.C,REF\002A\002A*
X112000000Y-113500000D03*
G04 #@! TD*
G04 #@! TO.N,GND*
G04 #@! TO.C,REF\002A\002A*
X110500000Y-113500000D03*
G04 #@! TD*
G04 #@! TO.N,GND*
G04 #@! TO.C,REF\002A\002A*
X109000000Y-113500000D03*
G04 #@! TD*
G04 #@! TO.N,GND*
G04 #@! TO.C,REF\002A\002A*
X128500000Y-112000000D03*
G04 #@! TD*
G04 #@! TO.N,GND*
G04 #@! TO.C,REF\002A\002A*
X127000000Y-112000000D03*
G04 #@! TD*
G04 #@! TO.N,GND*
G04 #@! TO.C,REF\002A\002A*
X125500000Y-112000000D03*
G04 #@! TD*
G04 #@! TO.N,GND*
G04 #@! TO.C,REF\002A\002A*
X124000000Y-112000000D03*
G04 #@! TD*
G04 #@! TO.N,GND*
G04 #@! TO.C,REF\002A\002A*
X122500000Y-112000000D03*
G04 #@! TD*
G04 #@! TO.N,GND*
G04 #@! TO.C,REF\002A\002A*
X121000000Y-112000000D03*
G04 #@! TD*
G04 #@! TO.N,GND*
G04 #@! TO.C,REF\002A\002A*
X119500000Y-112000000D03*
G04 #@! TD*
G04 #@! TO.N,GND*
G04 #@! TO.C,REF\002A\002A*
X118000000Y-112000000D03*
G04 #@! TD*
G04 #@! TO.N,GND*
G04 #@! TO.C,REF\002A\002A*
X116500000Y-112000000D03*
G04 #@! TD*
G04 #@! TO.N,GND*
G04 #@! TO.C,REF\002A\002A*
X115000000Y-112000000D03*
G04 #@! TD*
G04 #@! TO.N,GND*
G04 #@! TO.C,REF\002A\002A*
X113500000Y-112000000D03*
G04 #@! TD*
G04 #@! TO.N,GND*
G04 #@! TO.C,REF\002A\002A*
X112000000Y-112000000D03*
G04 #@! TD*
G04 #@! TO.N,GND*
G04 #@! TO.C,REF\002A\002A*
X110500000Y-112000000D03*
G04 #@! TD*
G04 #@! TO.N,GND*
G04 #@! TO.C,REF\002A\002A*
X109000000Y-112000000D03*
G04 #@! TD*
G04 #@! TO.N,GND*
G04 #@! TO.C,REF\002A\002A*
X128500000Y-110500000D03*
G04 #@! TD*
G04 #@! TO.N,GND*
G04 #@! TO.C,REF\002A\002A*
X127000000Y-110500000D03*
G04 #@! TD*
G04 #@! TO.N,GND*
G04 #@! TO.C,REF\002A\002A*
X125500000Y-110500000D03*
G04 #@! TD*
G04 #@! TO.N,GND*
G04 #@! TO.C,REF\002A\002A*
X124000000Y-110500000D03*
G04 #@! TD*
G04 #@! TO.N,GND*
G04 #@! TO.C,REF\002A\002A*
X122500000Y-110500000D03*
G04 #@! TD*
G04 #@! TO.N,GND*
G04 #@! TO.C,REF\002A\002A*
X121000000Y-110500000D03*
G04 #@! TD*
G04 #@! TO.N,GND*
G04 #@! TO.C,REF\002A\002A*
X119500000Y-110500000D03*
G04 #@! TD*
G04 #@! TO.N,GND*
G04 #@! TO.C,REF\002A\002A*
X118000000Y-110500000D03*
G04 #@! TD*
G04 #@! TO.N,GND*
G04 #@! TO.C,REF\002A\002A*
X116500000Y-110500000D03*
G04 #@! TD*
G04 #@! TO.N,GND*
G04 #@! TO.C,REF\002A\002A*
X115000000Y-110500000D03*
G04 #@! TD*
G04 #@! TO.N,GND*
G04 #@! TO.C,REF\002A\002A*
X113500000Y-110500000D03*
G04 #@! TD*
G04 #@! TO.N,GND*
G04 #@! TO.C,REF\002A\002A*
X112000000Y-110500000D03*
G04 #@! TD*
G04 #@! TO.N,GND*
G04 #@! TO.C,REF\002A\002A*
X110500000Y-110500000D03*
G04 #@! TD*
G04 #@! TO.N,GND*
G04 #@! TO.C,REF\002A\002A*
X109000000Y-110500000D03*
G04 #@! TD*
G04 #@! TO.N,GND*
G04 #@! TO.C,REF\002A\002A*
X99000000Y-130500000D03*
G04 #@! TD*
G04 #@! TO.N,GND*
G04 #@! TO.C,REF\002A\002A*
X100500000Y-130500000D03*
G04 #@! TD*
G04 #@! TO.N,GND*
G04 #@! TO.C,REF\002A\002A*
X102000000Y-130500000D03*
G04 #@! TD*
G04 #@! TO.N,GND*
G04 #@! TO.C,REF\002A\002A*
X103500000Y-130500000D03*
G04 #@! TD*
G04 #@! TO.N,GND*
G04 #@! TO.C,REF\002A\002A*
X105000000Y-130500000D03*
G04 #@! TD*
G04 #@! TO.N,GND*
G04 #@! TO.C,REF\002A\002A*
X106500000Y-130500000D03*
G04 #@! TD*
G04 #@! TO.N,GND*
G04 #@! TO.C,REF\002A\002A*
X108000000Y-130500000D03*
G04 #@! TD*
G04 #@! TO.N,GND*
G04 #@! TO.C,REF\002A\002A*
X109500000Y-130500000D03*
G04 #@! TD*
G04 #@! TO.N,GND*
G04 #@! TO.C,REF\002A\002A*
X111000000Y-130500000D03*
G04 #@! TD*
G04 #@! TO.N,GND*
G04 #@! TO.C,REF\002A\002A*
X112500000Y-130500000D03*
G04 #@! TD*
G04 #@! TO.N,GND*
G04 #@! TO.C,REF\002A\002A*
X114000000Y-130500000D03*
G04 #@! TD*
G04 #@! TO.N,GND*
G04 #@! TO.C,REF\002A\002A*
X115500000Y-130500000D03*
G04 #@! TD*
G04 #@! TO.N,GND*
G04 #@! TO.C,REF\002A\002A*
X117000000Y-130500000D03*
G04 #@! TD*
G04 #@! TO.N,GND*
G04 #@! TO.C,REF\002A\002A*
X118500000Y-130500000D03*
G04 #@! TD*
G04 #@! TO.N,GND*
G04 #@! TO.C,REF\002A\002A*
X120000000Y-130500000D03*
G04 #@! TD*
G04 #@! TO.N,GND*
G04 #@! TO.C,REF\002A\002A*
X121500000Y-130500000D03*
G04 #@! TD*
G04 #@! TO.N,GND*
G04 #@! TO.C,REF\002A\002A*
X123000000Y-130500000D03*
G04 #@! TD*
G04 #@! TO.N,GND*
G04 #@! TO.C,REF\002A\002A*
X124500000Y-130500000D03*
G04 #@! TD*
G04 #@! TO.N,GND*
G04 #@! TO.C,REF\002A\002A*
X126000000Y-130500000D03*
G04 #@! TD*
G04 #@! TO.N,GND*
G04 #@! TO.C,REF\002A\002A*
X127500000Y-130500000D03*
G04 #@! TD*
G04 #@! TO.N,GND*
G04 #@! TO.C,REF\002A\002A*
X129000000Y-130500000D03*
G04 #@! TD*
G04 #@! TO.N,GND*
G04 #@! TO.C,REF\002A\002A*
X130500000Y-130500000D03*
G04 #@! TD*
G04 #@! TO.N,GND*
G04 #@! TO.C,REF\002A\002A*
X99000000Y-132000000D03*
G04 #@! TD*
G04 #@! TO.N,GND*
G04 #@! TO.C,REF\002A\002A*
X100500000Y-132000000D03*
G04 #@! TD*
G04 #@! TO.N,GND*
G04 #@! TO.C,REF\002A\002A*
X102000000Y-132000000D03*
G04 #@! TD*
G04 #@! TO.N,GND*
G04 #@! TO.C,REF\002A\002A*
X103500000Y-132000000D03*
G04 #@! TD*
G04 #@! TO.N,GND*
G04 #@! TO.C,REF\002A\002A*
X105000000Y-132000000D03*
G04 #@! TD*
G04 #@! TO.N,GND*
G04 #@! TO.C,REF\002A\002A*
X106500000Y-132000000D03*
G04 #@! TD*
G04 #@! TO.N,GND*
G04 #@! TO.C,REF\002A\002A*
X108000000Y-132000000D03*
G04 #@! TD*
G04 #@! TO.N,GND*
G04 #@! TO.C,REF\002A\002A*
X109500000Y-132000000D03*
G04 #@! TD*
G04 #@! TO.N,GND*
G04 #@! TO.C,REF\002A\002A*
X111000000Y-132000000D03*
G04 #@! TD*
G04 #@! TO.N,GND*
G04 #@! TO.C,REF\002A\002A*
X112500000Y-132000000D03*
G04 #@! TD*
G04 #@! TO.N,GND*
G04 #@! TO.C,REF\002A\002A*
X114000000Y-132000000D03*
G04 #@! TD*
G04 #@! TO.N,GND*
G04 #@! TO.C,REF\002A\002A*
X115500000Y-132000000D03*
G04 #@! TD*
G04 #@! TO.N,GND*
G04 #@! TO.C,REF\002A\002A*
X117000000Y-132000000D03*
G04 #@! TD*
G04 #@! TO.N,GND*
G04 #@! TO.C,REF\002A\002A*
X118500000Y-132000000D03*
G04 #@! TD*
G04 #@! TO.N,GND*
G04 #@! TO.C,REF\002A\002A*
X120000000Y-132000000D03*
G04 #@! TD*
G04 #@! TO.N,GND*
G04 #@! TO.C,REF\002A\002A*
X121500000Y-132000000D03*
G04 #@! TD*
G04 #@! TO.N,GND*
G04 #@! TO.C,REF\002A\002A*
X123000000Y-132000000D03*
G04 #@! TD*
G04 #@! TO.N,GND*
G04 #@! TO.C,REF\002A\002A*
X124500000Y-132000000D03*
G04 #@! TD*
G04 #@! TO.N,GND*
G04 #@! TO.C,REF\002A\002A*
X126000000Y-132000000D03*
G04 #@! TD*
G04 #@! TO.N,GND*
G04 #@! TO.C,REF\002A\002A*
X127500000Y-132000000D03*
G04 #@! TD*
G04 #@! TO.N,GND*
G04 #@! TO.C,REF\002A\002A*
X129000000Y-132000000D03*
G04 #@! TD*
G04 #@! TO.N,GND*
G04 #@! TO.C,REF\002A\002A*
X130500000Y-132000000D03*
G04 #@! TD*
G04 #@! TO.N,GND*
G04 #@! TO.C,REF\002A\002A*
X130500000Y-39000000D03*
G04 #@! TD*
G04 #@! TO.N,GND*
G04 #@! TO.C,REF\002A\002A*
X129000000Y-39000000D03*
G04 #@! TD*
G04 #@! TO.N,GND*
G04 #@! TO.C,REF\002A\002A*
X127500000Y-39000000D03*
G04 #@! TD*
G04 #@! TO.N,GND*
G04 #@! TO.C,REF\002A\002A*
X126000000Y-39000000D03*
G04 #@! TD*
G04 #@! TO.N,GND*
G04 #@! TO.C,REF\002A\002A*
X124500000Y-39000000D03*
G04 #@! TD*
G04 #@! TO.N,GND*
G04 #@! TO.C,REF\002A\002A*
X123000000Y-39000000D03*
G04 #@! TD*
G04 #@! TO.N,GND*
G04 #@! TO.C,REF\002A\002A*
X121500000Y-39000000D03*
G04 #@! TD*
G04 #@! TO.N,GND*
G04 #@! TO.C,REF\002A\002A*
X120000000Y-39000000D03*
G04 #@! TD*
G04 #@! TO.N,GND*
G04 #@! TO.C,REF\002A\002A*
X118500000Y-39000000D03*
G04 #@! TD*
G04 #@! TO.N,GND*
G04 #@! TO.C,REF\002A\002A*
X117000000Y-39000000D03*
G04 #@! TD*
G04 #@! TO.N,GND*
G04 #@! TO.C,REF\002A\002A*
X115500000Y-39000000D03*
G04 #@! TD*
G04 #@! TO.N,GND*
G04 #@! TO.C,REF\002A\002A*
X114000000Y-39000000D03*
G04 #@! TD*
G04 #@! TO.N,GND*
G04 #@! TO.C,REF\002A\002A*
X112500000Y-39000000D03*
G04 #@! TD*
G04 #@! TO.N,GND*
G04 #@! TO.C,REF\002A\002A*
X111000000Y-39000000D03*
G04 #@! TD*
G04 #@! TO.N,GND*
G04 #@! TO.C,REF\002A\002A*
X109500000Y-39000000D03*
G04 #@! TD*
G04 #@! TO.N,GND*
G04 #@! TO.C,REF\002A\002A*
X108000000Y-39000000D03*
G04 #@! TD*
G04 #@! TO.N,GND*
G04 #@! TO.C,REF\002A\002A*
X106500000Y-39000000D03*
G04 #@! TD*
G04 #@! TO.N,GND*
G04 #@! TO.C,REF\002A\002A*
X105000000Y-39000000D03*
G04 #@! TD*
G04 #@! TO.N,GND*
G04 #@! TO.C,REF\002A\002A*
X103500000Y-39000000D03*
G04 #@! TD*
G04 #@! TO.N,GND*
G04 #@! TO.C,REF\002A\002A*
X102000000Y-39000000D03*
G04 #@! TD*
G04 #@! TO.N,GND*
G04 #@! TO.C,REF\002A\002A*
X100500000Y-39000000D03*
G04 #@! TD*
G04 #@! TO.N,GND*
G04 #@! TO.C,REF\002A\002A*
X99000000Y-39000000D03*
G04 #@! TD*
G04 #@! TO.N,GND*
G04 #@! TO.C,REF\002A\002A*
X130500000Y-37500000D03*
G04 #@! TD*
G04 #@! TO.N,GND*
G04 #@! TO.C,REF\002A\002A*
X129000000Y-37500000D03*
G04 #@! TD*
G04 #@! TO.N,GND*
G04 #@! TO.C,REF\002A\002A*
X127500000Y-37500000D03*
G04 #@! TD*
G04 #@! TO.N,GND*
G04 #@! TO.C,REF\002A\002A*
X126000000Y-37500000D03*
G04 #@! TD*
G04 #@! TO.N,GND*
G04 #@! TO.C,REF\002A\002A*
X124500000Y-37500000D03*
G04 #@! TD*
G04 #@! TO.N,GND*
G04 #@! TO.C,REF\002A\002A*
X123000000Y-37500000D03*
G04 #@! TD*
G04 #@! TO.N,GND*
G04 #@! TO.C,REF\002A\002A*
X121500000Y-37500000D03*
G04 #@! TD*
G04 #@! TO.N,GND*
G04 #@! TO.C,REF\002A\002A*
X120000000Y-37500000D03*
G04 #@! TD*
G04 #@! TO.N,GND*
G04 #@! TO.C,REF\002A\002A*
X118500000Y-37500000D03*
G04 #@! TD*
G04 #@! TO.N,GND*
G04 #@! TO.C,REF\002A\002A*
X117000000Y-37500000D03*
G04 #@! TD*
G04 #@! TO.N,GND*
G04 #@! TO.C,REF\002A\002A*
X115500000Y-37500000D03*
G04 #@! TD*
G04 #@! TO.N,GND*
G04 #@! TO.C,REF\002A\002A*
X114000000Y-37500000D03*
G04 #@! TD*
G04 #@! TO.N,GND*
G04 #@! TO.C,REF\002A\002A*
X112500000Y-37500000D03*
G04 #@! TD*
G04 #@! TO.N,GND*
G04 #@! TO.C,REF\002A\002A*
X111000000Y-37500000D03*
G04 #@! TD*
G04 #@! TO.N,GND*
G04 #@! TO.C,REF\002A\002A*
X109500000Y-37500000D03*
G04 #@! TD*
G04 #@! TO.N,GND*
G04 #@! TO.C,REF\002A\002A*
X108000000Y-37500000D03*
G04 #@! TD*
G04 #@! TO.N,GND*
G04 #@! TO.C,REF\002A\002A*
X106500000Y-37500000D03*
G04 #@! TD*
G04 #@! TO.N,GND*
G04 #@! TO.C,REF\002A\002A*
X105000000Y-37500000D03*
G04 #@! TD*
G04 #@! TO.N,GND*
G04 #@! TO.C,REF\002A\002A*
X103500000Y-37500000D03*
G04 #@! TD*
G04 #@! TO.N,GND*
G04 #@! TO.C,REF\002A\002A*
X102000000Y-37500000D03*
G04 #@! TD*
G04 #@! TO.N,GND*
G04 #@! TO.C,REF\002A\002A*
X100500000Y-37500000D03*
G04 #@! TD*
G04 #@! TO.N,GND*
G04 #@! TO.C,REF\002A\002A*
X99000000Y-37500000D03*
G04 #@! TD*
D14*
G04 #@! TO.P,C5,1*
G04 #@! TO.N,GND*
X126600000Y-94450000D03*
G04 #@! TO.P,C5,2*
G04 #@! TO.N,Net-(C5-Pad2)*
X126600000Y-91950000D03*
G04 #@! TD*
G04 #@! TO.P,C6,1*
G04 #@! TO.N,GND*
X124400000Y-94450000D03*
G04 #@! TO.P,C6,2*
G04 #@! TO.N,Net-(C5-Pad2)*
X124400000Y-91950000D03*
G04 #@! TD*
D11*
G04 #@! TO.P,J4,9*
G04 #@! TO.N,Net-(J13-Pad1)*
X136000000Y-78890000D03*
G04 #@! TO.P,J4,8*
G04 #@! TO.N,Net-(J4-Pad8)*
X136000000Y-76350000D03*
G04 #@! TO.P,J4,7*
G04 #@! TO.N,Net-(J4-Pad7)*
X136000000Y-73810000D03*
G04 #@! TO.P,J4,5*
G04 #@! TO.N,Net-(J4-Pad5)*
X136000000Y-68730000D03*
G04 #@! TO.P,J4,4*
G04 #@! TO.N,Net-(J4-Pad4)*
X136000000Y-66190000D03*
G04 #@! TO.P,J4,3*
G04 #@! TO.N,Net-(J4-Pad3)*
X136000000Y-63650000D03*
G04 #@! TO.P,J4,10*
G04 #@! TO.N,GND*
X136000000Y-81430000D03*
G04 #@! TO.P,J4,6*
G04 #@! TO.N,Net-(J4-Pad6)*
X136000000Y-71270000D03*
D12*
G04 #@! TO.P,J4,1*
G04 #@! TO.N,Net-(J4-Pad1)*
X136000000Y-58570000D03*
D11*
G04 #@! TO.P,J4,2*
G04 #@! TO.N,Net-(J4-Pad2)*
X136000000Y-61110000D03*
G04 #@! TD*
G04 #@! TO.P,J5,9*
G04 #@! TO.N,Net-(J12-Pad1)*
X136100000Y-108920000D03*
G04 #@! TO.P,J5,8*
G04 #@! TO.N,Net-(J5-Pad8)*
X136100000Y-106380000D03*
G04 #@! TO.P,J5,7*
G04 #@! TO.N,Net-(J5-Pad7)*
X136100000Y-103840000D03*
G04 #@! TO.P,J5,5*
G04 #@! TO.N,Net-(J5-Pad5)*
X136100000Y-98760000D03*
G04 #@! TO.P,J5,4*
G04 #@! TO.N,Net-(J5-Pad4)*
X136100000Y-96220000D03*
G04 #@! TO.P,J5,3*
G04 #@! TO.N,Net-(J5-Pad3)*
X136100000Y-93680000D03*
G04 #@! TO.P,J5,10*
G04 #@! TO.N,GND*
X136100000Y-111460000D03*
G04 #@! TO.P,J5,6*
G04 #@! TO.N,Net-(J5-Pad6)*
X136100000Y-101300000D03*
D12*
G04 #@! TO.P,J5,1*
G04 #@! TO.N,Net-(J5-Pad1)*
X136100000Y-88600000D03*
D11*
G04 #@! TO.P,J5,2*
G04 #@! TO.N,Net-(J5-Pad2)*
X136100000Y-91140000D03*
G04 #@! TD*
D15*
G04 #@! TO.P,R2,1*
G04 #@! TO.N,Net-(J2-Pad4)*
X134450000Y-84200000D03*
G04 #@! TO.P,R2,2*
G04 #@! TO.N,GND*
X137150000Y-84200000D03*
G04 #@! TD*
G04 #@! TO.P,R3,1*
G04 #@! TO.N,Net-(J2-Pad6)*
X134450000Y-86200000D03*
G04 #@! TO.P,R3,2*
G04 #@! TO.N,GND*
X137150000Y-86200000D03*
G04 #@! TD*
D16*
G04 #@! TO.P,J12,1*
G04 #@! TO.N,Net-(J12-Pad1)*
X136100000Y-116250000D03*
D17*
G04 #@! TO.P,J12,2*
G04 #@! TO.N,Net-(D1-Pad1)*
X136100000Y-118790000D03*
G04 #@! TD*
D16*
G04 #@! TO.P,J13,1*
G04 #@! TO.N,Net-(J13-Pad1)*
X136750000Y-51250000D03*
D17*
G04 #@! TO.P,J13,2*
G04 #@! TO.N,Net-(D1-Pad1)*
X136750000Y-53790000D03*
G04 #@! TD*
D16*
G04 #@! TO.P,J2,1*
G04 #@! TO.N,Net-(C5-Pad2)*
X128060000Y-81520000D03*
D17*
G04 #@! TO.P,J2,2*
G04 #@! TO.N,Net-(J2-Pad2)*
X130600000Y-81520000D03*
G04 #@! TO.P,J2,3*
G04 #@! TO.N,Net-(C5-Pad2)*
X128060000Y-84060000D03*
G04 #@! TO.P,J2,4*
G04 #@! TO.N,Net-(J2-Pad4)*
X130600000Y-84060000D03*
G04 #@! TO.P,J2,5*
G04 #@! TO.N,Net-(C5-Pad2)*
X128060000Y-86600000D03*
G04 #@! TO.P,J2,6*
G04 #@! TO.N,Net-(J2-Pad6)*
X130600000Y-86600000D03*
G04 #@! TD*
D18*
G04 #@! TO.P,J7,1*
G04 #@! TO.N,GND*
X95000000Y-40000000D03*
G04 #@! TD*
G04 #@! TO.P,J8,1*
G04 #@! TO.N,GND*
X95000000Y-130000000D03*
G04 #@! TD*
G04 #@! TO.P,J9,1*
G04 #@! TO.N,GND*
X135000000Y-130000000D03*
G04 #@! TD*
G04 #@! TO.P,J10,1*
G04 #@! TO.N,GND*
X135000000Y-40000000D03*
G04 #@! TD*
D19*
G04 #@! TO.N,GND*
X113000000Y-86000000D03*
X110000000Y-86000000D03*
X107000000Y-86000000D03*
X102000000Y-86000000D03*
X99000000Y-86000000D03*
X117949908Y-75352132D03*
X117949908Y-77400000D03*
X117949908Y-76400000D03*
X130050010Y-75800000D03*
X130050010Y-73005551D03*
X133000000Y-80000000D03*
X131000000Y-78000000D03*
X127000000Y-72000000D03*
X129500000Y-56500000D03*
X126500000Y-56500000D03*
X123500000Y-56500000D03*
X126500000Y-60000000D03*
X126500000Y-62500000D03*
X126500000Y-65000000D03*
X126500000Y-67500000D03*
X126500000Y-70000000D03*
X126200000Y-102000000D03*
X126200000Y-100800000D03*
X126200000Y-99600000D03*
X126200000Y-98400000D03*
X126200000Y-97000000D03*
G04 #@! TO.N,Net-(J1-Pad2)*
X118400000Y-83000000D03*
X119200000Y-83000000D03*
X120000010Y-82999990D03*
X122200000Y-82999990D03*
X122800000Y-83600002D03*
X123400000Y-84200006D03*
G04 #@! TO.N,Net-(D1-Pad1)*
X110200000Y-53200000D03*
X108500000Y-53200000D03*
X106500000Y-53200000D03*
G04 #@! TO.N,Net-(C5-Pad2)*
X115400000Y-80600000D03*
X113600000Y-89800000D03*
X112000000Y-89800000D03*
X115400000Y-89800000D03*
G04 #@! TD*
D20*
G04 #@! TO.N,GND*
X107000000Y-86000000D02*
X110000000Y-86000000D01*
X99000000Y-86000000D02*
X102000000Y-86000000D01*
D21*
X136100000Y-111460000D02*
X138960000Y-111460000D01*
X138960000Y-111460000D02*
X139000000Y-111500000D01*
X136000000Y-81430000D02*
X138930000Y-81430000D01*
X138930000Y-81430000D02*
X139000000Y-81500000D01*
X137150000Y-86200000D02*
X137150000Y-84200000D01*
X139000000Y-84500000D02*
X137450000Y-84500000D01*
X137450000Y-84500000D02*
X137150000Y-84200000D01*
X137150000Y-86200000D02*
X138800000Y-86200000D01*
X138800000Y-86200000D02*
X139000000Y-86000000D01*
D20*
X117949908Y-76400000D02*
X117949908Y-77400000D01*
X130050010Y-73005551D02*
X130050010Y-75800000D01*
X127000000Y-72000000D02*
X127000000Y-70500000D01*
X133000000Y-80000000D02*
X131000000Y-78000000D01*
X123500000Y-56500000D02*
X126500000Y-56500000D01*
X126500000Y-62500000D02*
X126500000Y-60000000D01*
X126500000Y-67500000D02*
X126500000Y-65000000D01*
X127000000Y-70500000D02*
X126500000Y-70000000D01*
D22*
X124400000Y-94450000D02*
X126600000Y-94450000D01*
D20*
X126600000Y-94450000D02*
X126600000Y-96600000D01*
X126200000Y-100800000D02*
X126200000Y-102000000D01*
X126200000Y-98400000D02*
X126200000Y-99600000D01*
X126600000Y-96600000D02*
X126200000Y-97000000D01*
X137076200Y-81430000D02*
X137076200Y-83976200D01*
X137076200Y-83976200D02*
X137000000Y-84052400D01*
X137000000Y-84052400D02*
X137000000Y-86000000D01*
D23*
G04 #@! TO.N,Net-(J1-Pad2)*
X119200000Y-83000000D02*
X118400000Y-83000000D01*
X120000010Y-82999990D02*
X119200010Y-82999990D01*
X119200010Y-82999990D02*
X119200000Y-83000000D01*
X121775736Y-82999990D02*
X120000010Y-82999990D01*
X121775736Y-82999990D02*
X122200000Y-82999990D01*
X122299999Y-83099999D02*
X122200000Y-83000000D01*
X122200000Y-83000000D02*
X122200000Y-82999990D01*
X122800000Y-83600002D02*
X122299999Y-83099999D01*
X122500001Y-83300003D02*
X122299999Y-83099999D01*
X123400000Y-84200006D02*
X122800000Y-83600006D01*
X122800000Y-83600006D02*
X122800000Y-83600002D01*
X123200000Y-84000000D02*
X123099999Y-83900001D01*
X123099999Y-83900001D02*
X122800000Y-83600002D01*
D21*
G04 #@! TO.N,Net-(J2-Pad4)*
X134450000Y-84200000D02*
X130740000Y-84200000D01*
X130740000Y-84200000D02*
X130600000Y-84060000D01*
G04 #@! TO.N,Net-(J2-Pad6)*
X134450000Y-86200000D02*
X131000000Y-86200000D01*
X131000000Y-86200000D02*
X130600000Y-86600000D01*
D24*
G04 #@! TO.N,Net-(J13-Pad1)*
X134770000Y-51230000D02*
X136730000Y-51230000D01*
X136730000Y-51230000D02*
X136750000Y-51250000D01*
X134770000Y-51230000D02*
X133000000Y-53000000D01*
X133000000Y-53000000D02*
X133000000Y-76000000D01*
X133000000Y-76000000D02*
X135890000Y-78890000D01*
G04 #@! TO.N,Net-(D1-Pad1)*
X136100000Y-118790000D02*
X109290000Y-118790000D01*
X104500000Y-55200000D02*
X106500000Y-53200000D01*
X104500000Y-114000000D02*
X104500000Y-55200000D01*
X109290000Y-118790000D02*
X104500000Y-114000000D01*
X108500000Y-53200000D02*
X110200000Y-53200000D01*
X106500000Y-53200000D02*
X108500000Y-53200000D01*
D22*
G04 #@! TO.N,Net-(C5-Pad2)*
X124400000Y-90000000D02*
X126400000Y-90000000D01*
X115400000Y-89800000D02*
X124200000Y-89800000D01*
X124200000Y-89800000D02*
X124400000Y-90000000D01*
X115400000Y-80600000D02*
X115400000Y-89800000D01*
X115400000Y-89800000D02*
X113600000Y-89800000D01*
X112000000Y-89800000D02*
X113600000Y-89800000D01*
X124400000Y-91950000D02*
X124400000Y-90000000D01*
X124400000Y-90000000D02*
X124400000Y-90200000D01*
X124400000Y-90200000D02*
X124400000Y-90000000D01*
X126600000Y-91950000D02*
X126600000Y-90200000D01*
X126600000Y-90200000D02*
X126400000Y-90000000D01*
X126400000Y-90000000D02*
X128060000Y-88340000D01*
X128060000Y-88340000D02*
X128060000Y-86600000D01*
D24*
X128060000Y-81520000D02*
X128060000Y-84060000D01*
X128060000Y-84060000D02*
X128060000Y-86600000D01*
G04 #@! TD*
D25*
G04 #@! TO.N,GND*
G36*
X139290001Y-134290000D02*
X90710000Y-134290000D01*
X90710000Y-132416266D01*
X92763339Y-132416266D01*
X93075487Y-132864932D01*
X94318343Y-133383331D01*
X95664976Y-133386648D01*
X96910371Y-132874380D01*
X96924513Y-132864932D01*
X97236661Y-132416266D01*
X132763339Y-132416266D01*
X133075487Y-132864932D01*
X134318343Y-133383331D01*
X135664976Y-133386648D01*
X136910371Y-132874380D01*
X136924513Y-132864932D01*
X137236661Y-132416266D01*
X135000000Y-130179605D01*
X132763339Y-132416266D01*
X97236661Y-132416266D01*
X95000000Y-130179605D01*
X92763339Y-132416266D01*
X90710000Y-132416266D01*
X90710000Y-130664976D01*
X91613352Y-130664976D01*
X92125620Y-131910371D01*
X92135068Y-131924513D01*
X92583734Y-132236661D01*
X94820395Y-130000000D01*
X95179605Y-130000000D01*
X97416266Y-132236661D01*
X97864932Y-131924513D01*
X98383331Y-130681657D01*
X98383372Y-130664976D01*
X131613352Y-130664976D01*
X132125620Y-131910371D01*
X132135068Y-131924513D01*
X132583734Y-132236661D01*
X134820395Y-130000000D01*
X135179605Y-130000000D01*
X137416266Y-132236661D01*
X137864932Y-131924513D01*
X138383331Y-130681657D01*
X138386648Y-129335024D01*
X137874380Y-128089629D01*
X137864932Y-128075487D01*
X137416266Y-127763339D01*
X135179605Y-130000000D01*
X134820395Y-130000000D01*
X132583734Y-127763339D01*
X132135068Y-128075487D01*
X131616669Y-129318343D01*
X131613352Y-130664976D01*
X98383372Y-130664976D01*
X98386648Y-129335024D01*
X97874380Y-128089629D01*
X97864932Y-128075487D01*
X97416266Y-127763339D01*
X95179605Y-130000000D01*
X94820395Y-130000000D01*
X92583734Y-127763339D01*
X92135068Y-128075487D01*
X91616669Y-129318343D01*
X91613352Y-130664976D01*
X90710000Y-130664976D01*
X90710000Y-127583734D01*
X92763339Y-127583734D01*
X95000000Y-129820395D01*
X97236661Y-127583734D01*
X132763339Y-127583734D01*
X135000000Y-129820395D01*
X137236661Y-127583734D01*
X136924513Y-127135068D01*
X135681657Y-126616669D01*
X134335024Y-126613352D01*
X133089629Y-127125620D01*
X133075487Y-127135068D01*
X132763339Y-127583734D01*
X97236661Y-127583734D01*
X96924513Y-127135068D01*
X95681657Y-126616669D01*
X94335024Y-126613352D01*
X93089629Y-127125620D01*
X93075487Y-127135068D01*
X92763339Y-127583734D01*
X90710000Y-127583734D01*
X90710000Y-115503070D01*
X93385430Y-115503070D01*
X93400390Y-115577277D01*
X93662020Y-116058026D01*
X94087709Y-116402059D01*
X94612650Y-116557000D01*
X94949200Y-116557000D01*
X94949200Y-115287000D01*
X95203200Y-115287000D01*
X95203200Y-116557000D01*
X95539750Y-116557000D01*
X96064691Y-116402059D01*
X96490380Y-116058026D01*
X96752010Y-115577277D01*
X96766970Y-115503070D01*
X96644470Y-115287000D01*
X95203200Y-115287000D01*
X94949200Y-115287000D01*
X93507930Y-115287000D01*
X93385430Y-115503070D01*
X90710000Y-115503070D01*
X90710000Y-97380000D01*
X93315282Y-97380000D01*
X93423706Y-97925082D01*
X93732470Y-98387180D01*
X94125808Y-98650000D01*
X93732470Y-98912820D01*
X93423706Y-99374918D01*
X93315282Y-99920000D01*
X93423706Y-100465082D01*
X93732470Y-100927180D01*
X94125808Y-101190000D01*
X93732470Y-101452820D01*
X93423706Y-101914918D01*
X93315282Y-102460000D01*
X93423706Y-103005082D01*
X93732470Y-103467180D01*
X94125808Y-103730000D01*
X93732470Y-103992820D01*
X93423706Y-104454918D01*
X93315282Y-105000000D01*
X93423706Y-105545082D01*
X93732470Y-106007180D01*
X94125808Y-106270000D01*
X93732470Y-106532820D01*
X93423706Y-106994918D01*
X93315282Y-107540000D01*
X93423706Y-108085082D01*
X93732470Y-108547180D01*
X94125808Y-108810000D01*
X93732470Y-109072820D01*
X93423706Y-109534918D01*
X93315282Y-110080000D01*
X93423706Y-110625082D01*
X93732470Y-111087180D01*
X94125808Y-111350000D01*
X93732470Y-111612820D01*
X93423706Y-112074918D01*
X93315282Y-112620000D01*
X93423706Y-113165082D01*
X93732470Y-113627180D01*
X94143139Y-113901580D01*
X94087709Y-113917941D01*
X93662020Y-114261974D01*
X93400390Y-114742723D01*
X93385430Y-114816930D01*
X93507930Y-115033000D01*
X94949200Y-115033000D01*
X94949200Y-115013000D01*
X95203200Y-115013000D01*
X95203200Y-115033000D01*
X96644470Y-115033000D01*
X96766970Y-114816930D01*
X96752010Y-114742723D01*
X96490380Y-114261974D01*
X96064691Y-113917941D01*
X96009261Y-113901580D01*
X96419930Y-113627180D01*
X96728694Y-113165082D01*
X96837118Y-112620000D01*
X96728694Y-112074918D01*
X96419930Y-111612820D01*
X96026592Y-111350000D01*
X96419930Y-111087180D01*
X96728694Y-110625082D01*
X96837118Y-110080000D01*
X96728694Y-109534918D01*
X96419930Y-109072820D01*
X96026592Y-108810000D01*
X96419930Y-108547180D01*
X96728694Y-108085082D01*
X96837118Y-107540000D01*
X96728694Y-106994918D01*
X96419930Y-106532820D01*
X96026592Y-106270000D01*
X96419930Y-106007180D01*
X96728694Y-105545082D01*
X96837118Y-105000000D01*
X96728694Y-104454918D01*
X96419930Y-103992820D01*
X96026592Y-103730000D01*
X96419930Y-103467180D01*
X96728694Y-103005082D01*
X96837118Y-102460000D01*
X96728694Y-101914918D01*
X96419930Y-101452820D01*
X96026592Y-101190000D01*
X96419930Y-100927180D01*
X96728694Y-100465082D01*
X96837118Y-99920000D01*
X96728694Y-99374918D01*
X96419930Y-98912820D01*
X96026592Y-98650000D01*
X96419930Y-98387180D01*
X96728694Y-97925082D01*
X96837118Y-97380000D01*
X96728694Y-96834918D01*
X96419930Y-96372820D01*
X96221393Y-96240162D01*
X96422515Y-96200157D01*
X96632559Y-96059809D01*
X96772907Y-95849765D01*
X96822190Y-95602000D01*
X96822190Y-94078000D01*
X96772907Y-93830235D01*
X96632559Y-93620191D01*
X96422515Y-93479843D01*
X96174750Y-93430560D01*
X93977650Y-93430560D01*
X93729885Y-93479843D01*
X93519841Y-93620191D01*
X93379493Y-93830235D01*
X93330210Y-94078000D01*
X93330210Y-95602000D01*
X93379493Y-95849765D01*
X93519841Y-96059809D01*
X93729885Y-96200157D01*
X93931007Y-96240162D01*
X93732470Y-96372820D01*
X93423706Y-96834918D01*
X93315282Y-97380000D01*
X90710000Y-97380000D01*
X90710000Y-89810000D01*
X93315282Y-89810000D01*
X93423706Y-90355082D01*
X93732470Y-90817180D01*
X94194568Y-91125944D01*
X94602062Y-91207000D01*
X95550338Y-91207000D01*
X95957832Y-91125944D01*
X96419930Y-90817180D01*
X96728694Y-90355082D01*
X96837118Y-89810000D01*
X96728694Y-89264918D01*
X96419930Y-88802820D01*
X96009261Y-88528420D01*
X96064691Y-88512059D01*
X96490380Y-88168026D01*
X96752010Y-87687277D01*
X96766970Y-87613070D01*
X96644470Y-87397000D01*
X95203200Y-87397000D01*
X95203200Y-87417000D01*
X94949200Y-87417000D01*
X94949200Y-87397000D01*
X93507930Y-87397000D01*
X93385430Y-87613070D01*
X93400390Y-87687277D01*
X93662020Y-88168026D01*
X94087709Y-88512059D01*
X94143139Y-88528420D01*
X93732470Y-88802820D01*
X93423706Y-89264918D01*
X93315282Y-89810000D01*
X90710000Y-89810000D01*
X90710000Y-84730000D01*
X93315282Y-84730000D01*
X93423706Y-85275082D01*
X93732470Y-85737180D01*
X94143139Y-86011580D01*
X94087709Y-86027941D01*
X93662020Y-86371974D01*
X93400390Y-86852723D01*
X93385430Y-86926930D01*
X93507930Y-87143000D01*
X94949200Y-87143000D01*
X94949200Y-87123000D01*
X95203200Y-87123000D01*
X95203200Y-87143000D01*
X96644470Y-87143000D01*
X96766970Y-86926930D01*
X96752010Y-86852723D01*
X96490380Y-86371974D01*
X96064691Y-86027941D01*
X96009261Y-86011580D01*
X96419930Y-85737180D01*
X96728694Y-85275082D01*
X96837118Y-84730000D01*
X96728694Y-84184918D01*
X96419930Y-83722820D01*
X96221393Y-83590162D01*
X96422515Y-83550157D01*
X96632559Y-83409809D01*
X96772907Y-83199765D01*
X96822190Y-82952000D01*
X96822190Y-81428000D01*
X96772907Y-81180235D01*
X96632559Y-80970191D01*
X96422515Y-80829843D01*
X96174750Y-80780560D01*
X93977650Y-80780560D01*
X93729885Y-80829843D01*
X93519841Y-80970191D01*
X93379493Y-81180235D01*
X93330210Y-81428000D01*
X93330210Y-82952000D01*
X93379493Y-83199765D01*
X93519841Y-83409809D01*
X93729885Y-83550157D01*
X93931007Y-83590162D01*
X93732470Y-83722820D01*
X93423706Y-84184918D01*
X93315282Y-84730000D01*
X90710000Y-84730000D01*
X90710000Y-75503070D01*
X93385430Y-75503070D01*
X93400390Y-75577277D01*
X93662020Y-76058026D01*
X94087709Y-76402059D01*
X94612650Y-76557000D01*
X94949200Y-76557000D01*
X94949200Y-75287000D01*
X95203200Y-75287000D01*
X95203200Y-76557000D01*
X95539750Y-76557000D01*
X96064691Y-76402059D01*
X96490380Y-76058026D01*
X96752010Y-75577277D01*
X96766970Y-75503070D01*
X96644470Y-75287000D01*
X95203200Y-75287000D01*
X94949200Y-75287000D01*
X93507930Y-75287000D01*
X93385430Y-75503070D01*
X90710000Y-75503070D01*
X90710000Y-57380000D01*
X93315282Y-57380000D01*
X93423706Y-57925082D01*
X93732470Y-58387180D01*
X94125808Y-58650000D01*
X93732470Y-58912820D01*
X93423706Y-59374918D01*
X93315282Y-59920000D01*
X93423706Y-60465082D01*
X93732470Y-60927180D01*
X94125808Y-61190000D01*
X93732470Y-61452820D01*
X93423706Y-61914918D01*
X93315282Y-62460000D01*
X93423706Y-63005082D01*
X93732470Y-63467180D01*
X94125808Y-63730000D01*
X93732470Y-63992820D01*
X93423706Y-64454918D01*
X93315282Y-65000000D01*
X93423706Y-65545082D01*
X93732470Y-66007180D01*
X94125808Y-66270000D01*
X93732470Y-66532820D01*
X93423706Y-66994918D01*
X93315282Y-67540000D01*
X93423706Y-68085082D01*
X93732470Y-68547180D01*
X94125808Y-68810000D01*
X93732470Y-69072820D01*
X93423706Y-69534918D01*
X93315282Y-70080000D01*
X93423706Y-70625082D01*
X93732470Y-71087180D01*
X94125808Y-71350000D01*
X93732470Y-71612820D01*
X93423706Y-72074918D01*
X93315282Y-72620000D01*
X93423706Y-73165082D01*
X93732470Y-73627180D01*
X94143139Y-73901580D01*
X94087709Y-73917941D01*
X93662020Y-74261974D01*
X93400390Y-74742723D01*
X93385430Y-74816930D01*
X93507930Y-75033000D01*
X94949200Y-75033000D01*
X94949200Y-75013000D01*
X95203200Y-75013000D01*
X95203200Y-75033000D01*
X96644470Y-75033000D01*
X96766970Y-74816930D01*
X96752010Y-74742723D01*
X96490380Y-74261974D01*
X96064691Y-73917941D01*
X96009261Y-73901580D01*
X96419930Y-73627180D01*
X96728694Y-73165082D01*
X96837118Y-72620000D01*
X96728694Y-72074918D01*
X96419930Y-71612820D01*
X96026592Y-71350000D01*
X96419930Y-71087180D01*
X96728694Y-70625082D01*
X96837118Y-70080000D01*
X96728694Y-69534918D01*
X96419930Y-69072820D01*
X96026592Y-68810000D01*
X96419930Y-68547180D01*
X96728694Y-68085082D01*
X96837118Y-67540000D01*
X96728694Y-66994918D01*
X96419930Y-66532820D01*
X96026592Y-66270000D01*
X96419930Y-66007180D01*
X96728694Y-65545082D01*
X96837118Y-65000000D01*
X96728694Y-64454918D01*
X96419930Y-63992820D01*
X96026592Y-63730000D01*
X96419930Y-63467180D01*
X96728694Y-63005082D01*
X96837118Y-62460000D01*
X96728694Y-61914918D01*
X96419930Y-61452820D01*
X96026592Y-61190000D01*
X96419930Y-60927180D01*
X96728694Y-60465082D01*
X96837118Y-59920000D01*
X96728694Y-59374918D01*
X96419930Y-58912820D01*
X96026592Y-58650000D01*
X96419930Y-58387180D01*
X96728694Y-57925082D01*
X96837118Y-57380000D01*
X96728694Y-56834918D01*
X96419930Y-56372820D01*
X96221393Y-56240162D01*
X96422515Y-56200157D01*
X96632559Y-56059809D01*
X96772907Y-55849765D01*
X96822190Y-55602000D01*
X96822190Y-55200000D01*
X103240806Y-55200000D01*
X103265001Y-55321637D01*
X103265000Y-113878368D01*
X103240806Y-114000000D01*
X103265000Y-114121632D01*
X103265000Y-114121635D01*
X103336656Y-114481872D01*
X103609615Y-114890385D01*
X103712734Y-114959287D01*
X108330715Y-119577269D01*
X108399615Y-119680385D01*
X108502731Y-119749285D01*
X108502732Y-119749286D01*
X108669363Y-119860625D01*
X108808127Y-119953344D01*
X109168364Y-120025000D01*
X109168368Y-120025000D01*
X109290000Y-120049194D01*
X109411632Y-120025000D01*
X135275380Y-120025000D01*
X135520582Y-120188839D01*
X135953744Y-120275000D01*
X136246256Y-120275000D01*
X136679418Y-120188839D01*
X137170625Y-119860625D01*
X137498839Y-119369418D01*
X137614092Y-118790000D01*
X137498839Y-118210582D01*
X137170625Y-117719375D01*
X137152381Y-117707184D01*
X137197765Y-117698157D01*
X137407809Y-117557809D01*
X137548157Y-117347765D01*
X137597440Y-117100000D01*
X137597440Y-115400000D01*
X137548157Y-115152235D01*
X137407809Y-114942191D01*
X137197765Y-114801843D01*
X136950000Y-114752560D01*
X135250000Y-114752560D01*
X135002235Y-114801843D01*
X134792191Y-114942191D01*
X134651843Y-115152235D01*
X134602560Y-115400000D01*
X134602560Y-117100000D01*
X134651843Y-117347765D01*
X134790314Y-117555000D01*
X109801554Y-117555000D01*
X105735000Y-113488447D01*
X105735000Y-111803070D01*
X134409230Y-111803070D01*
X134424190Y-111877277D01*
X134685820Y-112358026D01*
X135111509Y-112702059D01*
X135636450Y-112857000D01*
X135973000Y-112857000D01*
X135973000Y-111587000D01*
X136227000Y-111587000D01*
X136227000Y-112857000D01*
X136563550Y-112857000D01*
X137088491Y-112702059D01*
X137514180Y-112358026D01*
X137775810Y-111877277D01*
X137790770Y-111803070D01*
X137668270Y-111587000D01*
X136227000Y-111587000D01*
X135973000Y-111587000D01*
X134531730Y-111587000D01*
X134409230Y-111803070D01*
X105735000Y-111803070D01*
X105735000Y-94735750D01*
X123140000Y-94735750D01*
X123140000Y-95326309D01*
X123236673Y-95559698D01*
X123415301Y-95738327D01*
X123648690Y-95835000D01*
X124114250Y-95835000D01*
X124273000Y-95676250D01*
X124273000Y-94577000D01*
X124527000Y-94577000D01*
X124527000Y-95676250D01*
X124685750Y-95835000D01*
X125151310Y-95835000D01*
X125384699Y-95738327D01*
X125500000Y-95623025D01*
X125615301Y-95738327D01*
X125848690Y-95835000D01*
X126314250Y-95835000D01*
X126473000Y-95676250D01*
X126473000Y-94577000D01*
X126727000Y-94577000D01*
X126727000Y-95676250D01*
X126885750Y-95835000D01*
X127351310Y-95835000D01*
X127584699Y-95738327D01*
X127763327Y-95559698D01*
X127860000Y-95326309D01*
X127860000Y-94735750D01*
X127701250Y-94577000D01*
X126727000Y-94577000D01*
X126473000Y-94577000D01*
X124527000Y-94577000D01*
X124273000Y-94577000D01*
X123298750Y-94577000D01*
X123140000Y-94735750D01*
X105735000Y-94735750D01*
X105735000Y-89800000D01*
X110944724Y-89800000D01*
X111025052Y-90203837D01*
X111253807Y-90546193D01*
X111596163Y-90774948D01*
X111898065Y-90835000D01*
X115298066Y-90835000D01*
X115400000Y-90855276D01*
X115501935Y-90835000D01*
X123255178Y-90835000D01*
X123176843Y-90952235D01*
X123127560Y-91200000D01*
X123127560Y-92700000D01*
X123176843Y-92947765D01*
X123317191Y-93157809D01*
X123378320Y-93198654D01*
X123236673Y-93340302D01*
X123140000Y-93573691D01*
X123140000Y-94164250D01*
X123298750Y-94323000D01*
X124273000Y-94323000D01*
X124273000Y-94303000D01*
X124527000Y-94303000D01*
X124527000Y-94323000D01*
X126473000Y-94323000D01*
X126473000Y-94303000D01*
X126727000Y-94303000D01*
X126727000Y-94323000D01*
X127701250Y-94323000D01*
X127860000Y-94164250D01*
X127860000Y-93573691D01*
X127763327Y-93340302D01*
X127621680Y-93198654D01*
X127682809Y-93157809D01*
X127823157Y-92947765D01*
X127872440Y-92700000D01*
X127872440Y-91200000D01*
X127823157Y-90952235D01*
X127682809Y-90742191D01*
X127635000Y-90710246D01*
X127635000Y-90301934D01*
X127653182Y-90210529D01*
X128719776Y-89143935D01*
X128806193Y-89086193D01*
X129034948Y-88743837D01*
X129095000Y-88441935D01*
X129095000Y-88441934D01*
X129115276Y-88340000D01*
X129095000Y-88238066D01*
X129095000Y-87694429D01*
X129130625Y-87670625D01*
X129330000Y-87372239D01*
X129529375Y-87670625D01*
X130020582Y-87998839D01*
X130453744Y-88085000D01*
X130746256Y-88085000D01*
X131179418Y-87998839D01*
X131670625Y-87670625D01*
X131998839Y-87179418D01*
X132007674Y-87135000D01*
X133126723Y-87135000D01*
X133242191Y-87307809D01*
X133452235Y-87448157D01*
X133700000Y-87497440D01*
X134465297Y-87497440D01*
X134403293Y-87590235D01*
X134354010Y-87838000D01*
X134354010Y-89362000D01*
X134403293Y-89609765D01*
X134543641Y-89819809D01*
X134753685Y-89960157D01*
X134954807Y-90000162D01*
X134756270Y-90132820D01*
X134447506Y-90594918D01*
X134339082Y-91140000D01*
X134447506Y-91685082D01*
X134756270Y-92147180D01*
X135149608Y-92410000D01*
X134756270Y-92672820D01*
X134447506Y-93134918D01*
X134339082Y-93680000D01*
X134447506Y-94225082D01*
X134756270Y-94687180D01*
X135149608Y-94950000D01*
X134756270Y-95212820D01*
X134447506Y-95674918D01*
X134339082Y-96220000D01*
X134447506Y-96765082D01*
X134756270Y-97227180D01*
X135149608Y-97490000D01*
X134756270Y-97752820D01*
X134447506Y-98214918D01*
X134339082Y-98760000D01*
X134447506Y-99305082D01*
X134756270Y-99767180D01*
X135149608Y-100030000D01*
X134756270Y-100292820D01*
X134447506Y-100754918D01*
X134339082Y-101300000D01*
X134447506Y-101845082D01*
X134756270Y-102307180D01*
X135149608Y-102570000D01*
X134756270Y-102832820D01*
X134447506Y-103294918D01*
X134339082Y-103840000D01*
X134447506Y-104385082D01*
X134756270Y-104847180D01*
X135149608Y-105110000D01*
X134756270Y-105372820D01*
X134447506Y-105834918D01*
X134339082Y-106380000D01*
X134447506Y-106925082D01*
X134756270Y-107387180D01*
X135149608Y-107650000D01*
X134756270Y-107912820D01*
X134447506Y-108374918D01*
X134339082Y-108920000D01*
X134447506Y-109465082D01*
X134756270Y-109927180D01*
X135166939Y-110201580D01*
X135111509Y-110217941D01*
X134685820Y-110561974D01*
X134424190Y-111042723D01*
X134409230Y-111116930D01*
X134531730Y-111333000D01*
X135973000Y-111333000D01*
X135973000Y-111313000D01*
X136227000Y-111313000D01*
X136227000Y-111333000D01*
X137668270Y-111333000D01*
X137790770Y-111116930D01*
X137775810Y-111042723D01*
X137514180Y-110561974D01*
X137088491Y-110217941D01*
X137033061Y-110201580D01*
X137443730Y-109927180D01*
X137752494Y-109465082D01*
X137860918Y-108920000D01*
X137752494Y-108374918D01*
X137443730Y-107912820D01*
X137050392Y-107650000D01*
X137443730Y-107387180D01*
X137752494Y-106925082D01*
X137860918Y-106380000D01*
X137752494Y-105834918D01*
X137443730Y-105372820D01*
X137050392Y-105110000D01*
X137443730Y-104847180D01*
X137752494Y-104385082D01*
X137860918Y-103840000D01*
X137752494Y-103294918D01*
X137443730Y-102832820D01*
X137050392Y-102570000D01*
X137443730Y-102307180D01*
X137752494Y-101845082D01*
X137860918Y-101300000D01*
X137752494Y-100754918D01*
X137443730Y-100292820D01*
X137050392Y-100030000D01*
X137443730Y-99767180D01*
X137752494Y-99305082D01*
X137860918Y-98760000D01*
X137752494Y-98214918D01*
X137443730Y-97752820D01*
X137050392Y-97490000D01*
X137443730Y-97227180D01*
X137752494Y-96765082D01*
X137860918Y-96220000D01*
X137752494Y-95674918D01*
X137443730Y-95212820D01*
X137050392Y-94950000D01*
X137443730Y-94687180D01*
X137752494Y-94225082D01*
X137860918Y-93680000D01*
X137752494Y-93134918D01*
X137443730Y-92672820D01*
X137050392Y-92410000D01*
X137443730Y-92147180D01*
X137752494Y-91685082D01*
X137860918Y-91140000D01*
X137752494Y-90594918D01*
X137443730Y-90132820D01*
X137245193Y-90000162D01*
X137446315Y-89960157D01*
X137656359Y-89819809D01*
X137796707Y-89609765D01*
X137845990Y-89362000D01*
X137845990Y-87838000D01*
X137796707Y-87590235D01*
X137726391Y-87485000D01*
X138026309Y-87485000D01*
X138259698Y-87388327D01*
X138438327Y-87209699D01*
X138535000Y-86976310D01*
X138535000Y-86485750D01*
X138376250Y-86327000D01*
X137277000Y-86327000D01*
X137277000Y-86347000D01*
X137023000Y-86347000D01*
X137023000Y-86327000D01*
X137003000Y-86327000D01*
X137003000Y-86073000D01*
X137023000Y-86073000D01*
X137023000Y-84327000D01*
X137277000Y-84327000D01*
X137277000Y-86073000D01*
X138376250Y-86073000D01*
X138535000Y-85914250D01*
X138535000Y-85423690D01*
X138442344Y-85200000D01*
X138535000Y-84976310D01*
X138535000Y-84485750D01*
X138376250Y-84327000D01*
X137277000Y-84327000D01*
X137023000Y-84327000D01*
X137003000Y-84327000D01*
X137003000Y-84073000D01*
X137023000Y-84073000D01*
X137023000Y-83073750D01*
X137277000Y-83073750D01*
X137277000Y-84073000D01*
X138376250Y-84073000D01*
X138535000Y-83914250D01*
X138535000Y-83423690D01*
X138438327Y-83190301D01*
X138259698Y-83011673D01*
X138026309Y-82915000D01*
X137435750Y-82915000D01*
X137277000Y-83073750D01*
X137023000Y-83073750D01*
X136864250Y-82915000D01*
X136273691Y-82915000D01*
X136040302Y-83011673D01*
X135861673Y-83190301D01*
X135803721Y-83330209D01*
X135798157Y-83302235D01*
X135657809Y-83092191D01*
X135447765Y-82951843D01*
X135200000Y-82902560D01*
X133700000Y-82902560D01*
X133452235Y-82951843D01*
X133242191Y-83092191D01*
X133126723Y-83265000D01*
X131854792Y-83265000D01*
X131670625Y-82989375D01*
X131372239Y-82790000D01*
X131670625Y-82590625D01*
X131998839Y-82099418D01*
X132063753Y-81773070D01*
X134309230Y-81773070D01*
X134324190Y-81847277D01*
X134585820Y-82328026D01*
X135011509Y-82672059D01*
X135536450Y-82827000D01*
X135873000Y-82827000D01*
X135873000Y-81557000D01*
X136127000Y-81557000D01*
X136127000Y-82827000D01*
X136463550Y-82827000D01*
X136988491Y-82672059D01*
X137414180Y-82328026D01*
X137675810Y-81847277D01*
X137690770Y-81773070D01*
X137568270Y-81557000D01*
X136127000Y-81557000D01*
X135873000Y-81557000D01*
X134431730Y-81557000D01*
X134309230Y-81773070D01*
X132063753Y-81773070D01*
X132114092Y-81520000D01*
X131998839Y-80940582D01*
X131670625Y-80449375D01*
X131179418Y-80121161D01*
X130746256Y-80035000D01*
X130453744Y-80035000D01*
X130020582Y-80121161D01*
X129529375Y-80449375D01*
X129517184Y-80467619D01*
X129508157Y-80422235D01*
X129367809Y-80212191D01*
X129157765Y-80071843D01*
X128910000Y-80022560D01*
X127210000Y-80022560D01*
X126962235Y-80071843D01*
X126752191Y-80212191D01*
X126611843Y-80422235D01*
X126562560Y-80670000D01*
X126562560Y-82370000D01*
X126611843Y-82617765D01*
X126752191Y-82827809D01*
X126825001Y-82876459D01*
X126825001Y-83235379D01*
X126661161Y-83480582D01*
X126545908Y-84060000D01*
X126661161Y-84639418D01*
X126825000Y-84884621D01*
X126825001Y-85775379D01*
X126661161Y-86020582D01*
X126545908Y-86600000D01*
X126661161Y-87179418D01*
X126989375Y-87670625D01*
X127025000Y-87694429D01*
X127025000Y-87911289D01*
X125971290Y-88965000D01*
X124813284Y-88965000D01*
X124603837Y-88825052D01*
X124301935Y-88765000D01*
X124301934Y-88765000D01*
X124200000Y-88744724D01*
X124098066Y-88765000D01*
X116435000Y-88765000D01*
X116435000Y-82814017D01*
X117465000Y-82814017D01*
X117465000Y-83185983D01*
X117607345Y-83529635D01*
X117870365Y-83792655D01*
X118214017Y-83935000D01*
X118585983Y-83935000D01*
X118800000Y-83846351D01*
X119014017Y-83935000D01*
X119385983Y-83935000D01*
X119600017Y-83846344D01*
X119814027Y-83934990D01*
X120185993Y-83934990D01*
X120529645Y-83792645D01*
X120537300Y-83784990D01*
X121662710Y-83784990D01*
X121670365Y-83792645D01*
X121908640Y-83891342D01*
X122007345Y-84129637D01*
X122270365Y-84392657D01*
X122508644Y-84491355D01*
X122607345Y-84729641D01*
X122870365Y-84992661D01*
X123214017Y-85135006D01*
X123585983Y-85135006D01*
X123929635Y-84992661D01*
X124192655Y-84729641D01*
X124335000Y-84385989D01*
X124335000Y-84014023D01*
X124192655Y-83670371D01*
X123929635Y-83407351D01*
X123691356Y-83308653D01*
X123592655Y-83070367D01*
X123329635Y-82807347D01*
X123091360Y-82708650D01*
X122992655Y-82470355D01*
X122729635Y-82207335D01*
X122385983Y-82064990D01*
X122014017Y-82064990D01*
X121670365Y-82207335D01*
X121662710Y-82214990D01*
X120537300Y-82214990D01*
X120529645Y-82207335D01*
X120185993Y-82064990D01*
X119814027Y-82064990D01*
X119599993Y-82153646D01*
X119385983Y-82065000D01*
X119014017Y-82065000D01*
X118800000Y-82153649D01*
X118585983Y-82065000D01*
X118214017Y-82065000D01*
X117870365Y-82207345D01*
X117607345Y-82470365D01*
X117465000Y-82814017D01*
X116435000Y-82814017D01*
X116435000Y-80498065D01*
X116374948Y-80196163D01*
X116146193Y-79853807D01*
X115803836Y-79625052D01*
X115400000Y-79544724D01*
X114996163Y-79625052D01*
X114653807Y-79853807D01*
X114425052Y-80196164D01*
X114365000Y-80498066D01*
X114365001Y-88765000D01*
X111898065Y-88765000D01*
X111596163Y-88825052D01*
X111253807Y-89053807D01*
X111025052Y-89396163D01*
X110944724Y-89800000D01*
X105735000Y-89800000D01*
X105735000Y-55711553D01*
X107011554Y-54435000D01*
X110321636Y-54435000D01*
X110681873Y-54363344D01*
X111090385Y-54090385D01*
X111363344Y-53681873D01*
X111459195Y-53200000D01*
X111419413Y-53000000D01*
X131740806Y-53000000D01*
X131765000Y-53121632D01*
X131765001Y-75878363D01*
X131740806Y-76000000D01*
X131836656Y-76481872D01*
X132040714Y-76787267D01*
X132040716Y-76787269D01*
X132109616Y-76890385D01*
X132212732Y-76959285D01*
X134262829Y-79009382D01*
X134347506Y-79435082D01*
X134656270Y-79897180D01*
X135066939Y-80171580D01*
X135011509Y-80187941D01*
X134585820Y-80531974D01*
X134324190Y-81012723D01*
X134309230Y-81086930D01*
X134431730Y-81303000D01*
X135873000Y-81303000D01*
X135873000Y-81283000D01*
X136127000Y-81283000D01*
X136127000Y-81303000D01*
X137568270Y-81303000D01*
X137690770Y-81086930D01*
X137675810Y-81012723D01*
X137414180Y-80531974D01*
X136988491Y-80187941D01*
X136933061Y-80171580D01*
X137343730Y-79897180D01*
X137652494Y-79435082D01*
X137760918Y-78890000D01*
X137652494Y-78344918D01*
X137343730Y-77882820D01*
X136950392Y-77620000D01*
X137343730Y-77357180D01*
X137652494Y-76895082D01*
X137760918Y-76350000D01*
X137652494Y-75804918D01*
X137343730Y-75342820D01*
X136950392Y-75080000D01*
X137343730Y-74817180D01*
X137652494Y-74355082D01*
X137760918Y-73810000D01*
X137652494Y-73264918D01*
X137343730Y-72802820D01*
X136950392Y-72540000D01*
X137343730Y-72277180D01*
X137652494Y-71815082D01*
X137760918Y-71270000D01*
X137652494Y-70724918D01*
X137343730Y-70262820D01*
X136950392Y-70000000D01*
X137343730Y-69737180D01*
X137652494Y-69275082D01*
X137760918Y-68730000D01*
X137652494Y-68184918D01*
X137343730Y-67722820D01*
X136950392Y-67460000D01*
X137343730Y-67197180D01*
X137652494Y-66735082D01*
X137760918Y-66190000D01*
X137652494Y-65644918D01*
X137343730Y-65182820D01*
X136950392Y-64920000D01*
X137343730Y-64657180D01*
X137652494Y-64195082D01*
X137760918Y-63650000D01*
X137652494Y-63104918D01*
X137343730Y-62642820D01*
X136950392Y-62380000D01*
X137343730Y-62117180D01*
X137652494Y-61655082D01*
X137760918Y-61110000D01*
X137652494Y-60564918D01*
X137343730Y-60102820D01*
X137145193Y-59970162D01*
X137346315Y-59930157D01*
X137556359Y-59789809D01*
X137696707Y-59579765D01*
X137745990Y-59332000D01*
X137745990Y-57808000D01*
X137696707Y-57560235D01*
X137556359Y-57350191D01*
X137346315Y-57209843D01*
X137098550Y-57160560D01*
X134901450Y-57160560D01*
X134653685Y-57209843D01*
X134443641Y-57350191D01*
X134303293Y-57560235D01*
X134254010Y-57808000D01*
X134254010Y-59332000D01*
X134303293Y-59579765D01*
X134443641Y-59789809D01*
X134653685Y-59930157D01*
X134854807Y-59970162D01*
X134656270Y-60102820D01*
X134347506Y-60564918D01*
X134239082Y-61110000D01*
X134347506Y-61655082D01*
X134656270Y-62117180D01*
X135049608Y-62380000D01*
X134656270Y-62642820D01*
X134347506Y-63104918D01*
X134239082Y-63650000D01*
X134347506Y-64195082D01*
X134656270Y-64657180D01*
X135049608Y-64920000D01*
X134656270Y-65182820D01*
X134347506Y-65644918D01*
X134239082Y-66190000D01*
X134347506Y-66735082D01*
X134656270Y-67197180D01*
X135049608Y-67460000D01*
X134656270Y-67722820D01*
X134347506Y-68184918D01*
X134239082Y-68730000D01*
X134347506Y-69275082D01*
X134656270Y-69737180D01*
X135049608Y-70000000D01*
X134656270Y-70262820D01*
X134347506Y-70724918D01*
X134239082Y-71270000D01*
X134347506Y-71815082D01*
X134656270Y-72277180D01*
X135049608Y-72540000D01*
X134656270Y-72802820D01*
X134347506Y-73264918D01*
X134239082Y-73810000D01*
X134347506Y-74355082D01*
X134656270Y-74817180D01*
X135049608Y-75080000D01*
X134656270Y-75342820D01*
X134429203Y-75682650D01*
X134235000Y-75488447D01*
X134235000Y-53511553D01*
X135281554Y-52465000D01*
X135380178Y-52465000D01*
X135442191Y-52557809D01*
X135652235Y-52698157D01*
X135697619Y-52707184D01*
X135679375Y-52719375D01*
X135351161Y-53210582D01*
X135235908Y-53790000D01*
X135351161Y-54369418D01*
X135679375Y-54860625D01*
X136170582Y-55188839D01*
X136603744Y-55275000D01*
X136896256Y-55275000D01*
X137329418Y-55188839D01*
X137820625Y-54860625D01*
X138148839Y-54369418D01*
X138264092Y-53790000D01*
X138148839Y-53210582D01*
X137820625Y-52719375D01*
X137802381Y-52707184D01*
X137847765Y-52698157D01*
X138057809Y-52557809D01*
X138198157Y-52347765D01*
X138247440Y-52100000D01*
X138247440Y-50400000D01*
X138198157Y-50152235D01*
X138057809Y-49942191D01*
X137847765Y-49801843D01*
X137600000Y-49752560D01*
X135900000Y-49752560D01*
X135652235Y-49801843D01*
X135442191Y-49942191D01*
X135406905Y-49995000D01*
X134891631Y-49995000D01*
X134769999Y-49970806D01*
X134648367Y-49995000D01*
X134648364Y-49995000D01*
X134288127Y-50066656D01*
X133982732Y-50270714D01*
X133982731Y-50270715D01*
X133879615Y-50339615D01*
X133810715Y-50442731D01*
X132212733Y-52040713D01*
X132109615Y-52109615D01*
X131836656Y-52518128D01*
X131765000Y-52878365D01*
X131765000Y-52878368D01*
X131740806Y-53000000D01*
X111419413Y-53000000D01*
X111363344Y-52718127D01*
X111090385Y-52309615D01*
X110681873Y-52036656D01*
X110321636Y-51965000D01*
X106621631Y-51965000D01*
X106499999Y-51940806D01*
X106378367Y-51965000D01*
X106378364Y-51965000D01*
X106115602Y-52017267D01*
X106018127Y-52036656D01*
X105712732Y-52240714D01*
X105712731Y-52240715D01*
X105609615Y-52309615D01*
X105540715Y-52412731D01*
X103712731Y-54240715D01*
X103609616Y-54309615D01*
X103540716Y-54412731D01*
X103540714Y-54412733D01*
X103336656Y-54718128D01*
X103240806Y-55200000D01*
X96822190Y-55200000D01*
X96822190Y-54078000D01*
X96772907Y-53830235D01*
X96632559Y-53620191D01*
X96422515Y-53479843D01*
X96174750Y-53430560D01*
X93977650Y-53430560D01*
X93729885Y-53479843D01*
X93519841Y-53620191D01*
X93379493Y-53830235D01*
X93330210Y-54078000D01*
X93330210Y-55602000D01*
X93379493Y-55849765D01*
X93519841Y-56059809D01*
X93729885Y-56200157D01*
X93931007Y-56240162D01*
X93732470Y-56372820D01*
X93423706Y-56834918D01*
X93315282Y-57380000D01*
X90710000Y-57380000D01*
X90710000Y-51270000D01*
X93315282Y-51270000D01*
X93423706Y-51815082D01*
X93732470Y-52277180D01*
X94194568Y-52585944D01*
X94602062Y-52667000D01*
X95550338Y-52667000D01*
X95957832Y-52585944D01*
X96419930Y-52277180D01*
X96728694Y-51815082D01*
X96837118Y-51270000D01*
X96728694Y-50724918D01*
X96419930Y-50262820D01*
X96216661Y-50127000D01*
X96301060Y-50127000D01*
X96534449Y-50030327D01*
X96713077Y-49851698D01*
X96809750Y-49618309D01*
X96809750Y-49015750D01*
X96651000Y-48857000D01*
X95203200Y-48857000D01*
X95203200Y-48877000D01*
X94949200Y-48877000D01*
X94949200Y-48857000D01*
X93501400Y-48857000D01*
X93342650Y-49015750D01*
X93342650Y-49618309D01*
X93439323Y-49851698D01*
X93617951Y-50030327D01*
X93851340Y-50127000D01*
X93935739Y-50127000D01*
X93732470Y-50262820D01*
X93423706Y-50724918D01*
X93315282Y-51270000D01*
X90710000Y-51270000D01*
X90710000Y-47841691D01*
X93342650Y-47841691D01*
X93342650Y-48444250D01*
X93501400Y-48603000D01*
X94949200Y-48603000D01*
X94949200Y-47491750D01*
X95203200Y-47491750D01*
X95203200Y-48603000D01*
X96651000Y-48603000D01*
X96809750Y-48444250D01*
X96809750Y-47841691D01*
X96713077Y-47608302D01*
X96534449Y-47429673D01*
X96301060Y-47333000D01*
X95361950Y-47333000D01*
X95203200Y-47491750D01*
X94949200Y-47491750D01*
X94790450Y-47333000D01*
X93851340Y-47333000D01*
X93617951Y-47429673D01*
X93439323Y-47608302D01*
X93342650Y-47841691D01*
X90710000Y-47841691D01*
X90710000Y-42416266D01*
X92763339Y-42416266D01*
X93075487Y-42864932D01*
X94318343Y-43383331D01*
X95664976Y-43386648D01*
X96910371Y-42874380D01*
X96924513Y-42864932D01*
X97236661Y-42416266D01*
X132763339Y-42416266D01*
X133075487Y-42864932D01*
X134318343Y-43383331D01*
X135664976Y-43386648D01*
X136910371Y-42874380D01*
X136924513Y-42864932D01*
X137236661Y-42416266D01*
X135000000Y-40179605D01*
X132763339Y-42416266D01*
X97236661Y-42416266D01*
X95000000Y-40179605D01*
X92763339Y-42416266D01*
X90710000Y-42416266D01*
X90710000Y-40664976D01*
X91613352Y-40664976D01*
X92125620Y-41910371D01*
X92135068Y-41924513D01*
X92583734Y-42236661D01*
X94820395Y-40000000D01*
X95179605Y-40000000D01*
X97416266Y-42236661D01*
X97864932Y-41924513D01*
X98383331Y-40681657D01*
X98383372Y-40664976D01*
X131613352Y-40664976D01*
X132125620Y-41910371D01*
X132135068Y-41924513D01*
X132583734Y-42236661D01*
X134820395Y-40000000D01*
X135179605Y-40000000D01*
X137416266Y-42236661D01*
X137864932Y-41924513D01*
X138383331Y-40681657D01*
X138386648Y-39335024D01*
X137874380Y-38089629D01*
X137864932Y-38075487D01*
X137416266Y-37763339D01*
X135179605Y-40000000D01*
X134820395Y-40000000D01*
X132583734Y-37763339D01*
X132135068Y-38075487D01*
X131616669Y-39318343D01*
X131613352Y-40664976D01*
X98383372Y-40664976D01*
X98386648Y-39335024D01*
X97874380Y-38089629D01*
X97864932Y-38075487D01*
X97416266Y-37763339D01*
X95179605Y-40000000D01*
X94820395Y-40000000D01*
X92583734Y-37763339D01*
X92135068Y-38075487D01*
X91616669Y-39318343D01*
X91613352Y-40664976D01*
X90710000Y-40664976D01*
X90710000Y-37583734D01*
X92763339Y-37583734D01*
X95000000Y-39820395D01*
X97236661Y-37583734D01*
X132763339Y-37583734D01*
X135000000Y-39820395D01*
X137236661Y-37583734D01*
X136924513Y-37135068D01*
X135681657Y-36616669D01*
X134335024Y-36613352D01*
X133089629Y-37125620D01*
X133075487Y-37135068D01*
X132763339Y-37583734D01*
X97236661Y-37583734D01*
X96924513Y-37135068D01*
X95681657Y-36616669D01*
X94335024Y-36613352D01*
X93089629Y-37125620D01*
X93075487Y-37135068D01*
X92763339Y-37583734D01*
X90710000Y-37583734D01*
X90710000Y-35710000D01*
X139290000Y-35710000D01*
X139290001Y-134290000D01*
X139290001Y-134290000D01*
G37*
X139290001Y-134290000D02*
X90710000Y-134290000D01*
X90710000Y-132416266D01*
X92763339Y-132416266D01*
X93075487Y-132864932D01*
X94318343Y-133383331D01*
X95664976Y-133386648D01*
X96910371Y-132874380D01*
X96924513Y-132864932D01*
X97236661Y-132416266D01*
X132763339Y-132416266D01*
X133075487Y-132864932D01*
X134318343Y-133383331D01*
X135664976Y-133386648D01*
X136910371Y-132874380D01*
X136924513Y-132864932D01*
X137236661Y-132416266D01*
X135000000Y-130179605D01*
X132763339Y-132416266D01*
X97236661Y-132416266D01*
X95000000Y-130179605D01*
X92763339Y-132416266D01*
X90710000Y-132416266D01*
X90710000Y-130664976D01*
X91613352Y-130664976D01*
X92125620Y-131910371D01*
X92135068Y-131924513D01*
X92583734Y-132236661D01*
X94820395Y-130000000D01*
X95179605Y-130000000D01*
X97416266Y-132236661D01*
X97864932Y-131924513D01*
X98383331Y-130681657D01*
X98383372Y-130664976D01*
X131613352Y-130664976D01*
X132125620Y-131910371D01*
X132135068Y-131924513D01*
X132583734Y-132236661D01*
X134820395Y-130000000D01*
X135179605Y-130000000D01*
X137416266Y-132236661D01*
X137864932Y-131924513D01*
X138383331Y-130681657D01*
X138386648Y-129335024D01*
X137874380Y-128089629D01*
X137864932Y-128075487D01*
X137416266Y-127763339D01*
X135179605Y-130000000D01*
X134820395Y-130000000D01*
X132583734Y-127763339D01*
X132135068Y-128075487D01*
X131616669Y-129318343D01*
X131613352Y-130664976D01*
X98383372Y-130664976D01*
X98386648Y-129335024D01*
X97874380Y-128089629D01*
X97864932Y-128075487D01*
X97416266Y-127763339D01*
X95179605Y-130000000D01*
X94820395Y-130000000D01*
X92583734Y-127763339D01*
X92135068Y-128075487D01*
X91616669Y-129318343D01*
X91613352Y-130664976D01*
X90710000Y-130664976D01*
X90710000Y-127583734D01*
X92763339Y-127583734D01*
X95000000Y-129820395D01*
X97236661Y-127583734D01*
X132763339Y-127583734D01*
X135000000Y-129820395D01*
X137236661Y-127583734D01*
X136924513Y-127135068D01*
X135681657Y-126616669D01*
X134335024Y-126613352D01*
X133089629Y-127125620D01*
X133075487Y-127135068D01*
X132763339Y-127583734D01*
X97236661Y-127583734D01*
X96924513Y-127135068D01*
X95681657Y-126616669D01*
X94335024Y-126613352D01*
X93089629Y-127125620D01*
X93075487Y-127135068D01*
X92763339Y-127583734D01*
X90710000Y-127583734D01*
X90710000Y-115503070D01*
X93385430Y-115503070D01*
X93400390Y-115577277D01*
X93662020Y-116058026D01*
X94087709Y-116402059D01*
X94612650Y-116557000D01*
X94949200Y-116557000D01*
X94949200Y-115287000D01*
X95203200Y-115287000D01*
X95203200Y-116557000D01*
X95539750Y-116557000D01*
X96064691Y-116402059D01*
X96490380Y-116058026D01*
X96752010Y-115577277D01*
X96766970Y-115503070D01*
X96644470Y-115287000D01*
X95203200Y-115287000D01*
X94949200Y-115287000D01*
X93507930Y-115287000D01*
X93385430Y-115503070D01*
X90710000Y-115503070D01*
X90710000Y-97380000D01*
X93315282Y-97380000D01*
X93423706Y-97925082D01*
X93732470Y-98387180D01*
X94125808Y-98650000D01*
X93732470Y-98912820D01*
X93423706Y-99374918D01*
X93315282Y-99920000D01*
X93423706Y-100465082D01*
X93732470Y-100927180D01*
X94125808Y-101190000D01*
X93732470Y-101452820D01*
X93423706Y-101914918D01*
X93315282Y-102460000D01*
X93423706Y-103005082D01*
X93732470Y-103467180D01*
X94125808Y-103730000D01*
X93732470Y-103992820D01*
X93423706Y-104454918D01*
X93315282Y-105000000D01*
X93423706Y-105545082D01*
X93732470Y-106007180D01*
X94125808Y-106270000D01*
X93732470Y-106532820D01*
X93423706Y-106994918D01*
X93315282Y-107540000D01*
X93423706Y-108085082D01*
X93732470Y-108547180D01*
X94125808Y-108810000D01*
X93732470Y-109072820D01*
X93423706Y-109534918D01*
X93315282Y-110080000D01*
X93423706Y-110625082D01*
X93732470Y-111087180D01*
X94125808Y-111350000D01*
X93732470Y-111612820D01*
X93423706Y-112074918D01*
X93315282Y-112620000D01*
X93423706Y-113165082D01*
X93732470Y-113627180D01*
X94143139Y-113901580D01*
X94087709Y-113917941D01*
X93662020Y-114261974D01*
X93400390Y-114742723D01*
X93385430Y-114816930D01*
X93507930Y-115033000D01*
X94949200Y-115033000D01*
X94949200Y-115013000D01*
X95203200Y-115013000D01*
X95203200Y-115033000D01*
X96644470Y-115033000D01*
X96766970Y-114816930D01*
X96752010Y-114742723D01*
X96490380Y-114261974D01*
X96064691Y-113917941D01*
X96009261Y-113901580D01*
X96419930Y-113627180D01*
X96728694Y-113165082D01*
X96837118Y-112620000D01*
X96728694Y-112074918D01*
X96419930Y-111612820D01*
X96026592Y-111350000D01*
X96419930Y-111087180D01*
X96728694Y-110625082D01*
X96837118Y-110080000D01*
X96728694Y-109534918D01*
X96419930Y-109072820D01*
X96026592Y-108810000D01*
X96419930Y-108547180D01*
X96728694Y-108085082D01*
X96837118Y-107540000D01*
X96728694Y-106994918D01*
X96419930Y-106532820D01*
X96026592Y-106270000D01*
X96419930Y-106007180D01*
X96728694Y-105545082D01*
X96837118Y-105000000D01*
X96728694Y-104454918D01*
X96419930Y-103992820D01*
X96026592Y-103730000D01*
X96419930Y-103467180D01*
X96728694Y-103005082D01*
X96837118Y-102460000D01*
X96728694Y-101914918D01*
X96419930Y-101452820D01*
X96026592Y-101190000D01*
X96419930Y-100927180D01*
X96728694Y-100465082D01*
X96837118Y-99920000D01*
X96728694Y-99374918D01*
X96419930Y-98912820D01*
X96026592Y-98650000D01*
X96419930Y-98387180D01*
X96728694Y-97925082D01*
X96837118Y-97380000D01*
X96728694Y-96834918D01*
X96419930Y-96372820D01*
X96221393Y-96240162D01*
X96422515Y-96200157D01*
X96632559Y-96059809D01*
X96772907Y-95849765D01*
X96822190Y-95602000D01*
X96822190Y-94078000D01*
X96772907Y-93830235D01*
X96632559Y-93620191D01*
X96422515Y-93479843D01*
X96174750Y-93430560D01*
X93977650Y-93430560D01*
X93729885Y-93479843D01*
X93519841Y-93620191D01*
X93379493Y-93830235D01*
X93330210Y-94078000D01*
X93330210Y-95602000D01*
X93379493Y-95849765D01*
X93519841Y-96059809D01*
X93729885Y-96200157D01*
X93931007Y-96240162D01*
X93732470Y-96372820D01*
X93423706Y-96834918D01*
X93315282Y-97380000D01*
X90710000Y-97380000D01*
X90710000Y-89810000D01*
X93315282Y-89810000D01*
X93423706Y-90355082D01*
X93732470Y-90817180D01*
X94194568Y-91125944D01*
X94602062Y-91207000D01*
X95550338Y-91207000D01*
X95957832Y-91125944D01*
X96419930Y-90817180D01*
X96728694Y-90355082D01*
X96837118Y-89810000D01*
X96728694Y-89264918D01*
X96419930Y-88802820D01*
X96009261Y-88528420D01*
X96064691Y-88512059D01*
X96490380Y-88168026D01*
X96752010Y-87687277D01*
X96766970Y-87613070D01*
X96644470Y-87397000D01*
X95203200Y-87397000D01*
X95203200Y-87417000D01*
X94949200Y-87417000D01*
X94949200Y-87397000D01*
X93507930Y-87397000D01*
X93385430Y-87613070D01*
X93400390Y-87687277D01*
X93662020Y-88168026D01*
X94087709Y-88512059D01*
X94143139Y-88528420D01*
X93732470Y-88802820D01*
X93423706Y-89264918D01*
X93315282Y-89810000D01*
X90710000Y-89810000D01*
X90710000Y-84730000D01*
X93315282Y-84730000D01*
X93423706Y-85275082D01*
X93732470Y-85737180D01*
X94143139Y-86011580D01*
X94087709Y-86027941D01*
X93662020Y-86371974D01*
X93400390Y-86852723D01*
X93385430Y-86926930D01*
X93507930Y-87143000D01*
X94949200Y-87143000D01*
X94949200Y-87123000D01*
X95203200Y-87123000D01*
X95203200Y-87143000D01*
X96644470Y-87143000D01*
X96766970Y-86926930D01*
X96752010Y-86852723D01*
X96490380Y-86371974D01*
X96064691Y-86027941D01*
X96009261Y-86011580D01*
X96419930Y-85737180D01*
X96728694Y-85275082D01*
X96837118Y-84730000D01*
X96728694Y-84184918D01*
X96419930Y-83722820D01*
X96221393Y-83590162D01*
X96422515Y-83550157D01*
X96632559Y-83409809D01*
X96772907Y-83199765D01*
X96822190Y-82952000D01*
X96822190Y-81428000D01*
X96772907Y-81180235D01*
X96632559Y-80970191D01*
X96422515Y-80829843D01*
X96174750Y-80780560D01*
X93977650Y-80780560D01*
X93729885Y-80829843D01*
X93519841Y-80970191D01*
X93379493Y-81180235D01*
X93330210Y-81428000D01*
X93330210Y-82952000D01*
X93379493Y-83199765D01*
X93519841Y-83409809D01*
X93729885Y-83550157D01*
X93931007Y-83590162D01*
X93732470Y-83722820D01*
X93423706Y-84184918D01*
X93315282Y-84730000D01*
X90710000Y-84730000D01*
X90710000Y-75503070D01*
X93385430Y-75503070D01*
X93400390Y-75577277D01*
X93662020Y-76058026D01*
X94087709Y-76402059D01*
X94612650Y-76557000D01*
X94949200Y-76557000D01*
X94949200Y-75287000D01*
X95203200Y-75287000D01*
X95203200Y-76557000D01*
X95539750Y-76557000D01*
X96064691Y-76402059D01*
X96490380Y-76058026D01*
X96752010Y-75577277D01*
X96766970Y-75503070D01*
X96644470Y-75287000D01*
X95203200Y-75287000D01*
X94949200Y-75287000D01*
X93507930Y-75287000D01*
X93385430Y-75503070D01*
X90710000Y-75503070D01*
X90710000Y-57380000D01*
X93315282Y-57380000D01*
X93423706Y-57925082D01*
X93732470Y-58387180D01*
X94125808Y-58650000D01*
X93732470Y-58912820D01*
X93423706Y-59374918D01*
X93315282Y-59920000D01*
X93423706Y-60465082D01*
X93732470Y-60927180D01*
X94125808Y-61190000D01*
X93732470Y-61452820D01*
X93423706Y-61914918D01*
X93315282Y-62460000D01*
X93423706Y-63005082D01*
X93732470Y-63467180D01*
X94125808Y-63730000D01*
X93732470Y-63992820D01*
X93423706Y-64454918D01*
X93315282Y-65000000D01*
X93423706Y-65545082D01*
X93732470Y-66007180D01*
X94125808Y-66270000D01*
X93732470Y-66532820D01*
X93423706Y-66994918D01*
X93315282Y-67540000D01*
X93423706Y-68085082D01*
X93732470Y-68547180D01*
X94125808Y-68810000D01*
X93732470Y-69072820D01*
X93423706Y-69534918D01*
X93315282Y-70080000D01*
X93423706Y-70625082D01*
X93732470Y-71087180D01*
X94125808Y-71350000D01*
X93732470Y-71612820D01*
X93423706Y-72074918D01*
X93315282Y-72620000D01*
X93423706Y-73165082D01*
X93732470Y-73627180D01*
X94143139Y-73901580D01*
X94087709Y-73917941D01*
X93662020Y-74261974D01*
X93400390Y-74742723D01*
X93385430Y-74816930D01*
X93507930Y-75033000D01*
X94949200Y-75033000D01*
X94949200Y-75013000D01*
X95203200Y-75013000D01*
X95203200Y-75033000D01*
X96644470Y-75033000D01*
X96766970Y-74816930D01*
X96752010Y-74742723D01*
X96490380Y-74261974D01*
X96064691Y-73917941D01*
X96009261Y-73901580D01*
X96419930Y-73627180D01*
X96728694Y-73165082D01*
X96837118Y-72620000D01*
X96728694Y-72074918D01*
X96419930Y-71612820D01*
X96026592Y-71350000D01*
X96419930Y-71087180D01*
X96728694Y-70625082D01*
X96837118Y-70080000D01*
X96728694Y-69534918D01*
X96419930Y-69072820D01*
X96026592Y-68810000D01*
X96419930Y-68547180D01*
X96728694Y-68085082D01*
X96837118Y-67540000D01*
X96728694Y-66994918D01*
X96419930Y-66532820D01*
X96026592Y-66270000D01*
X96419930Y-66007180D01*
X96728694Y-65545082D01*
X96837118Y-65000000D01*
X96728694Y-64454918D01*
X96419930Y-63992820D01*
X96026592Y-63730000D01*
X96419930Y-63467180D01*
X96728694Y-63005082D01*
X96837118Y-62460000D01*
X96728694Y-61914918D01*
X96419930Y-61452820D01*
X96026592Y-61190000D01*
X96419930Y-60927180D01*
X96728694Y-60465082D01*
X96837118Y-59920000D01*
X96728694Y-59374918D01*
X96419930Y-58912820D01*
X96026592Y-58650000D01*
X96419930Y-58387180D01*
X96728694Y-57925082D01*
X96837118Y-57380000D01*
X96728694Y-56834918D01*
X96419930Y-56372820D01*
X96221393Y-56240162D01*
X96422515Y-56200157D01*
X96632559Y-56059809D01*
X96772907Y-55849765D01*
X96822190Y-55602000D01*
X96822190Y-55200000D01*
X103240806Y-55200000D01*
X103265001Y-55321637D01*
X103265000Y-113878368D01*
X103240806Y-114000000D01*
X103265000Y-114121632D01*
X103265000Y-114121635D01*
X103336656Y-114481872D01*
X103609615Y-114890385D01*
X103712734Y-114959287D01*
X108330715Y-119577269D01*
X108399615Y-119680385D01*
X108502731Y-119749285D01*
X108502732Y-119749286D01*
X108669363Y-119860625D01*
X108808127Y-119953344D01*
X109168364Y-120025000D01*
X109168368Y-120025000D01*
X109290000Y-120049194D01*
X109411632Y-120025000D01*
X135275380Y-120025000D01*
X135520582Y-120188839D01*
X135953744Y-120275000D01*
X136246256Y-120275000D01*
X136679418Y-120188839D01*
X137170625Y-119860625D01*
X137498839Y-119369418D01*
X137614092Y-118790000D01*
X137498839Y-118210582D01*
X137170625Y-117719375D01*
X137152381Y-117707184D01*
X137197765Y-117698157D01*
X137407809Y-117557809D01*
X137548157Y-117347765D01*
X137597440Y-117100000D01*
X137597440Y-115400000D01*
X137548157Y-115152235D01*
X137407809Y-114942191D01*
X137197765Y-114801843D01*
X136950000Y-114752560D01*
X135250000Y-114752560D01*
X135002235Y-114801843D01*
X134792191Y-114942191D01*
X134651843Y-115152235D01*
X134602560Y-115400000D01*
X134602560Y-117100000D01*
X134651843Y-117347765D01*
X134790314Y-117555000D01*
X109801554Y-117555000D01*
X105735000Y-113488447D01*
X105735000Y-111803070D01*
X134409230Y-111803070D01*
X134424190Y-111877277D01*
X134685820Y-112358026D01*
X135111509Y-112702059D01*
X135636450Y-112857000D01*
X135973000Y-112857000D01*
X135973000Y-111587000D01*
X136227000Y-111587000D01*
X136227000Y-112857000D01*
X136563550Y-112857000D01*
X137088491Y-112702059D01*
X137514180Y-112358026D01*
X137775810Y-111877277D01*
X137790770Y-111803070D01*
X137668270Y-111587000D01*
X136227000Y-111587000D01*
X135973000Y-111587000D01*
X134531730Y-111587000D01*
X134409230Y-111803070D01*
X105735000Y-111803070D01*
X105735000Y-94735750D01*
X123140000Y-94735750D01*
X123140000Y-95326309D01*
X123236673Y-95559698D01*
X123415301Y-95738327D01*
X123648690Y-95835000D01*
X124114250Y-95835000D01*
X124273000Y-95676250D01*
X124273000Y-94577000D01*
X124527000Y-94577000D01*
X124527000Y-95676250D01*
X124685750Y-95835000D01*
X125151310Y-95835000D01*
X125384699Y-95738327D01*
X125500000Y-95623025D01*
X125615301Y-95738327D01*
X125848690Y-95835000D01*
X126314250Y-95835000D01*
X126473000Y-95676250D01*
X126473000Y-94577000D01*
X126727000Y-94577000D01*
X126727000Y-95676250D01*
X126885750Y-95835000D01*
X127351310Y-95835000D01*
X127584699Y-95738327D01*
X127763327Y-95559698D01*
X127860000Y-95326309D01*
X127860000Y-94735750D01*
X127701250Y-94577000D01*
X126727000Y-94577000D01*
X126473000Y-94577000D01*
X124527000Y-94577000D01*
X124273000Y-94577000D01*
X123298750Y-94577000D01*
X123140000Y-94735750D01*
X105735000Y-94735750D01*
X105735000Y-89800000D01*
X110944724Y-89800000D01*
X111025052Y-90203837D01*
X111253807Y-90546193D01*
X111596163Y-90774948D01*
X111898065Y-90835000D01*
X115298066Y-90835000D01*
X115400000Y-90855276D01*
X115501935Y-90835000D01*
X123255178Y-90835000D01*
X123176843Y-90952235D01*
X123127560Y-91200000D01*
X123127560Y-92700000D01*
X123176843Y-92947765D01*
X123317191Y-93157809D01*
X123378320Y-93198654D01*
X123236673Y-93340302D01*
X123140000Y-93573691D01*
X123140000Y-94164250D01*
X123298750Y-94323000D01*
X124273000Y-94323000D01*
X124273000Y-94303000D01*
X124527000Y-94303000D01*
X124527000Y-94323000D01*
X126473000Y-94323000D01*
X126473000Y-94303000D01*
X126727000Y-94303000D01*
X126727000Y-94323000D01*
X127701250Y-94323000D01*
X127860000Y-94164250D01*
X127860000Y-93573691D01*
X127763327Y-93340302D01*
X127621680Y-93198654D01*
X127682809Y-93157809D01*
X127823157Y-92947765D01*
X127872440Y-92700000D01*
X127872440Y-91200000D01*
X127823157Y-90952235D01*
X127682809Y-90742191D01*
X127635000Y-90710246D01*
X127635000Y-90301934D01*
X127653182Y-90210529D01*
X128719776Y-89143935D01*
X128806193Y-89086193D01*
X129034948Y-88743837D01*
X129095000Y-88441935D01*
X129095000Y-88441934D01*
X129115276Y-88340000D01*
X129095000Y-88238066D01*
X129095000Y-87694429D01*
X129130625Y-87670625D01*
X129330000Y-87372239D01*
X129529375Y-87670625D01*
X130020582Y-87998839D01*
X130453744Y-88085000D01*
X130746256Y-88085000D01*
X131179418Y-87998839D01*
X131670625Y-87670625D01*
X131998839Y-87179418D01*
X132007674Y-87135000D01*
X133126723Y-87135000D01*
X133242191Y-87307809D01*
X133452235Y-87448157D01*
X133700000Y-87497440D01*
X134465297Y-87497440D01*
X134403293Y-87590235D01*
X134354010Y-87838000D01*
X134354010Y-89362000D01*
X134403293Y-89609765D01*
X134543641Y-89819809D01*
X134753685Y-89960157D01*
X134954807Y-90000162D01*
X134756270Y-90132820D01*
X134447506Y-90594918D01*
X134339082Y-91140000D01*
X134447506Y-91685082D01*
X134756270Y-92147180D01*
X135149608Y-92410000D01*
X134756270Y-92672820D01*
X134447506Y-93134918D01*
X134339082Y-93680000D01*
X134447506Y-94225082D01*
X134756270Y-94687180D01*
X135149608Y-94950000D01*
X134756270Y-95212820D01*
X134447506Y-95674918D01*
X134339082Y-96220000D01*
X134447506Y-96765082D01*
X134756270Y-97227180D01*
X135149608Y-97490000D01*
X134756270Y-97752820D01*
X134447506Y-98214918D01*
X134339082Y-98760000D01*
X134447506Y-99305082D01*
X134756270Y-99767180D01*
X135149608Y-100030000D01*
X134756270Y-100292820D01*
X134447506Y-100754918D01*
X134339082Y-101300000D01*
X134447506Y-101845082D01*
X134756270Y-102307180D01*
X135149608Y-102570000D01*
X134756270Y-102832820D01*
X134447506Y-103294918D01*
X134339082Y-103840000D01*
X134447506Y-104385082D01*
X134756270Y-104847180D01*
X135149608Y-105110000D01*
X134756270Y-105372820D01*
X134447506Y-105834918D01*
X134339082Y-106380000D01*
X134447506Y-106925082D01*
X134756270Y-107387180D01*
X135149608Y-107650000D01*
X134756270Y-107912820D01*
X134447506Y-108374918D01*
X134339082Y-108920000D01*
X134447506Y-109465082D01*
X134756270Y-109927180D01*
X135166939Y-110201580D01*
X135111509Y-110217941D01*
X134685820Y-110561974D01*
X134424190Y-111042723D01*
X134409230Y-111116930D01*
X134531730Y-111333000D01*
X135973000Y-111333000D01*
X135973000Y-111313000D01*
X136227000Y-111313000D01*
X136227000Y-111333000D01*
X137668270Y-111333000D01*
X137790770Y-111116930D01*
X137775810Y-111042723D01*
X137514180Y-110561974D01*
X137088491Y-110217941D01*
X137033061Y-110201580D01*
X137443730Y-109927180D01*
X137752494Y-109465082D01*
X137860918Y-108920000D01*
X137752494Y-108374918D01*
X137443730Y-107912820D01*
X137050392Y-107650000D01*
X137443730Y-107387180D01*
X137752494Y-106925082D01*
X137860918Y-106380000D01*
X137752494Y-105834918D01*
X137443730Y-105372820D01*
X137050392Y-105110000D01*
X137443730Y-104847180D01*
X137752494Y-104385082D01*
X137860918Y-103840000D01*
X137752494Y-103294918D01*
X137443730Y-102832820D01*
X137050392Y-102570000D01*
X137443730Y-102307180D01*
X137752494Y-101845082D01*
X137860918Y-101300000D01*
X137752494Y-100754918D01*
X137443730Y-100292820D01*
X137050392Y-100030000D01*
X137443730Y-99767180D01*
X137752494Y-99305082D01*
X137860918Y-98760000D01*
X137752494Y-98214918D01*
X137443730Y-97752820D01*
X137050392Y-97490000D01*
X137443730Y-97227180D01*
X137752494Y-96765082D01*
X137860918Y-96220000D01*
X137752494Y-95674918D01*
X137443730Y-95212820D01*
X137050392Y-94950000D01*
X137443730Y-94687180D01*
X137752494Y-94225082D01*
X137860918Y-93680000D01*
X137752494Y-93134918D01*
X137443730Y-92672820D01*
X137050392Y-92410000D01*
X137443730Y-92147180D01*
X137752494Y-91685082D01*
X137860918Y-91140000D01*
X137752494Y-90594918D01*
X137443730Y-90132820D01*
X137245193Y-90000162D01*
X137446315Y-89960157D01*
X137656359Y-89819809D01*
X137796707Y-89609765D01*
X137845990Y-89362000D01*
X137845990Y-87838000D01*
X137796707Y-87590235D01*
X137726391Y-87485000D01*
X138026309Y-87485000D01*
X138259698Y-87388327D01*
X138438327Y-87209699D01*
X138535000Y-86976310D01*
X138535000Y-86485750D01*
X138376250Y-86327000D01*
X137277000Y-86327000D01*
X137277000Y-86347000D01*
X137023000Y-86347000D01*
X137023000Y-86327000D01*
X137003000Y-86327000D01*
X137003000Y-86073000D01*
X137023000Y-86073000D01*
X137023000Y-84327000D01*
X137277000Y-84327000D01*
X137277000Y-86073000D01*
X138376250Y-86073000D01*
X138535000Y-85914250D01*
X138535000Y-85423690D01*
X138442344Y-85200000D01*
X138535000Y-84976310D01*
X138535000Y-84485750D01*
X138376250Y-84327000D01*
X137277000Y-84327000D01*
X137023000Y-84327000D01*
X137003000Y-84327000D01*
X137003000Y-84073000D01*
X137023000Y-84073000D01*
X137023000Y-83073750D01*
X137277000Y-83073750D01*
X137277000Y-84073000D01*
X138376250Y-84073000D01*
X138535000Y-83914250D01*
X138535000Y-83423690D01*
X138438327Y-83190301D01*
X138259698Y-83011673D01*
X138026309Y-82915000D01*
X137435750Y-82915000D01*
X137277000Y-83073750D01*
X137023000Y-83073750D01*
X136864250Y-82915000D01*
X136273691Y-82915000D01*
X136040302Y-83011673D01*
X135861673Y-83190301D01*
X135803721Y-83330209D01*
X135798157Y-83302235D01*
X135657809Y-83092191D01*
X135447765Y-82951843D01*
X135200000Y-82902560D01*
X133700000Y-82902560D01*
X133452235Y-82951843D01*
X133242191Y-83092191D01*
X133126723Y-83265000D01*
X131854792Y-83265000D01*
X131670625Y-82989375D01*
X131372239Y-82790000D01*
X131670625Y-82590625D01*
X131998839Y-82099418D01*
X132063753Y-81773070D01*
X134309230Y-81773070D01*
X134324190Y-81847277D01*
X134585820Y-82328026D01*
X135011509Y-82672059D01*
X135536450Y-82827000D01*
X135873000Y-82827000D01*
X135873000Y-81557000D01*
X136127000Y-81557000D01*
X136127000Y-82827000D01*
X136463550Y-82827000D01*
X136988491Y-82672059D01*
X137414180Y-82328026D01*
X137675810Y-81847277D01*
X137690770Y-81773070D01*
X137568270Y-81557000D01*
X136127000Y-81557000D01*
X135873000Y-81557000D01*
X134431730Y-81557000D01*
X134309230Y-81773070D01*
X132063753Y-81773070D01*
X132114092Y-81520000D01*
X131998839Y-80940582D01*
X131670625Y-80449375D01*
X131179418Y-80121161D01*
X130746256Y-80035000D01*
X130453744Y-80035000D01*
X130020582Y-80121161D01*
X129529375Y-80449375D01*
X129517184Y-80467619D01*
X129508157Y-80422235D01*
X129367809Y-80212191D01*
X129157765Y-80071843D01*
X128910000Y-80022560D01*
X127210000Y-80022560D01*
X126962235Y-80071843D01*
X126752191Y-80212191D01*
X126611843Y-80422235D01*
X126562560Y-80670000D01*
X126562560Y-82370000D01*
X126611843Y-82617765D01*
X126752191Y-82827809D01*
X126825001Y-82876459D01*
X126825001Y-83235379D01*
X126661161Y-83480582D01*
X126545908Y-84060000D01*
X126661161Y-84639418D01*
X126825000Y-84884621D01*
X126825001Y-85775379D01*
X126661161Y-86020582D01*
X126545908Y-86600000D01*
X126661161Y-87179418D01*
X126989375Y-87670625D01*
X127025000Y-87694429D01*
X127025000Y-87911289D01*
X125971290Y-88965000D01*
X124813284Y-88965000D01*
X124603837Y-88825052D01*
X124301935Y-88765000D01*
X124301934Y-88765000D01*
X124200000Y-88744724D01*
X124098066Y-88765000D01*
X116435000Y-88765000D01*
X116435000Y-82814017D01*
X117465000Y-82814017D01*
X117465000Y-83185983D01*
X117607345Y-83529635D01*
X117870365Y-83792655D01*
X118214017Y-83935000D01*
X118585983Y-83935000D01*
X118800000Y-83846351D01*
X119014017Y-83935000D01*
X119385983Y-83935000D01*
X119600017Y-83846344D01*
X119814027Y-83934990D01*
X120185993Y-83934990D01*
X120529645Y-83792645D01*
X120537300Y-83784990D01*
X121662710Y-83784990D01*
X121670365Y-83792645D01*
X121908640Y-83891342D01*
X122007345Y-84129637D01*
X122270365Y-84392657D01*
X122508644Y-84491355D01*
X122607345Y-84729641D01*
X122870365Y-84992661D01*
X123214017Y-85135006D01*
X123585983Y-85135006D01*
X123929635Y-84992661D01*
X124192655Y-84729641D01*
X124335000Y-84385989D01*
X124335000Y-84014023D01*
X124192655Y-83670371D01*
X123929635Y-83407351D01*
X123691356Y-83308653D01*
X123592655Y-83070367D01*
X123329635Y-82807347D01*
X123091360Y-82708650D01*
X122992655Y-82470355D01*
X122729635Y-82207335D01*
X122385983Y-82064990D01*
X122014017Y-82064990D01*
X121670365Y-82207335D01*
X121662710Y-82214990D01*
X120537300Y-82214990D01*
X120529645Y-82207335D01*
X120185993Y-82064990D01*
X119814027Y-82064990D01*
X119599993Y-82153646D01*
X119385983Y-82065000D01*
X119014017Y-82065000D01*
X118800000Y-82153649D01*
X118585983Y-82065000D01*
X118214017Y-82065000D01*
X117870365Y-82207345D01*
X117607345Y-82470365D01*
X117465000Y-82814017D01*
X116435000Y-82814017D01*
X116435000Y-80498065D01*
X116374948Y-80196163D01*
X116146193Y-79853807D01*
X115803836Y-79625052D01*
X115400000Y-79544724D01*
X114996163Y-79625052D01*
X114653807Y-79853807D01*
X114425052Y-80196164D01*
X114365000Y-80498066D01*
X114365001Y-88765000D01*
X111898065Y-88765000D01*
X111596163Y-88825052D01*
X111253807Y-89053807D01*
X111025052Y-89396163D01*
X110944724Y-89800000D01*
X105735000Y-89800000D01*
X105735000Y-55711553D01*
X107011554Y-54435000D01*
X110321636Y-54435000D01*
X110681873Y-54363344D01*
X111090385Y-54090385D01*
X111363344Y-53681873D01*
X111459195Y-53200000D01*
X111419413Y-53000000D01*
X131740806Y-53000000D01*
X131765000Y-53121632D01*
X131765001Y-75878363D01*
X131740806Y-76000000D01*
X131836656Y-76481872D01*
X132040714Y-76787267D01*
X132040716Y-76787269D01*
X132109616Y-76890385D01*
X132212732Y-76959285D01*
X134262829Y-79009382D01*
X134347506Y-79435082D01*
X134656270Y-79897180D01*
X135066939Y-80171580D01*
X135011509Y-80187941D01*
X134585820Y-80531974D01*
X134324190Y-81012723D01*
X134309230Y-81086930D01*
X134431730Y-81303000D01*
X135873000Y-81303000D01*
X135873000Y-81283000D01*
X136127000Y-81283000D01*
X136127000Y-81303000D01*
X137568270Y-81303000D01*
X137690770Y-81086930D01*
X137675810Y-81012723D01*
X137414180Y-80531974D01*
X136988491Y-80187941D01*
X136933061Y-80171580D01*
X137343730Y-79897180D01*
X137652494Y-79435082D01*
X137760918Y-78890000D01*
X137652494Y-78344918D01*
X137343730Y-77882820D01*
X136950392Y-77620000D01*
X137343730Y-77357180D01*
X137652494Y-76895082D01*
X137760918Y-76350000D01*
X137652494Y-75804918D01*
X137343730Y-75342820D01*
X136950392Y-75080000D01*
X137343730Y-74817180D01*
X137652494Y-74355082D01*
X137760918Y-73810000D01*
X137652494Y-73264918D01*
X137343730Y-72802820D01*
X136950392Y-72540000D01*
X137343730Y-72277180D01*
X137652494Y-71815082D01*
X137760918Y-71270000D01*
X137652494Y-70724918D01*
X137343730Y-70262820D01*
X136950392Y-70000000D01*
X137343730Y-69737180D01*
X137652494Y-69275082D01*
X137760918Y-68730000D01*
X137652494Y-68184918D01*
X137343730Y-67722820D01*
X136950392Y-67460000D01*
X137343730Y-67197180D01*
X137652494Y-66735082D01*
X137760918Y-66190000D01*
X137652494Y-65644918D01*
X137343730Y-65182820D01*
X136950392Y-64920000D01*
X137343730Y-64657180D01*
X137652494Y-64195082D01*
X137760918Y-63650000D01*
X137652494Y-63104918D01*
X137343730Y-62642820D01*
X136950392Y-62380000D01*
X137343730Y-62117180D01*
X137652494Y-61655082D01*
X137760918Y-61110000D01*
X137652494Y-60564918D01*
X137343730Y-60102820D01*
X137145193Y-59970162D01*
X137346315Y-59930157D01*
X137556359Y-59789809D01*
X137696707Y-59579765D01*
X137745990Y-59332000D01*
X137745990Y-57808000D01*
X137696707Y-57560235D01*
X137556359Y-57350191D01*
X137346315Y-57209843D01*
X137098550Y-57160560D01*
X134901450Y-57160560D01*
X134653685Y-57209843D01*
X134443641Y-57350191D01*
X134303293Y-57560235D01*
X134254010Y-57808000D01*
X134254010Y-59332000D01*
X134303293Y-59579765D01*
X134443641Y-59789809D01*
X134653685Y-59930157D01*
X134854807Y-59970162D01*
X134656270Y-60102820D01*
X134347506Y-60564918D01*
X134239082Y-61110000D01*
X134347506Y-61655082D01*
X134656270Y-62117180D01*
X135049608Y-62380000D01*
X134656270Y-62642820D01*
X134347506Y-63104918D01*
X134239082Y-63650000D01*
X134347506Y-64195082D01*
X134656270Y-64657180D01*
X135049608Y-64920000D01*
X134656270Y-65182820D01*
X134347506Y-65644918D01*
X134239082Y-66190000D01*
X134347506Y-66735082D01*
X134656270Y-67197180D01*
X135049608Y-67460000D01*
X134656270Y-67722820D01*
X134347506Y-68184918D01*
X134239082Y-68730000D01*
X134347506Y-69275082D01*
X134656270Y-69737180D01*
X135049608Y-70000000D01*
X134656270Y-70262820D01*
X134347506Y-70724918D01*
X134239082Y-71270000D01*
X134347506Y-71815082D01*
X134656270Y-72277180D01*
X135049608Y-72540000D01*
X134656270Y-72802820D01*
X134347506Y-73264918D01*
X134239082Y-73810000D01*
X134347506Y-74355082D01*
X134656270Y-74817180D01*
X135049608Y-75080000D01*
X134656270Y-75342820D01*
X134429203Y-75682650D01*
X134235000Y-75488447D01*
X134235000Y-53511553D01*
X135281554Y-52465000D01*
X135380178Y-52465000D01*
X135442191Y-52557809D01*
X135652235Y-52698157D01*
X135697619Y-52707184D01*
X135679375Y-52719375D01*
X135351161Y-53210582D01*
X135235908Y-53790000D01*
X135351161Y-54369418D01*
X135679375Y-54860625D01*
X136170582Y-55188839D01*
X136603744Y-55275000D01*
X136896256Y-55275000D01*
X137329418Y-55188839D01*
X137820625Y-54860625D01*
X138148839Y-54369418D01*
X138264092Y-53790000D01*
X138148839Y-53210582D01*
X137820625Y-52719375D01*
X137802381Y-52707184D01*
X137847765Y-52698157D01*
X138057809Y-52557809D01*
X138198157Y-52347765D01*
X138247440Y-52100000D01*
X138247440Y-50400000D01*
X138198157Y-50152235D01*
X138057809Y-49942191D01*
X137847765Y-49801843D01*
X137600000Y-49752560D01*
X135900000Y-49752560D01*
X135652235Y-49801843D01*
X135442191Y-49942191D01*
X135406905Y-49995000D01*
X134891631Y-49995000D01*
X134769999Y-49970806D01*
X134648367Y-49995000D01*
X134648364Y-49995000D01*
X134288127Y-50066656D01*
X133982732Y-50270714D01*
X133982731Y-50270715D01*
X133879615Y-50339615D01*
X133810715Y-50442731D01*
X132212733Y-52040713D01*
X132109615Y-52109615D01*
X131836656Y-52518128D01*
X131765000Y-52878365D01*
X131765000Y-52878368D01*
X131740806Y-53000000D01*
X111419413Y-53000000D01*
X111363344Y-52718127D01*
X111090385Y-52309615D01*
X110681873Y-52036656D01*
X110321636Y-51965000D01*
X106621631Y-51965000D01*
X106499999Y-51940806D01*
X106378367Y-51965000D01*
X106378364Y-51965000D01*
X106115602Y-52017267D01*
X106018127Y-52036656D01*
X105712732Y-52240714D01*
X105712731Y-52240715D01*
X105609615Y-52309615D01*
X105540715Y-52412731D01*
X103712731Y-54240715D01*
X103609616Y-54309615D01*
X103540716Y-54412731D01*
X103540714Y-54412733D01*
X103336656Y-54718128D01*
X103240806Y-55200000D01*
X96822190Y-55200000D01*
X96822190Y-54078000D01*
X96772907Y-53830235D01*
X96632559Y-53620191D01*
X96422515Y-53479843D01*
X96174750Y-53430560D01*
X93977650Y-53430560D01*
X93729885Y-53479843D01*
X93519841Y-53620191D01*
X93379493Y-53830235D01*
X93330210Y-54078000D01*
X93330210Y-55602000D01*
X93379493Y-55849765D01*
X93519841Y-56059809D01*
X93729885Y-56200157D01*
X93931007Y-56240162D01*
X93732470Y-56372820D01*
X93423706Y-56834918D01*
X93315282Y-57380000D01*
X90710000Y-57380000D01*
X90710000Y-51270000D01*
X93315282Y-51270000D01*
X93423706Y-51815082D01*
X93732470Y-52277180D01*
X94194568Y-52585944D01*
X94602062Y-52667000D01*
X95550338Y-52667000D01*
X95957832Y-52585944D01*
X96419930Y-52277180D01*
X96728694Y-51815082D01*
X96837118Y-51270000D01*
X96728694Y-50724918D01*
X96419930Y-50262820D01*
X96216661Y-50127000D01*
X96301060Y-50127000D01*
X96534449Y-50030327D01*
X96713077Y-49851698D01*
X96809750Y-49618309D01*
X96809750Y-49015750D01*
X96651000Y-48857000D01*
X95203200Y-48857000D01*
X95203200Y-48877000D01*
X94949200Y-48877000D01*
X94949200Y-48857000D01*
X93501400Y-48857000D01*
X93342650Y-49015750D01*
X93342650Y-49618309D01*
X93439323Y-49851698D01*
X93617951Y-50030327D01*
X93851340Y-50127000D01*
X93935739Y-50127000D01*
X93732470Y-50262820D01*
X93423706Y-50724918D01*
X93315282Y-51270000D01*
X90710000Y-51270000D01*
X90710000Y-47841691D01*
X93342650Y-47841691D01*
X93342650Y-48444250D01*
X93501400Y-48603000D01*
X94949200Y-48603000D01*
X94949200Y-47491750D01*
X95203200Y-47491750D01*
X95203200Y-48603000D01*
X96651000Y-48603000D01*
X96809750Y-48444250D01*
X96809750Y-47841691D01*
X96713077Y-47608302D01*
X96534449Y-47429673D01*
X96301060Y-47333000D01*
X95361950Y-47333000D01*
X95203200Y-47491750D01*
X94949200Y-47491750D01*
X94790450Y-47333000D01*
X93851340Y-47333000D01*
X93617951Y-47429673D01*
X93439323Y-47608302D01*
X93342650Y-47841691D01*
X90710000Y-47841691D01*
X90710000Y-42416266D01*
X92763339Y-42416266D01*
X93075487Y-42864932D01*
X94318343Y-43383331D01*
X95664976Y-43386648D01*
X96910371Y-42874380D01*
X96924513Y-42864932D01*
X97236661Y-42416266D01*
X132763339Y-42416266D01*
X133075487Y-42864932D01*
X134318343Y-43383331D01*
X135664976Y-43386648D01*
X136910371Y-42874380D01*
X136924513Y-42864932D01*
X137236661Y-42416266D01*
X135000000Y-40179605D01*
X132763339Y-42416266D01*
X97236661Y-42416266D01*
X95000000Y-40179605D01*
X92763339Y-42416266D01*
X90710000Y-42416266D01*
X90710000Y-40664976D01*
X91613352Y-40664976D01*
X92125620Y-41910371D01*
X92135068Y-41924513D01*
X92583734Y-42236661D01*
X94820395Y-40000000D01*
X95179605Y-40000000D01*
X97416266Y-42236661D01*
X97864932Y-41924513D01*
X98383331Y-40681657D01*
X98383372Y-40664976D01*
X131613352Y-40664976D01*
X132125620Y-41910371D01*
X132135068Y-41924513D01*
X132583734Y-42236661D01*
X134820395Y-40000000D01*
X135179605Y-40000000D01*
X137416266Y-42236661D01*
X137864932Y-41924513D01*
X138383331Y-40681657D01*
X138386648Y-39335024D01*
X137874380Y-38089629D01*
X137864932Y-38075487D01*
X137416266Y-37763339D01*
X135179605Y-40000000D01*
X134820395Y-40000000D01*
X132583734Y-37763339D01*
X132135068Y-38075487D01*
X131616669Y-39318343D01*
X131613352Y-40664976D01*
X98383372Y-40664976D01*
X98386648Y-39335024D01*
X97874380Y-38089629D01*
X97864932Y-38075487D01*
X97416266Y-37763339D01*
X95179605Y-40000000D01*
X94820395Y-40000000D01*
X92583734Y-37763339D01*
X92135068Y-38075487D01*
X91616669Y-39318343D01*
X91613352Y-40664976D01*
X90710000Y-40664976D01*
X90710000Y-37583734D01*
X92763339Y-37583734D01*
X95000000Y-39820395D01*
X97236661Y-37583734D01*
X132763339Y-37583734D01*
X135000000Y-39820395D01*
X137236661Y-37583734D01*
X136924513Y-37135068D01*
X135681657Y-36616669D01*
X134335024Y-36613352D01*
X133089629Y-37125620D01*
X133075487Y-37135068D01*
X132763339Y-37583734D01*
X97236661Y-37583734D01*
X96924513Y-37135068D01*
X95681657Y-36616669D01*
X94335024Y-36613352D01*
X93089629Y-37125620D01*
X93075487Y-37135068D01*
X92763339Y-37583734D01*
X90710000Y-37583734D01*
X90710000Y-35710000D01*
X139290000Y-35710000D01*
X139290001Y-134290000D01*
G04 #@! TD*
M02*
