G04 #@! TF.GenerationSoftware,KiCad,Pcbnew,(5.0.2)-1*
G04 #@! TF.CreationDate,2019-03-14T17:23:15+01:00*
G04 #@! TF.ProjectId,Alexi2c,416c6578-6932-4632-9e6b-696361645f70,rev?*
G04 #@! TF.SameCoordinates,Original*
G04 #@! TF.FileFunction,Copper,L1,Top*
G04 #@! TF.FilePolarity,Positive*
%FSLAX46Y46*%
G04 Gerber Fmt 4.6, Leading zero omitted, Abs format (unit mm)*
G04 Created by KiCad (PCBNEW (5.0.2)-1) date 14/03/2019 17:23:15*
%MOMM*%
%LPD*%
G01*
G04 APERTURE LIST*
G04 #@! TA.AperFunction,NonConductor*
%ADD10C,0.150000*%
G04 #@! TD*
G04 #@! TA.AperFunction,ComponentPad*
%ADD11O,2.197100X1.524000*%
G04 #@! TD*
G04 #@! TA.AperFunction,ComponentPad*
%ADD12R,2.197100X1.524000*%
G04 #@! TD*
G04 #@! TA.AperFunction,ViaPad*
%ADD13C,0.800000*%
G04 #@! TD*
G04 #@! TA.AperFunction,SMDPad,CuDef*
%ADD14R,1.500000X1.300000*%
G04 #@! TD*
G04 #@! TA.AperFunction,SMDPad,CuDef*
%ADD15R,2.000000X0.600000*%
G04 #@! TD*
G04 #@! TA.AperFunction,ComponentPad*
%ADD16R,1.700000X1.700000*%
G04 #@! TD*
G04 #@! TA.AperFunction,ComponentPad*
%ADD17O,1.700000X1.700000*%
G04 #@! TD*
G04 #@! TA.AperFunction,SMDPad,CuDef*
%ADD18R,0.400000X1.100000*%
G04 #@! TD*
G04 #@! TA.AperFunction,SMDPad,CuDef*
%ADD19R,1.270000X1.470000*%
G04 #@! TD*
G04 #@! TA.AperFunction,ComponentPad*
%ADD20C,5.500000*%
G04 #@! TD*
G04 #@! TA.AperFunction,ViaPad*
%ADD21C,0.600000*%
G04 #@! TD*
G04 #@! TA.AperFunction,Conductor*
%ADD22C,0.250000*%
G04 #@! TD*
G04 #@! TA.AperFunction,Conductor*
%ADD23C,0.800000*%
G04 #@! TD*
G04 #@! TA.AperFunction,Conductor*
%ADD24C,0.300000*%
G04 #@! TD*
G04 #@! TA.AperFunction,Conductor*
%ADD25C,0.600000*%
G04 #@! TD*
G04 #@! TA.AperFunction,Conductor*
%ADD26C,1.200000*%
G04 #@! TD*
G04 #@! TA.AperFunction,Conductor*
%ADD27C,0.254000*%
G04 #@! TD*
G04 APERTURE END LIST*
D10*
X90000000Y-135000000D02*
X90000000Y-35000000D01*
X140000000Y-135000000D02*
X90000000Y-135000000D01*
X140000000Y-35000000D02*
X140000000Y-135000000D01*
X90000000Y-35000000D02*
X140000000Y-35000000D01*
D11*
G04 #@! TO.P,J11,8*
G04 #@! TO.N,Net-(J11-Pad8)*
X95076200Y-112620000D03*
G04 #@! TO.P,J11,7*
G04 #@! TO.N,Net-(J11-Pad7)*
X95076200Y-110080000D03*
G04 #@! TO.P,J11,5*
G04 #@! TO.N,Net-(J11-Pad5)*
X95076200Y-105000000D03*
G04 #@! TO.P,J11,4*
G04 #@! TO.N,Net-(J11-Pad4)*
X95076200Y-102460000D03*
G04 #@! TO.P,J11,3*
G04 #@! TO.N,Net-(J11-Pad3)*
X95076200Y-99920000D03*
G04 #@! TO.P,J11,9*
G04 #@! TO.N,GND*
X95076200Y-115160000D03*
G04 #@! TO.P,J11,6*
G04 #@! TO.N,Net-(J11-Pad6)*
X95076200Y-107540000D03*
D12*
G04 #@! TO.P,J11,1*
G04 #@! TO.N,Net-(J11-Pad1)*
X95076200Y-94840000D03*
D11*
G04 #@! TO.P,J11,2*
G04 #@! TO.N,Net-(J11-Pad2)*
X95076200Y-97380000D03*
G04 #@! TD*
G04 #@! TO.P,J6,8*
G04 #@! TO.N,Net-(J6-Pad8)*
X95076200Y-72620000D03*
G04 #@! TO.P,J6,7*
G04 #@! TO.N,Net-(J6-Pad7)*
X95076200Y-70080000D03*
G04 #@! TO.P,J6,5*
G04 #@! TO.N,Net-(J6-Pad5)*
X95076200Y-65000000D03*
G04 #@! TO.P,J6,4*
G04 #@! TO.N,Net-(J6-Pad4)*
X95076200Y-62460000D03*
G04 #@! TO.P,J6,3*
G04 #@! TO.N,Net-(J6-Pad3)*
X95076200Y-59920000D03*
G04 #@! TO.P,J6,9*
G04 #@! TO.N,GND*
X95076200Y-75160000D03*
G04 #@! TO.P,J6,6*
G04 #@! TO.N,Net-(J6-Pad6)*
X95076200Y-67540000D03*
D12*
G04 #@! TO.P,J6,1*
G04 #@! TO.N,Net-(J6-Pad1)*
X95076200Y-54840000D03*
D11*
G04 #@! TO.P,J6,2*
G04 #@! TO.N,Net-(J6-Pad2)*
X95076200Y-57380000D03*
G04 #@! TD*
D12*
G04 #@! TO.P,J3,1*
G04 #@! TO.N,GND*
X95076200Y-48730000D03*
D11*
G04 #@! TO.P,J3,2*
G04 #@! TO.N,Net-(D1-Pad2)*
X95076200Y-51270000D03*
G04 #@! TD*
D13*
G04 #@! TO.N,GND*
G04 #@! TO.C,REF\002A\002A*
X92500000Y-93000000D03*
G04 #@! TD*
D11*
G04 #@! TO.P,J1,4*
G04 #@! TO.N,Net-(J1-Pad4)*
X95076200Y-89810000D03*
G04 #@! TO.P,J1,3*
G04 #@! TO.N,GND*
X95076200Y-87270000D03*
D12*
G04 #@! TO.P,J1,1*
G04 #@! TO.N,Net-(J1-Pad1)*
X95076200Y-82190000D03*
D11*
G04 #@! TO.P,J1,2*
G04 #@! TO.N,Net-(J1-Pad2)*
X95076200Y-84730000D03*
G04 #@! TD*
D13*
G04 #@! TO.N,GND*
G04 #@! TO.C,REF\002A\002A*
X139000000Y-50000000D03*
G04 #@! TD*
G04 #@! TO.N,GND*
G04 #@! TO.C,REF\002A\002A*
X139000000Y-51500000D03*
G04 #@! TD*
G04 #@! TO.N,GND*
G04 #@! TO.C,REF\002A\002A*
X139000000Y-53000000D03*
G04 #@! TD*
G04 #@! TO.N,GND*
G04 #@! TO.C,REF\002A\002A*
X139000000Y-54500000D03*
G04 #@! TD*
G04 #@! TO.N,GND*
G04 #@! TO.C,REF\002A\002A*
X139000000Y-56000000D03*
G04 #@! TD*
G04 #@! TO.N,GND*
G04 #@! TO.C,REF\002A\002A*
X139000000Y-57500000D03*
G04 #@! TD*
G04 #@! TO.N,GND*
G04 #@! TO.C,REF\002A\002A*
X139000000Y-59000000D03*
G04 #@! TD*
G04 #@! TO.N,GND*
G04 #@! TO.C,REF\002A\002A*
X139000000Y-60500000D03*
G04 #@! TD*
G04 #@! TO.N,GND*
G04 #@! TO.C,REF\002A\002A*
X139000000Y-62000000D03*
G04 #@! TD*
G04 #@! TO.N,GND*
G04 #@! TO.C,REF\002A\002A*
X139000000Y-63500000D03*
G04 #@! TD*
G04 #@! TO.N,GND*
G04 #@! TO.C,REF\002A\002A*
X139000000Y-65000000D03*
G04 #@! TD*
G04 #@! TO.N,GND*
G04 #@! TO.C,REF\002A\002A*
X139000000Y-66500000D03*
G04 #@! TD*
G04 #@! TO.N,GND*
G04 #@! TO.C,REF\002A\002A*
X139000000Y-68000000D03*
G04 #@! TD*
G04 #@! TO.N,GND*
G04 #@! TO.C,REF\002A\002A*
X139000000Y-69500000D03*
G04 #@! TD*
G04 #@! TO.N,GND*
G04 #@! TO.C,REF\002A\002A*
X139000000Y-71000000D03*
G04 #@! TD*
G04 #@! TO.N,GND*
G04 #@! TO.C,REF\002A\002A*
X139000000Y-72500000D03*
G04 #@! TD*
G04 #@! TO.N,GND*
G04 #@! TO.C,REF\002A\002A*
X139000000Y-74000000D03*
G04 #@! TD*
G04 #@! TO.N,GND*
G04 #@! TO.C,REF\002A\002A*
X139000000Y-75500000D03*
G04 #@! TD*
G04 #@! TO.N,GND*
G04 #@! TO.C,REF\002A\002A*
X139000000Y-77000000D03*
G04 #@! TD*
G04 #@! TO.N,GND*
G04 #@! TO.C,REF\002A\002A*
X139000000Y-78500000D03*
G04 #@! TD*
G04 #@! TO.N,GND*
G04 #@! TO.C,REF\002A\002A*
X139000000Y-80000000D03*
G04 #@! TD*
G04 #@! TO.N,GND*
G04 #@! TO.C,REF\002A\002A*
X139000000Y-81500000D03*
G04 #@! TD*
G04 #@! TO.N,GND*
G04 #@! TO.C,REF\002A\002A*
X139000000Y-83000000D03*
G04 #@! TD*
G04 #@! TO.N,GND*
G04 #@! TO.C,REF\002A\002A*
X139000000Y-84500000D03*
G04 #@! TD*
G04 #@! TO.N,GND*
G04 #@! TO.C,REF\002A\002A*
X139000000Y-86000000D03*
G04 #@! TD*
G04 #@! TO.N,GND*
G04 #@! TO.C,REF\002A\002A*
X139000000Y-87500000D03*
G04 #@! TD*
G04 #@! TO.N,GND*
G04 #@! TO.C,REF\002A\002A*
X139000000Y-89000000D03*
G04 #@! TD*
G04 #@! TO.N,GND*
G04 #@! TO.C,REF\002A\002A*
X139000000Y-90500000D03*
G04 #@! TD*
G04 #@! TO.N,GND*
G04 #@! TO.C,REF\002A\002A*
X139000000Y-92000000D03*
G04 #@! TD*
G04 #@! TO.N,GND*
G04 #@! TO.C,REF\002A\002A*
X139000000Y-93500000D03*
G04 #@! TD*
G04 #@! TO.N,GND*
G04 #@! TO.C,REF\002A\002A*
X139000000Y-95000000D03*
G04 #@! TD*
G04 #@! TO.N,GND*
G04 #@! TO.C,REF\002A\002A*
X139000000Y-96500000D03*
G04 #@! TD*
G04 #@! TO.N,GND*
G04 #@! TO.C,REF\002A\002A*
X139000000Y-98000000D03*
G04 #@! TD*
G04 #@! TO.N,GND*
G04 #@! TO.C,REF\002A\002A*
X139000000Y-99500000D03*
G04 #@! TD*
G04 #@! TO.N,GND*
G04 #@! TO.C,REF\002A\002A*
X139000000Y-101000000D03*
G04 #@! TD*
G04 #@! TO.N,GND*
G04 #@! TO.C,REF\002A\002A*
X139000000Y-102500000D03*
G04 #@! TD*
G04 #@! TO.N,GND*
G04 #@! TO.C,REF\002A\002A*
X139000000Y-104000000D03*
G04 #@! TD*
G04 #@! TO.N,GND*
G04 #@! TO.C,REF\002A\002A*
X139000000Y-105500000D03*
G04 #@! TD*
G04 #@! TO.N,GND*
G04 #@! TO.C,REF\002A\002A*
X139000000Y-107000000D03*
G04 #@! TD*
G04 #@! TO.N,GND*
G04 #@! TO.C,REF\002A\002A*
X139000000Y-108500000D03*
G04 #@! TD*
G04 #@! TO.N,GND*
G04 #@! TO.C,REF\002A\002A*
X139000000Y-110000000D03*
G04 #@! TD*
G04 #@! TO.N,GND*
G04 #@! TO.C,REF\002A\002A*
X139000000Y-111500000D03*
G04 #@! TD*
G04 #@! TO.N,GND*
G04 #@! TO.C,REF\002A\002A*
X139000000Y-113000000D03*
G04 #@! TD*
G04 #@! TO.N,GND*
G04 #@! TO.C,REF\002A\002A*
X139000000Y-114500000D03*
G04 #@! TD*
G04 #@! TO.N,GND*
G04 #@! TO.C,REF\002A\002A*
X139000000Y-116000000D03*
G04 #@! TD*
G04 #@! TO.N,GND*
G04 #@! TO.C,REF\002A\002A*
X139000000Y-117500000D03*
G04 #@! TD*
G04 #@! TO.N,GND*
G04 #@! TO.C,REF\002A\002A*
X139000000Y-119000000D03*
G04 #@! TD*
G04 #@! TO.N,GND*
G04 #@! TO.C,REF\002A\002A*
X139000000Y-120500000D03*
G04 #@! TD*
G04 #@! TO.N,GND*
G04 #@! TO.C,REF\002A\002A*
X139000000Y-122000000D03*
G04 #@! TD*
G04 #@! TO.N,GND*
G04 #@! TO.C,REF\002A\002A*
X139000000Y-123500000D03*
G04 #@! TD*
G04 #@! TO.N,GND*
G04 #@! TO.C,REF\002A\002A*
X139000000Y-125000000D03*
G04 #@! TD*
G04 #@! TO.N,GND*
G04 #@! TO.C,REF\002A\002A*
X139000000Y-126500000D03*
G04 #@! TD*
G04 #@! TO.N,GND*
G04 #@! TO.C,REF\002A\002A*
X139000000Y-128000000D03*
G04 #@! TD*
G04 #@! TO.N,GND*
G04 #@! TO.C,REF\002A\002A*
X139000000Y-129500000D03*
G04 #@! TD*
G04 #@! TO.N,GND*
G04 #@! TO.C,REF\002A\002A*
X91000000Y-124500000D03*
G04 #@! TD*
G04 #@! TO.N,GND*
G04 #@! TO.C,REF\002A\002A*
X91000000Y-123000000D03*
G04 #@! TD*
G04 #@! TO.N,GND*
G04 #@! TO.C,REF\002A\002A*
X91000000Y-121500000D03*
G04 #@! TD*
G04 #@! TO.N,GND*
G04 #@! TO.C,REF\002A\002A*
X91000000Y-120000000D03*
G04 #@! TD*
G04 #@! TO.N,GND*
G04 #@! TO.C,REF\002A\002A*
X91000000Y-118500000D03*
G04 #@! TD*
G04 #@! TO.N,GND*
G04 #@! TO.C,REF\002A\002A*
X91000000Y-117000000D03*
G04 #@! TD*
G04 #@! TO.N,GND*
G04 #@! TO.C,REF\002A\002A*
X91000000Y-115500000D03*
G04 #@! TD*
G04 #@! TO.N,GND*
G04 #@! TO.C,REF\002A\002A*
X91000000Y-114000000D03*
G04 #@! TD*
G04 #@! TO.N,GND*
G04 #@! TO.C,REF\002A\002A*
X91000000Y-112500000D03*
G04 #@! TD*
G04 #@! TO.N,GND*
G04 #@! TO.C,REF\002A\002A*
X91000000Y-111000000D03*
G04 #@! TD*
G04 #@! TO.N,GND*
G04 #@! TO.C,REF\002A\002A*
X91000000Y-109500000D03*
G04 #@! TD*
G04 #@! TO.N,GND*
G04 #@! TO.C,REF\002A\002A*
X91000000Y-108000000D03*
G04 #@! TD*
G04 #@! TO.N,GND*
G04 #@! TO.C,REF\002A\002A*
X91000000Y-106500000D03*
G04 #@! TD*
G04 #@! TO.N,GND*
G04 #@! TO.C,REF\002A\002A*
X91000000Y-105000000D03*
G04 #@! TD*
G04 #@! TO.N,GND*
G04 #@! TO.C,REF\002A\002A*
X91000000Y-103500000D03*
G04 #@! TD*
G04 #@! TO.N,GND*
G04 #@! TO.C,REF\002A\002A*
X91000000Y-102000000D03*
G04 #@! TD*
G04 #@! TO.N,GND*
G04 #@! TO.C,REF\002A\002A*
X91000000Y-100500000D03*
G04 #@! TD*
G04 #@! TO.N,GND*
G04 #@! TO.C,REF\002A\002A*
X91000000Y-99000000D03*
G04 #@! TD*
G04 #@! TO.N,GND*
G04 #@! TO.C,REF\002A\002A*
X91000000Y-97500000D03*
G04 #@! TD*
G04 #@! TO.N,GND*
G04 #@! TO.C,REF\002A\002A*
X91000000Y-96000000D03*
G04 #@! TD*
G04 #@! TO.N,GND*
G04 #@! TO.C,REF\002A\002A*
X91000000Y-94500000D03*
G04 #@! TD*
G04 #@! TO.N,GND*
G04 #@! TO.C,REF\002A\002A*
X91000000Y-93000000D03*
G04 #@! TD*
G04 #@! TO.N,GND*
G04 #@! TO.C,REF\002A\002A*
X91000000Y-91500000D03*
G04 #@! TD*
G04 #@! TO.N,GND*
G04 #@! TO.C,REF\002A\002A*
X91000000Y-90000000D03*
G04 #@! TD*
G04 #@! TO.N,GND*
G04 #@! TO.C,REF\002A\002A*
X91000000Y-88500000D03*
G04 #@! TD*
G04 #@! TO.N,GND*
G04 #@! TO.C,REF\002A\002A*
X91000000Y-87000000D03*
G04 #@! TD*
G04 #@! TO.N,GND*
G04 #@! TO.C,REF\002A\002A*
X91000000Y-85500000D03*
G04 #@! TD*
G04 #@! TO.N,GND*
G04 #@! TO.C,REF\002A\002A*
X91000000Y-84000000D03*
G04 #@! TD*
G04 #@! TO.N,GND*
G04 #@! TO.C,REF\002A\002A*
X91000000Y-82500000D03*
G04 #@! TD*
G04 #@! TO.N,GND*
G04 #@! TO.C,REF\002A\002A*
X91000000Y-81000000D03*
G04 #@! TD*
G04 #@! TO.N,GND*
G04 #@! TO.C,REF\002A\002A*
X91000000Y-79500000D03*
G04 #@! TD*
G04 #@! TO.N,GND*
G04 #@! TO.C,REF\002A\002A*
X91000000Y-78000000D03*
G04 #@! TD*
G04 #@! TO.N,GND*
G04 #@! TO.C,REF\002A\002A*
X91000000Y-76500000D03*
G04 #@! TD*
G04 #@! TO.N,GND*
G04 #@! TO.C,REF\002A\002A*
X91000000Y-75000000D03*
G04 #@! TD*
G04 #@! TO.N,GND*
G04 #@! TO.C,REF\002A\002A*
X91000000Y-73500000D03*
G04 #@! TD*
G04 #@! TO.N,GND*
G04 #@! TO.C,REF\002A\002A*
X91000000Y-72000000D03*
G04 #@! TD*
G04 #@! TO.N,GND*
G04 #@! TO.C,REF\002A\002A*
X91000000Y-70500000D03*
G04 #@! TD*
G04 #@! TO.N,GND*
G04 #@! TO.C,REF\002A\002A*
X91000000Y-69000000D03*
G04 #@! TD*
G04 #@! TO.N,GND*
G04 #@! TO.C,REF\002A\002A*
X91000000Y-67500000D03*
G04 #@! TD*
G04 #@! TO.N,GND*
G04 #@! TO.C,REF\002A\002A*
X91000000Y-66000000D03*
G04 #@! TD*
G04 #@! TO.N,GND*
G04 #@! TO.C,REF\002A\002A*
X91000000Y-64500000D03*
G04 #@! TD*
G04 #@! TO.N,GND*
G04 #@! TO.C,REF\002A\002A*
X91000000Y-63000000D03*
G04 #@! TD*
G04 #@! TO.N,GND*
G04 #@! TO.C,REF\002A\002A*
X91000000Y-61500000D03*
G04 #@! TD*
G04 #@! TO.N,GND*
G04 #@! TO.C,REF\002A\002A*
X91000000Y-60000000D03*
G04 #@! TD*
G04 #@! TO.N,GND*
G04 #@! TO.C,REF\002A\002A*
X91000000Y-58500000D03*
G04 #@! TD*
G04 #@! TO.N,GND*
G04 #@! TO.C,REF\002A\002A*
X91000000Y-57000000D03*
G04 #@! TD*
G04 #@! TO.N,GND*
G04 #@! TO.C,REF\002A\002A*
X91000000Y-55500000D03*
G04 #@! TD*
G04 #@! TO.N,GND*
G04 #@! TO.C,REF\002A\002A*
X91000000Y-54000000D03*
G04 #@! TD*
G04 #@! TO.N,GND*
G04 #@! TO.C,REF\002A\002A*
X91000000Y-52500000D03*
G04 #@! TD*
G04 #@! TO.N,GND*
G04 #@! TO.C,REF\002A\002A*
X91000000Y-51000000D03*
G04 #@! TD*
G04 #@! TO.N,GND*
G04 #@! TO.C,REF\002A\002A*
X91000000Y-49500000D03*
G04 #@! TD*
G04 #@! TO.N,GND*
G04 #@! TO.C,REF\002A\002A*
X91000000Y-48000000D03*
G04 #@! TD*
G04 #@! TO.N,GND*
G04 #@! TO.C,REF\002A\002A*
X91000000Y-46500000D03*
G04 #@! TD*
G04 #@! TO.N,GND*
G04 #@! TO.C,REF\002A\002A*
X91000000Y-45000000D03*
G04 #@! TD*
G04 #@! TO.N,GND*
G04 #@! TO.C,REF\002A\002A*
X103000000Y-76500000D03*
G04 #@! TD*
G04 #@! TO.N,GND*
G04 #@! TO.C,REF\002A\002A*
X101500000Y-76500000D03*
G04 #@! TD*
G04 #@! TO.N,GND*
G04 #@! TO.C,REF\002A\002A*
X100000000Y-76500000D03*
G04 #@! TD*
G04 #@! TO.N,GND*
G04 #@! TO.C,REF\002A\002A*
X103000000Y-75000000D03*
G04 #@! TD*
G04 #@! TO.N,GND*
G04 #@! TO.C,REF\002A\002A*
X101500000Y-75000000D03*
G04 #@! TD*
G04 #@! TO.N,GND*
G04 #@! TO.C,REF\002A\002A*
X100000000Y-75000000D03*
G04 #@! TD*
G04 #@! TO.N,GND*
G04 #@! TO.C,REF\002A\002A*
X103000000Y-73500000D03*
G04 #@! TD*
G04 #@! TO.N,GND*
G04 #@! TO.C,REF\002A\002A*
X101500000Y-73500000D03*
G04 #@! TD*
G04 #@! TO.N,GND*
G04 #@! TO.C,REF\002A\002A*
X100000000Y-73500000D03*
G04 #@! TD*
G04 #@! TO.N,GND*
G04 #@! TO.C,REF\002A\002A*
X103000000Y-72000000D03*
G04 #@! TD*
G04 #@! TO.N,GND*
G04 #@! TO.C,REF\002A\002A*
X101500000Y-72000000D03*
G04 #@! TD*
G04 #@! TO.N,GND*
G04 #@! TO.C,REF\002A\002A*
X100000000Y-72000000D03*
G04 #@! TD*
G04 #@! TO.N,GND*
G04 #@! TO.C,REF\002A\002A*
X108500000Y-72000000D03*
G04 #@! TD*
G04 #@! TO.N,GND*
G04 #@! TO.C,REF\002A\002A*
X110000000Y-72000000D03*
G04 #@! TD*
G04 #@! TO.N,GND*
G04 #@! TO.C,REF\002A\002A*
X111500000Y-72000000D03*
G04 #@! TD*
G04 #@! TO.N,GND*
G04 #@! TO.C,REF\002A\002A*
X113000000Y-72000000D03*
G04 #@! TD*
G04 #@! TO.N,GND*
G04 #@! TO.C,REF\002A\002A*
X114500000Y-72000000D03*
G04 #@! TD*
G04 #@! TO.N,GND*
G04 #@! TO.C,REF\002A\002A*
X116000000Y-72000000D03*
G04 #@! TD*
G04 #@! TO.N,GND*
G04 #@! TO.C,REF\002A\002A*
X108500000Y-73500000D03*
G04 #@! TD*
G04 #@! TO.N,GND*
G04 #@! TO.C,REF\002A\002A*
X110000000Y-73500000D03*
G04 #@! TD*
G04 #@! TO.N,GND*
G04 #@! TO.C,REF\002A\002A*
X111500000Y-73500000D03*
G04 #@! TD*
G04 #@! TO.N,GND*
G04 #@! TO.C,REF\002A\002A*
X113000000Y-73500000D03*
G04 #@! TD*
G04 #@! TO.N,GND*
G04 #@! TO.C,REF\002A\002A*
X114500000Y-73500000D03*
G04 #@! TD*
G04 #@! TO.N,GND*
G04 #@! TO.C,REF\002A\002A*
X116000000Y-73500000D03*
G04 #@! TD*
G04 #@! TO.N,GND*
G04 #@! TO.C,REF\002A\002A*
X108500000Y-75000000D03*
G04 #@! TD*
G04 #@! TO.N,GND*
G04 #@! TO.C,REF\002A\002A*
X110000000Y-75000000D03*
G04 #@! TD*
G04 #@! TO.N,GND*
G04 #@! TO.C,REF\002A\002A*
X111500000Y-75000000D03*
G04 #@! TD*
G04 #@! TO.N,GND*
G04 #@! TO.C,REF\002A\002A*
X113000000Y-75000000D03*
G04 #@! TD*
G04 #@! TO.N,GND*
G04 #@! TO.C,REF\002A\002A*
X114500000Y-75000000D03*
G04 #@! TD*
G04 #@! TO.N,GND*
G04 #@! TO.C,REF\002A\002A*
X116000000Y-75000000D03*
G04 #@! TD*
G04 #@! TO.N,GND*
G04 #@! TO.C,REF\002A\002A*
X108500000Y-76500000D03*
G04 #@! TD*
G04 #@! TO.N,GND*
G04 #@! TO.C,REF\002A\002A*
X110000000Y-76500000D03*
G04 #@! TD*
G04 #@! TO.N,GND*
G04 #@! TO.C,REF\002A\002A*
X111500000Y-76500000D03*
G04 #@! TD*
G04 #@! TO.N,GND*
G04 #@! TO.C,REF\002A\002A*
X113000000Y-76500000D03*
G04 #@! TD*
G04 #@! TO.N,GND*
G04 #@! TO.C,REF\002A\002A*
X114500000Y-76500000D03*
G04 #@! TD*
G04 #@! TO.N,GND*
G04 #@! TO.C,REF\002A\002A*
X116000000Y-76500000D03*
G04 #@! TD*
G04 #@! TO.N,GND*
G04 #@! TO.C,REF\002A\002A*
X102500000Y-93500000D03*
G04 #@! TD*
G04 #@! TO.N,GND*
G04 #@! TO.C,REF\002A\002A*
X101000000Y-93500000D03*
G04 #@! TD*
G04 #@! TO.N,GND*
G04 #@! TO.C,REF\002A\002A*
X99500000Y-93500000D03*
G04 #@! TD*
G04 #@! TO.N,GND*
G04 #@! TO.C,REF\002A\002A*
X102500000Y-92000000D03*
G04 #@! TD*
G04 #@! TO.N,GND*
G04 #@! TO.C,REF\002A\002A*
X101000000Y-92000000D03*
G04 #@! TD*
G04 #@! TO.N,GND*
G04 #@! TO.C,REF\002A\002A*
X99500000Y-92000000D03*
G04 #@! TD*
G04 #@! TO.N,GND*
G04 #@! TO.C,REF\002A\002A*
X107500000Y-92000000D03*
G04 #@! TD*
G04 #@! TO.N,GND*
G04 #@! TO.C,REF\002A\002A*
X109000000Y-92000000D03*
G04 #@! TD*
G04 #@! TO.N,GND*
G04 #@! TO.C,REF\002A\002A*
X110500000Y-92000000D03*
G04 #@! TD*
G04 #@! TO.N,GND*
G04 #@! TO.C,REF\002A\002A*
X112000000Y-92000000D03*
G04 #@! TD*
G04 #@! TO.N,GND*
G04 #@! TO.C,REF\002A\002A*
X113500000Y-92000000D03*
G04 #@! TD*
G04 #@! TO.N,GND*
G04 #@! TO.C,REF\002A\002A*
X115000000Y-92000000D03*
G04 #@! TD*
G04 #@! TO.N,GND*
G04 #@! TO.C,REF\002A\002A*
X116500000Y-92000000D03*
G04 #@! TD*
G04 #@! TO.N,GND*
G04 #@! TO.C,REF\002A\002A*
X107500000Y-93500000D03*
G04 #@! TD*
G04 #@! TO.N,GND*
G04 #@! TO.C,REF\002A\002A*
X109000000Y-93500000D03*
G04 #@! TD*
G04 #@! TO.N,GND*
G04 #@! TO.C,REF\002A\002A*
X110500000Y-93500000D03*
G04 #@! TD*
G04 #@! TO.N,GND*
G04 #@! TO.C,REF\002A\002A*
X112000000Y-93500000D03*
G04 #@! TD*
G04 #@! TO.N,GND*
G04 #@! TO.C,REF\002A\002A*
X113500000Y-93500000D03*
G04 #@! TD*
G04 #@! TO.N,GND*
G04 #@! TO.C,REF\002A\002A*
X115000000Y-93500000D03*
G04 #@! TD*
G04 #@! TO.N,GND*
G04 #@! TO.C,REF\002A\002A*
X116500000Y-93500000D03*
G04 #@! TD*
G04 #@! TO.N,GND*
G04 #@! TO.C,REF\002A\002A*
X128500000Y-115000000D03*
G04 #@! TD*
G04 #@! TO.N,GND*
G04 #@! TO.C,REF\002A\002A*
X127000000Y-115000000D03*
G04 #@! TD*
G04 #@! TO.N,GND*
G04 #@! TO.C,REF\002A\002A*
X125500000Y-115000000D03*
G04 #@! TD*
G04 #@! TO.N,GND*
G04 #@! TO.C,REF\002A\002A*
X124000000Y-115000000D03*
G04 #@! TD*
G04 #@! TO.N,GND*
G04 #@! TO.C,REF\002A\002A*
X122500000Y-115000000D03*
G04 #@! TD*
G04 #@! TO.N,GND*
G04 #@! TO.C,REF\002A\002A*
X121000000Y-115000000D03*
G04 #@! TD*
G04 #@! TO.N,GND*
G04 #@! TO.C,REF\002A\002A*
X119500000Y-115000000D03*
G04 #@! TD*
G04 #@! TO.N,GND*
G04 #@! TO.C,REF\002A\002A*
X118000000Y-115000000D03*
G04 #@! TD*
G04 #@! TO.N,GND*
G04 #@! TO.C,REF\002A\002A*
X116500000Y-115000000D03*
G04 #@! TD*
G04 #@! TO.N,GND*
G04 #@! TO.C,REF\002A\002A*
X115000000Y-115000000D03*
G04 #@! TD*
G04 #@! TO.N,GND*
G04 #@! TO.C,REF\002A\002A*
X113500000Y-115000000D03*
G04 #@! TD*
G04 #@! TO.N,GND*
G04 #@! TO.C,REF\002A\002A*
X112000000Y-115000000D03*
G04 #@! TD*
G04 #@! TO.N,GND*
G04 #@! TO.C,REF\002A\002A*
X110500000Y-115000000D03*
G04 #@! TD*
G04 #@! TO.N,GND*
G04 #@! TO.C,REF\002A\002A*
X109000000Y-115000000D03*
G04 #@! TD*
G04 #@! TO.N,GND*
G04 #@! TO.C,REF\002A\002A*
X128500000Y-113500000D03*
G04 #@! TD*
G04 #@! TO.N,GND*
G04 #@! TO.C,REF\002A\002A*
X127000000Y-113500000D03*
G04 #@! TD*
G04 #@! TO.N,GND*
G04 #@! TO.C,REF\002A\002A*
X125500000Y-113500000D03*
G04 #@! TD*
G04 #@! TO.N,GND*
G04 #@! TO.C,REF\002A\002A*
X124000000Y-113500000D03*
G04 #@! TD*
G04 #@! TO.N,GND*
G04 #@! TO.C,REF\002A\002A*
X122500000Y-113500000D03*
G04 #@! TD*
G04 #@! TO.N,GND*
G04 #@! TO.C,REF\002A\002A*
X121000000Y-113500000D03*
G04 #@! TD*
G04 #@! TO.N,GND*
G04 #@! TO.C,REF\002A\002A*
X119500000Y-113500000D03*
G04 #@! TD*
G04 #@! TO.N,GND*
G04 #@! TO.C,REF\002A\002A*
X118000000Y-113500000D03*
G04 #@! TD*
G04 #@! TO.N,GND*
G04 #@! TO.C,REF\002A\002A*
X116500000Y-113500000D03*
G04 #@! TD*
G04 #@! TO.N,GND*
G04 #@! TO.C,REF\002A\002A*
X115000000Y-113500000D03*
G04 #@! TD*
G04 #@! TO.N,GND*
G04 #@! TO.C,REF\002A\002A*
X113500000Y-113500000D03*
G04 #@! TD*
G04 #@! TO.N,GND*
G04 #@! TO.C,REF\002A\002A*
X112000000Y-113500000D03*
G04 #@! TD*
G04 #@! TO.N,GND*
G04 #@! TO.C,REF\002A\002A*
X110500000Y-113500000D03*
G04 #@! TD*
G04 #@! TO.N,GND*
G04 #@! TO.C,REF\002A\002A*
X109000000Y-113500000D03*
G04 #@! TD*
G04 #@! TO.N,GND*
G04 #@! TO.C,REF\002A\002A*
X128500000Y-112000000D03*
G04 #@! TD*
G04 #@! TO.N,GND*
G04 #@! TO.C,REF\002A\002A*
X127000000Y-112000000D03*
G04 #@! TD*
G04 #@! TO.N,GND*
G04 #@! TO.C,REF\002A\002A*
X125500000Y-112000000D03*
G04 #@! TD*
G04 #@! TO.N,GND*
G04 #@! TO.C,REF\002A\002A*
X124000000Y-112000000D03*
G04 #@! TD*
G04 #@! TO.N,GND*
G04 #@! TO.C,REF\002A\002A*
X122500000Y-112000000D03*
G04 #@! TD*
G04 #@! TO.N,GND*
G04 #@! TO.C,REF\002A\002A*
X121000000Y-112000000D03*
G04 #@! TD*
G04 #@! TO.N,GND*
G04 #@! TO.C,REF\002A\002A*
X119500000Y-112000000D03*
G04 #@! TD*
G04 #@! TO.N,GND*
G04 #@! TO.C,REF\002A\002A*
X118000000Y-112000000D03*
G04 #@! TD*
G04 #@! TO.N,GND*
G04 #@! TO.C,REF\002A\002A*
X116500000Y-112000000D03*
G04 #@! TD*
G04 #@! TO.N,GND*
G04 #@! TO.C,REF\002A\002A*
X115000000Y-112000000D03*
G04 #@! TD*
G04 #@! TO.N,GND*
G04 #@! TO.C,REF\002A\002A*
X113500000Y-112000000D03*
G04 #@! TD*
G04 #@! TO.N,GND*
G04 #@! TO.C,REF\002A\002A*
X112000000Y-112000000D03*
G04 #@! TD*
G04 #@! TO.N,GND*
G04 #@! TO.C,REF\002A\002A*
X110500000Y-112000000D03*
G04 #@! TD*
G04 #@! TO.N,GND*
G04 #@! TO.C,REF\002A\002A*
X109000000Y-112000000D03*
G04 #@! TD*
G04 #@! TO.N,GND*
G04 #@! TO.C,REF\002A\002A*
X128500000Y-110500000D03*
G04 #@! TD*
G04 #@! TO.N,GND*
G04 #@! TO.C,REF\002A\002A*
X127000000Y-110500000D03*
G04 #@! TD*
G04 #@! TO.N,GND*
G04 #@! TO.C,REF\002A\002A*
X125500000Y-110500000D03*
G04 #@! TD*
G04 #@! TO.N,GND*
G04 #@! TO.C,REF\002A\002A*
X124000000Y-110500000D03*
G04 #@! TD*
G04 #@! TO.N,GND*
G04 #@! TO.C,REF\002A\002A*
X122500000Y-110500000D03*
G04 #@! TD*
G04 #@! TO.N,GND*
G04 #@! TO.C,REF\002A\002A*
X121000000Y-110500000D03*
G04 #@! TD*
G04 #@! TO.N,GND*
G04 #@! TO.C,REF\002A\002A*
X119500000Y-110500000D03*
G04 #@! TD*
G04 #@! TO.N,GND*
G04 #@! TO.C,REF\002A\002A*
X118000000Y-110500000D03*
G04 #@! TD*
G04 #@! TO.N,GND*
G04 #@! TO.C,REF\002A\002A*
X116500000Y-110500000D03*
G04 #@! TD*
G04 #@! TO.N,GND*
G04 #@! TO.C,REF\002A\002A*
X115000000Y-110500000D03*
G04 #@! TD*
G04 #@! TO.N,GND*
G04 #@! TO.C,REF\002A\002A*
X113500000Y-110500000D03*
G04 #@! TD*
G04 #@! TO.N,GND*
G04 #@! TO.C,REF\002A\002A*
X112000000Y-110500000D03*
G04 #@! TD*
G04 #@! TO.N,GND*
G04 #@! TO.C,REF\002A\002A*
X110500000Y-110500000D03*
G04 #@! TD*
G04 #@! TO.N,GND*
G04 #@! TO.C,REF\002A\002A*
X109000000Y-110500000D03*
G04 #@! TD*
G04 #@! TO.N,GND*
G04 #@! TO.C,REF\002A\002A*
X99000000Y-130500000D03*
G04 #@! TD*
G04 #@! TO.N,GND*
G04 #@! TO.C,REF\002A\002A*
X100500000Y-130500000D03*
G04 #@! TD*
G04 #@! TO.N,GND*
G04 #@! TO.C,REF\002A\002A*
X102000000Y-130500000D03*
G04 #@! TD*
G04 #@! TO.N,GND*
G04 #@! TO.C,REF\002A\002A*
X103500000Y-130500000D03*
G04 #@! TD*
G04 #@! TO.N,GND*
G04 #@! TO.C,REF\002A\002A*
X105000000Y-130500000D03*
G04 #@! TD*
G04 #@! TO.N,GND*
G04 #@! TO.C,REF\002A\002A*
X106500000Y-130500000D03*
G04 #@! TD*
G04 #@! TO.N,GND*
G04 #@! TO.C,REF\002A\002A*
X108000000Y-130500000D03*
G04 #@! TD*
G04 #@! TO.N,GND*
G04 #@! TO.C,REF\002A\002A*
X109500000Y-130500000D03*
G04 #@! TD*
G04 #@! TO.N,GND*
G04 #@! TO.C,REF\002A\002A*
X111000000Y-130500000D03*
G04 #@! TD*
G04 #@! TO.N,GND*
G04 #@! TO.C,REF\002A\002A*
X112500000Y-130500000D03*
G04 #@! TD*
G04 #@! TO.N,GND*
G04 #@! TO.C,REF\002A\002A*
X114000000Y-130500000D03*
G04 #@! TD*
G04 #@! TO.N,GND*
G04 #@! TO.C,REF\002A\002A*
X115500000Y-130500000D03*
G04 #@! TD*
G04 #@! TO.N,GND*
G04 #@! TO.C,REF\002A\002A*
X117000000Y-130500000D03*
G04 #@! TD*
G04 #@! TO.N,GND*
G04 #@! TO.C,REF\002A\002A*
X118500000Y-130500000D03*
G04 #@! TD*
G04 #@! TO.N,GND*
G04 #@! TO.C,REF\002A\002A*
X120000000Y-130500000D03*
G04 #@! TD*
G04 #@! TO.N,GND*
G04 #@! TO.C,REF\002A\002A*
X121500000Y-130500000D03*
G04 #@! TD*
G04 #@! TO.N,GND*
G04 #@! TO.C,REF\002A\002A*
X123000000Y-130500000D03*
G04 #@! TD*
G04 #@! TO.N,GND*
G04 #@! TO.C,REF\002A\002A*
X124500000Y-130500000D03*
G04 #@! TD*
G04 #@! TO.N,GND*
G04 #@! TO.C,REF\002A\002A*
X126000000Y-130500000D03*
G04 #@! TD*
G04 #@! TO.N,GND*
G04 #@! TO.C,REF\002A\002A*
X127500000Y-130500000D03*
G04 #@! TD*
G04 #@! TO.N,GND*
G04 #@! TO.C,REF\002A\002A*
X129000000Y-130500000D03*
G04 #@! TD*
G04 #@! TO.N,GND*
G04 #@! TO.C,REF\002A\002A*
X130500000Y-130500000D03*
G04 #@! TD*
G04 #@! TO.N,GND*
G04 #@! TO.C,REF\002A\002A*
X99000000Y-132000000D03*
G04 #@! TD*
G04 #@! TO.N,GND*
G04 #@! TO.C,REF\002A\002A*
X100500000Y-132000000D03*
G04 #@! TD*
G04 #@! TO.N,GND*
G04 #@! TO.C,REF\002A\002A*
X102000000Y-132000000D03*
G04 #@! TD*
G04 #@! TO.N,GND*
G04 #@! TO.C,REF\002A\002A*
X103500000Y-132000000D03*
G04 #@! TD*
G04 #@! TO.N,GND*
G04 #@! TO.C,REF\002A\002A*
X105000000Y-132000000D03*
G04 #@! TD*
G04 #@! TO.N,GND*
G04 #@! TO.C,REF\002A\002A*
X106500000Y-132000000D03*
G04 #@! TD*
G04 #@! TO.N,GND*
G04 #@! TO.C,REF\002A\002A*
X108000000Y-132000000D03*
G04 #@! TD*
G04 #@! TO.N,GND*
G04 #@! TO.C,REF\002A\002A*
X109500000Y-132000000D03*
G04 #@! TD*
G04 #@! TO.N,GND*
G04 #@! TO.C,REF\002A\002A*
X111000000Y-132000000D03*
G04 #@! TD*
G04 #@! TO.N,GND*
G04 #@! TO.C,REF\002A\002A*
X112500000Y-132000000D03*
G04 #@! TD*
G04 #@! TO.N,GND*
G04 #@! TO.C,REF\002A\002A*
X114000000Y-132000000D03*
G04 #@! TD*
G04 #@! TO.N,GND*
G04 #@! TO.C,REF\002A\002A*
X115500000Y-132000000D03*
G04 #@! TD*
G04 #@! TO.N,GND*
G04 #@! TO.C,REF\002A\002A*
X117000000Y-132000000D03*
G04 #@! TD*
G04 #@! TO.N,GND*
G04 #@! TO.C,REF\002A\002A*
X118500000Y-132000000D03*
G04 #@! TD*
G04 #@! TO.N,GND*
G04 #@! TO.C,REF\002A\002A*
X120000000Y-132000000D03*
G04 #@! TD*
G04 #@! TO.N,GND*
G04 #@! TO.C,REF\002A\002A*
X121500000Y-132000000D03*
G04 #@! TD*
G04 #@! TO.N,GND*
G04 #@! TO.C,REF\002A\002A*
X123000000Y-132000000D03*
G04 #@! TD*
G04 #@! TO.N,GND*
G04 #@! TO.C,REF\002A\002A*
X124500000Y-132000000D03*
G04 #@! TD*
G04 #@! TO.N,GND*
G04 #@! TO.C,REF\002A\002A*
X126000000Y-132000000D03*
G04 #@! TD*
G04 #@! TO.N,GND*
G04 #@! TO.C,REF\002A\002A*
X127500000Y-132000000D03*
G04 #@! TD*
G04 #@! TO.N,GND*
G04 #@! TO.C,REF\002A\002A*
X129000000Y-132000000D03*
G04 #@! TD*
G04 #@! TO.N,GND*
G04 #@! TO.C,REF\002A\002A*
X130500000Y-132000000D03*
G04 #@! TD*
G04 #@! TO.N,GND*
G04 #@! TO.C,REF\002A\002A*
X130500000Y-39000000D03*
G04 #@! TD*
G04 #@! TO.N,GND*
G04 #@! TO.C,REF\002A\002A*
X129000000Y-39000000D03*
G04 #@! TD*
G04 #@! TO.N,GND*
G04 #@! TO.C,REF\002A\002A*
X127500000Y-39000000D03*
G04 #@! TD*
G04 #@! TO.N,GND*
G04 #@! TO.C,REF\002A\002A*
X126000000Y-39000000D03*
G04 #@! TD*
G04 #@! TO.N,GND*
G04 #@! TO.C,REF\002A\002A*
X124500000Y-39000000D03*
G04 #@! TD*
G04 #@! TO.N,GND*
G04 #@! TO.C,REF\002A\002A*
X123000000Y-39000000D03*
G04 #@! TD*
G04 #@! TO.N,GND*
G04 #@! TO.C,REF\002A\002A*
X121500000Y-39000000D03*
G04 #@! TD*
G04 #@! TO.N,GND*
G04 #@! TO.C,REF\002A\002A*
X120000000Y-39000000D03*
G04 #@! TD*
G04 #@! TO.N,GND*
G04 #@! TO.C,REF\002A\002A*
X118500000Y-39000000D03*
G04 #@! TD*
G04 #@! TO.N,GND*
G04 #@! TO.C,REF\002A\002A*
X117000000Y-39000000D03*
G04 #@! TD*
G04 #@! TO.N,GND*
G04 #@! TO.C,REF\002A\002A*
X115500000Y-39000000D03*
G04 #@! TD*
G04 #@! TO.N,GND*
G04 #@! TO.C,REF\002A\002A*
X114000000Y-39000000D03*
G04 #@! TD*
G04 #@! TO.N,GND*
G04 #@! TO.C,REF\002A\002A*
X112500000Y-39000000D03*
G04 #@! TD*
G04 #@! TO.N,GND*
G04 #@! TO.C,REF\002A\002A*
X111000000Y-39000000D03*
G04 #@! TD*
G04 #@! TO.N,GND*
G04 #@! TO.C,REF\002A\002A*
X109500000Y-39000000D03*
G04 #@! TD*
G04 #@! TO.N,GND*
G04 #@! TO.C,REF\002A\002A*
X108000000Y-39000000D03*
G04 #@! TD*
G04 #@! TO.N,GND*
G04 #@! TO.C,REF\002A\002A*
X106500000Y-39000000D03*
G04 #@! TD*
G04 #@! TO.N,GND*
G04 #@! TO.C,REF\002A\002A*
X105000000Y-39000000D03*
G04 #@! TD*
G04 #@! TO.N,GND*
G04 #@! TO.C,REF\002A\002A*
X103500000Y-39000000D03*
G04 #@! TD*
G04 #@! TO.N,GND*
G04 #@! TO.C,REF\002A\002A*
X102000000Y-39000000D03*
G04 #@! TD*
G04 #@! TO.N,GND*
G04 #@! TO.C,REF\002A\002A*
X100500000Y-39000000D03*
G04 #@! TD*
G04 #@! TO.N,GND*
G04 #@! TO.C,REF\002A\002A*
X99000000Y-39000000D03*
G04 #@! TD*
G04 #@! TO.N,GND*
G04 #@! TO.C,REF\002A\002A*
X130500000Y-37500000D03*
G04 #@! TD*
G04 #@! TO.N,GND*
G04 #@! TO.C,REF\002A\002A*
X129000000Y-37500000D03*
G04 #@! TD*
G04 #@! TO.N,GND*
G04 #@! TO.C,REF\002A\002A*
X127500000Y-37500000D03*
G04 #@! TD*
G04 #@! TO.N,GND*
G04 #@! TO.C,REF\002A\002A*
X126000000Y-37500000D03*
G04 #@! TD*
G04 #@! TO.N,GND*
G04 #@! TO.C,REF\002A\002A*
X124500000Y-37500000D03*
G04 #@! TD*
G04 #@! TO.N,GND*
G04 #@! TO.C,REF\002A\002A*
X123000000Y-37500000D03*
G04 #@! TD*
G04 #@! TO.N,GND*
G04 #@! TO.C,REF\002A\002A*
X121500000Y-37500000D03*
G04 #@! TD*
G04 #@! TO.N,GND*
G04 #@! TO.C,REF\002A\002A*
X120000000Y-37500000D03*
G04 #@! TD*
G04 #@! TO.N,GND*
G04 #@! TO.C,REF\002A\002A*
X118500000Y-37500000D03*
G04 #@! TD*
G04 #@! TO.N,GND*
G04 #@! TO.C,REF\002A\002A*
X117000000Y-37500000D03*
G04 #@! TD*
G04 #@! TO.N,GND*
G04 #@! TO.C,REF\002A\002A*
X115500000Y-37500000D03*
G04 #@! TD*
G04 #@! TO.N,GND*
G04 #@! TO.C,REF\002A\002A*
X114000000Y-37500000D03*
G04 #@! TD*
G04 #@! TO.N,GND*
G04 #@! TO.C,REF\002A\002A*
X112500000Y-37500000D03*
G04 #@! TD*
G04 #@! TO.N,GND*
G04 #@! TO.C,REF\002A\002A*
X111000000Y-37500000D03*
G04 #@! TD*
G04 #@! TO.N,GND*
G04 #@! TO.C,REF\002A\002A*
X109500000Y-37500000D03*
G04 #@! TD*
G04 #@! TO.N,GND*
G04 #@! TO.C,REF\002A\002A*
X108000000Y-37500000D03*
G04 #@! TD*
G04 #@! TO.N,GND*
G04 #@! TO.C,REF\002A\002A*
X106500000Y-37500000D03*
G04 #@! TD*
G04 #@! TO.N,GND*
G04 #@! TO.C,REF\002A\002A*
X105000000Y-37500000D03*
G04 #@! TD*
G04 #@! TO.N,GND*
G04 #@! TO.C,REF\002A\002A*
X103500000Y-37500000D03*
G04 #@! TD*
G04 #@! TO.N,GND*
G04 #@! TO.C,REF\002A\002A*
X102000000Y-37500000D03*
G04 #@! TD*
G04 #@! TO.N,GND*
G04 #@! TO.C,REF\002A\002A*
X100500000Y-37500000D03*
G04 #@! TD*
G04 #@! TO.N,GND*
G04 #@! TO.C,REF\002A\002A*
X99000000Y-37500000D03*
G04 #@! TD*
D11*
G04 #@! TO.P,J4,9*
G04 #@! TO.N,Net-(J13-Pad1)*
X136000000Y-78890000D03*
G04 #@! TO.P,J4,8*
G04 #@! TO.N,Net-(J4-Pad8)*
X136000000Y-76350000D03*
G04 #@! TO.P,J4,7*
G04 #@! TO.N,Net-(J4-Pad7)*
X136000000Y-73810000D03*
G04 #@! TO.P,J4,5*
G04 #@! TO.N,Net-(J4-Pad5)*
X136000000Y-68730000D03*
G04 #@! TO.P,J4,4*
G04 #@! TO.N,Net-(J4-Pad4)*
X136000000Y-66190000D03*
G04 #@! TO.P,J4,3*
G04 #@! TO.N,Net-(J4-Pad3)*
X136000000Y-63650000D03*
G04 #@! TO.P,J4,10*
G04 #@! TO.N,GND*
X136000000Y-81430000D03*
G04 #@! TO.P,J4,6*
G04 #@! TO.N,Net-(J4-Pad6)*
X136000000Y-71270000D03*
D12*
G04 #@! TO.P,J4,1*
G04 #@! TO.N,Net-(J4-Pad1)*
X136000000Y-58570000D03*
D11*
G04 #@! TO.P,J4,2*
G04 #@! TO.N,Net-(J4-Pad2)*
X136000000Y-61110000D03*
G04 #@! TD*
G04 #@! TO.P,J5,9*
G04 #@! TO.N,Net-(J12-Pad1)*
X136100000Y-108920000D03*
G04 #@! TO.P,J5,8*
G04 #@! TO.N,Net-(J5-Pad8)*
X136100000Y-106380000D03*
G04 #@! TO.P,J5,7*
G04 #@! TO.N,Net-(J5-Pad7)*
X136100000Y-103840000D03*
G04 #@! TO.P,J5,5*
G04 #@! TO.N,Net-(J5-Pad5)*
X136100000Y-98760000D03*
G04 #@! TO.P,J5,4*
G04 #@! TO.N,Net-(J5-Pad4)*
X136100000Y-96220000D03*
G04 #@! TO.P,J5,3*
G04 #@! TO.N,Net-(J5-Pad3)*
X136100000Y-93680000D03*
G04 #@! TO.P,J5,10*
G04 #@! TO.N,GND*
X136100000Y-111460000D03*
G04 #@! TO.P,J5,6*
G04 #@! TO.N,Net-(J5-Pad6)*
X136100000Y-101300000D03*
D12*
G04 #@! TO.P,J5,1*
G04 #@! TO.N,Net-(J5-Pad1)*
X136100000Y-88600000D03*
D11*
G04 #@! TO.P,J5,2*
G04 #@! TO.N,Net-(J5-Pad2)*
X136100000Y-91140000D03*
G04 #@! TD*
D14*
G04 #@! TO.P,R1,1*
G04 #@! TO.N,Net-(J2-Pad2)*
X134250000Y-84400000D03*
G04 #@! TO.P,R1,2*
G04 #@! TO.N,GND*
X136950000Y-84400000D03*
G04 #@! TD*
D15*
G04 #@! TO.P,U3,1*
G04 #@! TO.N,Net-(J6-Pad1)*
X119300000Y-59920000D03*
G04 #@! TO.P,U3,2*
G04 #@! TO.N,Net-(J6-Pad2)*
X119300000Y-61190000D03*
G04 #@! TO.P,U3,3*
G04 #@! TO.N,Net-(J6-Pad3)*
X119300000Y-62460000D03*
G04 #@! TO.P,U3,4*
G04 #@! TO.N,Net-(J6-Pad4)*
X119300000Y-63730000D03*
G04 #@! TO.P,U3,5*
G04 #@! TO.N,Net-(J6-Pad5)*
X119300000Y-65000000D03*
G04 #@! TO.P,U3,6*
G04 #@! TO.N,Net-(J6-Pad6)*
X119300000Y-66270000D03*
G04 #@! TO.P,U3,7*
G04 #@! TO.N,Net-(J6-Pad7)*
X119300000Y-67540000D03*
G04 #@! TO.P,U3,8*
G04 #@! TO.N,Net-(J6-Pad8)*
X119300000Y-68810000D03*
G04 #@! TO.P,U3,9*
G04 #@! TO.N,GND*
X119300000Y-70080000D03*
G04 #@! TO.P,U3,10*
G04 #@! TO.N,Net-(J13-Pad1)*
X128700000Y-70080000D03*
G04 #@! TO.P,U3,11*
G04 #@! TO.N,Net-(J4-Pad8)*
X128700000Y-68810000D03*
G04 #@! TO.P,U3,12*
G04 #@! TO.N,Net-(J4-Pad7)*
X128700000Y-67540000D03*
G04 #@! TO.P,U3,13*
G04 #@! TO.N,Net-(J4-Pad6)*
X128700000Y-66270000D03*
G04 #@! TO.P,U3,14*
G04 #@! TO.N,Net-(J4-Pad5)*
X128700000Y-65000000D03*
G04 #@! TO.P,U3,15*
G04 #@! TO.N,Net-(J4-Pad4)*
X128700000Y-63730000D03*
G04 #@! TO.P,U3,16*
G04 #@! TO.N,Net-(J4-Pad3)*
X128700000Y-62460000D03*
G04 #@! TO.P,U3,17*
G04 #@! TO.N,Net-(J4-Pad2)*
X128700000Y-61190000D03*
G04 #@! TO.P,U3,18*
G04 #@! TO.N,Net-(J4-Pad1)*
X128700000Y-59920000D03*
G04 #@! TD*
G04 #@! TO.P,U4,1*
G04 #@! TO.N,Net-(J11-Pad1)*
X119300000Y-96920000D03*
G04 #@! TO.P,U4,2*
G04 #@! TO.N,Net-(J11-Pad2)*
X119300000Y-98190000D03*
G04 #@! TO.P,U4,3*
G04 #@! TO.N,Net-(J11-Pad3)*
X119300000Y-99460000D03*
G04 #@! TO.P,U4,4*
G04 #@! TO.N,Net-(J11-Pad4)*
X119300000Y-100730000D03*
G04 #@! TO.P,U4,5*
G04 #@! TO.N,Net-(J11-Pad5)*
X119300000Y-102000000D03*
G04 #@! TO.P,U4,6*
G04 #@! TO.N,Net-(J11-Pad6)*
X119300000Y-103270000D03*
G04 #@! TO.P,U4,7*
G04 #@! TO.N,Net-(J11-Pad7)*
X119300000Y-104540000D03*
G04 #@! TO.P,U4,8*
G04 #@! TO.N,Net-(J11-Pad8)*
X119300000Y-105810000D03*
G04 #@! TO.P,U4,9*
G04 #@! TO.N,GND*
X119300000Y-107080000D03*
G04 #@! TO.P,U4,10*
G04 #@! TO.N,Net-(J12-Pad1)*
X128700000Y-107080000D03*
G04 #@! TO.P,U4,11*
G04 #@! TO.N,Net-(J5-Pad8)*
X128700000Y-105810000D03*
G04 #@! TO.P,U4,12*
G04 #@! TO.N,Net-(J5-Pad7)*
X128700000Y-104540000D03*
G04 #@! TO.P,U4,13*
G04 #@! TO.N,Net-(J5-Pad6)*
X128700000Y-103270000D03*
G04 #@! TO.P,U4,14*
G04 #@! TO.N,Net-(J5-Pad5)*
X128700000Y-102000000D03*
G04 #@! TO.P,U4,15*
G04 #@! TO.N,Net-(J5-Pad4)*
X128700000Y-100730000D03*
G04 #@! TO.P,U4,16*
G04 #@! TO.N,Net-(J5-Pad3)*
X128700000Y-99460000D03*
G04 #@! TO.P,U4,17*
G04 #@! TO.N,Net-(J5-Pad2)*
X128700000Y-98190000D03*
G04 #@! TO.P,U4,18*
G04 #@! TO.N,Net-(J5-Pad1)*
X128700000Y-96920000D03*
G04 #@! TD*
D16*
G04 #@! TO.P,J12,1*
G04 #@! TO.N,Net-(J12-Pad1)*
X136100000Y-116250000D03*
D17*
G04 #@! TO.P,J12,2*
G04 #@! TO.N,Net-(D1-Pad1)*
X136100000Y-118790000D03*
G04 #@! TD*
D16*
G04 #@! TO.P,J13,1*
G04 #@! TO.N,Net-(J13-Pad1)*
X136750000Y-51250000D03*
D17*
G04 #@! TO.P,J13,2*
G04 #@! TO.N,Net-(D1-Pad1)*
X136750000Y-53790000D03*
G04 #@! TD*
D18*
G04 #@! TO.P,U2,1*
G04 #@! TO.N,Net-(R7-Pad2)*
X125175000Y-80750000D03*
G04 #@! TO.P,U2,2*
G04 #@! TO.N,Net-(J2-Pad4)*
X124525000Y-80750000D03*
G04 #@! TO.P,U2,3*
G04 #@! TO.N,Net-(J2-Pad2)*
X123875000Y-80750000D03*
G04 #@! TO.P,U2,4*
G04 #@! TO.N,Net-(J6-Pad1)*
X123225000Y-80750000D03*
G04 #@! TO.P,U2,5*
G04 #@! TO.N,Net-(J6-Pad2)*
X122575000Y-80750000D03*
G04 #@! TO.P,U2,6*
G04 #@! TO.N,Net-(J6-Pad3)*
X121925000Y-80750000D03*
G04 #@! TO.P,U2,7*
G04 #@! TO.N,Net-(J6-Pad4)*
X121275000Y-80750000D03*
G04 #@! TO.P,U2,8*
G04 #@! TO.N,Net-(J6-Pad5)*
X120625000Y-80750000D03*
G04 #@! TO.P,U2,9*
G04 #@! TO.N,Net-(J6-Pad6)*
X119975000Y-80750000D03*
G04 #@! TO.P,U2,10*
G04 #@! TO.N,Net-(J6-Pad7)*
X119325000Y-80750000D03*
G04 #@! TO.P,U2,11*
G04 #@! TO.N,Net-(J6-Pad8)*
X118675000Y-80750000D03*
G04 #@! TO.P,U2,12*
G04 #@! TO.N,GND*
X118025000Y-80750000D03*
G04 #@! TO.P,U2,13*
G04 #@! TO.N,Net-(J11-Pad1)*
X118025000Y-86450000D03*
G04 #@! TO.P,U2,14*
G04 #@! TO.N,Net-(J11-Pad2)*
X118675000Y-86450000D03*
G04 #@! TO.P,U2,15*
G04 #@! TO.N,Net-(J11-Pad3)*
X119325000Y-86450000D03*
G04 #@! TO.P,U2,16*
G04 #@! TO.N,Net-(J11-Pad4)*
X119975000Y-86450000D03*
G04 #@! TO.P,U2,17*
G04 #@! TO.N,Net-(J11-Pad5)*
X120625000Y-86450000D03*
G04 #@! TO.P,U2,18*
G04 #@! TO.N,Net-(J11-Pad6)*
X121275000Y-86450000D03*
G04 #@! TO.P,U2,19*
G04 #@! TO.N,Net-(J11-Pad7)*
X121925000Y-86450000D03*
G04 #@! TO.P,U2,20*
G04 #@! TO.N,Net-(J11-Pad8)*
X122575000Y-86450000D03*
G04 #@! TO.P,U2,21*
G04 #@! TO.N,Net-(J2-Pad6)*
X123225000Y-86450000D03*
G04 #@! TO.P,U2,22*
G04 #@! TO.N,Net-(J1-Pad1)*
X123875000Y-86450000D03*
G04 #@! TO.P,U2,23*
G04 #@! TO.N,Net-(J1-Pad2)*
X124525000Y-86450000D03*
G04 #@! TO.P,U2,24*
G04 #@! TO.N,Net-(C5-Pad2)*
X125175000Y-86450000D03*
G04 #@! TD*
D16*
G04 #@! TO.P,J2,1*
G04 #@! TO.N,Net-(C5-Pad2)*
X128060000Y-81520000D03*
D17*
G04 #@! TO.P,J2,2*
G04 #@! TO.N,Net-(J2-Pad2)*
X130600000Y-81520000D03*
G04 #@! TO.P,J2,3*
G04 #@! TO.N,Net-(C5-Pad2)*
X128060000Y-84060000D03*
G04 #@! TO.P,J2,4*
G04 #@! TO.N,Net-(J2-Pad4)*
X130600000Y-84060000D03*
G04 #@! TO.P,J2,5*
G04 #@! TO.N,Net-(C5-Pad2)*
X128060000Y-86600000D03*
G04 #@! TO.P,J2,6*
G04 #@! TO.N,Net-(J2-Pad6)*
X130600000Y-86600000D03*
G04 #@! TD*
D19*
G04 #@! TO.P,D1,1*
G04 #@! TO.N,Net-(D1-Pad1)*
X103935000Y-51500000D03*
G04 #@! TO.P,D1,2*
G04 #@! TO.N,Net-(D1-Pad2)*
X100065000Y-51500000D03*
G04 #@! TD*
D14*
G04 #@! TO.P,R4,1*
G04 #@! TO.N,Net-(C5-Pad2)*
X110150000Y-89800000D03*
G04 #@! TO.P,R4,2*
G04 #@! TO.N,Net-(J1-Pad4)*
X107450000Y-89800000D03*
G04 #@! TD*
G04 #@! TO.P,R5,1*
G04 #@! TO.N,Net-(J1-Pad1)*
X107450000Y-80600000D03*
G04 #@! TO.P,R5,2*
G04 #@! TO.N,Net-(C5-Pad2)*
X110150000Y-80600000D03*
G04 #@! TD*
G04 #@! TO.P,R6,1*
G04 #@! TO.N,Net-(C5-Pad2)*
X110150000Y-84600000D03*
G04 #@! TO.P,R6,2*
G04 #@! TO.N,Net-(J1-Pad2)*
X107450000Y-84600000D03*
G04 #@! TD*
G04 #@! TO.P,R7,1*
G04 #@! TO.N,Net-(C5-Pad2)*
X126750000Y-77000000D03*
G04 #@! TO.P,R7,2*
G04 #@! TO.N,Net-(R7-Pad2)*
X124050000Y-77000000D03*
G04 #@! TD*
D20*
G04 #@! TO.P,J7,1*
G04 #@! TO.N,GND*
X95000000Y-40000000D03*
G04 #@! TD*
G04 #@! TO.P,J8,1*
G04 #@! TO.N,GND*
X95000000Y-130000000D03*
G04 #@! TD*
G04 #@! TO.P,J9,1*
G04 #@! TO.N,GND*
X135000000Y-130000000D03*
G04 #@! TD*
G04 #@! TO.P,J10,1*
G04 #@! TO.N,GND*
X135000000Y-40000000D03*
G04 #@! TD*
D21*
G04 #@! TO.N,GND*
X113000000Y-86000000D03*
X110000000Y-86000000D03*
X107000000Y-86000000D03*
X102000000Y-86000000D03*
X99000000Y-86000000D03*
X117949908Y-75352132D03*
X117949908Y-77400000D03*
X117949908Y-76400000D03*
X130050010Y-75800000D03*
X130050010Y-73005551D03*
X133000000Y-80000000D03*
X131000000Y-78000000D03*
X127000000Y-72000000D03*
X129500000Y-56500000D03*
X126500000Y-56500000D03*
X123500000Y-56500000D03*
X126500000Y-60000000D03*
X126500000Y-62500000D03*
X126500000Y-65000000D03*
X126500000Y-67500000D03*
X126500000Y-70000000D03*
X126200000Y-102000000D03*
X126200000Y-100800000D03*
X126200000Y-99600000D03*
X126200000Y-98400000D03*
X126200000Y-97000000D03*
G04 #@! TO.N,Net-(J1-Pad2)*
X118400000Y-83000000D03*
X119200000Y-83000000D03*
X120000010Y-82999990D03*
X122200000Y-82999990D03*
X122800000Y-83600002D03*
X123400000Y-84200006D03*
G04 #@! TO.N,Net-(D1-Pad1)*
X110200000Y-53200000D03*
X108500000Y-53200000D03*
X106500000Y-53200000D03*
G04 #@! TO.N,Net-(C5-Pad2)*
X115400000Y-80600000D03*
X113600000Y-89800000D03*
X112000000Y-89800000D03*
X115400000Y-89800000D03*
G04 #@! TD*
D22*
G04 #@! TO.N,GND*
X135000000Y-128000000D02*
X135000000Y-130000000D01*
X95076200Y-87270000D02*
X97730000Y-87270000D01*
X110000000Y-86000000D02*
X113000000Y-86000000D01*
X102000000Y-86000000D02*
X107000000Y-86000000D01*
X97730000Y-87270000D02*
X99000000Y-86000000D01*
X131000000Y-78000000D02*
X131000000Y-76800000D01*
X131000000Y-76800000D02*
X130050010Y-75850010D01*
X130050010Y-75850010D02*
X130050010Y-75800000D01*
X117949908Y-76400000D02*
X117949908Y-75352132D01*
X118025000Y-77475092D02*
X117949908Y-77400000D01*
X118025000Y-80750000D02*
X118025000Y-77475092D01*
X130050010Y-72581287D02*
X130050010Y-73005551D01*
X129468723Y-72000000D02*
X130050010Y-72581287D01*
X127000000Y-72000000D02*
X129468723Y-72000000D01*
X134430000Y-81430000D02*
X133000000Y-80000000D01*
X136000000Y-81430000D02*
X134430000Y-81430000D01*
X126500000Y-56500000D02*
X129500000Y-56500000D01*
X123500000Y-57000000D02*
X123500000Y-56500000D01*
X126500000Y-60000000D02*
X123500000Y-57000000D01*
X126500000Y-65000000D02*
X126500000Y-62500000D01*
X126500000Y-70000000D02*
X126500000Y-67500000D01*
X126200000Y-99600000D02*
X126200000Y-100800000D01*
X126200000Y-97000000D02*
X126200000Y-98400000D01*
D23*
G04 #@! TO.N,Net-(J1-Pad1)*
X107450000Y-80600000D02*
X96666200Y-80600000D01*
X96666200Y-80600000D02*
X95076200Y-82190000D01*
D24*
X123875000Y-85837002D02*
X123875000Y-86450000D01*
X95076200Y-82190000D02*
X120227998Y-82190000D01*
X120227998Y-82190000D02*
X123875000Y-85837002D01*
D23*
G04 #@! TO.N,Net-(J1-Pad2)*
X107450000Y-84600000D02*
X95206200Y-84600000D01*
X95206200Y-84600000D02*
X95076200Y-84730000D01*
X95306200Y-84500000D02*
X95076200Y-84730000D01*
D24*
X99400000Y-83000000D02*
X97670000Y-84730000D01*
X97670000Y-84730000D02*
X95076200Y-84730000D01*
X118400000Y-83000000D02*
X99400000Y-83000000D01*
X119200000Y-83000000D02*
X118400000Y-83000000D01*
X120000010Y-82999990D02*
X119200010Y-82999990D01*
X119200010Y-82999990D02*
X119200000Y-83000000D01*
X122299999Y-83099999D02*
X122200000Y-83000000D01*
X122200000Y-83000000D02*
X122200000Y-82999990D01*
X122800000Y-83600002D02*
X122299999Y-83099999D01*
X122500001Y-83300003D02*
X122299999Y-83099999D01*
X123400000Y-84200006D02*
X122800000Y-83600006D01*
X123099999Y-83900001D02*
X122800000Y-83600002D01*
X123200000Y-84000000D02*
X123099999Y-83900001D01*
X122800000Y-83600006D02*
X122800000Y-83600002D01*
X123699999Y-84500005D02*
X123400000Y-84200006D01*
X124525000Y-85325006D02*
X123699999Y-84500005D01*
X124525000Y-86450000D02*
X124525000Y-85325006D01*
G04 #@! TO.N,Net-(J2-Pad4)*
X124525000Y-80750000D02*
X124525000Y-81525000D01*
X129340000Y-82800000D02*
X130600000Y-84060000D01*
X125800000Y-82800000D02*
X129340000Y-82800000D01*
X124525000Y-81525000D02*
X125800000Y-82800000D01*
G04 #@! TO.N,Net-(J2-Pad6)*
X123225000Y-86450000D02*
X123225000Y-87300000D01*
X123225000Y-87300000D02*
X124525000Y-88600000D01*
X124525000Y-88600000D02*
X129800000Y-88600000D01*
X129800000Y-88600000D02*
X130600000Y-87800000D01*
X130600000Y-87800000D02*
X130600000Y-86600000D01*
D25*
G04 #@! TO.N,Net-(J4-Pad8)*
X128700000Y-68810000D02*
X130810000Y-68810000D01*
X135600000Y-76350000D02*
X136350000Y-76350000D01*
X130810000Y-68810000D02*
X133000000Y-71000000D01*
X133000000Y-71000000D02*
X133000000Y-73750000D01*
X133000000Y-73750000D02*
X135600000Y-76350000D01*
G04 #@! TO.N,Net-(J4-Pad7)*
X128700000Y-67540000D02*
X131040000Y-67540000D01*
X131040000Y-67540000D02*
X134000000Y-70500000D01*
X134000000Y-70500000D02*
X134000000Y-71750000D01*
X134000000Y-71750000D02*
X136060000Y-73810000D01*
G04 #@! TO.N,Net-(J4-Pad5)*
X128700000Y-65000000D02*
X132250000Y-65000000D01*
X132250000Y-65000000D02*
X135980000Y-68730000D01*
G04 #@! TO.N,Net-(J4-Pad4)*
X128700000Y-63730000D02*
X133480000Y-63730000D01*
X133480000Y-63730000D02*
X135940000Y-66190000D01*
G04 #@! TO.N,Net-(J4-Pad3)*
X128700000Y-62460000D02*
X134710000Y-62460000D01*
X134710000Y-62460000D02*
X135900000Y-63650000D01*
G04 #@! TO.N,Net-(J4-Pad6)*
X128700000Y-66270000D02*
X131020000Y-66270000D01*
X131020000Y-66270000D02*
X136020000Y-71270000D01*
G04 #@! TO.N,Net-(J4-Pad1)*
X133430000Y-58570000D02*
X136000000Y-58570000D01*
X128700000Y-59920000D02*
X132080000Y-59920000D01*
X132080000Y-59920000D02*
X133430000Y-58570000D01*
G04 #@! TO.N,Net-(J4-Pad2)*
X128700000Y-61190000D02*
X135920000Y-61190000D01*
X135920000Y-61190000D02*
X136000000Y-61110000D01*
G04 #@! TO.N,Net-(J5-Pad8)*
X128700000Y-105810000D02*
X135530000Y-105810000D01*
X135530000Y-105810000D02*
X136100000Y-106380000D01*
G04 #@! TO.N,Net-(J5-Pad7)*
X136100000Y-103840000D02*
X135220000Y-103840000D01*
X135220000Y-103840000D02*
X135190000Y-103810000D01*
X134460000Y-104540000D02*
X128700000Y-104540000D01*
X135190000Y-103810000D02*
X134460000Y-104540000D01*
G04 #@! TO.N,Net-(J5-Pad5)*
X136100000Y-98760000D02*
X135240000Y-98760000D01*
X135240000Y-98760000D02*
X135100000Y-98900000D01*
X132000000Y-102000000D02*
X128700000Y-102000000D01*
X135270000Y-98730000D02*
X132000000Y-102000000D01*
G04 #@! TO.N,Net-(J5-Pad4)*
X136100000Y-96220000D02*
X135780000Y-96220000D01*
X135780000Y-96220000D02*
X135300000Y-96700000D01*
X131270000Y-100730000D02*
X128700000Y-100730000D01*
X135810000Y-96190000D02*
X131270000Y-100730000D01*
G04 #@! TO.N,Net-(J5-Pad3)*
X137076200Y-93650000D02*
X134350000Y-93650000D01*
X130540000Y-99460000D02*
X128700000Y-99460000D01*
X132000000Y-98000000D02*
X130540000Y-99460000D01*
X132000000Y-96000000D02*
X132000000Y-98000000D01*
X134350000Y-93650000D02*
X132000000Y-96000000D01*
G04 #@! TO.N,Net-(J5-Pad6)*
X136100000Y-101300000D02*
X135700000Y-101300000D01*
X135700000Y-101300000D02*
X135200000Y-101800000D01*
X133730000Y-103270000D02*
X128700000Y-103270000D01*
X135730000Y-101270000D02*
X133730000Y-103270000D01*
G04 #@! TO.N,Net-(J5-Pad1)*
X132430000Y-88570000D02*
X132460000Y-88600000D01*
X132460000Y-88600000D02*
X136100000Y-88600000D01*
X128700000Y-92300000D02*
X128700000Y-96920000D01*
X132430000Y-88570000D02*
X128700000Y-92300000D01*
G04 #@! TO.N,Net-(J5-Pad2)*
X132890000Y-91110000D02*
X132920000Y-91140000D01*
X132920000Y-91140000D02*
X136100000Y-91140000D01*
X129810000Y-98190000D02*
X128700000Y-98190000D01*
X131000000Y-97000000D02*
X129810000Y-98190000D01*
X131000000Y-93000000D02*
X131000000Y-97000000D01*
X132890000Y-91110000D02*
X131000000Y-93000000D01*
D24*
G04 #@! TO.N,Net-(J6-Pad1)*
X122099989Y-75792889D02*
X122099989Y-78239233D01*
X123225000Y-79900000D02*
X123225000Y-80750000D01*
X123225000Y-79364244D02*
X123225000Y-79900000D01*
X124174978Y-73717900D02*
X122099989Y-75792889D01*
X122099989Y-78239233D02*
X123225000Y-79364244D01*
X124174978Y-64094978D02*
X124174978Y-73717900D01*
X120000000Y-59920000D02*
X124174978Y-64094978D01*
X119300000Y-59920000D02*
X120000000Y-59920000D01*
D25*
X97840000Y-54840000D02*
X95076200Y-54840000D01*
X119300000Y-59920000D02*
X102920000Y-59920000D01*
X102920000Y-59920000D02*
X97840000Y-54840000D01*
D24*
G04 #@! TO.N,Net-(J6-Pad2)*
X119300000Y-61190000D02*
X120000000Y-61190000D01*
X122575000Y-79421366D02*
X122575000Y-79900000D01*
X121599979Y-78446345D02*
X122575000Y-79421366D01*
X121599978Y-75585778D02*
X121599979Y-78446345D01*
X123674967Y-73510789D02*
X121599978Y-75585778D01*
X123674967Y-64864967D02*
X123674967Y-73510789D01*
X120000000Y-61190000D02*
X123674967Y-64864967D01*
X122575000Y-79900000D02*
X122575000Y-80750000D01*
D25*
X96380000Y-57380000D02*
X95076200Y-57380000D01*
X119300000Y-61190000D02*
X100190000Y-61190000D01*
X100190000Y-61190000D02*
X96380000Y-57380000D01*
D24*
G04 #@! TO.N,Net-(J6-Pad3)*
X123174956Y-73303678D02*
X121099968Y-75378668D01*
X119300000Y-62460000D02*
X120000000Y-62460000D01*
X120000000Y-62460000D02*
X123174956Y-65634956D01*
X121925000Y-79900000D02*
X121925000Y-80750000D01*
X121925000Y-79478488D02*
X121925000Y-79900000D01*
X121099969Y-78653457D02*
X121925000Y-79478488D01*
X121099968Y-75378668D02*
X121099969Y-78653457D01*
X123174956Y-65634956D02*
X123174956Y-73303678D01*
D25*
X96820000Y-59920000D02*
X95076200Y-59920000D01*
X119300000Y-62460000D02*
X99360000Y-62460000D01*
X99360000Y-62460000D02*
X96820000Y-59920000D01*
D24*
G04 #@! TO.N,Net-(J6-Pad4)*
X121275000Y-79535610D02*
X121275000Y-79900000D01*
X120599959Y-78860569D02*
X121275000Y-79535610D01*
X120599958Y-75171558D02*
X120599959Y-78860569D01*
X122674945Y-66404945D02*
X122674945Y-73096569D01*
X120000000Y-63730000D02*
X122674945Y-66404945D01*
X119300000Y-63730000D02*
X120000000Y-63730000D01*
X122674945Y-73096569D02*
X120599958Y-75171558D01*
X121275000Y-79900000D02*
X121275000Y-80750000D01*
D25*
X96760000Y-62460000D02*
X95076200Y-62460000D01*
X119300000Y-63730000D02*
X98030000Y-63730000D01*
X98030000Y-63730000D02*
X96760000Y-62460000D01*
D24*
G04 #@! TO.N,Net-(J6-Pad5)*
X122174934Y-67174934D02*
X122174934Y-72889460D01*
X120625000Y-79592732D02*
X120625000Y-79900000D01*
X120000000Y-65000000D02*
X122174934Y-67174934D01*
X120099949Y-79067681D02*
X120625000Y-79592732D01*
X122174934Y-72889460D02*
X120099948Y-74964448D01*
X119300000Y-65000000D02*
X120000000Y-65000000D01*
X120625000Y-79900000D02*
X120625000Y-80750000D01*
X120099948Y-74964448D02*
X120099949Y-79067681D01*
D25*
X119300000Y-65000000D02*
X95076200Y-65000000D01*
D24*
G04 #@! TO.N,Net-(J6-Pad6)*
X120000000Y-66270000D02*
X121674923Y-67944923D01*
X119975000Y-79649854D02*
X119975000Y-79900000D01*
X119599939Y-79274793D02*
X119975000Y-79649854D01*
X119599938Y-74757338D02*
X119599939Y-79274793D01*
X119300000Y-66270000D02*
X120000000Y-66270000D01*
X121674923Y-72682351D02*
X119599938Y-74757338D01*
X121674923Y-67944923D02*
X121674923Y-72682351D01*
X119975000Y-79900000D02*
X119975000Y-80750000D01*
D25*
X114000000Y-66270000D02*
X96346200Y-66270000D01*
X96346200Y-66270000D02*
X95076200Y-67540000D01*
X119300000Y-66270000D02*
X114000000Y-66270000D01*
D24*
G04 #@! TO.N,Net-(J6-Pad7)*
X119325000Y-79900000D02*
X119325000Y-80750000D01*
X119325000Y-79706976D02*
X119325000Y-79900000D01*
X119099929Y-79481905D02*
X119325000Y-79706976D01*
X119099928Y-74550228D02*
X119099929Y-79481905D01*
X121174912Y-68714912D02*
X121174912Y-72475242D01*
X120000000Y-67540000D02*
X121174912Y-68714912D01*
X121174912Y-72475242D02*
X119099928Y-74550228D01*
X120000000Y-67540000D02*
X120476439Y-68016439D01*
X119300000Y-67540000D02*
X120000000Y-67540000D01*
D25*
X113000000Y-67540000D02*
X97952750Y-67540000D01*
X97952750Y-67540000D02*
X95412750Y-70080000D01*
X95412750Y-70080000D02*
X95076200Y-70080000D01*
X113000000Y-67540000D02*
X119300000Y-67540000D01*
D24*
G04 #@! TO.N,Net-(J6-Pad8)*
X118675000Y-79900000D02*
X118675000Y-80750000D01*
X120674901Y-69484901D02*
X120674901Y-72268133D01*
X120674901Y-72268133D02*
X118599918Y-74343117D01*
X118599918Y-74343117D02*
X118599918Y-79824918D01*
X119300000Y-68810000D02*
X120000000Y-68810000D01*
X118599918Y-79824918D02*
X118675000Y-79900000D01*
X120000000Y-68810000D02*
X120674901Y-69484901D01*
D25*
X99190000Y-68810000D02*
X99190000Y-68842750D01*
X99190000Y-68842750D02*
X95412750Y-72620000D01*
X95412750Y-72620000D02*
X95076200Y-72620000D01*
X111310000Y-68810000D02*
X106400000Y-68810000D01*
X106400000Y-68810000D02*
X99190000Y-68810000D01*
X119300000Y-68810000D02*
X111310000Y-68810000D01*
D24*
G04 #@! TO.N,Net-(J11-Pad8)*
X119300000Y-105810000D02*
X120000000Y-105810000D01*
X120000000Y-105810000D02*
X124800000Y-101010000D01*
X124800000Y-101010000D02*
X124800000Y-93400000D01*
X122575000Y-91175000D02*
X122575000Y-86450000D01*
X124800000Y-93400000D02*
X122575000Y-91175000D01*
D25*
X97380000Y-112620000D02*
X95076200Y-112620000D01*
X119300000Y-105810000D02*
X104190000Y-105810000D01*
X104190000Y-105810000D02*
X97380000Y-112620000D01*
D24*
G04 #@! TO.N,Net-(J11-Pad7)*
X119300000Y-104540000D02*
X120000000Y-104540000D01*
X120000000Y-104540000D02*
X124200000Y-100340000D01*
X124200000Y-100340000D02*
X124200000Y-93800000D01*
X124200000Y-93800000D02*
X121925000Y-91525000D01*
X121925000Y-91525000D02*
X121925000Y-86450000D01*
D25*
X96920000Y-110080000D02*
X95076200Y-110080000D01*
X119300000Y-104540000D02*
X102460000Y-104540000D01*
X102460000Y-104540000D02*
X96920000Y-110080000D01*
D24*
G04 #@! TO.N,Net-(J11-Pad5)*
X119300000Y-102000000D02*
X120000000Y-102000000D01*
X120625000Y-87300000D02*
X120625000Y-86450000D01*
X120000000Y-102000000D02*
X123000000Y-99000000D01*
X123000000Y-99000000D02*
X123000000Y-94400000D01*
X123000000Y-94400000D02*
X120625000Y-92025000D01*
X120625000Y-92025000D02*
X120625000Y-87300000D01*
D25*
X97000000Y-105000000D02*
X95076200Y-105000000D01*
X119300000Y-102000000D02*
X100000000Y-102000000D01*
X100000000Y-102000000D02*
X97000000Y-105000000D01*
D24*
G04 #@! TO.N,Net-(J11-Pad4)*
X119300000Y-100730000D02*
X118930000Y-100730000D01*
X118930000Y-100730000D02*
X119000000Y-100800000D01*
X119000000Y-100800000D02*
X120400000Y-100800000D01*
X119975000Y-87300000D02*
X119975000Y-86450000D01*
X120400000Y-100800000D02*
X122400000Y-98800000D01*
X122400000Y-98800000D02*
X122400000Y-94600000D01*
X122400000Y-94600000D02*
X119975000Y-92175000D01*
X119975000Y-92175000D02*
X119975000Y-87300000D01*
D25*
X113750000Y-100750000D02*
X97122750Y-100750000D01*
X95412750Y-102460000D02*
X95076200Y-102460000D01*
X97122750Y-100750000D02*
X95412750Y-102460000D01*
X119300000Y-100730000D02*
X114000000Y-100730000D01*
X114000000Y-100730000D02*
X113770000Y-100730000D01*
X113770000Y-100730000D02*
X113750000Y-100750000D01*
D24*
G04 #@! TO.N,Net-(J11-Pad3)*
X119300000Y-99460000D02*
X120940000Y-99460000D01*
X119325000Y-87300000D02*
X119325000Y-86450000D01*
X120940000Y-99460000D02*
X121800000Y-98600000D01*
X121800000Y-98600000D02*
X121800000Y-94800000D01*
X121800000Y-94800000D02*
X119325000Y-92325000D01*
X119325000Y-92325000D02*
X119325000Y-87300000D01*
D25*
X112500000Y-99500000D02*
X95496200Y-99500000D01*
X95496200Y-99500000D02*
X95076200Y-99920000D01*
X119300000Y-99460000D02*
X112540000Y-99460000D01*
X112540000Y-99460000D02*
X112500000Y-99500000D01*
D24*
G04 #@! TO.N,Net-(J11-Pad6)*
X119300000Y-103270000D02*
X120000000Y-103270000D01*
X120000000Y-103270000D02*
X123600000Y-99670000D01*
X123600000Y-99670000D02*
X123600000Y-94200000D01*
X123600000Y-94200000D02*
X121275000Y-91875000D01*
X121275000Y-91875000D02*
X121275000Y-86450000D01*
D25*
X96460000Y-107540000D02*
X95076200Y-107540000D01*
X119300000Y-103270000D02*
X100730000Y-103270000D01*
X100730000Y-103270000D02*
X96460000Y-107540000D01*
D24*
G04 #@! TO.N,Net-(J11-Pad1)*
X119300000Y-96920000D02*
X119400000Y-96820000D01*
X119400000Y-96820000D02*
X119400000Y-94600000D01*
X119400000Y-94600000D02*
X118025000Y-93225000D01*
X118025000Y-93225000D02*
X118025000Y-87300000D01*
X118025000Y-87300000D02*
X118025000Y-86450000D01*
D25*
X107840000Y-94840000D02*
X95076200Y-94840000D01*
X107840000Y-94840000D02*
X110000000Y-97000000D01*
X119300000Y-96920000D02*
X110080000Y-96920000D01*
X110080000Y-96920000D02*
X110000000Y-97000000D01*
D24*
G04 #@! TO.N,Net-(J11-Pad2)*
X119300000Y-98190000D02*
X120810000Y-98190000D01*
X120810000Y-98190000D02*
X121200000Y-97800000D01*
X118675000Y-92875000D02*
X118675000Y-87300000D01*
X121200000Y-97800000D02*
X121200000Y-95400000D01*
X121200000Y-95400000D02*
X118675000Y-92875000D01*
X118675000Y-87300000D02*
X118675000Y-86450000D01*
D25*
X107380000Y-97380000D02*
X95076200Y-97380000D01*
X111310000Y-98190000D02*
X108190000Y-98190000D01*
X108190000Y-98190000D02*
X107380000Y-97380000D01*
X119300000Y-98190000D02*
X111310000Y-98190000D01*
G04 #@! TO.N,Net-(J13-Pad1)*
X128700000Y-70080000D02*
X130080000Y-70080000D01*
X130080000Y-70080000D02*
X132000000Y-72000000D01*
X132000000Y-72000000D02*
X132000000Y-75000000D01*
X132000000Y-75000000D02*
X135890000Y-78890000D01*
D23*
G04 #@! TO.N,Net-(J12-Pad1)*
X134200000Y-112853800D02*
X134353800Y-112853800D01*
X134353800Y-112853800D02*
X136100000Y-114600000D01*
X136100000Y-114600000D02*
X136100000Y-116250000D01*
X136110000Y-108890000D02*
X134200000Y-110800000D01*
X134200000Y-110800000D02*
X134200000Y-112853800D01*
D25*
X128700000Y-107080000D02*
X134080000Y-107080000D01*
X134080000Y-107080000D02*
X135890000Y-108890000D01*
D24*
G04 #@! TO.N,Net-(J2-Pad2)*
X123875000Y-80750000D02*
X123875000Y-79307122D01*
X123875000Y-79307122D02*
X122600000Y-78032122D01*
X122600000Y-78032122D02*
X122600000Y-76000000D01*
X127800000Y-74800000D02*
X129400000Y-76400000D01*
X130600000Y-79800000D02*
X130600000Y-81520000D01*
X122600000Y-76000000D02*
X123800000Y-74800000D01*
X123800000Y-74800000D02*
X127800000Y-74800000D01*
X129400000Y-76400000D02*
X129400000Y-78600000D01*
X129400000Y-78600000D02*
X130600000Y-79800000D01*
D25*
X134250000Y-84400000D02*
X134250000Y-83650000D01*
X132120000Y-81520000D02*
X130600000Y-81520000D01*
X134250000Y-83650000D02*
X132120000Y-81520000D01*
D26*
G04 #@! TO.N,Net-(D1-Pad2)*
X95076200Y-51270000D02*
X99835000Y-51270000D01*
X99835000Y-51270000D02*
X100065000Y-51500000D01*
D23*
G04 #@! TO.N,Net-(J1-Pad4)*
X107450000Y-89800000D02*
X95086200Y-89800000D01*
X95086200Y-89800000D02*
X95076200Y-89810000D01*
D26*
X95266200Y-90000000D02*
X95076200Y-89810000D01*
X95266200Y-90000000D02*
X95076200Y-89810000D01*
D24*
G04 #@! TO.N,Net-(R7-Pad2)*
X125175000Y-80750000D02*
X125250000Y-80750000D01*
X124050000Y-77000000D02*
X124050000Y-77950000D01*
X124050000Y-77950000D02*
X125175000Y-79075000D01*
X125175000Y-79075000D02*
X125175000Y-79900000D01*
X125175000Y-79900000D02*
X125175000Y-80750000D01*
D26*
G04 #@! TO.N,Net-(D1-Pad1)*
X108500000Y-53200000D02*
X136160000Y-53200000D01*
X136160000Y-53200000D02*
X136750000Y-53790000D01*
X108500000Y-53200000D02*
X106500000Y-53200000D01*
X106500000Y-53200000D02*
X105635000Y-53200000D01*
X105635000Y-53200000D02*
X103935000Y-51500000D01*
D23*
X103680000Y-51270000D02*
X103700000Y-51250000D01*
G04 #@! TO.N,Net-(C5-Pad2)*
X110150000Y-80600000D02*
X115400000Y-80600000D01*
X110150000Y-84600000D02*
X113200000Y-84600000D01*
X115400000Y-86800000D02*
X115400000Y-89800000D01*
X113200000Y-84600000D02*
X115400000Y-86800000D01*
D24*
X128060000Y-81520000D02*
X128060000Y-78210000D01*
X128060000Y-78210000D02*
X126850000Y-77000000D01*
X126750000Y-77000000D02*
X126850000Y-77000000D01*
D25*
X128000000Y-81460000D02*
X128060000Y-81520000D01*
D23*
X112000000Y-89800000D02*
X113600000Y-89800000D01*
X110150000Y-89800000D02*
X112000000Y-89800000D01*
X113600000Y-89800000D02*
X115400000Y-89800000D01*
D24*
X125175000Y-86450000D02*
X127910000Y-86450000D01*
X127910000Y-86450000D02*
X128060000Y-86600000D01*
D26*
X128060000Y-84060000D02*
X128060000Y-86600000D01*
G04 #@! TD*
D27*
G04 #@! TO.N,GND*
G36*
X139290001Y-134290000D02*
X90710000Y-134290000D01*
X90710000Y-132416266D01*
X92763339Y-132416266D01*
X93075487Y-132864932D01*
X94318343Y-133383331D01*
X95664976Y-133386648D01*
X96910371Y-132874380D01*
X96924513Y-132864932D01*
X97236661Y-132416266D01*
X132763339Y-132416266D01*
X133075487Y-132864932D01*
X134318343Y-133383331D01*
X135664976Y-133386648D01*
X136910371Y-132874380D01*
X136924513Y-132864932D01*
X137236661Y-132416266D01*
X135000000Y-130179605D01*
X132763339Y-132416266D01*
X97236661Y-132416266D01*
X95000000Y-130179605D01*
X92763339Y-132416266D01*
X90710000Y-132416266D01*
X90710000Y-130664976D01*
X91613352Y-130664976D01*
X92125620Y-131910371D01*
X92135068Y-131924513D01*
X92583734Y-132236661D01*
X94820395Y-130000000D01*
X95179605Y-130000000D01*
X97416266Y-132236661D01*
X97864932Y-131924513D01*
X98383331Y-130681657D01*
X98383372Y-130664976D01*
X131613352Y-130664976D01*
X132125620Y-131910371D01*
X132135068Y-131924513D01*
X132583734Y-132236661D01*
X134820395Y-130000000D01*
X135179605Y-130000000D01*
X137416266Y-132236661D01*
X137864932Y-131924513D01*
X138383331Y-130681657D01*
X138386648Y-129335024D01*
X137874380Y-128089629D01*
X137864932Y-128075487D01*
X137416266Y-127763339D01*
X135179605Y-130000000D01*
X134820395Y-130000000D01*
X132583734Y-127763339D01*
X132135068Y-128075487D01*
X131616669Y-129318343D01*
X131613352Y-130664976D01*
X98383372Y-130664976D01*
X98386648Y-129335024D01*
X97874380Y-128089629D01*
X97864932Y-128075487D01*
X97416266Y-127763339D01*
X95179605Y-130000000D01*
X94820395Y-130000000D01*
X92583734Y-127763339D01*
X92135068Y-128075487D01*
X91616669Y-129318343D01*
X91613352Y-130664976D01*
X90710000Y-130664976D01*
X90710000Y-127583734D01*
X92763339Y-127583734D01*
X95000000Y-129820395D01*
X97236661Y-127583734D01*
X132763339Y-127583734D01*
X135000000Y-129820395D01*
X137236661Y-127583734D01*
X136924513Y-127135068D01*
X135681657Y-126616669D01*
X134335024Y-126613352D01*
X133089629Y-127125620D01*
X133075487Y-127135068D01*
X132763339Y-127583734D01*
X97236661Y-127583734D01*
X96924513Y-127135068D01*
X95681657Y-126616669D01*
X94335024Y-126613352D01*
X93089629Y-127125620D01*
X93075487Y-127135068D01*
X92763339Y-127583734D01*
X90710000Y-127583734D01*
X90710000Y-115503070D01*
X93385430Y-115503070D01*
X93400390Y-115577277D01*
X93662020Y-116058026D01*
X94087709Y-116402059D01*
X94612650Y-116557000D01*
X94949200Y-116557000D01*
X94949200Y-115287000D01*
X95203200Y-115287000D01*
X95203200Y-116557000D01*
X95539750Y-116557000D01*
X96064691Y-116402059D01*
X96490380Y-116058026D01*
X96752010Y-115577277D01*
X96766970Y-115503070D01*
X96644470Y-115287000D01*
X95203200Y-115287000D01*
X94949200Y-115287000D01*
X93507930Y-115287000D01*
X93385430Y-115503070D01*
X90710000Y-115503070D01*
X90710000Y-75503070D01*
X93385430Y-75503070D01*
X93400390Y-75577277D01*
X93662020Y-76058026D01*
X94087709Y-76402059D01*
X94612650Y-76557000D01*
X94949200Y-76557000D01*
X94949200Y-75287000D01*
X95203200Y-75287000D01*
X95203200Y-76557000D01*
X95539750Y-76557000D01*
X96064691Y-76402059D01*
X96490380Y-76058026D01*
X96752010Y-75577277D01*
X96766970Y-75503070D01*
X96644470Y-75287000D01*
X95203200Y-75287000D01*
X94949200Y-75287000D01*
X93507930Y-75287000D01*
X93385430Y-75503070D01*
X90710000Y-75503070D01*
X90710000Y-57380000D01*
X93315282Y-57380000D01*
X93423706Y-57925082D01*
X93732470Y-58387180D01*
X94125808Y-58650000D01*
X93732470Y-58912820D01*
X93423706Y-59374918D01*
X93315282Y-59920000D01*
X93423706Y-60465082D01*
X93732470Y-60927180D01*
X94125808Y-61190000D01*
X93732470Y-61452820D01*
X93423706Y-61914918D01*
X93315282Y-62460000D01*
X93423706Y-63005082D01*
X93732470Y-63467180D01*
X94125808Y-63730000D01*
X93732470Y-63992820D01*
X93423706Y-64454918D01*
X93315282Y-65000000D01*
X93423706Y-65545082D01*
X93732470Y-66007180D01*
X94125808Y-66270000D01*
X93732470Y-66532820D01*
X93423706Y-66994918D01*
X93315282Y-67540000D01*
X93423706Y-68085082D01*
X93732470Y-68547180D01*
X94125808Y-68810000D01*
X93732470Y-69072820D01*
X93423706Y-69534918D01*
X93315282Y-70080000D01*
X93423706Y-70625082D01*
X93732470Y-71087180D01*
X94125808Y-71350000D01*
X93732470Y-71612820D01*
X93423706Y-72074918D01*
X93315282Y-72620000D01*
X93423706Y-73165082D01*
X93732470Y-73627180D01*
X94143139Y-73901580D01*
X94087709Y-73917941D01*
X93662020Y-74261974D01*
X93400390Y-74742723D01*
X93385430Y-74816930D01*
X93507930Y-75033000D01*
X94949200Y-75033000D01*
X94949200Y-75013000D01*
X95203200Y-75013000D01*
X95203200Y-75033000D01*
X96644470Y-75033000D01*
X96766970Y-74816930D01*
X96752010Y-74742723D01*
X96490380Y-74261974D01*
X96064691Y-73917941D01*
X96009261Y-73901580D01*
X96419930Y-73627180D01*
X96728694Y-73165082D01*
X96837118Y-72620000D01*
X96820182Y-72534857D01*
X98989289Y-70365750D01*
X117665000Y-70365750D01*
X117665000Y-70506310D01*
X117761673Y-70739699D01*
X117940302Y-70918327D01*
X118173691Y-71015000D01*
X119014250Y-71015000D01*
X119173000Y-70856250D01*
X119173000Y-70207000D01*
X117823750Y-70207000D01*
X117665000Y-70365750D01*
X98989289Y-70365750D01*
X99610040Y-69745000D01*
X117665000Y-69745000D01*
X117665000Y-69794250D01*
X117823750Y-69953000D01*
X119173000Y-69953000D01*
X119173000Y-69933000D01*
X119427000Y-69933000D01*
X119427000Y-69953000D01*
X119447000Y-69953000D01*
X119447000Y-70207000D01*
X119427000Y-70207000D01*
X119427000Y-70856250D01*
X119585750Y-71015000D01*
X119889902Y-71015000D01*
X119889902Y-71942974D01*
X118099510Y-73733368D01*
X118033965Y-73777164D01*
X117860464Y-74036826D01*
X117814918Y-74265802D01*
X117814918Y-74265805D01*
X117799540Y-74343117D01*
X117814918Y-74420429D01*
X117814919Y-79613669D01*
X117766250Y-79565000D01*
X117698690Y-79565000D01*
X117465301Y-79661673D01*
X117286673Y-79840302D01*
X117190000Y-80073691D01*
X117190000Y-80464250D01*
X117348750Y-80623000D01*
X117827560Y-80623000D01*
X117827560Y-80877000D01*
X117348750Y-80877000D01*
X117190000Y-81035750D01*
X117190000Y-81405000D01*
X116058182Y-81405000D01*
X116146193Y-81346193D01*
X116374948Y-81003837D01*
X116455276Y-80600000D01*
X116374948Y-80196163D01*
X116146193Y-79853807D01*
X115803837Y-79625052D01*
X115501935Y-79565000D01*
X111406459Y-79565000D01*
X111357809Y-79492191D01*
X111147765Y-79351843D01*
X110900000Y-79302560D01*
X109400000Y-79302560D01*
X109152235Y-79351843D01*
X108942191Y-79492191D01*
X108801843Y-79702235D01*
X108800000Y-79711500D01*
X108798157Y-79702235D01*
X108657809Y-79492191D01*
X108447765Y-79351843D01*
X108200000Y-79302560D01*
X106700000Y-79302560D01*
X106452235Y-79351843D01*
X106242191Y-79492191D01*
X106193541Y-79565000D01*
X96768134Y-79565000D01*
X96666200Y-79544724D01*
X96564265Y-79565000D01*
X96262363Y-79625052D01*
X95920007Y-79853807D01*
X95862265Y-79940224D01*
X95021930Y-80780560D01*
X93977650Y-80780560D01*
X93729885Y-80829843D01*
X93519841Y-80970191D01*
X93379493Y-81180235D01*
X93330210Y-81428000D01*
X93330210Y-82952000D01*
X93379493Y-83199765D01*
X93519841Y-83409809D01*
X93729885Y-83550157D01*
X93931007Y-83590162D01*
X93732470Y-83722820D01*
X93423706Y-84184918D01*
X93315282Y-84730000D01*
X93423706Y-85275082D01*
X93732470Y-85737180D01*
X94143139Y-86011580D01*
X94087709Y-86027941D01*
X93662020Y-86371974D01*
X93400390Y-86852723D01*
X93385430Y-86926930D01*
X93507930Y-87143000D01*
X94949200Y-87143000D01*
X94949200Y-87123000D01*
X95203200Y-87123000D01*
X95203200Y-87143000D01*
X96644470Y-87143000D01*
X96766970Y-86926930D01*
X96752010Y-86852723D01*
X96490380Y-86371974D01*
X96064691Y-86027941D01*
X96009261Y-86011580D01*
X96419930Y-85737180D01*
X96488204Y-85635000D01*
X106193541Y-85635000D01*
X106242191Y-85707809D01*
X106452235Y-85848157D01*
X106700000Y-85897440D01*
X108200000Y-85897440D01*
X108447765Y-85848157D01*
X108657809Y-85707809D01*
X108798157Y-85497765D01*
X108800000Y-85488500D01*
X108801843Y-85497765D01*
X108942191Y-85707809D01*
X109152235Y-85848157D01*
X109400000Y-85897440D01*
X110900000Y-85897440D01*
X111147765Y-85848157D01*
X111357809Y-85707809D01*
X111406459Y-85635000D01*
X112771290Y-85635000D01*
X114365000Y-87228711D01*
X114365001Y-88765000D01*
X111406459Y-88765000D01*
X111357809Y-88692191D01*
X111147765Y-88551843D01*
X110900000Y-88502560D01*
X109400000Y-88502560D01*
X109152235Y-88551843D01*
X108942191Y-88692191D01*
X108801843Y-88902235D01*
X108800000Y-88911500D01*
X108798157Y-88902235D01*
X108657809Y-88692191D01*
X108447765Y-88551843D01*
X108200000Y-88502560D01*
X106700000Y-88502560D01*
X106452235Y-88551843D01*
X106242191Y-88692191D01*
X106193541Y-88765000D01*
X96363328Y-88765000D01*
X96009261Y-88528420D01*
X96064691Y-88512059D01*
X96490380Y-88168026D01*
X96752010Y-87687277D01*
X96766970Y-87613070D01*
X96644470Y-87397000D01*
X95203200Y-87397000D01*
X95203200Y-87417000D01*
X94949200Y-87417000D01*
X94949200Y-87397000D01*
X93507930Y-87397000D01*
X93385430Y-87613070D01*
X93400390Y-87687277D01*
X93662020Y-88168026D01*
X94087709Y-88512059D01*
X94143139Y-88528420D01*
X93732470Y-88802820D01*
X93423706Y-89264918D01*
X93315282Y-89810000D01*
X93423706Y-90355082D01*
X93732470Y-90817180D01*
X94194568Y-91125944D01*
X94602062Y-91207000D01*
X95003802Y-91207000D01*
X95266200Y-91259194D01*
X95528598Y-91207000D01*
X95550338Y-91207000D01*
X95957832Y-91125944D01*
X96393260Y-90835000D01*
X106193541Y-90835000D01*
X106242191Y-90907809D01*
X106452235Y-91048157D01*
X106700000Y-91097440D01*
X108200000Y-91097440D01*
X108447765Y-91048157D01*
X108657809Y-90907809D01*
X108798157Y-90697765D01*
X108800000Y-90688500D01*
X108801843Y-90697765D01*
X108942191Y-90907809D01*
X109152235Y-91048157D01*
X109400000Y-91097440D01*
X110900000Y-91097440D01*
X111147765Y-91048157D01*
X111357809Y-90907809D01*
X111406459Y-90835000D01*
X115298066Y-90835000D01*
X115400000Y-90855276D01*
X115753564Y-90784948D01*
X115803837Y-90774948D01*
X116146193Y-90546193D01*
X116374948Y-90203837D01*
X116374948Y-90203836D01*
X116435000Y-89901935D01*
X116455276Y-89800000D01*
X116435000Y-89698065D01*
X116435000Y-86901934D01*
X116455276Y-86800000D01*
X116374948Y-86396163D01*
X116306490Y-86293708D01*
X116146193Y-86053807D01*
X116059776Y-85996065D01*
X114003937Y-83940227D01*
X113946193Y-83853807D01*
X113843216Y-83785000D01*
X117862710Y-83785000D01*
X117870365Y-83792655D01*
X118214017Y-83935000D01*
X118585983Y-83935000D01*
X118800000Y-83846351D01*
X119014017Y-83935000D01*
X119385983Y-83935000D01*
X119600017Y-83846344D01*
X119814027Y-83934990D01*
X120185993Y-83934990D01*
X120529645Y-83792645D01*
X120625066Y-83697225D01*
X122194157Y-85266316D01*
X122125000Y-85252560D01*
X121725000Y-85252560D01*
X121600000Y-85277424D01*
X121475000Y-85252560D01*
X121075000Y-85252560D01*
X120950000Y-85277424D01*
X120825000Y-85252560D01*
X120425000Y-85252560D01*
X120300000Y-85277424D01*
X120175000Y-85252560D01*
X119775000Y-85252560D01*
X119650000Y-85277424D01*
X119525000Y-85252560D01*
X119125000Y-85252560D01*
X119000000Y-85277424D01*
X118875000Y-85252560D01*
X118475000Y-85252560D01*
X118350000Y-85277424D01*
X118225000Y-85252560D01*
X117825000Y-85252560D01*
X117577235Y-85301843D01*
X117367191Y-85442191D01*
X117226843Y-85652235D01*
X117177560Y-85900000D01*
X117177560Y-87000000D01*
X117226843Y-87247765D01*
X117240000Y-87267456D01*
X117240000Y-87377315D01*
X117240001Y-87377320D01*
X117240000Y-93147688D01*
X117224622Y-93225000D01*
X117240000Y-93302312D01*
X117240000Y-93302315D01*
X117278070Y-93493708D01*
X117285546Y-93531291D01*
X117402478Y-93706291D01*
X117459047Y-93790953D01*
X117524592Y-93834749D01*
X118615001Y-94925158D01*
X118615000Y-95972560D01*
X118300000Y-95972560D01*
X118237459Y-95985000D01*
X110307290Y-95985000D01*
X108566261Y-94243972D01*
X108514097Y-94165903D01*
X108204819Y-93959250D01*
X107932086Y-93905000D01*
X107840000Y-93886683D01*
X107747914Y-93905000D01*
X96787779Y-93905000D01*
X96772907Y-93830235D01*
X96632559Y-93620191D01*
X96422515Y-93479843D01*
X96174750Y-93430560D01*
X93977650Y-93430560D01*
X93729885Y-93479843D01*
X93519841Y-93620191D01*
X93379493Y-93830235D01*
X93330210Y-94078000D01*
X93330210Y-95602000D01*
X93379493Y-95849765D01*
X93519841Y-96059809D01*
X93729885Y-96200157D01*
X93931007Y-96240162D01*
X93732470Y-96372820D01*
X93423706Y-96834918D01*
X93315282Y-97380000D01*
X93423706Y-97925082D01*
X93732470Y-98387180D01*
X94125808Y-98650000D01*
X93732470Y-98912820D01*
X93423706Y-99374918D01*
X93315282Y-99920000D01*
X93423706Y-100465082D01*
X93732470Y-100927180D01*
X94125808Y-101190000D01*
X93732470Y-101452820D01*
X93423706Y-101914918D01*
X93315282Y-102460000D01*
X93423706Y-103005082D01*
X93732470Y-103467180D01*
X94125808Y-103730000D01*
X93732470Y-103992820D01*
X93423706Y-104454918D01*
X93315282Y-105000000D01*
X93423706Y-105545082D01*
X93732470Y-106007180D01*
X94125808Y-106270000D01*
X93732470Y-106532820D01*
X93423706Y-106994918D01*
X93315282Y-107540000D01*
X93423706Y-108085082D01*
X93732470Y-108547180D01*
X94125808Y-108810000D01*
X93732470Y-109072820D01*
X93423706Y-109534918D01*
X93315282Y-110080000D01*
X93423706Y-110625082D01*
X93732470Y-111087180D01*
X94125808Y-111350000D01*
X93732470Y-111612820D01*
X93423706Y-112074918D01*
X93315282Y-112620000D01*
X93423706Y-113165082D01*
X93732470Y-113627180D01*
X94143139Y-113901580D01*
X94087709Y-113917941D01*
X93662020Y-114261974D01*
X93400390Y-114742723D01*
X93385430Y-114816930D01*
X93507930Y-115033000D01*
X94949200Y-115033000D01*
X94949200Y-115013000D01*
X95203200Y-115013000D01*
X95203200Y-115033000D01*
X96644470Y-115033000D01*
X96766970Y-114816930D01*
X96752010Y-114742723D01*
X96490380Y-114261974D01*
X96064691Y-113917941D01*
X96009261Y-113901580D01*
X96419930Y-113627180D01*
X96468159Y-113555000D01*
X97287914Y-113555000D01*
X97380000Y-113573317D01*
X97472086Y-113555000D01*
X97744819Y-113500750D01*
X98054097Y-113294097D01*
X98106261Y-113216028D01*
X103956539Y-107365750D01*
X117665000Y-107365750D01*
X117665000Y-107506310D01*
X117761673Y-107739699D01*
X117940302Y-107918327D01*
X118173691Y-108015000D01*
X119014250Y-108015000D01*
X119173000Y-107856250D01*
X119173000Y-107207000D01*
X119427000Y-107207000D01*
X119427000Y-107856250D01*
X119585750Y-108015000D01*
X120426309Y-108015000D01*
X120659698Y-107918327D01*
X120838327Y-107739699D01*
X120935000Y-107506310D01*
X120935000Y-107365750D01*
X120776250Y-107207000D01*
X119427000Y-107207000D01*
X119173000Y-107207000D01*
X117823750Y-107207000D01*
X117665000Y-107365750D01*
X103956539Y-107365750D01*
X104577290Y-106745000D01*
X117665000Y-106745000D01*
X117665000Y-106794250D01*
X117823750Y-106953000D01*
X119173000Y-106953000D01*
X119173000Y-106933000D01*
X119427000Y-106933000D01*
X119427000Y-106953000D01*
X120776250Y-106953000D01*
X120935000Y-106794250D01*
X120935000Y-106653690D01*
X120845232Y-106436972D01*
X120898157Y-106357765D01*
X120947440Y-106110000D01*
X120947440Y-105972717D01*
X125300411Y-101619747D01*
X125365953Y-101575953D01*
X125409747Y-101510411D01*
X125409749Y-101510409D01*
X125539454Y-101316292D01*
X125548662Y-101270001D01*
X125585000Y-101087316D01*
X125585000Y-101087313D01*
X125600378Y-101010001D01*
X125585000Y-100932689D01*
X125585000Y-96620000D01*
X127052560Y-96620000D01*
X127052560Y-97220000D01*
X127101843Y-97467765D01*
X127160132Y-97555000D01*
X127101843Y-97642235D01*
X127052560Y-97890000D01*
X127052560Y-98490000D01*
X127101843Y-98737765D01*
X127160132Y-98825000D01*
X127101843Y-98912235D01*
X127052560Y-99160000D01*
X127052560Y-99760000D01*
X127101843Y-100007765D01*
X127160132Y-100095000D01*
X127101843Y-100182235D01*
X127052560Y-100430000D01*
X127052560Y-101030000D01*
X127101843Y-101277765D01*
X127160132Y-101365000D01*
X127101843Y-101452235D01*
X127052560Y-101700000D01*
X127052560Y-102300000D01*
X127101843Y-102547765D01*
X127160132Y-102635000D01*
X127101843Y-102722235D01*
X127052560Y-102970000D01*
X127052560Y-103570000D01*
X127101843Y-103817765D01*
X127160132Y-103905000D01*
X127101843Y-103992235D01*
X127052560Y-104240000D01*
X127052560Y-104840000D01*
X127101843Y-105087765D01*
X127160132Y-105175000D01*
X127101843Y-105262235D01*
X127052560Y-105510000D01*
X127052560Y-106110000D01*
X127101843Y-106357765D01*
X127160132Y-106445000D01*
X127101843Y-106532235D01*
X127052560Y-106780000D01*
X127052560Y-107380000D01*
X127101843Y-107627765D01*
X127242191Y-107837809D01*
X127452235Y-107978157D01*
X127700000Y-108027440D01*
X129700000Y-108027440D01*
X129762541Y-108015000D01*
X133692711Y-108015000D01*
X134381991Y-108704280D01*
X134339082Y-108920000D01*
X134385074Y-109151216D01*
X133540227Y-109996063D01*
X133453807Y-110053807D01*
X133277948Y-110317000D01*
X133225052Y-110396164D01*
X133144724Y-110800000D01*
X133165000Y-110901935D01*
X133165001Y-112751861D01*
X133144724Y-112853800D01*
X133225052Y-113257637D01*
X133453807Y-113599993D01*
X133796163Y-113828748D01*
X133882140Y-113845850D01*
X134903863Y-114867574D01*
X134792191Y-114942191D01*
X134651843Y-115152235D01*
X134602560Y-115400000D01*
X134602560Y-117100000D01*
X134651843Y-117347765D01*
X134792191Y-117557809D01*
X135002235Y-117698157D01*
X135047619Y-117707184D01*
X135029375Y-117719375D01*
X134701161Y-118210582D01*
X134585908Y-118790000D01*
X134701161Y-119369418D01*
X135029375Y-119860625D01*
X135520582Y-120188839D01*
X135953744Y-120275000D01*
X136246256Y-120275000D01*
X136679418Y-120188839D01*
X137170625Y-119860625D01*
X137498839Y-119369418D01*
X137614092Y-118790000D01*
X137498839Y-118210582D01*
X137170625Y-117719375D01*
X137152381Y-117707184D01*
X137197765Y-117698157D01*
X137407809Y-117557809D01*
X137548157Y-117347765D01*
X137597440Y-117100000D01*
X137597440Y-115400000D01*
X137548157Y-115152235D01*
X137407809Y-114942191D01*
X137197765Y-114801843D01*
X137135000Y-114789358D01*
X137135000Y-114701934D01*
X137155276Y-114600000D01*
X137074948Y-114196163D01*
X136903934Y-113940223D01*
X136846193Y-113853807D01*
X136759776Y-113796065D01*
X135820710Y-112857000D01*
X135973000Y-112857000D01*
X135973000Y-111587000D01*
X136227000Y-111587000D01*
X136227000Y-112857000D01*
X136563550Y-112857000D01*
X137088491Y-112702059D01*
X137514180Y-112358026D01*
X137775810Y-111877277D01*
X137790770Y-111803070D01*
X137668270Y-111587000D01*
X136227000Y-111587000D01*
X135973000Y-111587000D01*
X135953000Y-111587000D01*
X135953000Y-111333000D01*
X135973000Y-111333000D01*
X135973000Y-111313000D01*
X136227000Y-111313000D01*
X136227000Y-111333000D01*
X137668270Y-111333000D01*
X137790770Y-111116930D01*
X137775810Y-111042723D01*
X137514180Y-110561974D01*
X137088491Y-110217941D01*
X137033061Y-110201580D01*
X137443730Y-109927180D01*
X137752494Y-109465082D01*
X137860918Y-108920000D01*
X137752494Y-108374918D01*
X137443730Y-107912820D01*
X137050392Y-107650000D01*
X137443730Y-107387180D01*
X137752494Y-106925082D01*
X137860918Y-106380000D01*
X137752494Y-105834918D01*
X137443730Y-105372820D01*
X137050392Y-105110000D01*
X137443730Y-104847180D01*
X137752494Y-104385082D01*
X137860918Y-103840000D01*
X137752494Y-103294918D01*
X137443730Y-102832820D01*
X137050392Y-102570000D01*
X137443730Y-102307180D01*
X137752494Y-101845082D01*
X137860918Y-101300000D01*
X137752494Y-100754918D01*
X137443730Y-100292820D01*
X137050392Y-100030000D01*
X137443730Y-99767180D01*
X137752494Y-99305082D01*
X137860918Y-98760000D01*
X137752494Y-98214918D01*
X137443730Y-97752820D01*
X137050392Y-97490000D01*
X137443730Y-97227180D01*
X137752494Y-96765082D01*
X137860918Y-96220000D01*
X137752494Y-95674918D01*
X137443730Y-95212820D01*
X137050392Y-94950000D01*
X137443730Y-94687180D01*
X137634744Y-94401307D01*
X137750297Y-94324097D01*
X137956950Y-94014819D01*
X138029517Y-93650000D01*
X137956950Y-93285181D01*
X137750297Y-92975903D01*
X137562318Y-92850299D01*
X137443730Y-92672820D01*
X137050392Y-92410000D01*
X137443730Y-92147180D01*
X137752494Y-91685082D01*
X137860918Y-91140000D01*
X137752494Y-90594918D01*
X137443730Y-90132820D01*
X137245193Y-90000162D01*
X137446315Y-89960157D01*
X137656359Y-89819809D01*
X137796707Y-89609765D01*
X137845990Y-89362000D01*
X137845990Y-87838000D01*
X137796707Y-87590235D01*
X137656359Y-87380191D01*
X137446315Y-87239843D01*
X137198550Y-87190560D01*
X135001450Y-87190560D01*
X134753685Y-87239843D01*
X134543641Y-87380191D01*
X134403293Y-87590235D01*
X134388421Y-87665000D01*
X132672905Y-87665000D01*
X132430000Y-87616683D01*
X132065181Y-87689250D01*
X131833970Y-87843741D01*
X131833968Y-87843743D01*
X131755904Y-87895904D01*
X131703743Y-87973968D01*
X128103972Y-91573739D01*
X128025903Y-91625903D01*
X127900157Y-91814096D01*
X127819250Y-91935182D01*
X127746683Y-92300000D01*
X127765000Y-92392086D01*
X127765001Y-95972560D01*
X127700000Y-95972560D01*
X127452235Y-96021843D01*
X127242191Y-96162191D01*
X127101843Y-96372235D01*
X127052560Y-96620000D01*
X125585000Y-96620000D01*
X125585000Y-93477310D01*
X125600378Y-93399999D01*
X125585000Y-93322688D01*
X125585000Y-93322684D01*
X125539454Y-93093708D01*
X125419680Y-92914454D01*
X125409749Y-92899591D01*
X125409747Y-92899589D01*
X125365953Y-92834047D01*
X125300411Y-92790253D01*
X123360000Y-90849843D01*
X123360000Y-88545157D01*
X123915251Y-89100408D01*
X123959047Y-89165953D01*
X124218708Y-89339454D01*
X124447684Y-89385000D01*
X124447688Y-89385000D01*
X124525000Y-89400378D01*
X124602312Y-89385000D01*
X129722688Y-89385000D01*
X129800000Y-89400378D01*
X129877312Y-89385000D01*
X129877316Y-89385000D01*
X130106292Y-89339454D01*
X130365953Y-89165953D01*
X130409749Y-89100408D01*
X131100411Y-88409747D01*
X131165953Y-88365953D01*
X131209747Y-88300411D01*
X131209749Y-88300409D01*
X131339454Y-88106292D01*
X131359807Y-88003970D01*
X131385000Y-87877316D01*
X131385000Y-87877312D01*
X131388633Y-87859046D01*
X131670625Y-87670625D01*
X131998839Y-87179418D01*
X132114092Y-86600000D01*
X131998839Y-86020582D01*
X131670625Y-85529375D01*
X131372239Y-85330000D01*
X131670625Y-85130625D01*
X131998839Y-84639418D01*
X132114092Y-84060000D01*
X131998839Y-83480582D01*
X131670625Y-82989375D01*
X131372239Y-82790000D01*
X131670625Y-82590625D01*
X131749817Y-82472106D01*
X132881619Y-83603909D01*
X132852560Y-83750000D01*
X132852560Y-85050000D01*
X132901843Y-85297765D01*
X133042191Y-85507809D01*
X133252235Y-85648157D01*
X133500000Y-85697440D01*
X135000000Y-85697440D01*
X135247765Y-85648157D01*
X135457809Y-85507809D01*
X135598157Y-85297765D01*
X135603721Y-85269791D01*
X135661673Y-85409699D01*
X135840302Y-85588327D01*
X136073691Y-85685000D01*
X136664250Y-85685000D01*
X136823000Y-85526250D01*
X136823000Y-84527000D01*
X137077000Y-84527000D01*
X137077000Y-85526250D01*
X137235750Y-85685000D01*
X137826309Y-85685000D01*
X138059698Y-85588327D01*
X138238327Y-85409699D01*
X138335000Y-85176310D01*
X138335000Y-84685750D01*
X138176250Y-84527000D01*
X137077000Y-84527000D01*
X136823000Y-84527000D01*
X136803000Y-84527000D01*
X136803000Y-84273000D01*
X136823000Y-84273000D01*
X136823000Y-83273750D01*
X137077000Y-83273750D01*
X137077000Y-84273000D01*
X138176250Y-84273000D01*
X138335000Y-84114250D01*
X138335000Y-83623690D01*
X138238327Y-83390301D01*
X138059698Y-83211673D01*
X137826309Y-83115000D01*
X137235750Y-83115000D01*
X137077000Y-83273750D01*
X136823000Y-83273750D01*
X136664250Y-83115000D01*
X136073691Y-83115000D01*
X135840302Y-83211673D01*
X135661673Y-83390301D01*
X135603721Y-83530209D01*
X135598157Y-83502235D01*
X135457809Y-83292191D01*
X135247765Y-83151843D01*
X135010064Y-83104562D01*
X134924097Y-82975903D01*
X134846031Y-82923741D01*
X133695360Y-81773070D01*
X134309230Y-81773070D01*
X134324190Y-81847277D01*
X134585820Y-82328026D01*
X135011509Y-82672059D01*
X135536450Y-82827000D01*
X135873000Y-82827000D01*
X135873000Y-81557000D01*
X136127000Y-81557000D01*
X136127000Y-82827000D01*
X136463550Y-82827000D01*
X136988491Y-82672059D01*
X137414180Y-82328026D01*
X137675810Y-81847277D01*
X137690770Y-81773070D01*
X137568270Y-81557000D01*
X136127000Y-81557000D01*
X135873000Y-81557000D01*
X134431730Y-81557000D01*
X134309230Y-81773070D01*
X133695360Y-81773070D01*
X132846261Y-80923972D01*
X132794097Y-80845903D01*
X132484819Y-80639250D01*
X132212086Y-80585000D01*
X132120000Y-80566683D01*
X132027914Y-80585000D01*
X131761247Y-80585000D01*
X131670625Y-80449375D01*
X131385000Y-80258526D01*
X131385000Y-79877310D01*
X131400378Y-79799999D01*
X131385000Y-79722688D01*
X131385000Y-79722684D01*
X131339454Y-79493708D01*
X131252948Y-79364244D01*
X131209749Y-79299591D01*
X131209747Y-79299589D01*
X131165953Y-79234047D01*
X131100411Y-79190253D01*
X130185000Y-78274843D01*
X130185000Y-76477312D01*
X130200378Y-76400000D01*
X130185000Y-76322688D01*
X130185000Y-76322684D01*
X130139454Y-76093708D01*
X129965953Y-75834047D01*
X129900408Y-75790251D01*
X128409749Y-74299592D01*
X128365953Y-74234047D01*
X128106292Y-74060546D01*
X127877316Y-74015000D01*
X127877312Y-74015000D01*
X127800000Y-73999622D01*
X127722688Y-74015000D01*
X124916260Y-74015000D01*
X124959978Y-73795216D01*
X124959978Y-73795212D01*
X124975356Y-73717900D01*
X124959978Y-73640588D01*
X124959978Y-64172290D01*
X124975356Y-64094978D01*
X124959978Y-64017666D01*
X124959978Y-64017662D01*
X124914432Y-63788686D01*
X124740931Y-63529025D01*
X124675386Y-63485229D01*
X120947440Y-59757283D01*
X120947440Y-59620000D01*
X127052560Y-59620000D01*
X127052560Y-60220000D01*
X127101843Y-60467765D01*
X127160132Y-60555000D01*
X127101843Y-60642235D01*
X127052560Y-60890000D01*
X127052560Y-61490000D01*
X127101843Y-61737765D01*
X127160132Y-61825000D01*
X127101843Y-61912235D01*
X127052560Y-62160000D01*
X127052560Y-62760000D01*
X127101843Y-63007765D01*
X127160132Y-63095000D01*
X127101843Y-63182235D01*
X127052560Y-63430000D01*
X127052560Y-64030000D01*
X127101843Y-64277765D01*
X127160132Y-64365000D01*
X127101843Y-64452235D01*
X127052560Y-64700000D01*
X127052560Y-65300000D01*
X127101843Y-65547765D01*
X127160132Y-65635000D01*
X127101843Y-65722235D01*
X127052560Y-65970000D01*
X127052560Y-66570000D01*
X127101843Y-66817765D01*
X127160132Y-66905000D01*
X127101843Y-66992235D01*
X127052560Y-67240000D01*
X127052560Y-67840000D01*
X127101843Y-68087765D01*
X127160132Y-68175000D01*
X127101843Y-68262235D01*
X127052560Y-68510000D01*
X127052560Y-69110000D01*
X127101843Y-69357765D01*
X127160132Y-69445000D01*
X127101843Y-69532235D01*
X127052560Y-69780000D01*
X127052560Y-70380000D01*
X127101843Y-70627765D01*
X127242191Y-70837809D01*
X127452235Y-70978157D01*
X127700000Y-71027440D01*
X129700000Y-71027440D01*
X129704296Y-71026585D01*
X131065000Y-72387290D01*
X131065001Y-74907910D01*
X131046683Y-75000000D01*
X131119250Y-75364818D01*
X131259153Y-75574197D01*
X131325904Y-75674097D01*
X131403970Y-75726259D01*
X134293605Y-78615895D01*
X134239082Y-78890000D01*
X134347506Y-79435082D01*
X134656270Y-79897180D01*
X135066939Y-80171580D01*
X135011509Y-80187941D01*
X134585820Y-80531974D01*
X134324190Y-81012723D01*
X134309230Y-81086930D01*
X134431730Y-81303000D01*
X135873000Y-81303000D01*
X135873000Y-81283000D01*
X136127000Y-81283000D01*
X136127000Y-81303000D01*
X137568270Y-81303000D01*
X137690770Y-81086930D01*
X137675810Y-81012723D01*
X137414180Y-80531974D01*
X136988491Y-80187941D01*
X136933061Y-80171580D01*
X137343730Y-79897180D01*
X137652494Y-79435082D01*
X137760918Y-78890000D01*
X137652494Y-78344918D01*
X137343730Y-77882820D01*
X136950392Y-77620000D01*
X137343730Y-77357180D01*
X137652494Y-76895082D01*
X137760918Y-76350000D01*
X137652494Y-75804918D01*
X137343730Y-75342820D01*
X136950392Y-75080000D01*
X137343730Y-74817180D01*
X137652494Y-74355082D01*
X137760918Y-73810000D01*
X137652494Y-73264918D01*
X137343730Y-72802820D01*
X136950392Y-72540000D01*
X137343730Y-72277180D01*
X137652494Y-71815082D01*
X137760918Y-71270000D01*
X137652494Y-70724918D01*
X137343730Y-70262820D01*
X136950392Y-70000000D01*
X137343730Y-69737180D01*
X137652494Y-69275082D01*
X137760918Y-68730000D01*
X137652494Y-68184918D01*
X137343730Y-67722820D01*
X136950392Y-67460000D01*
X137343730Y-67197180D01*
X137652494Y-66735082D01*
X137760918Y-66190000D01*
X137652494Y-65644918D01*
X137343730Y-65182820D01*
X136950392Y-64920000D01*
X137343730Y-64657180D01*
X137652494Y-64195082D01*
X137760918Y-63650000D01*
X137652494Y-63104918D01*
X137343730Y-62642820D01*
X136950392Y-62380000D01*
X137343730Y-62117180D01*
X137652494Y-61655082D01*
X137760918Y-61110000D01*
X137652494Y-60564918D01*
X137343730Y-60102820D01*
X137145193Y-59970162D01*
X137346315Y-59930157D01*
X137556359Y-59789809D01*
X137696707Y-59579765D01*
X137745990Y-59332000D01*
X137745990Y-57808000D01*
X137696707Y-57560235D01*
X137556359Y-57350191D01*
X137346315Y-57209843D01*
X137098550Y-57160560D01*
X134901450Y-57160560D01*
X134653685Y-57209843D01*
X134443641Y-57350191D01*
X134303293Y-57560235D01*
X134288421Y-57635000D01*
X133522081Y-57635000D01*
X133429999Y-57616684D01*
X133337917Y-57635000D01*
X133337914Y-57635000D01*
X133065181Y-57689250D01*
X132755903Y-57895903D01*
X132703741Y-57973969D01*
X131692711Y-58985000D01*
X129762541Y-58985000D01*
X129700000Y-58972560D01*
X127700000Y-58972560D01*
X127452235Y-59021843D01*
X127242191Y-59162191D01*
X127101843Y-59372235D01*
X127052560Y-59620000D01*
X120947440Y-59620000D01*
X120898157Y-59372235D01*
X120757809Y-59162191D01*
X120547765Y-59021843D01*
X120300000Y-58972560D01*
X118300000Y-58972560D01*
X118237459Y-58985000D01*
X103307290Y-58985000D01*
X98566261Y-54243972D01*
X98514097Y-54165903D01*
X98204819Y-53959250D01*
X97932086Y-53905000D01*
X97840000Y-53886683D01*
X97747914Y-53905000D01*
X96787779Y-53905000D01*
X96772907Y-53830235D01*
X96632559Y-53620191D01*
X96422515Y-53479843D01*
X96174750Y-53430560D01*
X93977650Y-53430560D01*
X93729885Y-53479843D01*
X93519841Y-53620191D01*
X93379493Y-53830235D01*
X93330210Y-54078000D01*
X93330210Y-55602000D01*
X93379493Y-55849765D01*
X93519841Y-56059809D01*
X93729885Y-56200157D01*
X93931007Y-56240162D01*
X93732470Y-56372820D01*
X93423706Y-56834918D01*
X93315282Y-57380000D01*
X90710000Y-57380000D01*
X90710000Y-51270000D01*
X93315282Y-51270000D01*
X93423706Y-51815082D01*
X93732470Y-52277180D01*
X94194568Y-52585944D01*
X94602062Y-52667000D01*
X95550338Y-52667000D01*
X95957832Y-52585944D01*
X96078973Y-52505000D01*
X98846700Y-52505000D01*
X98972191Y-52692809D01*
X99182235Y-52833157D01*
X99430000Y-52882440D01*
X100700000Y-52882440D01*
X100947765Y-52833157D01*
X101157809Y-52692809D01*
X101298157Y-52482765D01*
X101347440Y-52235000D01*
X101347440Y-51270000D01*
X102624724Y-51270000D01*
X102652560Y-51409941D01*
X102652560Y-52235000D01*
X102701843Y-52482765D01*
X102842191Y-52692809D01*
X103052235Y-52833157D01*
X103300000Y-52882440D01*
X103570887Y-52882440D01*
X104675715Y-53987269D01*
X104744615Y-54090385D01*
X104847731Y-54159285D01*
X104847732Y-54159286D01*
X104857637Y-54165904D01*
X105153127Y-54363344D01*
X105513364Y-54435000D01*
X105513367Y-54435000D01*
X105634999Y-54459194D01*
X105756631Y-54435000D01*
X135394981Y-54435000D01*
X135679375Y-54860625D01*
X136170582Y-55188839D01*
X136603744Y-55275000D01*
X136896256Y-55275000D01*
X137329418Y-55188839D01*
X137820625Y-54860625D01*
X138148839Y-54369418D01*
X138264092Y-53790000D01*
X138148839Y-53210582D01*
X137820625Y-52719375D01*
X137802381Y-52707184D01*
X137847765Y-52698157D01*
X138057809Y-52557809D01*
X138198157Y-52347765D01*
X138247440Y-52100000D01*
X138247440Y-50400000D01*
X138198157Y-50152235D01*
X138057809Y-49942191D01*
X137847765Y-49801843D01*
X137600000Y-49752560D01*
X135900000Y-49752560D01*
X135652235Y-49801843D01*
X135442191Y-49942191D01*
X135301843Y-50152235D01*
X135252560Y-50400000D01*
X135252560Y-51965000D01*
X106146554Y-51965000D01*
X105217440Y-51035887D01*
X105217440Y-50765000D01*
X105168157Y-50517235D01*
X105027809Y-50307191D01*
X104817765Y-50166843D01*
X104570000Y-50117560D01*
X103300000Y-50117560D01*
X103052235Y-50166843D01*
X102842191Y-50307191D01*
X102701843Y-50517235D01*
X102652560Y-50765000D01*
X102652560Y-51130059D01*
X102624724Y-51270000D01*
X101347440Y-51270000D01*
X101347440Y-50765000D01*
X101298157Y-50517235D01*
X101157809Y-50307191D01*
X100947765Y-50166843D01*
X100700000Y-50117560D01*
X100333192Y-50117560D01*
X100316873Y-50106656D01*
X99956636Y-50035000D01*
X99956632Y-50035000D01*
X99835000Y-50010806D01*
X99713368Y-50035000D01*
X96523167Y-50035000D01*
X96534449Y-50030327D01*
X96713077Y-49851698D01*
X96809750Y-49618309D01*
X96809750Y-49015750D01*
X96651000Y-48857000D01*
X95203200Y-48857000D01*
X95203200Y-48877000D01*
X94949200Y-48877000D01*
X94949200Y-48857000D01*
X93501400Y-48857000D01*
X93342650Y-49015750D01*
X93342650Y-49618309D01*
X93439323Y-49851698D01*
X93617951Y-50030327D01*
X93851340Y-50127000D01*
X93935739Y-50127000D01*
X93732470Y-50262820D01*
X93423706Y-50724918D01*
X93315282Y-51270000D01*
X90710000Y-51270000D01*
X90710000Y-47841691D01*
X93342650Y-47841691D01*
X93342650Y-48444250D01*
X93501400Y-48603000D01*
X94949200Y-48603000D01*
X94949200Y-47491750D01*
X95203200Y-47491750D01*
X95203200Y-48603000D01*
X96651000Y-48603000D01*
X96809750Y-48444250D01*
X96809750Y-47841691D01*
X96713077Y-47608302D01*
X96534449Y-47429673D01*
X96301060Y-47333000D01*
X95361950Y-47333000D01*
X95203200Y-47491750D01*
X94949200Y-47491750D01*
X94790450Y-47333000D01*
X93851340Y-47333000D01*
X93617951Y-47429673D01*
X93439323Y-47608302D01*
X93342650Y-47841691D01*
X90710000Y-47841691D01*
X90710000Y-42416266D01*
X92763339Y-42416266D01*
X93075487Y-42864932D01*
X94318343Y-43383331D01*
X95664976Y-43386648D01*
X96910371Y-42874380D01*
X96924513Y-42864932D01*
X97236661Y-42416266D01*
X132763339Y-42416266D01*
X133075487Y-42864932D01*
X134318343Y-43383331D01*
X135664976Y-43386648D01*
X136910371Y-42874380D01*
X136924513Y-42864932D01*
X137236661Y-42416266D01*
X135000000Y-40179605D01*
X132763339Y-42416266D01*
X97236661Y-42416266D01*
X95000000Y-40179605D01*
X92763339Y-42416266D01*
X90710000Y-42416266D01*
X90710000Y-40664976D01*
X91613352Y-40664976D01*
X92125620Y-41910371D01*
X92135068Y-41924513D01*
X92583734Y-42236661D01*
X94820395Y-40000000D01*
X95179605Y-40000000D01*
X97416266Y-42236661D01*
X97864932Y-41924513D01*
X98383331Y-40681657D01*
X98383372Y-40664976D01*
X131613352Y-40664976D01*
X132125620Y-41910371D01*
X132135068Y-41924513D01*
X132583734Y-42236661D01*
X134820395Y-40000000D01*
X135179605Y-40000000D01*
X137416266Y-42236661D01*
X137864932Y-41924513D01*
X138383331Y-40681657D01*
X138386648Y-39335024D01*
X137874380Y-38089629D01*
X137864932Y-38075487D01*
X137416266Y-37763339D01*
X135179605Y-40000000D01*
X134820395Y-40000000D01*
X132583734Y-37763339D01*
X132135068Y-38075487D01*
X131616669Y-39318343D01*
X131613352Y-40664976D01*
X98383372Y-40664976D01*
X98386648Y-39335024D01*
X97874380Y-38089629D01*
X97864932Y-38075487D01*
X97416266Y-37763339D01*
X95179605Y-40000000D01*
X94820395Y-40000000D01*
X92583734Y-37763339D01*
X92135068Y-38075487D01*
X91616669Y-39318343D01*
X91613352Y-40664976D01*
X90710000Y-40664976D01*
X90710000Y-37583734D01*
X92763339Y-37583734D01*
X95000000Y-39820395D01*
X97236661Y-37583734D01*
X132763339Y-37583734D01*
X135000000Y-39820395D01*
X137236661Y-37583734D01*
X136924513Y-37135068D01*
X135681657Y-36616669D01*
X134335024Y-36613352D01*
X133089629Y-37125620D01*
X133075487Y-37135068D01*
X132763339Y-37583734D01*
X97236661Y-37583734D01*
X96924513Y-37135068D01*
X95681657Y-36616669D01*
X94335024Y-36613352D01*
X93089629Y-37125620D01*
X93075487Y-37135068D01*
X92763339Y-37583734D01*
X90710000Y-37583734D01*
X90710000Y-35710000D01*
X139290000Y-35710000D01*
X139290001Y-134290000D01*
X139290001Y-134290000D01*
G37*
X139290001Y-134290000D02*
X90710000Y-134290000D01*
X90710000Y-132416266D01*
X92763339Y-132416266D01*
X93075487Y-132864932D01*
X94318343Y-133383331D01*
X95664976Y-133386648D01*
X96910371Y-132874380D01*
X96924513Y-132864932D01*
X97236661Y-132416266D01*
X132763339Y-132416266D01*
X133075487Y-132864932D01*
X134318343Y-133383331D01*
X135664976Y-133386648D01*
X136910371Y-132874380D01*
X136924513Y-132864932D01*
X137236661Y-132416266D01*
X135000000Y-130179605D01*
X132763339Y-132416266D01*
X97236661Y-132416266D01*
X95000000Y-130179605D01*
X92763339Y-132416266D01*
X90710000Y-132416266D01*
X90710000Y-130664976D01*
X91613352Y-130664976D01*
X92125620Y-131910371D01*
X92135068Y-131924513D01*
X92583734Y-132236661D01*
X94820395Y-130000000D01*
X95179605Y-130000000D01*
X97416266Y-132236661D01*
X97864932Y-131924513D01*
X98383331Y-130681657D01*
X98383372Y-130664976D01*
X131613352Y-130664976D01*
X132125620Y-131910371D01*
X132135068Y-131924513D01*
X132583734Y-132236661D01*
X134820395Y-130000000D01*
X135179605Y-130000000D01*
X137416266Y-132236661D01*
X137864932Y-131924513D01*
X138383331Y-130681657D01*
X138386648Y-129335024D01*
X137874380Y-128089629D01*
X137864932Y-128075487D01*
X137416266Y-127763339D01*
X135179605Y-130000000D01*
X134820395Y-130000000D01*
X132583734Y-127763339D01*
X132135068Y-128075487D01*
X131616669Y-129318343D01*
X131613352Y-130664976D01*
X98383372Y-130664976D01*
X98386648Y-129335024D01*
X97874380Y-128089629D01*
X97864932Y-128075487D01*
X97416266Y-127763339D01*
X95179605Y-130000000D01*
X94820395Y-130000000D01*
X92583734Y-127763339D01*
X92135068Y-128075487D01*
X91616669Y-129318343D01*
X91613352Y-130664976D01*
X90710000Y-130664976D01*
X90710000Y-127583734D01*
X92763339Y-127583734D01*
X95000000Y-129820395D01*
X97236661Y-127583734D01*
X132763339Y-127583734D01*
X135000000Y-129820395D01*
X137236661Y-127583734D01*
X136924513Y-127135068D01*
X135681657Y-126616669D01*
X134335024Y-126613352D01*
X133089629Y-127125620D01*
X133075487Y-127135068D01*
X132763339Y-127583734D01*
X97236661Y-127583734D01*
X96924513Y-127135068D01*
X95681657Y-126616669D01*
X94335024Y-126613352D01*
X93089629Y-127125620D01*
X93075487Y-127135068D01*
X92763339Y-127583734D01*
X90710000Y-127583734D01*
X90710000Y-115503070D01*
X93385430Y-115503070D01*
X93400390Y-115577277D01*
X93662020Y-116058026D01*
X94087709Y-116402059D01*
X94612650Y-116557000D01*
X94949200Y-116557000D01*
X94949200Y-115287000D01*
X95203200Y-115287000D01*
X95203200Y-116557000D01*
X95539750Y-116557000D01*
X96064691Y-116402059D01*
X96490380Y-116058026D01*
X96752010Y-115577277D01*
X96766970Y-115503070D01*
X96644470Y-115287000D01*
X95203200Y-115287000D01*
X94949200Y-115287000D01*
X93507930Y-115287000D01*
X93385430Y-115503070D01*
X90710000Y-115503070D01*
X90710000Y-75503070D01*
X93385430Y-75503070D01*
X93400390Y-75577277D01*
X93662020Y-76058026D01*
X94087709Y-76402059D01*
X94612650Y-76557000D01*
X94949200Y-76557000D01*
X94949200Y-75287000D01*
X95203200Y-75287000D01*
X95203200Y-76557000D01*
X95539750Y-76557000D01*
X96064691Y-76402059D01*
X96490380Y-76058026D01*
X96752010Y-75577277D01*
X96766970Y-75503070D01*
X96644470Y-75287000D01*
X95203200Y-75287000D01*
X94949200Y-75287000D01*
X93507930Y-75287000D01*
X93385430Y-75503070D01*
X90710000Y-75503070D01*
X90710000Y-57380000D01*
X93315282Y-57380000D01*
X93423706Y-57925082D01*
X93732470Y-58387180D01*
X94125808Y-58650000D01*
X93732470Y-58912820D01*
X93423706Y-59374918D01*
X93315282Y-59920000D01*
X93423706Y-60465082D01*
X93732470Y-60927180D01*
X94125808Y-61190000D01*
X93732470Y-61452820D01*
X93423706Y-61914918D01*
X93315282Y-62460000D01*
X93423706Y-63005082D01*
X93732470Y-63467180D01*
X94125808Y-63730000D01*
X93732470Y-63992820D01*
X93423706Y-64454918D01*
X93315282Y-65000000D01*
X93423706Y-65545082D01*
X93732470Y-66007180D01*
X94125808Y-66270000D01*
X93732470Y-66532820D01*
X93423706Y-66994918D01*
X93315282Y-67540000D01*
X93423706Y-68085082D01*
X93732470Y-68547180D01*
X94125808Y-68810000D01*
X93732470Y-69072820D01*
X93423706Y-69534918D01*
X93315282Y-70080000D01*
X93423706Y-70625082D01*
X93732470Y-71087180D01*
X94125808Y-71350000D01*
X93732470Y-71612820D01*
X93423706Y-72074918D01*
X93315282Y-72620000D01*
X93423706Y-73165082D01*
X93732470Y-73627180D01*
X94143139Y-73901580D01*
X94087709Y-73917941D01*
X93662020Y-74261974D01*
X93400390Y-74742723D01*
X93385430Y-74816930D01*
X93507930Y-75033000D01*
X94949200Y-75033000D01*
X94949200Y-75013000D01*
X95203200Y-75013000D01*
X95203200Y-75033000D01*
X96644470Y-75033000D01*
X96766970Y-74816930D01*
X96752010Y-74742723D01*
X96490380Y-74261974D01*
X96064691Y-73917941D01*
X96009261Y-73901580D01*
X96419930Y-73627180D01*
X96728694Y-73165082D01*
X96837118Y-72620000D01*
X96820182Y-72534857D01*
X98989289Y-70365750D01*
X117665000Y-70365750D01*
X117665000Y-70506310D01*
X117761673Y-70739699D01*
X117940302Y-70918327D01*
X118173691Y-71015000D01*
X119014250Y-71015000D01*
X119173000Y-70856250D01*
X119173000Y-70207000D01*
X117823750Y-70207000D01*
X117665000Y-70365750D01*
X98989289Y-70365750D01*
X99610040Y-69745000D01*
X117665000Y-69745000D01*
X117665000Y-69794250D01*
X117823750Y-69953000D01*
X119173000Y-69953000D01*
X119173000Y-69933000D01*
X119427000Y-69933000D01*
X119427000Y-69953000D01*
X119447000Y-69953000D01*
X119447000Y-70207000D01*
X119427000Y-70207000D01*
X119427000Y-70856250D01*
X119585750Y-71015000D01*
X119889902Y-71015000D01*
X119889902Y-71942974D01*
X118099510Y-73733368D01*
X118033965Y-73777164D01*
X117860464Y-74036826D01*
X117814918Y-74265802D01*
X117814918Y-74265805D01*
X117799540Y-74343117D01*
X117814918Y-74420429D01*
X117814919Y-79613669D01*
X117766250Y-79565000D01*
X117698690Y-79565000D01*
X117465301Y-79661673D01*
X117286673Y-79840302D01*
X117190000Y-80073691D01*
X117190000Y-80464250D01*
X117348750Y-80623000D01*
X117827560Y-80623000D01*
X117827560Y-80877000D01*
X117348750Y-80877000D01*
X117190000Y-81035750D01*
X117190000Y-81405000D01*
X116058182Y-81405000D01*
X116146193Y-81346193D01*
X116374948Y-81003837D01*
X116455276Y-80600000D01*
X116374948Y-80196163D01*
X116146193Y-79853807D01*
X115803837Y-79625052D01*
X115501935Y-79565000D01*
X111406459Y-79565000D01*
X111357809Y-79492191D01*
X111147765Y-79351843D01*
X110900000Y-79302560D01*
X109400000Y-79302560D01*
X109152235Y-79351843D01*
X108942191Y-79492191D01*
X108801843Y-79702235D01*
X108800000Y-79711500D01*
X108798157Y-79702235D01*
X108657809Y-79492191D01*
X108447765Y-79351843D01*
X108200000Y-79302560D01*
X106700000Y-79302560D01*
X106452235Y-79351843D01*
X106242191Y-79492191D01*
X106193541Y-79565000D01*
X96768134Y-79565000D01*
X96666200Y-79544724D01*
X96564265Y-79565000D01*
X96262363Y-79625052D01*
X95920007Y-79853807D01*
X95862265Y-79940224D01*
X95021930Y-80780560D01*
X93977650Y-80780560D01*
X93729885Y-80829843D01*
X93519841Y-80970191D01*
X93379493Y-81180235D01*
X93330210Y-81428000D01*
X93330210Y-82952000D01*
X93379493Y-83199765D01*
X93519841Y-83409809D01*
X93729885Y-83550157D01*
X93931007Y-83590162D01*
X93732470Y-83722820D01*
X93423706Y-84184918D01*
X93315282Y-84730000D01*
X93423706Y-85275082D01*
X93732470Y-85737180D01*
X94143139Y-86011580D01*
X94087709Y-86027941D01*
X93662020Y-86371974D01*
X93400390Y-86852723D01*
X93385430Y-86926930D01*
X93507930Y-87143000D01*
X94949200Y-87143000D01*
X94949200Y-87123000D01*
X95203200Y-87123000D01*
X95203200Y-87143000D01*
X96644470Y-87143000D01*
X96766970Y-86926930D01*
X96752010Y-86852723D01*
X96490380Y-86371974D01*
X96064691Y-86027941D01*
X96009261Y-86011580D01*
X96419930Y-85737180D01*
X96488204Y-85635000D01*
X106193541Y-85635000D01*
X106242191Y-85707809D01*
X106452235Y-85848157D01*
X106700000Y-85897440D01*
X108200000Y-85897440D01*
X108447765Y-85848157D01*
X108657809Y-85707809D01*
X108798157Y-85497765D01*
X108800000Y-85488500D01*
X108801843Y-85497765D01*
X108942191Y-85707809D01*
X109152235Y-85848157D01*
X109400000Y-85897440D01*
X110900000Y-85897440D01*
X111147765Y-85848157D01*
X111357809Y-85707809D01*
X111406459Y-85635000D01*
X112771290Y-85635000D01*
X114365000Y-87228711D01*
X114365001Y-88765000D01*
X111406459Y-88765000D01*
X111357809Y-88692191D01*
X111147765Y-88551843D01*
X110900000Y-88502560D01*
X109400000Y-88502560D01*
X109152235Y-88551843D01*
X108942191Y-88692191D01*
X108801843Y-88902235D01*
X108800000Y-88911500D01*
X108798157Y-88902235D01*
X108657809Y-88692191D01*
X108447765Y-88551843D01*
X108200000Y-88502560D01*
X106700000Y-88502560D01*
X106452235Y-88551843D01*
X106242191Y-88692191D01*
X106193541Y-88765000D01*
X96363328Y-88765000D01*
X96009261Y-88528420D01*
X96064691Y-88512059D01*
X96490380Y-88168026D01*
X96752010Y-87687277D01*
X96766970Y-87613070D01*
X96644470Y-87397000D01*
X95203200Y-87397000D01*
X95203200Y-87417000D01*
X94949200Y-87417000D01*
X94949200Y-87397000D01*
X93507930Y-87397000D01*
X93385430Y-87613070D01*
X93400390Y-87687277D01*
X93662020Y-88168026D01*
X94087709Y-88512059D01*
X94143139Y-88528420D01*
X93732470Y-88802820D01*
X93423706Y-89264918D01*
X93315282Y-89810000D01*
X93423706Y-90355082D01*
X93732470Y-90817180D01*
X94194568Y-91125944D01*
X94602062Y-91207000D01*
X95003802Y-91207000D01*
X95266200Y-91259194D01*
X95528598Y-91207000D01*
X95550338Y-91207000D01*
X95957832Y-91125944D01*
X96393260Y-90835000D01*
X106193541Y-90835000D01*
X106242191Y-90907809D01*
X106452235Y-91048157D01*
X106700000Y-91097440D01*
X108200000Y-91097440D01*
X108447765Y-91048157D01*
X108657809Y-90907809D01*
X108798157Y-90697765D01*
X108800000Y-90688500D01*
X108801843Y-90697765D01*
X108942191Y-90907809D01*
X109152235Y-91048157D01*
X109400000Y-91097440D01*
X110900000Y-91097440D01*
X111147765Y-91048157D01*
X111357809Y-90907809D01*
X111406459Y-90835000D01*
X115298066Y-90835000D01*
X115400000Y-90855276D01*
X115753564Y-90784948D01*
X115803837Y-90774948D01*
X116146193Y-90546193D01*
X116374948Y-90203837D01*
X116374948Y-90203836D01*
X116435000Y-89901935D01*
X116455276Y-89800000D01*
X116435000Y-89698065D01*
X116435000Y-86901934D01*
X116455276Y-86800000D01*
X116374948Y-86396163D01*
X116306490Y-86293708D01*
X116146193Y-86053807D01*
X116059776Y-85996065D01*
X114003937Y-83940227D01*
X113946193Y-83853807D01*
X113843216Y-83785000D01*
X117862710Y-83785000D01*
X117870365Y-83792655D01*
X118214017Y-83935000D01*
X118585983Y-83935000D01*
X118800000Y-83846351D01*
X119014017Y-83935000D01*
X119385983Y-83935000D01*
X119600017Y-83846344D01*
X119814027Y-83934990D01*
X120185993Y-83934990D01*
X120529645Y-83792645D01*
X120625066Y-83697225D01*
X122194157Y-85266316D01*
X122125000Y-85252560D01*
X121725000Y-85252560D01*
X121600000Y-85277424D01*
X121475000Y-85252560D01*
X121075000Y-85252560D01*
X120950000Y-85277424D01*
X120825000Y-85252560D01*
X120425000Y-85252560D01*
X120300000Y-85277424D01*
X120175000Y-85252560D01*
X119775000Y-85252560D01*
X119650000Y-85277424D01*
X119525000Y-85252560D01*
X119125000Y-85252560D01*
X119000000Y-85277424D01*
X118875000Y-85252560D01*
X118475000Y-85252560D01*
X118350000Y-85277424D01*
X118225000Y-85252560D01*
X117825000Y-85252560D01*
X117577235Y-85301843D01*
X117367191Y-85442191D01*
X117226843Y-85652235D01*
X117177560Y-85900000D01*
X117177560Y-87000000D01*
X117226843Y-87247765D01*
X117240000Y-87267456D01*
X117240000Y-87377315D01*
X117240001Y-87377320D01*
X117240000Y-93147688D01*
X117224622Y-93225000D01*
X117240000Y-93302312D01*
X117240000Y-93302315D01*
X117278070Y-93493708D01*
X117285546Y-93531291D01*
X117402478Y-93706291D01*
X117459047Y-93790953D01*
X117524592Y-93834749D01*
X118615001Y-94925158D01*
X118615000Y-95972560D01*
X118300000Y-95972560D01*
X118237459Y-95985000D01*
X110307290Y-95985000D01*
X108566261Y-94243972D01*
X108514097Y-94165903D01*
X108204819Y-93959250D01*
X107932086Y-93905000D01*
X107840000Y-93886683D01*
X107747914Y-93905000D01*
X96787779Y-93905000D01*
X96772907Y-93830235D01*
X96632559Y-93620191D01*
X96422515Y-93479843D01*
X96174750Y-93430560D01*
X93977650Y-93430560D01*
X93729885Y-93479843D01*
X93519841Y-93620191D01*
X93379493Y-93830235D01*
X93330210Y-94078000D01*
X93330210Y-95602000D01*
X93379493Y-95849765D01*
X93519841Y-96059809D01*
X93729885Y-96200157D01*
X93931007Y-96240162D01*
X93732470Y-96372820D01*
X93423706Y-96834918D01*
X93315282Y-97380000D01*
X93423706Y-97925082D01*
X93732470Y-98387180D01*
X94125808Y-98650000D01*
X93732470Y-98912820D01*
X93423706Y-99374918D01*
X93315282Y-99920000D01*
X93423706Y-100465082D01*
X93732470Y-100927180D01*
X94125808Y-101190000D01*
X93732470Y-101452820D01*
X93423706Y-101914918D01*
X93315282Y-102460000D01*
X93423706Y-103005082D01*
X93732470Y-103467180D01*
X94125808Y-103730000D01*
X93732470Y-103992820D01*
X93423706Y-104454918D01*
X93315282Y-105000000D01*
X93423706Y-105545082D01*
X93732470Y-106007180D01*
X94125808Y-106270000D01*
X93732470Y-106532820D01*
X93423706Y-106994918D01*
X93315282Y-107540000D01*
X93423706Y-108085082D01*
X93732470Y-108547180D01*
X94125808Y-108810000D01*
X93732470Y-109072820D01*
X93423706Y-109534918D01*
X93315282Y-110080000D01*
X93423706Y-110625082D01*
X93732470Y-111087180D01*
X94125808Y-111350000D01*
X93732470Y-111612820D01*
X93423706Y-112074918D01*
X93315282Y-112620000D01*
X93423706Y-113165082D01*
X93732470Y-113627180D01*
X94143139Y-113901580D01*
X94087709Y-113917941D01*
X93662020Y-114261974D01*
X93400390Y-114742723D01*
X93385430Y-114816930D01*
X93507930Y-115033000D01*
X94949200Y-115033000D01*
X94949200Y-115013000D01*
X95203200Y-115013000D01*
X95203200Y-115033000D01*
X96644470Y-115033000D01*
X96766970Y-114816930D01*
X96752010Y-114742723D01*
X96490380Y-114261974D01*
X96064691Y-113917941D01*
X96009261Y-113901580D01*
X96419930Y-113627180D01*
X96468159Y-113555000D01*
X97287914Y-113555000D01*
X97380000Y-113573317D01*
X97472086Y-113555000D01*
X97744819Y-113500750D01*
X98054097Y-113294097D01*
X98106261Y-113216028D01*
X103956539Y-107365750D01*
X117665000Y-107365750D01*
X117665000Y-107506310D01*
X117761673Y-107739699D01*
X117940302Y-107918327D01*
X118173691Y-108015000D01*
X119014250Y-108015000D01*
X119173000Y-107856250D01*
X119173000Y-107207000D01*
X119427000Y-107207000D01*
X119427000Y-107856250D01*
X119585750Y-108015000D01*
X120426309Y-108015000D01*
X120659698Y-107918327D01*
X120838327Y-107739699D01*
X120935000Y-107506310D01*
X120935000Y-107365750D01*
X120776250Y-107207000D01*
X119427000Y-107207000D01*
X119173000Y-107207000D01*
X117823750Y-107207000D01*
X117665000Y-107365750D01*
X103956539Y-107365750D01*
X104577290Y-106745000D01*
X117665000Y-106745000D01*
X117665000Y-106794250D01*
X117823750Y-106953000D01*
X119173000Y-106953000D01*
X119173000Y-106933000D01*
X119427000Y-106933000D01*
X119427000Y-106953000D01*
X120776250Y-106953000D01*
X120935000Y-106794250D01*
X120935000Y-106653690D01*
X120845232Y-106436972D01*
X120898157Y-106357765D01*
X120947440Y-106110000D01*
X120947440Y-105972717D01*
X125300411Y-101619747D01*
X125365953Y-101575953D01*
X125409747Y-101510411D01*
X125409749Y-101510409D01*
X125539454Y-101316292D01*
X125548662Y-101270001D01*
X125585000Y-101087316D01*
X125585000Y-101087313D01*
X125600378Y-101010001D01*
X125585000Y-100932689D01*
X125585000Y-96620000D01*
X127052560Y-96620000D01*
X127052560Y-97220000D01*
X127101843Y-97467765D01*
X127160132Y-97555000D01*
X127101843Y-97642235D01*
X127052560Y-97890000D01*
X127052560Y-98490000D01*
X127101843Y-98737765D01*
X127160132Y-98825000D01*
X127101843Y-98912235D01*
X127052560Y-99160000D01*
X127052560Y-99760000D01*
X127101843Y-100007765D01*
X127160132Y-100095000D01*
X127101843Y-100182235D01*
X127052560Y-100430000D01*
X127052560Y-101030000D01*
X127101843Y-101277765D01*
X127160132Y-101365000D01*
X127101843Y-101452235D01*
X127052560Y-101700000D01*
X127052560Y-102300000D01*
X127101843Y-102547765D01*
X127160132Y-102635000D01*
X127101843Y-102722235D01*
X127052560Y-102970000D01*
X127052560Y-103570000D01*
X127101843Y-103817765D01*
X127160132Y-103905000D01*
X127101843Y-103992235D01*
X127052560Y-104240000D01*
X127052560Y-104840000D01*
X127101843Y-105087765D01*
X127160132Y-105175000D01*
X127101843Y-105262235D01*
X127052560Y-105510000D01*
X127052560Y-106110000D01*
X127101843Y-106357765D01*
X127160132Y-106445000D01*
X127101843Y-106532235D01*
X127052560Y-106780000D01*
X127052560Y-107380000D01*
X127101843Y-107627765D01*
X127242191Y-107837809D01*
X127452235Y-107978157D01*
X127700000Y-108027440D01*
X129700000Y-108027440D01*
X129762541Y-108015000D01*
X133692711Y-108015000D01*
X134381991Y-108704280D01*
X134339082Y-108920000D01*
X134385074Y-109151216D01*
X133540227Y-109996063D01*
X133453807Y-110053807D01*
X133277948Y-110317000D01*
X133225052Y-110396164D01*
X133144724Y-110800000D01*
X133165000Y-110901935D01*
X133165001Y-112751861D01*
X133144724Y-112853800D01*
X133225052Y-113257637D01*
X133453807Y-113599993D01*
X133796163Y-113828748D01*
X133882140Y-113845850D01*
X134903863Y-114867574D01*
X134792191Y-114942191D01*
X134651843Y-115152235D01*
X134602560Y-115400000D01*
X134602560Y-117100000D01*
X134651843Y-117347765D01*
X134792191Y-117557809D01*
X135002235Y-117698157D01*
X135047619Y-117707184D01*
X135029375Y-117719375D01*
X134701161Y-118210582D01*
X134585908Y-118790000D01*
X134701161Y-119369418D01*
X135029375Y-119860625D01*
X135520582Y-120188839D01*
X135953744Y-120275000D01*
X136246256Y-120275000D01*
X136679418Y-120188839D01*
X137170625Y-119860625D01*
X137498839Y-119369418D01*
X137614092Y-118790000D01*
X137498839Y-118210582D01*
X137170625Y-117719375D01*
X137152381Y-117707184D01*
X137197765Y-117698157D01*
X137407809Y-117557809D01*
X137548157Y-117347765D01*
X137597440Y-117100000D01*
X137597440Y-115400000D01*
X137548157Y-115152235D01*
X137407809Y-114942191D01*
X137197765Y-114801843D01*
X137135000Y-114789358D01*
X137135000Y-114701934D01*
X137155276Y-114600000D01*
X137074948Y-114196163D01*
X136903934Y-113940223D01*
X136846193Y-113853807D01*
X136759776Y-113796065D01*
X135820710Y-112857000D01*
X135973000Y-112857000D01*
X135973000Y-111587000D01*
X136227000Y-111587000D01*
X136227000Y-112857000D01*
X136563550Y-112857000D01*
X137088491Y-112702059D01*
X137514180Y-112358026D01*
X137775810Y-111877277D01*
X137790770Y-111803070D01*
X137668270Y-111587000D01*
X136227000Y-111587000D01*
X135973000Y-111587000D01*
X135953000Y-111587000D01*
X135953000Y-111333000D01*
X135973000Y-111333000D01*
X135973000Y-111313000D01*
X136227000Y-111313000D01*
X136227000Y-111333000D01*
X137668270Y-111333000D01*
X137790770Y-111116930D01*
X137775810Y-111042723D01*
X137514180Y-110561974D01*
X137088491Y-110217941D01*
X137033061Y-110201580D01*
X137443730Y-109927180D01*
X137752494Y-109465082D01*
X137860918Y-108920000D01*
X137752494Y-108374918D01*
X137443730Y-107912820D01*
X137050392Y-107650000D01*
X137443730Y-107387180D01*
X137752494Y-106925082D01*
X137860918Y-106380000D01*
X137752494Y-105834918D01*
X137443730Y-105372820D01*
X137050392Y-105110000D01*
X137443730Y-104847180D01*
X137752494Y-104385082D01*
X137860918Y-103840000D01*
X137752494Y-103294918D01*
X137443730Y-102832820D01*
X137050392Y-102570000D01*
X137443730Y-102307180D01*
X137752494Y-101845082D01*
X137860918Y-101300000D01*
X137752494Y-100754918D01*
X137443730Y-100292820D01*
X137050392Y-100030000D01*
X137443730Y-99767180D01*
X137752494Y-99305082D01*
X137860918Y-98760000D01*
X137752494Y-98214918D01*
X137443730Y-97752820D01*
X137050392Y-97490000D01*
X137443730Y-97227180D01*
X137752494Y-96765082D01*
X137860918Y-96220000D01*
X137752494Y-95674918D01*
X137443730Y-95212820D01*
X137050392Y-94950000D01*
X137443730Y-94687180D01*
X137634744Y-94401307D01*
X137750297Y-94324097D01*
X137956950Y-94014819D01*
X138029517Y-93650000D01*
X137956950Y-93285181D01*
X137750297Y-92975903D01*
X137562318Y-92850299D01*
X137443730Y-92672820D01*
X137050392Y-92410000D01*
X137443730Y-92147180D01*
X137752494Y-91685082D01*
X137860918Y-91140000D01*
X137752494Y-90594918D01*
X137443730Y-90132820D01*
X137245193Y-90000162D01*
X137446315Y-89960157D01*
X137656359Y-89819809D01*
X137796707Y-89609765D01*
X137845990Y-89362000D01*
X137845990Y-87838000D01*
X137796707Y-87590235D01*
X137656359Y-87380191D01*
X137446315Y-87239843D01*
X137198550Y-87190560D01*
X135001450Y-87190560D01*
X134753685Y-87239843D01*
X134543641Y-87380191D01*
X134403293Y-87590235D01*
X134388421Y-87665000D01*
X132672905Y-87665000D01*
X132430000Y-87616683D01*
X132065181Y-87689250D01*
X131833970Y-87843741D01*
X131833968Y-87843743D01*
X131755904Y-87895904D01*
X131703743Y-87973968D01*
X128103972Y-91573739D01*
X128025903Y-91625903D01*
X127900157Y-91814096D01*
X127819250Y-91935182D01*
X127746683Y-92300000D01*
X127765000Y-92392086D01*
X127765001Y-95972560D01*
X127700000Y-95972560D01*
X127452235Y-96021843D01*
X127242191Y-96162191D01*
X127101843Y-96372235D01*
X127052560Y-96620000D01*
X125585000Y-96620000D01*
X125585000Y-93477310D01*
X125600378Y-93399999D01*
X125585000Y-93322688D01*
X125585000Y-93322684D01*
X125539454Y-93093708D01*
X125419680Y-92914454D01*
X125409749Y-92899591D01*
X125409747Y-92899589D01*
X125365953Y-92834047D01*
X125300411Y-92790253D01*
X123360000Y-90849843D01*
X123360000Y-88545157D01*
X123915251Y-89100408D01*
X123959047Y-89165953D01*
X124218708Y-89339454D01*
X124447684Y-89385000D01*
X124447688Y-89385000D01*
X124525000Y-89400378D01*
X124602312Y-89385000D01*
X129722688Y-89385000D01*
X129800000Y-89400378D01*
X129877312Y-89385000D01*
X129877316Y-89385000D01*
X130106292Y-89339454D01*
X130365953Y-89165953D01*
X130409749Y-89100408D01*
X131100411Y-88409747D01*
X131165953Y-88365953D01*
X131209747Y-88300411D01*
X131209749Y-88300409D01*
X131339454Y-88106292D01*
X131359807Y-88003970D01*
X131385000Y-87877316D01*
X131385000Y-87877312D01*
X131388633Y-87859046D01*
X131670625Y-87670625D01*
X131998839Y-87179418D01*
X132114092Y-86600000D01*
X131998839Y-86020582D01*
X131670625Y-85529375D01*
X131372239Y-85330000D01*
X131670625Y-85130625D01*
X131998839Y-84639418D01*
X132114092Y-84060000D01*
X131998839Y-83480582D01*
X131670625Y-82989375D01*
X131372239Y-82790000D01*
X131670625Y-82590625D01*
X131749817Y-82472106D01*
X132881619Y-83603909D01*
X132852560Y-83750000D01*
X132852560Y-85050000D01*
X132901843Y-85297765D01*
X133042191Y-85507809D01*
X133252235Y-85648157D01*
X133500000Y-85697440D01*
X135000000Y-85697440D01*
X135247765Y-85648157D01*
X135457809Y-85507809D01*
X135598157Y-85297765D01*
X135603721Y-85269791D01*
X135661673Y-85409699D01*
X135840302Y-85588327D01*
X136073691Y-85685000D01*
X136664250Y-85685000D01*
X136823000Y-85526250D01*
X136823000Y-84527000D01*
X137077000Y-84527000D01*
X137077000Y-85526250D01*
X137235750Y-85685000D01*
X137826309Y-85685000D01*
X138059698Y-85588327D01*
X138238327Y-85409699D01*
X138335000Y-85176310D01*
X138335000Y-84685750D01*
X138176250Y-84527000D01*
X137077000Y-84527000D01*
X136823000Y-84527000D01*
X136803000Y-84527000D01*
X136803000Y-84273000D01*
X136823000Y-84273000D01*
X136823000Y-83273750D01*
X137077000Y-83273750D01*
X137077000Y-84273000D01*
X138176250Y-84273000D01*
X138335000Y-84114250D01*
X138335000Y-83623690D01*
X138238327Y-83390301D01*
X138059698Y-83211673D01*
X137826309Y-83115000D01*
X137235750Y-83115000D01*
X137077000Y-83273750D01*
X136823000Y-83273750D01*
X136664250Y-83115000D01*
X136073691Y-83115000D01*
X135840302Y-83211673D01*
X135661673Y-83390301D01*
X135603721Y-83530209D01*
X135598157Y-83502235D01*
X135457809Y-83292191D01*
X135247765Y-83151843D01*
X135010064Y-83104562D01*
X134924097Y-82975903D01*
X134846031Y-82923741D01*
X133695360Y-81773070D01*
X134309230Y-81773070D01*
X134324190Y-81847277D01*
X134585820Y-82328026D01*
X135011509Y-82672059D01*
X135536450Y-82827000D01*
X135873000Y-82827000D01*
X135873000Y-81557000D01*
X136127000Y-81557000D01*
X136127000Y-82827000D01*
X136463550Y-82827000D01*
X136988491Y-82672059D01*
X137414180Y-82328026D01*
X137675810Y-81847277D01*
X137690770Y-81773070D01*
X137568270Y-81557000D01*
X136127000Y-81557000D01*
X135873000Y-81557000D01*
X134431730Y-81557000D01*
X134309230Y-81773070D01*
X133695360Y-81773070D01*
X132846261Y-80923972D01*
X132794097Y-80845903D01*
X132484819Y-80639250D01*
X132212086Y-80585000D01*
X132120000Y-80566683D01*
X132027914Y-80585000D01*
X131761247Y-80585000D01*
X131670625Y-80449375D01*
X131385000Y-80258526D01*
X131385000Y-79877310D01*
X131400378Y-79799999D01*
X131385000Y-79722688D01*
X131385000Y-79722684D01*
X131339454Y-79493708D01*
X131252948Y-79364244D01*
X131209749Y-79299591D01*
X131209747Y-79299589D01*
X131165953Y-79234047D01*
X131100411Y-79190253D01*
X130185000Y-78274843D01*
X130185000Y-76477312D01*
X130200378Y-76400000D01*
X130185000Y-76322688D01*
X130185000Y-76322684D01*
X130139454Y-76093708D01*
X129965953Y-75834047D01*
X129900408Y-75790251D01*
X128409749Y-74299592D01*
X128365953Y-74234047D01*
X128106292Y-74060546D01*
X127877316Y-74015000D01*
X127877312Y-74015000D01*
X127800000Y-73999622D01*
X127722688Y-74015000D01*
X124916260Y-74015000D01*
X124959978Y-73795216D01*
X124959978Y-73795212D01*
X124975356Y-73717900D01*
X124959978Y-73640588D01*
X124959978Y-64172290D01*
X124975356Y-64094978D01*
X124959978Y-64017666D01*
X124959978Y-64017662D01*
X124914432Y-63788686D01*
X124740931Y-63529025D01*
X124675386Y-63485229D01*
X120947440Y-59757283D01*
X120947440Y-59620000D01*
X127052560Y-59620000D01*
X127052560Y-60220000D01*
X127101843Y-60467765D01*
X127160132Y-60555000D01*
X127101843Y-60642235D01*
X127052560Y-60890000D01*
X127052560Y-61490000D01*
X127101843Y-61737765D01*
X127160132Y-61825000D01*
X127101843Y-61912235D01*
X127052560Y-62160000D01*
X127052560Y-62760000D01*
X127101843Y-63007765D01*
X127160132Y-63095000D01*
X127101843Y-63182235D01*
X127052560Y-63430000D01*
X127052560Y-64030000D01*
X127101843Y-64277765D01*
X127160132Y-64365000D01*
X127101843Y-64452235D01*
X127052560Y-64700000D01*
X127052560Y-65300000D01*
X127101843Y-65547765D01*
X127160132Y-65635000D01*
X127101843Y-65722235D01*
X127052560Y-65970000D01*
X127052560Y-66570000D01*
X127101843Y-66817765D01*
X127160132Y-66905000D01*
X127101843Y-66992235D01*
X127052560Y-67240000D01*
X127052560Y-67840000D01*
X127101843Y-68087765D01*
X127160132Y-68175000D01*
X127101843Y-68262235D01*
X127052560Y-68510000D01*
X127052560Y-69110000D01*
X127101843Y-69357765D01*
X127160132Y-69445000D01*
X127101843Y-69532235D01*
X127052560Y-69780000D01*
X127052560Y-70380000D01*
X127101843Y-70627765D01*
X127242191Y-70837809D01*
X127452235Y-70978157D01*
X127700000Y-71027440D01*
X129700000Y-71027440D01*
X129704296Y-71026585D01*
X131065000Y-72387290D01*
X131065001Y-74907910D01*
X131046683Y-75000000D01*
X131119250Y-75364818D01*
X131259153Y-75574197D01*
X131325904Y-75674097D01*
X131403970Y-75726259D01*
X134293605Y-78615895D01*
X134239082Y-78890000D01*
X134347506Y-79435082D01*
X134656270Y-79897180D01*
X135066939Y-80171580D01*
X135011509Y-80187941D01*
X134585820Y-80531974D01*
X134324190Y-81012723D01*
X134309230Y-81086930D01*
X134431730Y-81303000D01*
X135873000Y-81303000D01*
X135873000Y-81283000D01*
X136127000Y-81283000D01*
X136127000Y-81303000D01*
X137568270Y-81303000D01*
X137690770Y-81086930D01*
X137675810Y-81012723D01*
X137414180Y-80531974D01*
X136988491Y-80187941D01*
X136933061Y-80171580D01*
X137343730Y-79897180D01*
X137652494Y-79435082D01*
X137760918Y-78890000D01*
X137652494Y-78344918D01*
X137343730Y-77882820D01*
X136950392Y-77620000D01*
X137343730Y-77357180D01*
X137652494Y-76895082D01*
X137760918Y-76350000D01*
X137652494Y-75804918D01*
X137343730Y-75342820D01*
X136950392Y-75080000D01*
X137343730Y-74817180D01*
X137652494Y-74355082D01*
X137760918Y-73810000D01*
X137652494Y-73264918D01*
X137343730Y-72802820D01*
X136950392Y-72540000D01*
X137343730Y-72277180D01*
X137652494Y-71815082D01*
X137760918Y-71270000D01*
X137652494Y-70724918D01*
X137343730Y-70262820D01*
X136950392Y-70000000D01*
X137343730Y-69737180D01*
X137652494Y-69275082D01*
X137760918Y-68730000D01*
X137652494Y-68184918D01*
X137343730Y-67722820D01*
X136950392Y-67460000D01*
X137343730Y-67197180D01*
X137652494Y-66735082D01*
X137760918Y-66190000D01*
X137652494Y-65644918D01*
X137343730Y-65182820D01*
X136950392Y-64920000D01*
X137343730Y-64657180D01*
X137652494Y-64195082D01*
X137760918Y-63650000D01*
X137652494Y-63104918D01*
X137343730Y-62642820D01*
X136950392Y-62380000D01*
X137343730Y-62117180D01*
X137652494Y-61655082D01*
X137760918Y-61110000D01*
X137652494Y-60564918D01*
X137343730Y-60102820D01*
X137145193Y-59970162D01*
X137346315Y-59930157D01*
X137556359Y-59789809D01*
X137696707Y-59579765D01*
X137745990Y-59332000D01*
X137745990Y-57808000D01*
X137696707Y-57560235D01*
X137556359Y-57350191D01*
X137346315Y-57209843D01*
X137098550Y-57160560D01*
X134901450Y-57160560D01*
X134653685Y-57209843D01*
X134443641Y-57350191D01*
X134303293Y-57560235D01*
X134288421Y-57635000D01*
X133522081Y-57635000D01*
X133429999Y-57616684D01*
X133337917Y-57635000D01*
X133337914Y-57635000D01*
X133065181Y-57689250D01*
X132755903Y-57895903D01*
X132703741Y-57973969D01*
X131692711Y-58985000D01*
X129762541Y-58985000D01*
X129700000Y-58972560D01*
X127700000Y-58972560D01*
X127452235Y-59021843D01*
X127242191Y-59162191D01*
X127101843Y-59372235D01*
X127052560Y-59620000D01*
X120947440Y-59620000D01*
X120898157Y-59372235D01*
X120757809Y-59162191D01*
X120547765Y-59021843D01*
X120300000Y-58972560D01*
X118300000Y-58972560D01*
X118237459Y-58985000D01*
X103307290Y-58985000D01*
X98566261Y-54243972D01*
X98514097Y-54165903D01*
X98204819Y-53959250D01*
X97932086Y-53905000D01*
X97840000Y-53886683D01*
X97747914Y-53905000D01*
X96787779Y-53905000D01*
X96772907Y-53830235D01*
X96632559Y-53620191D01*
X96422515Y-53479843D01*
X96174750Y-53430560D01*
X93977650Y-53430560D01*
X93729885Y-53479843D01*
X93519841Y-53620191D01*
X93379493Y-53830235D01*
X93330210Y-54078000D01*
X93330210Y-55602000D01*
X93379493Y-55849765D01*
X93519841Y-56059809D01*
X93729885Y-56200157D01*
X93931007Y-56240162D01*
X93732470Y-56372820D01*
X93423706Y-56834918D01*
X93315282Y-57380000D01*
X90710000Y-57380000D01*
X90710000Y-51270000D01*
X93315282Y-51270000D01*
X93423706Y-51815082D01*
X93732470Y-52277180D01*
X94194568Y-52585944D01*
X94602062Y-52667000D01*
X95550338Y-52667000D01*
X95957832Y-52585944D01*
X96078973Y-52505000D01*
X98846700Y-52505000D01*
X98972191Y-52692809D01*
X99182235Y-52833157D01*
X99430000Y-52882440D01*
X100700000Y-52882440D01*
X100947765Y-52833157D01*
X101157809Y-52692809D01*
X101298157Y-52482765D01*
X101347440Y-52235000D01*
X101347440Y-51270000D01*
X102624724Y-51270000D01*
X102652560Y-51409941D01*
X102652560Y-52235000D01*
X102701843Y-52482765D01*
X102842191Y-52692809D01*
X103052235Y-52833157D01*
X103300000Y-52882440D01*
X103570887Y-52882440D01*
X104675715Y-53987269D01*
X104744615Y-54090385D01*
X104847731Y-54159285D01*
X104847732Y-54159286D01*
X104857637Y-54165904D01*
X105153127Y-54363344D01*
X105513364Y-54435000D01*
X105513367Y-54435000D01*
X105634999Y-54459194D01*
X105756631Y-54435000D01*
X135394981Y-54435000D01*
X135679375Y-54860625D01*
X136170582Y-55188839D01*
X136603744Y-55275000D01*
X136896256Y-55275000D01*
X137329418Y-55188839D01*
X137820625Y-54860625D01*
X138148839Y-54369418D01*
X138264092Y-53790000D01*
X138148839Y-53210582D01*
X137820625Y-52719375D01*
X137802381Y-52707184D01*
X137847765Y-52698157D01*
X138057809Y-52557809D01*
X138198157Y-52347765D01*
X138247440Y-52100000D01*
X138247440Y-50400000D01*
X138198157Y-50152235D01*
X138057809Y-49942191D01*
X137847765Y-49801843D01*
X137600000Y-49752560D01*
X135900000Y-49752560D01*
X135652235Y-49801843D01*
X135442191Y-49942191D01*
X135301843Y-50152235D01*
X135252560Y-50400000D01*
X135252560Y-51965000D01*
X106146554Y-51965000D01*
X105217440Y-51035887D01*
X105217440Y-50765000D01*
X105168157Y-50517235D01*
X105027809Y-50307191D01*
X104817765Y-50166843D01*
X104570000Y-50117560D01*
X103300000Y-50117560D01*
X103052235Y-50166843D01*
X102842191Y-50307191D01*
X102701843Y-50517235D01*
X102652560Y-50765000D01*
X102652560Y-51130059D01*
X102624724Y-51270000D01*
X101347440Y-51270000D01*
X101347440Y-50765000D01*
X101298157Y-50517235D01*
X101157809Y-50307191D01*
X100947765Y-50166843D01*
X100700000Y-50117560D01*
X100333192Y-50117560D01*
X100316873Y-50106656D01*
X99956636Y-50035000D01*
X99956632Y-50035000D01*
X99835000Y-50010806D01*
X99713368Y-50035000D01*
X96523167Y-50035000D01*
X96534449Y-50030327D01*
X96713077Y-49851698D01*
X96809750Y-49618309D01*
X96809750Y-49015750D01*
X96651000Y-48857000D01*
X95203200Y-48857000D01*
X95203200Y-48877000D01*
X94949200Y-48877000D01*
X94949200Y-48857000D01*
X93501400Y-48857000D01*
X93342650Y-49015750D01*
X93342650Y-49618309D01*
X93439323Y-49851698D01*
X93617951Y-50030327D01*
X93851340Y-50127000D01*
X93935739Y-50127000D01*
X93732470Y-50262820D01*
X93423706Y-50724918D01*
X93315282Y-51270000D01*
X90710000Y-51270000D01*
X90710000Y-47841691D01*
X93342650Y-47841691D01*
X93342650Y-48444250D01*
X93501400Y-48603000D01*
X94949200Y-48603000D01*
X94949200Y-47491750D01*
X95203200Y-47491750D01*
X95203200Y-48603000D01*
X96651000Y-48603000D01*
X96809750Y-48444250D01*
X96809750Y-47841691D01*
X96713077Y-47608302D01*
X96534449Y-47429673D01*
X96301060Y-47333000D01*
X95361950Y-47333000D01*
X95203200Y-47491750D01*
X94949200Y-47491750D01*
X94790450Y-47333000D01*
X93851340Y-47333000D01*
X93617951Y-47429673D01*
X93439323Y-47608302D01*
X93342650Y-47841691D01*
X90710000Y-47841691D01*
X90710000Y-42416266D01*
X92763339Y-42416266D01*
X93075487Y-42864932D01*
X94318343Y-43383331D01*
X95664976Y-43386648D01*
X96910371Y-42874380D01*
X96924513Y-42864932D01*
X97236661Y-42416266D01*
X132763339Y-42416266D01*
X133075487Y-42864932D01*
X134318343Y-43383331D01*
X135664976Y-43386648D01*
X136910371Y-42874380D01*
X136924513Y-42864932D01*
X137236661Y-42416266D01*
X135000000Y-40179605D01*
X132763339Y-42416266D01*
X97236661Y-42416266D01*
X95000000Y-40179605D01*
X92763339Y-42416266D01*
X90710000Y-42416266D01*
X90710000Y-40664976D01*
X91613352Y-40664976D01*
X92125620Y-41910371D01*
X92135068Y-41924513D01*
X92583734Y-42236661D01*
X94820395Y-40000000D01*
X95179605Y-40000000D01*
X97416266Y-42236661D01*
X97864932Y-41924513D01*
X98383331Y-40681657D01*
X98383372Y-40664976D01*
X131613352Y-40664976D01*
X132125620Y-41910371D01*
X132135068Y-41924513D01*
X132583734Y-42236661D01*
X134820395Y-40000000D01*
X135179605Y-40000000D01*
X137416266Y-42236661D01*
X137864932Y-41924513D01*
X138383331Y-40681657D01*
X138386648Y-39335024D01*
X137874380Y-38089629D01*
X137864932Y-38075487D01*
X137416266Y-37763339D01*
X135179605Y-40000000D01*
X134820395Y-40000000D01*
X132583734Y-37763339D01*
X132135068Y-38075487D01*
X131616669Y-39318343D01*
X131613352Y-40664976D01*
X98383372Y-40664976D01*
X98386648Y-39335024D01*
X97874380Y-38089629D01*
X97864932Y-38075487D01*
X97416266Y-37763339D01*
X95179605Y-40000000D01*
X94820395Y-40000000D01*
X92583734Y-37763339D01*
X92135068Y-38075487D01*
X91616669Y-39318343D01*
X91613352Y-40664976D01*
X90710000Y-40664976D01*
X90710000Y-37583734D01*
X92763339Y-37583734D01*
X95000000Y-39820395D01*
X97236661Y-37583734D01*
X132763339Y-37583734D01*
X135000000Y-39820395D01*
X137236661Y-37583734D01*
X136924513Y-37135068D01*
X135681657Y-36616669D01*
X134335024Y-36613352D01*
X133089629Y-37125620D01*
X133075487Y-37135068D01*
X132763339Y-37583734D01*
X97236661Y-37583734D01*
X96924513Y-37135068D01*
X95681657Y-36616669D01*
X94335024Y-36613352D01*
X93089629Y-37125620D01*
X93075487Y-37135068D01*
X92763339Y-37583734D01*
X90710000Y-37583734D01*
X90710000Y-35710000D01*
X139290000Y-35710000D01*
X139290001Y-134290000D01*
G04 #@! TD*
M02*
